<?xml version="1.0" encoding="UTF-8"?>
<svg id="Layer_1" data-name="Layer 1" xmlns="http://www.w3.org/2000/svg" version="1.1" viewBox="0 0 705 1080">
  <defs>
    <style>
      .cls-1 {
        stroke: #e5eceb;
      }

      .cls-1, .cls-2, .cls-3, .cls-4, .cls-5, .cls-6 {
        stroke-miterlimit: 10;
      }

      .cls-1, .cls-2, .cls-4, .cls-5 {
        fill: none;
      }

      .cls-2, .cls-4, .cls-6 {
        stroke: #fff;
      }

      .cls-2, .cls-6 {
        stroke-dasharray: 0 0 0 0 0 0 0 0 0 0 0 0;
      }

      .cls-3 {
        stroke: #90fbfc;
      }

      .cls-3, .cls-7 {
        fill: #2d2f34;
      }

      .cls-8 {
        fill: #353e47;
      }

      .cls-8, .cls-9, .cls-10, .cls-7, .cls-11 {
        stroke-width: 0px;
      }

      .cls-9, .cls-6 {
        fill: #333e48;
      }

      .cls-10 {
        fill: #a2d342;
      }

      .cls-5 {
        stroke: #95d600;
      }

      .cls-11 {
        fill: #fff;
      }
    </style>
  </defs>
  <rect class="cls-7" width="705" height="1080"/>
  <g>
    <rect class="cls-9" x="60" y="285.4" width="615" height="480"/>
    <g>
      <polyline class="cls-4" points="675 762.9 675 765.4 672.5 765.4"/>
      <line class="cls-2" x1="669.5" y1="765.4" x2="64" y2="765.4"/>
      <polyline class="cls-4" points="62.5 765.4 60 765.4 60 762.9"/>
      <line class="cls-2" x1="60" y1="759.9" x2="60" y2="289.4"/>
      <polyline class="cls-4" points="60 287.9 60 285.4 62.5 285.4"/>
      <line class="cls-2" x1="65.5" y1="285.4" x2="671" y2="285.4"/>
      <polyline class="cls-4" points="672.5 285.4 675 285.4 675 287.9"/>
      <line class="cls-2" x1="675" y1="290.9" x2="675" y2="761.4"/>
    </g>
  </g>
  <rect class="cls-6" x="45" y="270.4" width="615" height="480"/>
  <rect class="cls-3" x="30" y="255.4" width="615" height="480"/>
  <rect class="cls-5" x="30" y="780.4" width="645" height="270"/>
  <rect class="cls-10" x="45" y="300.4" width="285" height="210"/>
  <g>
    <path class="cls-11" d="M587.8,282.6c0,0,.2,0,.3.1l.8.8c-.5.6-1.2,1.1-1.9,1.5-.8.3-1.7.5-2.7.5s-1.8-.2-2.5-.5c-.8-.3-1.4-.8-1.9-1.4s-1-1.3-1.2-2.1c-.3-.8-.4-1.7-.4-2.7s.2-1.9.5-2.7c.3-.8.7-1.5,1.3-2.1s1.2-1,2-1.4c.8-.3,1.6-.5,2.6-.5s1.7.1,2.5.5c.7.3,1.3.7,1.9,1.2l-.6.9s0,.1-.2.2-.2,0-.2,0c0,0-.2,0-.4-.2-.2-.1-.3-.2-.6-.4s-.6-.3-.9-.4c-.4-.1-.8-.2-1.4-.2s-1.2.1-1.8.3c-.5.2-1,.5-1.4,1s-.7.9-.9,1.6-.3,1.3-.3,2.1,0,1.5.3,2.1.5,1.1.9,1.6c.4.4.8.8,1.4,1s1.1.3,1.7.3h1c.3,0,.6-.1.8-.2.2,0,.5-.2.7-.4.2-.1.4-.3.7-.5h.2c0-.1,0-.1.2-.1h-.5Z"/>
    <path class="cls-11" d="M594.1,276.1c.7,0,1.3.1,1.8.3s1,.5,1.4,1,.7.9.9,1.5.3,1.2.3,2,0,1.4-.3,2-.5,1.1-.9,1.5-.8.7-1.4.9c-.5.2-1.2.3-1.8.3s-1.3-.1-1.8-.3c-.5-.2-1-.5-1.4-.9s-.7-.9-.9-1.5-.3-1.2-.3-2,0-1.4.3-2,.5-1.1.9-1.5.8-.7,1.4-1c.5-.2,1.2-.3,1.8-.3ZM594.1,284.1c.9,0,1.5-.3,1.9-.9s.6-1.4.6-2.5-.2-1.9-.6-2.5-1.1-.9-1.9-.9-1.5.3-2,.9c-.4.6-.6,1.4-.6,2.5s.2,1.9.6,2.5,1.1.9,2,.9Z"/>
    <path class="cls-11" d="M602.1,278c.3-.6.7-1.1,1.1-1.4s.9-.5,1.5-.5h.6c.2,0,.3.1.5.2v1.3c-.2.2-.3.2-.4.2h-.9c-.3,0-.5,0-.8.1s-.4.2-.6.4-.3.4-.5.6c0,.2-.2.5-.4.8v5.7h-1.8v-9.1h1c.2,0,.3,0,.4.1s0,.2.2.4v1.3h.1Z"/>
    <path class="cls-11" d="M614.2,284c-.2.2-.5.5-.8.6-.3.2-.6.3-.9.5-.3.1-.7.2-1,.2h-1c-.6,0-1.2-.1-1.8-.3s-1-.5-1.4-.9-.7-.9-.9-1.5-.3-1.3-.3-2.1,0-1.2.3-1.8.5-1,.8-1.4.8-.7,1.3-1c.5-.2,1.1-.4,1.8-.4s1.1,0,1.5.3.9.5,1.2.8c.3.4.6.8.8,1.3s.3,1.1.3,1.8,0,.5,0,.5c0,0-.2.1-.3.1h-6c0,.5,0,1,.2,1.4,0,.4.3.7.6,1,.2.3.5.5.9.6s.7.2,1.1.2.7,0,1-.1.5-.2.7-.3c.2-.1.4-.2.5-.3s.3-.1.4-.1.2,0,.3.2l.5.6h.2ZM612.8,279.8c0-.4,0-.7-.2-1s-.2-.5-.4-.8c-.2-.2-.4-.4-.7-.5s-.6-.2-1-.2c-.7,0-1.3.2-1.7.6s-.7,1-.8,1.8h4.8Z"/>
    <path class="cls-11" d="M628.8,284v1.3h-7v-1.3h2.7v-9.3l-2.2,1.9h-.2c0,.1-.2.1-.2.1h-.3c0-.1-.5-.9-.5-.9l3.9-3.3h1.4v11.6h2.5-.1Z"/>
  </g>
  <g>
    <path class="cls-11" d="M57.9,803.9c0,1-.2,1.8-.5,2.6s-.8,1.5-1.3,2-1.2,1-2,1.3-1.7.5-2.6.5h-4.9v-12.9h4.9c1,0,1.8.2,2.6.5s1.5.8,2,1.3c.6.6,1,1.2,1.3,2s.5,1.7.5,2.6h0ZM55.9,803.9c0-.8,0-1.5-.3-2.1s-.5-1.1-.9-1.5-.8-.8-1.4-1-1.2-.3-1.8-.3h-2.9v9.8h2.9c.7,0,1.3,0,1.8-.3s1-.5,1.4-1c.4-.4.7-.9.9-1.5s.3-1.3.3-2.1h0Z"/>
    <path class="cls-11" d="M67,799.5s0,.2-.2.2h-.2s-.2,0-.4-.2c0,0-.3-.2-.5-.3s-.4-.2-.7-.3c-.3,0-.6-.2-1-.2s-.7,0-1,.2c-.3,0-.5.2-.7.4s-.3.4-.4.6-.2.5-.2.8,0,.6.3.9c.2.2.4.4.7.6.3.2.6.3,1,.4.4,0,.7.2,1.1.4.4,0,.8.3,1.1.5.4.2.7.4,1,.6.3.3.5.6.7.9s.3.8.3,1.3,0,1.1-.3,1.6c-.2.5-.5.9-.8,1.3s-.8.7-1.4.9-1.2.3-1.8.3-.8,0-1.2,0-.8-.2-1.1-.3c-.3-.2-.7-.3-1-.5s-.6-.4-.8-.7l.5-.9s0,0,.2-.2.2,0,.3,0,.3,0,.4.2.4.3.6.4.5.3.9.4c.3,0,.8.2,1.2.2s.8,0,1.1-.2c.3,0,.6-.2.8-.5.2-.2.4-.4.5-.7s.2-.6.2-.9,0-.7-.3-.9c-.2-.2-.4-.4-.7-.6-.3-.2-.6-.3-1-.4-.4,0-.7-.2-1.1-.4-.4,0-.8-.3-1.1-.4-.4-.2-.7-.4-1-.6s-.5-.6-.7-1-.3-.9-.3-1.5,0-.9.3-1.3c.2-.4.4-.8.8-1.2.3-.3.8-.6,1.3-.8s1.1-.3,1.7-.3,1.4,0,2,.3,1.1.6,1.6,1l-.5.9h-.2Z"/>
    <path class="cls-11" d="M75.1,808.8c.5,0,1,0,1.4-.3.4-.2.8-.4,1-.7.3-.3.5-.7.7-1.1.2-.4.2-.9.2-1.4v-7.8h1.9v7.8c0,.8,0,1.5-.4,2.1-.2.6-.6,1.2-1,1.7s-1,.8-1.6,1.1-1.4.4-2.2.4-1.5,0-2.2-.4-1.2-.6-1.6-1.1-.8-1-1-1.7c-.2-.6-.4-1.3-.4-2.1v-7.8h1.9v7.8c0,.5,0,1,.2,1.5s.4.8.6,1.1c.3.3.6.6,1,.7s.9.3,1.4.3h0Z"/>
    <path class="cls-11" d="M82.8,804.2h4.5v1.5h-4.5v-1.5Z"/>
    <path class="cls-11" d="M97.7,809v1.3h-7v-1.3h2.7v-9.3l-2.2,1.9h-.2c0,0-.2,0-.2,0h-.3c0,0-.6-.9-.6-.9l3.9-3.3h1.4v11.6h2.5,0Z"/>
    <path class="cls-11" d="M107.8,808.7c.2,0,.3,0,.4.2s.2.3.2.4v1.1h-8.7v-1c0-.2,0-.3.2-.4l4.1-4.1c.3-.3.7-.7.9-1s.5-.6.7-1c.2-.3.3-.6.4-1s.2-.7.2-1,0-.7-.2-1-.3-.5-.5-.7-.4-.3-.7-.4-.6,0-.9,0-.6,0-.9,0-.5.2-.7.4-.4.3-.5.6c0,.2-.2.5-.3.7,0,.2-.2.4-.3.5s-.3,0-.6,0l-.9-.2c0-.6.2-1.1.5-1.6.2-.5.6-.8.9-1.2.4-.3.8-.5,1.3-.7s1-.2,1.6-.2,1.1,0,1.6.2.9.4,1.2.7.6.7.8,1.1.3,1,.3,1.5,0,.9-.2,1.3c0,.4-.3.8-.6,1.2-.2.4-.5.7-.8,1.1s-.7.7-1,1.1l-3.3,3.3c.2,0,.5,0,.8-.2h4.8l.2.3Z"/>
    <path class="cls-11" d="M119.2,803.9c0,1.1,0,2.1-.4,2.9-.2.8-.6,1.5-1,2.1-.4.5-.9,1-1.5,1.2s-1.2.4-1.8.4-1.3,0-1.8-.4c-.6-.3-1.1-.7-1.5-1.2s-.8-1.2-1-2.1-.4-1.8-.4-2.9,0-2.1.4-2.9.6-1.5,1-2.1.9-1,1.5-1.2,1.2-.4,1.8-.4,1.3,0,1.8.4c.6.3,1.1.7,1.5,1.2s.8,1.2,1,2.1.4,1.8.4,2.9ZM117.4,803.9c0-1,0-1.8-.2-2.4-.2-.7-.4-1.2-.6-1.6s-.6-.7-.9-.8-.7-.2-1.1-.2-.7,0-1.1.2-.7.5-.9.8c-.3.4-.5.9-.6,1.6-.2.7-.2,1.5-.2,2.4s0,1.8.2,2.4c.2.7.4,1.2.6,1.6.3.4.6.7.9.8s.7.2,1.1.2.7,0,1.1-.2.7-.5.9-.8c.3-.4.5-.9.6-1.6.2-.7.2-1.5.2-2.4Z"/>
  </g>
  <g>
    <path class="cls-11" d="M140.4,557c0-.6.3-1.1.5-1.6s.6-.8.9-1.2c.4-.3.8-.5,1.3-.7s1-.2,1.6-.2,1.1,0,1.5.2c.5.2.9.4,1.2.7s.6.6.8,1,.3.9.3,1.3,0,.8-.1,1.1-.2.6-.4.8-.4.4-.7.6-.6.3-.9.4c.8.2,1.4.6,1.9,1.1s.6,1.2.6,2-.1,1.2-.3,1.6-.5.9-.9,1.2-.9.6-1.4.8-1.1.3-1.7.3-1.3,0-1.8-.2-.9-.4-1.2-.7-.6-.7-.9-1.1-.4-.9-.6-1.4l.8-.3c.2,0,.4,0,.6,0s.3,0,.4.3c0,.2.2.4.3.6s.3.4.5.6.4.4.7.5.7.2,1.1.2.8,0,1.1-.2.6-.3.8-.5.4-.5.5-.8.2-.5.2-.8,0-.6-.1-.9-.2-.5-.5-.7c-.2-.2-.6-.4-1-.5s-1-.2-1.6-.2v-1.3c.6,0,1,0,1.4-.2.4,0,.7-.3.9-.5s.4-.4.5-.7.2-.6.2-.9,0-.7-.2-.9-.3-.5-.4-.7-.4-.3-.7-.4c-.3,0-.6,0-.9,0s-.6,0-.9,0-.5.2-.7.4-.4.3-.5.6c-.1.2-.2.5-.3.7,0,.2-.2.4-.3.5s-.3,0-.6,0l-.9-.2h0v.3Z"/>
    <path class="cls-11" d="M158.6,564.8c.2,0,.3,0,.4.2s.2.3.2.4v1.1h-8.7v-1c0-.2.1-.3.2-.4l4.1-4.1c.3-.3.6-.7.9-1s.5-.6.7-1c.2-.3.3-.6.4-1s.2-.7.2-1,0-.7-.2-1-.3-.5-.5-.7-.4-.3-.7-.4-.6,0-.9,0-.6,0-.9,0-.5.2-.7.4-.4.3-.5.6c-.1.2-.2.5-.3.7,0,.2-.2.4-.3.5s-.3,0-.6,0l-.9-.2c0-.6.2-1.1.5-1.6.2-.5.6-.8.9-1.2.4-.3.8-.5,1.3-.7s1-.2,1.6-.2,1.1,0,1.6.2.9.4,1.2.7.6.7.8,1.1c.2.5.3,1,.3,1.5s0,.9-.2,1.3c-.1.4-.3.8-.6,1.2-.2.4-.5.7-.9,1.1s-.7.7-1,1.1l-3.3,3.3c.2,0,.5,0,.8-.2h4.8l.3.3Z"/>
    <path class="cls-11" d="M163.7,559.1h1.2c.2,0,.3-.2.4-.3l4.1-4.8c.1-.2.3-.3.4-.3h2.1l-4.8,5.5c-.1.2-.2.3-.4.4s-.2.2-.4.2c.3,0,.6.3.9.7l5,6.1h-2.2s-.1,0-.2,0-.1,0-.1-.2l-4.3-5s-.1,0-.2-.2c0,0-.1,0-.2,0s-.2,0-.3,0h-1.2v5.9h-1.9v-12.9h1.9v5.6h0l.2-.5Z"/>
    <path class="cls-11" d="M178,553.5c.8,0,1.5,0,2.1.2s1.1.4,1.4.7.6.7.8,1.1c.2.4.3.9.3,1.4s0,.6-.1.9c-.1.3-.2.6-.4.8s-.4.5-.8.7-.6.4-1.1.5c1.9.4,2.8,1.3,2.8,2.9s-.1,1-.3,1.5-.5.8-.9,1.2-.9.6-1.4.8c-.6.2-1.2.3-1.9.3h-4.6v-12.9h4.2-.1ZM175.7,555v4.2h2.2c.9,0,1.6-.2,2.1-.6s.7-.9.7-1.5-.2-1.3-.7-1.6-1.1-.5-2-.5h-2.3ZM178.4,564.9c.5,0,.9,0,1.2-.2.3,0,.6-.3.9-.5.2-.2.4-.4.5-.7s.1-.6.1-.9c0-.6-.2-1.2-.7-1.5s-1.1-.5-2.1-.5h-2.7v4.3h2.8Z"/>
    <path class="cls-11" d="M186.2,566.6c0,.2-.2.4-.4.5s-.4.2-.6.2h-.7l5.4-13.5c0-.2.2-.4.4-.5s.3-.2.6-.2h.8l-5.3,13.4h-.2Z"/>
    <path class="cls-11" d="M196.5,558.3c-.1,0-.2.3-.3.4s-.2.2-.3.4c.3-.2.6-.3,1-.4s.7-.2,1.1-.2,1,0,1.5.2.9.4,1.2.7.6.7.8,1.2.3,1,.3,1.7-.1,1.2-.3,1.7-.5,1-.9,1.3-.9.7-1.4.9c-.6.2-1.1.3-1.8.3s-1.3,0-1.8-.3-1-.5-1.4-.9-.7-.9-.9-1.4-.3-1.2-.3-1.8.1-1.2.4-1.8.6-1.3,1.2-2l3.2-4.3c0,0,.2-.2.4-.3s.4,0,.6,0h1.6l-3.8,4.8h-.1ZM197.3,565.1c.4,0,.8,0,1.1-.2.3,0,.6-.3.9-.5s.4-.5.6-.8.2-.7.2-1,0-.8-.2-1.1-.3-.6-.5-.8-.5-.4-.8-.5-.7-.2-1.1-.2-.8,0-1.1.2-.6.3-.9.6c-.2.2-.4.5-.5.8s-.2.7-.2,1,0,.8.2,1.1.3.6.5.8.5.4.8.5.7.2,1.1.2h-.1Z"/>
    <path class="cls-11" d="M212.5,561.7v1s0,.2-.1.3-.2,0-.3,0h-1.5v3.3h-1.5v-3.3h-5.7c-.1,0-.2,0-.3,0,0,0-.1-.2-.2-.3l-.2-.9,6.2-8.3h1.7v8.2h1.9ZM209.1,561.7v-6.1l-4.5,6.2h4.5Z"/>
    <path class="cls-11" d="M216.5,559.1h1.2c.2,0,.3-.2.4-.3l4.1-4.8c.1-.2.3-.3.4-.3h2.1l-4.8,5.5c-.1.2-.2.3-.4.4s-.2.2-.4.2c.3,0,.6.3.9.7l5,6.1h-2.2s-.1,0-.2,0-.1,0-.1-.2l-4.3-5s-.1,0-.2-.2c0,0-.1,0-.2,0s-.2,0-.3,0h-1.2v5.9h-1.9v-12.9h1.9v5.6h0l.2-.5Z"/>
    <path class="cls-11" d="M230.8,553.5c.8,0,1.5,0,2.1.2s1.1.4,1.4.7.6.7.8,1.1c.2.4.3.9.3,1.4s0,.6-.1.9c-.1.3-.2.6-.4.8s-.4.5-.8.7-.6.4-1.1.5c1.9.4,2.8,1.3,2.8,2.9s-.1,1-.3,1.5-.5.8-.9,1.2-.9.6-1.4.8c-.6.2-1.2.3-1.9.3h-4.6v-12.9h4.2-.1ZM228.5,555v4.2h2.2c.9,0,1.6-.2,2.1-.6s.7-.9.7-1.5-.2-1.3-.7-1.6-1.1-.5-2-.5h-2.3ZM231.2,564.9c.5,0,.9,0,1.2-.2.3,0,.6-.3.9-.5.2-.2.4-.4.5-.7s.1-.6.1-.9c0-.6-.2-1.2-.7-1.5s-1.1-.5-2.1-.5h-2.7v4.3h2.8Z"/>
    <path class="cls-11" d="M129.1,586.4v1.6h-7.4v-12.9h1.9v11.3h5.5Z"/>
    <path class="cls-11" d="M138.6,586.7v1.3h-7v-1.3h2.7v-9.3l-2.2,1.9h-.2c0,0-.2,0-.2,0h-.2s-.1,0-.1,0l-.6-.8,3.9-3.3h1.4v11.6h2.5Z"/>
    <path class="cls-11" d="M147.9,588h-1.9v-12.9h1.9v12.9Z"/>
    <path class="cls-11" d="M150.6,581.9h4.5v1.5h-4.5v-1.5Z"/>
    <path class="cls-11" d="M166.8,585.3c.1,0,.2,0,.3,0l.8.8c-.5.6-1.2,1.1-1.9,1.5s-1.7.5-2.7.5-1.8-.2-2.5-.5c-.8-.3-1.4-.8-1.9-1.4-.5-.6-.9-1.3-1.2-2.1s-.4-1.7-.4-2.7.1-1.9.5-2.7c.3-.8.7-1.5,1.3-2.1s1.2-1,2-1.4c.8-.3,1.6-.5,2.6-.5s1.7.2,2.4.5,1.3.7,1.9,1.2l-.6.9s0,0-.2.2-.1,0-.2,0-.2,0-.4-.2-.4-.2-.6-.4-.6-.3-.9-.4c-.4,0-.8-.2-1.4-.2s-1.2,0-1.8.3c-.5.2-1,.5-1.4,1s-.7.9-.9,1.6c-.2.6-.3,1.3-.3,2.1s.1,1.5.3,2.1.5,1.1.9,1.6.9.8,1.4,1,1.1.3,1.7.3h1c.3,0,.6,0,.8-.2s.5-.2.7-.3.4-.3.7-.5h.3-.3Z"/>
    <path class="cls-11" d="M169.2,580.2c.5-.5,1.1-.8,1.7-1.1.6-.2,1.2-.4,2-.4s1,0,1.4.3c.4.2.7.4,1,.7s.5.7.6,1.1c.1.4.2.9.2,1.4v5.8h-1.2c0,0-.2-.2-.2-.3l-.2-.8c-.2.2-.5.4-.7.6s-.5.3-.7.4c-.2,0-.5.2-.8.3h-.9c-.3,0-.7,0-1-.2-.3,0-.6-.2-.8-.5-.2-.2-.4-.5-.6-.8-.1-.3-.2-.7-.2-1.1s.1-.7.3-1,.5-.6.9-.9c.4-.3,1-.5,1.7-.7s1.6-.3,2.6-.3v-.7c0-.7-.1-1.2-.4-1.5s-.7-.5-1.3-.5-.7,0-1,0c-.3,0-.5.2-.7.3s-.4.2-.5.3c-.1,0-.3,0-.4,0h-.3s-.2,0-.2-.2l-.3-.6h0v.2ZM174.3,584c-.7,0-1.3,0-1.8.2s-.9.2-1.2.3-.5.3-.7.5c-.1.2-.2.4-.2.7s0,.4.1.6c0,.2.2.3.3.4s.3.2.4.2h1.3c.2,0,.4,0,.6-.2.2,0,.4-.2.6-.4.2,0,.4-.3.5-.5v-1.8h0Z"/>
    <path class="cls-11" d="M184.8,580.6s-.1,0-.2.2-.1,0-.2,0-.2,0-.3,0c-.1,0-.2-.2-.4-.2s-.4-.2-.6-.2-.5,0-.8,0-.8,0-1.1.2-.6.4-.8.7-.4.6-.5,1-.2.9-.2,1.4,0,1,.2,1.4.3.8.5,1,.5.5.8.7.7.2,1.1.2.7,0,.9,0,.4-.2.6-.3.3-.2.4-.3.2,0,.3,0,.2,0,.3.2l.5.7c-.2.3-.4.5-.7.7s-.5.3-.8.4-.6.2-.9.2h-1c-.6,0-1.1,0-1.6-.3s-.9-.5-1.3-.9c-.4-.4-.6-.9-.9-1.5s-.3-1.2-.3-2,0-1.3.3-1.9.5-1.1.8-1.5.8-.7,1.4-1,1.2-.4,1.9-.4,1.2,0,1.7.3.9.5,1.3.9l-.5.7h.1Z"/>
    <path class="cls-11" d="M188.8,580.1c.4-.4.8-.7,1.3-.9s1-.4,1.6-.4.9,0,1.3.2.7.4,1,.7.4.7.6,1.1c.1.4.2.9.2,1.4v5.8h-1.8v-5.8c0-.7-.1-1.2-.4-1.5-.3-.4-.8-.5-1.4-.5s-.9,0-1.3.3-.8.5-1.1.9v6.7h-1.8v-13.3h1.8v5.3h0Z"/>
    <path class="cls-11" d="M204.6,586.7c-.2.2-.5.5-.8.7s-.6.3-.9.5c-.3,0-.6.2-1,.2h-1c-.6,0-1.2,0-1.8-.3s-1-.5-1.4-.9-.7-.9-.9-1.5-.3-1.3-.3-2.1.1-1.2.3-1.8c.2-.5.5-1,.9-1.4s.8-.7,1.4-1c.5-.2,1.1-.3,1.8-.3s1.1,0,1.5.3c.5.2.9.5,1.2.8s.6.8.8,1.3.3,1.1.3,1.8,0,.5,0,.5c0,0-.2,0-.3,0h-6c0,.5.1,1,.2,1.4.1.4.3.7.6,1s.5.5.9.6.7.2,1.1.2.7,0,1,0,.5-.2.7-.3.4-.2.5-.3c.1,0,.3,0,.4,0s.2,0,.3.2l.5.7h0v-.2ZM203.1,582.5c0-.3,0-.7-.1-1s-.2-.5-.4-.8c-.2-.2-.4-.4-.7-.5s-.6-.2-.9-.2c-.7,0-1.3.2-1.7.6s-.7,1-.8,1.8h4.8-.2Z"/>
    <path class="cls-11" d="M215.4,575.1c.8,0,1.6,0,2.2.3s1.1.5,1.5.8.7.8.9,1.3.3,1,.3,1.7-.1,1.2-.3,1.7-.5.9-.9,1.3c-.4.4-.9.7-1.5.8s-1.3.3-2.1.3h-2v4.8h-1.9v-12.9h3.9,0ZM215.4,581.8c.5,0,.9,0,1.3-.2s.7-.3.9-.5.4-.5.6-.8c.1-.3.2-.7.2-1.1,0-.8-.2-1.4-.7-1.8-.5-.5-1.2-.7-2.2-.7h-2v5.2h2-.1Z"/>
    <path class="cls-11" d="M221.5,580.2c.5-.5,1.1-.8,1.7-1.1.6-.2,1.2-.4,2-.4s1,0,1.4.3c.4.2.7.4,1,.7s.5.7.6,1.1c.1.4.2.9.2,1.4v5.8h-1.2c0,0-.2-.2-.2-.3l-.2-.8c-.2.2-.5.4-.7.6s-.5.3-.7.4c-.2,0-.5.2-.8.3h-.9c-.3,0-.7,0-1-.2-.3,0-.6-.2-.8-.5-.2-.2-.4-.5-.6-.8-.1-.3-.2-.7-.2-1.1s.1-.7.3-1,.5-.6.9-.9c.4-.3,1-.5,1.7-.7s1.6-.3,2.6-.3v-.7c0-.7-.1-1.2-.4-1.5s-.7-.5-1.3-.5-.7,0-1,0c-.3,0-.5.2-.7.3s-.4.2-.5.3c-.1,0-.3,0-.4,0h-.3s-.2,0-.2-.2l-.3-.6h0v.2ZM226.7,584c-.7,0-1.3,0-1.8.2s-.9.2-1.2.3-.5.3-.7.5c-.1.2-.2.4-.2.7s0,.4.1.6c0,.2.2.3.3.4s.3.2.4.2h1.3c.2,0,.4,0,.6-.2.2,0,.4-.2.6-.4.2,0,.4-.3.5-.5v-1.8h0Z"/>
    <path class="cls-11" d="M232.4,580.7c.3-.6.6-1.1,1.1-1.4s.9-.5,1.5-.5h.6c.2,0,.3,0,.5.2v1.3c-.2.2-.3.2-.4.2h-.9c-.3,0-.5,0-.8,0s-.4.2-.6.4-.3.3-.4.6c-.1.2-.2.5-.4.8v5.7h-1.8v-9.1h1.4s.1.2.1.4v1.3h.1,0Z"/>
    <path class="cls-11" d="M239.5,576.1c0,.2,0,.3-.1.5,0,.2-.1.3-.3.4-.1,0-.2.2-.4.3s-.3,0-.5,0h-.5c-.2,0-.3-.2-.4-.3s-.2-.2-.3-.4,0-.3,0-.5v-.5c0-.2.1-.3.3-.4s.2-.2.4-.3.3,0,.5,0h.5c.2,0,.3.2.4.3s.2.2.3.4.1.3.1.5ZM239.2,578.9v9.1h-1.8v-9.1h1.8Z"/>
    <path class="cls-11" d="M244.6,588.2c-.7,0-1.3-.2-1.7-.6-.4-.4-.6-1-.6-1.8v-5.5h-1.4s-.1-.2-.1-.3v-.7l1.5-.2.4-2.7s0-.2.1-.2h1.2v3.1h2.6v1.3h-2.6v5.3c0,.4,0,.6.3.8.2.2.4.3.7.3h.4c0,0,.2,0,.3,0s.2,0,.2,0h.4c0,0,.5.9.5.9-.3.3-.6.5-1,.6s-.8.2-1.2.2h0v-.3Z"/>
    <path class="cls-11" d="M256.2,578.9l-5.1,11.8c0,0-.1.2-.2.3,0,0-.2,0-.4,0h-1.3l1.7-3.7-3.8-8.6h1.5c.1,0,.3,0,.4,0s.1.2.2.2l2.3,5.5c0,0,0,.3.1.4,0,0,0,.3.1.4,0,0,0-.3.1-.4,0,0,.1-.3.1-.4l2.2-5.5s.1-.2.2-.2h1.9Z"/>
  </g>
  <rect class="cls-1" x="45" y="525.4" width="285" height="90"/>
  <g>
    <path class="cls-11" d="M171.4,680.7v1.3h-7v-1.3h2.7v-9.3l-2.2,1.9h-.2c0,0-.2,0-.2,0h-.2s-.1,0-.1,0l-.6-.8,3.9-3.3h1.4v11.6h2.5Z"/>
    <path class="cls-11" d="M181.5,680.4c.2,0,.3,0,.4.2s.2.3.2.4v1.1h-8.7v-1c0-.2.1-.3.2-.4l4.1-4.1c.3-.3.6-.7.9-1s.5-.6.7-1c.2-.3.3-.6.4-1s.2-.7.2-1,0-.7-.2-1-.3-.5-.5-.7-.4-.3-.7-.4-.6,0-.9,0-.6,0-.9,0-.5.2-.7.4-.4.3-.5.6c-.1.2-.2.5-.3.7,0,.2-.2.4-.3.5s-.3,0-.6,0l-.9-.2c0-.6.2-1.1.5-1.6.2-.5.6-.8.9-1.2.4-.3.8-.5,1.3-.7s1-.2,1.6-.2,1.1,0,1.6.2.9.4,1.2.7.6.7.8,1.1c.2.5.3,1,.3,1.5s0,.9-.2,1.3c-.1.4-.3.8-.6,1.2-.2.4-.5.7-.9,1.1s-.7.7-1,1.1l-3.3,3.3c.2,0,.5,0,.8-.2h4.8l.3.3Z"/>
    <path class="cls-11" d="M190.3,675.3c.8.2,1.4.6,1.8,1.2s.6,1.2.6,2-.1,1.1-.3,1.5-.5.8-.9,1.2c-.4.3-.9.6-1.4.7s-1.1.3-1.8.3-1.2,0-1.8-.3-1-.4-1.4-.7-.7-.7-.9-1.2-.3-1-.3-1.5c0-.8.2-1.5.6-2s1-.9,1.8-1.2c-.7-.2-1.2-.6-1.5-1.1s-.5-1.1-.5-1.8,0-.9.3-1.3.5-.8.8-1.1c.4-.3.8-.5,1.2-.7s1-.3,1.6-.3,1.1,0,1.6.3.9.4,1.2.7.6.7.8,1.1c.2.4.3.9.3,1.3,0,.7-.2,1.3-.5,1.8s-.8.9-1.5,1.1h.2ZM188.3,680.8c.4,0,.8,0,1.1-.2.3,0,.6-.3.8-.5s.4-.5.5-.7c.1-.3.2-.6.2-.9s0-.8-.2-1.1-.3-.5-.6-.8c-.2-.2-.5-.3-.8-.4s-.6,0-1,0-.7,0-1,0-.6.2-.8.4-.4.4-.6.8c-.1.3-.2.7-.2,1.1s0,.7.2.9c.1.3.3.5.5.7s.5.4.8.5.7.2,1.1.2h0ZM188.3,670.3c-.4,0-.7,0-1,.2s-.5.3-.7.5-.3.4-.4.7c0,.2-.1.5-.1.8s0,.6.1.8c0,.3.2.5.4.7s.4.4.7.5.6.2,1,.2.8,0,1-.2.5-.3.7-.5.3-.4.4-.7.1-.5.1-.8,0-.6-.1-.8-.2-.5-.4-.7-.4-.3-.7-.5c-.3,0-.6-.2-1-.2h0Z"/>
    <path class="cls-11" d="M197.1,674.7h1.2c.2,0,.3-.2.4-.3l4.1-4.8c.1-.2.3-.3.4-.3h2.1l-4.8,5.5c-.1.2-.2.3-.4.4s-.2.2-.4.2c.3,0,.6.3.9.7l5,6.1h-2.2s-.1,0-.2,0-.1,0-.1-.2l-4.3-5s-.1,0-.2-.2c0,0-.1,0-.2,0s-.2,0-.3,0h-1.2v5.9h-1.9v-12.9h1.9v5.6h0l.2-.5Z"/>
    <path class="cls-11" d="M211.4,669.1c.8,0,1.5,0,2.1.2s1.1.4,1.4.7.6.7.8,1.1c.2.4.3.9.3,1.4s0,.6-.1.9c-.1.3-.2.6-.4.8s-.4.5-.8.7-.6.4-1.1.5c1.9.4,2.8,1.3,2.8,2.9s-.1,1-.3,1.5-.5.8-.9,1.2-.9.6-1.4.8c-.6.2-1.2.3-1.9.3h-4.6v-12.9h4.2-.1ZM209.1,670.6v4.2h2.2c.9,0,1.6-.2,2.1-.6s.7-.9.7-1.5-.2-1.3-.7-1.6-1.1-.5-2-.5h-2.3ZM211.8,680.5c.5,0,.9,0,1.2-.2.3,0,.6-.3.9-.5.2-.2.4-.4.5-.7s.1-.6.1-.9c0-.6-.2-1.2-.7-1.5s-1.1-.5-2.1-.5h-2.7v4.3h2.8Z"/>
    <path class="cls-11" d="M219.6,682.2c0,.2-.2.4-.4.5s-.4.2-.6.2h-.7l5.4-13.5c0-.2.2-.4.4-.5s.3-.2.6-.2h.8l-5.3,13.4h-.2Z"/>
    <path class="cls-11" d="M234.3,680.4c.2,0,.3,0,.4.2s.2.3.2.4v1.1h-8.7v-1c0-.2.1-.3.2-.4l4.1-4.1c.3-.3.6-.7.9-1s.5-.6.7-1c.2-.3.3-.6.4-1s.2-.7.2-1,0-.7-.2-1-.3-.5-.5-.7-.4-.3-.7-.4-.6,0-.9,0-.6,0-.9,0-.5.2-.7.4-.4.3-.5.6c-.1.2-.2.5-.3.7,0,.2-.2.4-.3.5s-.3,0-.6,0l-.9-.2c0-.6.2-1.1.5-1.6.2-.5.6-.8.9-1.2.4-.3.8-.5,1.3-.7s1-.2,1.6-.2,1.1,0,1.6.2.9.4,1.2.7.6.7.8,1.1c.2.5.3,1,.3,1.5s0,.9-.2,1.3c-.1.4-.3.8-.6,1.2-.2.4-.5.7-.9,1.1s-.7.7-1,1.1l-3.3,3.3c.2,0,.5,0,.8-.2h4.8l.3.3Z"/>
    <path class="cls-11" d="M239.3,673.9c.7,0,1.3-.2,1.8-.2s1.3,0,1.8.3c.5.2.9.5,1.3.8.4.3.6.8.8,1.2.2.5.3,1,.3,1.5s-.1,1.3-.4,1.9-.6,1-1,1.4-.9.7-1.5.9-1.2.3-1.9.3-.8,0-1.1,0-.7-.2-1-.3-.6-.3-.9-.5c-.3-.2-.5-.3-.7-.5l.5-.8c.1-.2.3-.2.5-.2s.3,0,.4,0,.3.2.5.3.5.2.8.3.6,0,1,0,.8,0,1.2-.2c.4,0,.6-.3.9-.6.2-.3.4-.6.6-.9s.2-.8.2-1.2,0-.7-.2-1-.3-.6-.5-.8-.5-.4-.9-.5c-.3,0-.7-.2-1.2-.2s-1.3,0-2,.3l-1.1-.3,1.1-6.1h6.2v.8c0,.2,0,.5-.2.6s-.4.2-.8.2h-3.9l-.6,3.2h0v.2Z"/>
    <path class="cls-11" d="M250.7,673.9c-.1,0-.2.3-.3.4s-.2.2-.3.4c.3-.2.6-.3,1-.4s.7-.2,1.1-.2,1,0,1.5.2.9.4,1.2.7.6.7.8,1.2.3,1,.3,1.7-.1,1.2-.3,1.7-.5,1-.9,1.3-.9.7-1.4.9c-.6.2-1.1.3-1.8.3s-1.3,0-1.8-.3-1-.5-1.4-.9-.7-.9-.9-1.4-.3-1.2-.3-1.8.1-1.2.4-1.8.6-1.3,1.2-2l3.2-4.3c0,0,.2-.2.4-.3s.4,0,.6,0h1.6l-3.8,4.8h-.1ZM251.6,680.7c.4,0,.8,0,1.1-.2.3,0,.6-.3.9-.5s.4-.5.6-.8.2-.7.2-1,0-.8-.2-1.1-.3-.6-.5-.8-.5-.4-.8-.5-.7-.2-1.1-.2-.8,0-1.1.2-.6.3-.9.6c-.2.2-.4.5-.5.8s-.2.7-.2,1,0,.8.2,1.1.3.6.5.8.5.4.8.5.7.2,1.1.2h-.1Z"/>
    <path class="cls-11" d="M260.3,674.7h1.1c.1,0,.3-.2.4-.3l4.1-4.8c.1-.2.3-.3.4-.3h2.1l-4.8,5.5c-.1.2-.2.3-.4.4s-.2.2-.4.2c.3,0,.6.3.9.7l5,6.1h-2.2s-.1,0-.2,0c0,0-.1,0-.1-.2l-4.3-5s-.1,0-.2-.2c0,0-.1,0-.2,0s-.2,0-.3,0h-1.2v5.9h-1.9v-12.9h1.9v5.6h0l.3-.5Z"/>
    <path class="cls-11" d="M274.6,669.1c.8,0,1.5,0,2.1.2s1,.4,1.4.7.6.7.8,1.1.3.9.3,1.4,0,.6-.1.9c-.1.3-.2.6-.4.8s-.5.5-.8.7-.6.4-1.1.5c1.9.4,2.8,1.3,2.8,2.9s-.1,1-.3,1.5c-.2.5-.5.8-.9,1.2s-.9.6-1.4.8c-.6.2-1.2.3-1.9.3h-4.6v-12.9h4.2-.1ZM272.3,670.6v4.2h2.2c.9,0,1.6-.2,2.1-.6s.7-.9.7-1.5-.2-1.3-.7-1.6-1.1-.5-2-.5h-2.3ZM275,680.5c.5,0,.9,0,1.2-.2.3,0,.6-.3.9-.5.2-.2.4-.4.5-.7s.1-.6.1-.9c0-.6-.2-1.2-.7-1.5s-1.1-.5-2.1-.5h-2.7v4.3h2.8Z"/>
    <path class="cls-11" d="M282.8,682.2c0,.2-.2.4-.4.5s-.4.2-.6.2h-.7l5.4-13.5c0-.2.2-.4.4-.5.2,0,.3-.2.5-.2h.8l-5.3,13.4h0Z"/>
    <path class="cls-11" d="M292.1,673.9c.7,0,1.3-.2,1.8-.2s1.3,0,1.8.3c.5.2,1,.5,1.3.8.4.3.6.8.8,1.2.2.5.3,1,.3,1.5s-.1,1.3-.4,1.9-.6,1-1,1.4-.9.7-1.5.9-1.2.3-1.9.3-.8,0-1.1,0c-.4,0-.7-.2-1-.3s-.6-.3-.9-.5-.5-.3-.7-.5l.5-.8c.1-.2.3-.2.5-.2s.3,0,.4,0c.1,0,.3.2.5.3s.5.2.8.3.6,0,1,0,.8,0,1.2-.2.6-.3.9-.6c.2-.3.4-.6.6-.9s.2-.8.2-1.2,0-.7-.2-1c-.1-.3-.3-.6-.5-.8s-.5-.4-.9-.5-.7-.2-1.2-.2-1.3,0-2,.3l-1.1-.3,1-6.1h6.2v.8c0,.2,0,.5-.2.6s-.4.2-.8.2h-3.9l-.6,3.2h0v.2Z"/>
    <path class="cls-11" d="M308.4,680.7v1.3h-7v-1.3h2.7v-9.3l-2.2,1.9h-.2c0,0-.2,0-.2,0h-.2s-.1,0-.1,0l-.5-.8,3.9-3.3h1.4v11.6h2.5,0Z"/>
    <path class="cls-11" d="M318.5,680.4c.2,0,.3,0,.5.2.1,0,.2.3.2.4v1.1h-8.7v-1c0,0,.1-.3.2-.4l4.1-4.1c.3-.3.6-.7.9-1s.5-.6.7-1c.2-.3.3-.6.5-1s.2-.7.2-1,0-.7-.2-1c-.1-.3-.3-.5-.5-.7s-.4-.3-.7-.4-.6,0-.9,0-.6,0-.9,0c-.3,0-.5.2-.7.4s-.4.3-.5.6c-.1.2-.2.5-.3.7,0,.2-.2.4-.3.5s-.3,0-.6,0l-.9-.2c0-.6.2-1.1.5-1.6.2-.5.5-.8.9-1.2.4-.3.8-.5,1.3-.7s1-.2,1.6-.2,1.1,0,1.6.2.9.4,1.2.7c.4.3.6.7.8,1.1s.3,1,.3,1.5,0,.9-.2,1.3c-.1.4-.3.8-.6,1.2-.2.4-.5.7-.9,1.1s-.7.7-1,1.1l-3.3,3.3c.2,0,.5,0,.8-.2h4.8v.3Z"/>
    <path class="cls-11" d="M323.5,674.7h1.1c.1,0,.3-.2.4-.3l4.1-4.8c.1-.2.3-.3.4-.3h2.1l-4.8,5.5c-.1.2-.2.3-.4.4s-.2.2-.4.2c.3,0,.6.3.9.7l5,6.1h-2.2s-.1,0-.2,0c0,0-.1,0-.1-.2l-4.3-5s-.1,0-.2-.2c0,0-.1,0-.2,0s-.2,0-.3,0h-1.2v5.9h-1.9v-12.9h1.9v5.6h0l.3-.5Z"/>
    <path class="cls-11" d="M337.9,669.1c.8,0,1.5,0,2.1.2s1,.4,1.4.7.6.7.8,1.1.3.9.3,1.4,0,.6-.1.9c-.1.3-.2.6-.4.8s-.5.5-.8.7-.6.4-1.1.5c1.9.4,2.8,1.3,2.8,2.9s-.1,1-.3,1.5c-.2.5-.5.8-.9,1.2s-.9.6-1.4.8c-.6.2-1.2.3-1.9.3h-4.6v-12.9h4.2-.1ZM335.6,670.6v4.2h2.2c.9,0,1.6-.2,2.1-.6s.7-.9.7-1.5-.2-1.3-.7-1.6-1.1-.5-2-.5h-2.3ZM338.3,680.5c.5,0,.9,0,1.2-.2.3,0,.6-.3.9-.5.2-.2.4-.4.5-.7s.1-.6.1-.9c0-.6-.2-1.2-.7-1.5s-1.1-.5-2.1-.5h-2.7v4.3h2.8Z"/>
    <path class="cls-11" d="M346,682.2c0,.2-.2.4-.4.5s-.4.2-.6.2h-.7l5.4-13.5c0-.2.2-.4.4-.5.2,0,.3-.2.5-.2h.8l-5.3,13.4h0Z"/>
    <path class="cls-11" d="M361.1,680.7v1.3h-7v-1.3h2.7v-9.3l-2.2,1.9h-.2c0,0-.2,0-.2,0h-.2s-.1,0-.1,0l-.5-.8,3.9-3.3h1.4v11.6h2.5,0Z"/>
    <path class="cls-11" d="M377.6,669.1v12.9h-1.7v-10.1l-4.3,7.9c-.1.3-.4.4-.7.4h-.3c-.3,0-.5-.2-.7-.4l-4.4-7.9v10.1h-1.7v-12.9h1.8s.2,0,.3.3l4.3,7.7c0,.2.2.3.2.5s.1.3.2.5c.1-.3.3-.7.4-1l4.2-7.7c0-.2.2-.2.3-.3h2.1Z"/>
    <path class="cls-11" d="M385,669.1c.8,0,1.5,0,2.1.2s1,.4,1.4.7.6.7.8,1.1.3.9.3,1.4,0,.6-.1.9c-.1.3-.2.6-.4.8s-.5.5-.8.7-.6.4-1.1.5c1.9.4,2.8,1.3,2.8,2.9s-.1,1-.3,1.5c-.2.5-.5.8-.9,1.2s-.9.6-1.4.8c-.6.2-1.2.3-1.9.3h-4.6v-12.9h4.2-.1ZM382.7,670.6v4.2h2.2c.9,0,1.6-.2,2.1-.6s.7-.9.7-1.5-.2-1.3-.7-1.6-1.1-.5-2-.5h-2.3ZM385.4,680.5c.5,0,.9,0,1.2-.2.3,0,.6-.3.9-.5.2-.2.4-.4.5-.7s.1-.6.1-.9c0-.6-.2-1.2-.7-1.5s-1.1-.5-2.1-.5h-2.7v4.3h2.8Z"/>
    <path class="cls-11" d="M400.9,669.1c.8,0,1.5,0,2.2.3.6.2,1.1.5,1.5.8s.7.8.9,1.3.3,1,.3,1.7-.1,1.2-.3,1.7-.5.9-.9,1.3-.9.7-1.5.8-1.3.3-2.1.3h-2v4.8h-1.9v-12.9h3.9-.1ZM400.9,675.8c.5,0,.9,0,1.3-.2s.7-.3.9-.5c.2-.2.4-.5.6-.8.1-.3.2-.7.2-1.1,0-.8-.2-1.4-.7-1.8-.5-.5-1.2-.7-2.2-.7h-2v5.2h2,0Z"/>
    <path class="cls-11" d="M409,674.7c.3-.6.6-1.1,1.1-1.4s.9-.5,1.5-.5h.6c.2,0,.3,0,.5.2v1.3c-.2.2-.3.2-.4.2h-.9c-.3,0-.5,0-.8,0s-.4.2-.6.4-.3.3-.5.6c-.1.2-.2.5-.4.8v5.7h-1.8v-9.1h1.4s.1.2.1.4v1.3h.2Z"/>
    <path class="cls-11" d="M416.1,670.1c0,.2,0,.3-.1.5,0,.2-.1.3-.3.4-.1,0-.2.2-.4.3h-1c-.1,0-.3-.2-.4-.3s-.2-.2-.3-.4,0-.3,0-.5v-.5c0-.2.1-.3.3-.4.1,0,.2-.2.4-.3s.3,0,.5,0h.5c.2,0,.3.2.4.3s.2.2.3.4c0,.2.1.3.1.5ZM415.8,672.9v9.1h-1.8v-9.1h1.8Z"/>
    <path class="cls-11" d="M426.3,672.9l-3.7,9.1h-1.6l-3.7-9.1h1.8c0,0,.1.2.2.2l2.2,5.6c0,.2.1.5.2.7,0,.2.1.5.2.7,0-.2.1-.5.2-.7,0-.2.1-.5.2-.7l2.2-5.6s.1-.2.2-.2h1.7-.1Z"/>
    <path class="cls-11" d="M427.3,674.2c.5-.5,1.1-.8,1.7-1.1.6-.2,1.2-.4,2-.4s1,0,1.4.3c.4.2.7.4,1,.7s.5.7.6,1.1c.1.4.2.9.2,1.4v5.8h-1.2c-.1,0-.2-.2-.2-.3l-.2-.8c-.2.2-.5.4-.7.6s-.5.3-.7.4c-.2,0-.5.2-.8.3h-.9c-.3,0-.7,0-1-.2-.3,0-.6-.2-.8-.5s-.4-.5-.5-.8-.2-.7-.2-1.1.1-.7.3-1c.2-.3.5-.6,1-.9.4-.3,1-.5,1.7-.7s1.6-.3,2.6-.3v-.7c0-.7-.1-1.2-.4-1.5s-.7-.5-1.3-.5-.7,0-1,0c-.3,0-.5.2-.7.3s-.4.2-.5.3c-.1,0-.3,0-.4,0h-.3s-.2,0-.2-.2l-.3-.6h0l-.2.2ZM432.4,678c-.7,0-1.3,0-1.8.2s-.9.2-1.2.3c-.3,0-.5.3-.7.5-.1.2-.2.4-.2.7s0,.4.1.6c0,.2.2.3.3.4s.3.2.5.2h1.3c.2,0,.4,0,.6-.2.2,0,.4-.2.6-.4s.4-.3.5-.5v-1.8h0Z"/>
    <path class="cls-11" d="M439.2,682.2c-.7,0-1.3-.2-1.7-.6s-.6-1-.6-1.8v-5.5h-1.4c0,0-.1-.2-.1-.3v-.7l1.5-.2.4-2.7s0-.2.1-.2h1.2v3.1h2.6v1.3h-2.6v5.3c0,.4,0,.6.3.8s.4.3.7.3h.4c.1,0,.2,0,.3,0s.2,0,.2,0h.4c0,0,.5.9.5.9-.3.3-.6.5-1,.6s-.8.2-1.2.2h0v-.3Z"/>
    <path class="cls-11" d="M450.3,680.7c-.2.2-.5.5-.8.7s-.6.3-.9.5c-.3,0-.6.2-1,.2h-1c-.6,0-1.2,0-1.8-.3s-1-.5-1.4-.9-.7-.9-.9-1.5c-.2-.6-.3-1.3-.3-2.1s.1-1.2.3-1.8c.2-.5.5-1,.9-1.4s.8-.7,1.4-1c.5-.2,1.1-.3,1.8-.3s1.1,0,1.5.3.9.5,1.2.8.6.8.8,1.3c.2.5.3,1.1.3,1.8s0,.5,0,.5c0,0-.2,0-.3,0h-6c0,.5.1,1,.2,1.4s.3.7.6,1c.2.3.5.5.9.6s.7.2,1.1.2.7,0,1,0,.5-.2.7-.3.4-.2.5-.3c.1,0,.3,0,.4,0s.2,0,.3.2l.5.7h0v-.2ZM448.9,676.5c0-.3,0-.7-.1-1s-.2-.5-.4-.8c-.2-.2-.4-.4-.7-.5s-.6-.2-1-.2c-.7,0-1.3.2-1.7.6-.4.4-.7,1-.8,1.8h4.8,0Z"/>
    <path class="cls-11" d="M464.7,680.4v1.6h-7.4v-12.9h1.9v11.3h5.5Z"/>
    <path class="cls-11" d="M473.8,680.4c.2,0,.3,0,.5.2.1,0,.2.3.2.4v1.1h-8.7v-1c0,0,.1-.3.2-.4l4.1-4.1c.3-.3.6-.7.9-1s.5-.6.7-1c.2-.3.3-.6.5-1s.2-.7.2-1,0-.7-.2-1c-.1-.3-.3-.5-.5-.7s-.4-.3-.7-.4-.6,0-.9,0-.6,0-.9,0c-.3,0-.5.2-.7.4s-.4.3-.5.6c-.1.2-.2.5-.3.7,0,.2-.2.4-.3.5s-.3,0-.6,0l-.9-.2c0-.6.2-1.1.5-1.6.2-.5.5-.8.9-1.2.4-.3.8-.5,1.3-.7s1-.2,1.6-.2,1.1,0,1.6.2.9.4,1.2.7c.4.3.6.7.8,1.1s.3,1,.3,1.5,0,.9-.2,1.3c-.1.4-.3.8-.6,1.2-.2.4-.5.7-.9,1.1s-.7.7-1,1.1l-3.3,3.3c.2,0,.5,0,.8-.2h4.8v.3Z"/>
    <path class="cls-11" d="M489.5,680.5v1.6h-8v-12.9h8v1.6h-6.1v4.1h4.9v1.5h-4.9v4.2h6.1Z"/>
    <path class="cls-11" d="M500.6,679.3c.1,0,.2,0,.3,0l.8.8c-.5.6-1.2,1.1-1.9,1.5-.8.3-1.7.5-2.7.5s-1.8-.2-2.5-.5c-.8-.3-1.4-.8-1.9-1.4-.5-.6-1-1.3-1.2-2.1-.3-.8-.4-1.7-.4-2.7s.1-1.9.5-2.7.7-1.5,1.3-2.1,1.2-1,2-1.4c.8-.3,1.6-.5,2.6-.5s1.7.2,2.5.5c.7.3,1.3.7,1.9,1.2l-.6.9s0,0-.2.2-.1,0-.2,0-.2,0-.4-.2-.4-.2-.6-.4-.6-.3-.9-.4c-.4,0-.8-.2-1.4-.2s-1.2,0-1.8.3c-.5.2-1,.5-1.4,1s-.7.9-.9,1.6-.3,1.3-.3,2.1.1,1.5.3,2.1.5,1.1.9,1.6.9.8,1.4,1,1.1.3,1.7.3h1c.3,0,.6,0,.8-.2s.5-.2.7-.3.4-.3.7-.5h.3-.4Z"/>
    <path class="cls-11" d="M512.4,679.3c0,0,.2,0,.3,0l.8.8c-.5.6-1.2,1.1-1.9,1.5s-1.7.5-2.7.5-1.8-.2-2.5-.5c-.8-.3-1.4-.8-1.9-1.4-.5-.6-1-1.3-1.2-2.1-.3-.8-.4-1.7-.4-2.7s.1-1.9.5-2.7.7-1.5,1.3-2.1,1.2-1,2-1.4c.8-.3,1.6-.5,2.6-.5s1.7.2,2.5.5c.7.3,1.3.7,1.9,1.2l-.6.9s0,0-.2.2-.2,0-.2,0c0,0-.2,0-.4-.2s-.4-.2-.6-.4-.6-.3-.9-.4c-.4,0-.8-.2-1.4-.2s-1.2,0-1.8.3c-.5.2-1,.5-1.4,1s-.7.9-.9,1.6-.3,1.3-.3,2.1.1,1.5.3,2.1.5,1.1.9,1.6.9.8,1.4,1,1.1.3,1.7.3h1c.3,0,.6,0,.8-.2s.5-.2.7-.3c.2,0,.4-.3.7-.5h.4-.5Z"/>
  </g>
  <rect class="cls-1" x="45" y="630.2" width="585" height="90"/>
  <g>
    <path class="cls-11" d="M440.4,557c0-.6.3-1.1.5-1.6s.5-.8.9-1.2c.4-.3.8-.5,1.3-.7s1-.2,1.6-.2,1.1,0,1.5.2.9.4,1.2.7.6.6.8,1,.3.9.3,1.3,0,.8-.1,1.1-.2.6-.4.8c-.2.2-.4.4-.7.6s-.6.3-.9.4c.8.2,1.4.6,1.9,1.1s.6,1.2.6,2-.1,1.2-.3,1.6-.5.9-.9,1.2-.9.6-1.4.8-1.1.3-1.7.3-1.3,0-1.8-.2-.9-.4-1.2-.7c-.3-.3-.6-.7-.9-1.1s-.4-.9-.6-1.4l.8-.3c.2,0,.4,0,.6,0s.3,0,.4.3c0,.2.2.4.3.6s.3.4.5.6.5.4.7.5c.3,0,.7.2,1.1.2s.8,0,1.1-.2.6-.3.8-.5.4-.5.5-.8.2-.5.2-.8,0-.6-.1-.9-.2-.5-.5-.7c-.2-.2-.6-.4-1-.5s-1-.2-1.6-.2v-1.3c.5,0,1,0,1.4-.2s.7-.3.9-.5.4-.4.5-.7.2-.6.2-.9,0-.7-.2-.9-.3-.5-.5-.7-.4-.3-.7-.4c-.3,0-.6,0-.9,0s-.6,0-.9,0c-.3,0-.5.2-.7.4s-.4.3-.5.6c-.1.2-.2.5-.3.7,0,.2-.2.4-.3.5s-.3,0-.5,0l-.9-.2h0v.3Z"/>
    <path class="cls-11" d="M458.6,564.8c.2,0,.3,0,.5.2.1,0,.2.3.2.4v1.1h-8.7v-1c0,0,.1-.3.2-.4l4.1-4.1c.3-.3.6-.7.9-1s.5-.6.7-1c.2-.3.3-.6.5-1s.2-.7.2-1,0-.7-.2-1c-.1-.3-.3-.5-.5-.7s-.4-.3-.7-.4-.6,0-.9,0-.6,0-.9,0c-.3,0-.5.2-.7.4s-.4.3-.5.6c-.1.2-.2.5-.3.7,0,.2-.2.4-.3.5s-.3,0-.6,0l-.9-.2c0-.6.2-1.1.5-1.6.2-.5.5-.8.9-1.2.4-.3.8-.5,1.3-.7s1-.2,1.6-.2,1.1,0,1.6.2.9.4,1.2.7c.4.3.6.7.8,1.1s.3,1,.3,1.5,0,.9-.2,1.3c-.1.4-.3.8-.6,1.2-.2.4-.5.7-.9,1.1s-.7.7-1,1.1l-3.3,3.3c.2,0,.5,0,.8-.2h4.8v.3Z"/>
    <path class="cls-11" d="M463.7,559.1h1.1c.1,0,.3-.2.4-.3l4.1-4.8c.1-.2.3-.3.4-.3h2.1l-4.8,5.5c-.1.2-.2.3-.4.4s-.2.2-.4.2c.3,0,.6.3.9.7l5,6.1h-2.2s-.1,0-.2,0c0,0-.1,0-.1-.2l-4.3-5s-.1,0-.2-.2c0,0-.1,0-.2,0s-.2,0-.3,0h-1.2v5.9h-1.9v-12.9h1.9v5.6h0l.3-.5Z"/>
    <path class="cls-11" d="M478,553.5c.8,0,1.5,0,2.1.2s1,.4,1.4.7.6.7.8,1.1.3.9.3,1.4,0,.6-.1.9c-.1.3-.2.6-.4.8s-.5.5-.8.7-.6.4-1.1.5c1.9.4,2.8,1.3,2.8,2.9s-.1,1-.3,1.5c-.2.5-.5.8-.9,1.2s-.9.6-1.4.8c-.6.2-1.2.3-1.9.3h-4.6v-12.9h4.2-.1ZM475.7,555v4.2h2.2c.9,0,1.6-.2,2.1-.6s.7-.9.7-1.5-.2-1.3-.7-1.6-1.1-.5-2-.5h-2.3ZM478.4,564.9c.5,0,.9,0,1.2-.2.3,0,.6-.3.9-.5.2-.2.4-.4.5-.7s.1-.6.1-.9c0-.6-.2-1.2-.7-1.5s-1.1-.5-2.1-.5h-2.7v4.3h2.8Z"/>
    <path class="cls-11" d="M486.2,566.6c0,.2-.2.4-.4.5s-.4.2-.6.2h-.7l5.4-13.5c0-.2.2-.4.4-.5.2,0,.3-.2.5-.2h.8l-5.3,13.4h0Z"/>
    <path class="cls-11" d="M496.5,558.3c-.1,0-.2.3-.3.4-.1,0-.2.2-.3.4.3-.2.6-.3,1-.4s.7-.2,1.1-.2,1,0,1.5.2.9.4,1.2.7.6.7.8,1.2c.2.5.3,1,.3,1.7s-.1,1.2-.3,1.7c-.2.5-.5,1-.9,1.3s-.9.7-1.4.9-1.1.3-1.8.3-1.3,0-1.8-.3-1-.5-1.4-.9-.7-.9-.9-1.4c-.2-.5-.3-1.2-.3-1.8s.1-1.2.4-1.8.6-1.3,1.2-2l3.2-4.3c0,0,.2-.2.4-.3s.4,0,.6,0h1.6l-3.8,4.8h-.1ZM497.3,565.1c.4,0,.8,0,1.1-.2.3,0,.6-.3.9-.5s.4-.5.6-.8.2-.7.2-1,0-.8-.2-1.1-.3-.6-.5-.8-.5-.4-.8-.5-.7-.2-1.1-.2-.8,0-1.1.2-.6.3-.9.6-.4.5-.5.8-.2.7-.2,1,0,.8.2,1.1c.1.3.3.6.5.8s.5.4.8.5.7.2,1.1.2h-.1Z"/>
    <path class="cls-11" d="M512.5,561.7v1.3s-.2,0-.3,0h-1.5v3.3h-1.5v-3.3h-5.7c-.1,0-.2,0-.3,0,0,0-.1-.2-.2-.3l-.2-.9,6.2-8.3h1.7v8.2h1.9-.1ZM509.1,561.7v-6.1l-4.5,6.2h4.5Z"/>
    <path class="cls-11" d="M516.5,559.1h1.1c0,0,.3-.2.4-.3l4.1-4.8c0-.2.3-.3.4-.3h2.1l-4.8,5.5c0,.2-.2.3-.4.4s-.2.2-.4.2c.3,0,.6.3.9.7l5,6.1h-2.2s0,0-.2,0,0,0,0-.2l-4.3-5-.2-.2s0,0-.2,0-.2,0-.3,0h-1.2v5.9h-1.9v-12.9h1.9v5.6h0l.3-.5Z"/>
    <path class="cls-11" d="M530.8,553.5c.8,0,1.5,0,2.1.2s1,.4,1.4.7.7.7.8,1.1c.2.4.3.9.3,1.4s0,.6,0,.9c0,.3-.2.6-.4.8s-.5.5-.8.7-.7.4-1.1.5c1.9.4,2.8,1.3,2.8,2.9s0,1-.3,1.5c-.2.5-.5.8-.9,1.2s-.9.6-1.4.8c-.6.2-1.2.3-1.9.3h-4.7v-12.9h4.2ZM528.5,555v4.2h2.2c.9,0,1.6-.2,2.1-.6s.7-.9.7-1.5-.2-1.3-.7-1.6-1.1-.5-2-.5h-2.3ZM531.2,564.9c.5,0,.9,0,1.2-.2.3,0,.6-.3.8-.5s.4-.4.5-.7c0-.3.2-.6.2-.9,0-.6-.2-1.2-.7-1.5s-1.1-.5-2.1-.5h-2.7v4.3h2.8Z"/>
    <path class="cls-11" d="M429.1,586.4v1.6h-7.4v-12.9h1.9v11.3h5.5Z"/>
    <path class="cls-11" d="M438.6,586.7v1.3h-7v-1.3h2.7v-9.3l-2.2,1.9h-.2c0,0-.2,0-.2,0h-.2s-.1,0-.1,0l-.5-.8,3.9-3.3h1.4v11.6h2.5,0Z"/>
    <path class="cls-11" d="M447.9,588h-1.9v-12.9h1.9v12.9Z"/>
    <path class="cls-11" d="M450.6,581.9h4.5v1.5h-4.5v-1.5Z"/>
    <path class="cls-11" d="M466.8,585.3c.1,0,.2,0,.3,0l.8.8c-.5.6-1.2,1.1-1.9,1.5-.8.3-1.7.5-2.7.5s-1.8-.2-2.5-.5c-.8-.3-1.4-.8-1.9-1.4-.5-.6-1-1.3-1.2-2.1-.3-.8-.4-1.7-.4-2.7s.1-1.9.5-2.7.7-1.5,1.3-2.1,1.2-1,2-1.4c.8-.3,1.6-.5,2.6-.5s1.7.2,2.5.5c.7.3,1.3.7,1.9,1.2l-.6.9s0,0-.2.2-.1,0-.2,0-.2,0-.4-.2-.4-.2-.6-.4-.6-.3-.9-.4c-.4,0-.8-.2-1.4-.2s-1.2,0-1.8.3c-.5.2-1,.5-1.4,1s-.7.9-.9,1.6-.3,1.3-.3,2.1.1,1.5.3,2.1.5,1.1.9,1.6.9.8,1.4,1,1.1.3,1.7.3h1c.3,0,.6,0,.8-.2s.5-.2.7-.3.4-.3.7-.5h.3-.4Z"/>
    <path class="cls-11" d="M469.2,580.2c.5-.5,1.1-.8,1.7-1.1.6-.2,1.2-.4,2-.4s1,0,1.4.3c.4.2.7.4,1,.7s.5.7.6,1.1c.1.4.2.9.2,1.4v5.8h-1.2c-.1,0-.2-.2-.2-.3l-.2-.8c-.2.2-.5.4-.7.6s-.5.3-.7.4c-.2,0-.5.2-.8.3h-.9c-.3,0-.7,0-1-.2-.3,0-.6-.2-.8-.5s-.4-.5-.5-.8-.2-.7-.2-1.1.1-.7.3-1c.2-.3.5-.6,1-.9.4-.3,1-.5,1.7-.7s1.6-.3,2.6-.3v-.7c0-.7-.1-1.2-.4-1.5s-.7-.5-1.3-.5-.7,0-1,0c-.3,0-.5.2-.7.3s-.4.2-.5.3c-.1,0-.3,0-.4,0h-.3s-.2,0-.2-.2l-.3-.6h0l-.2.2ZM474.3,584c-.7,0-1.3,0-1.8.2s-.9.2-1.2.3c-.3,0-.5.3-.7.5-.1.2-.2.4-.2.7s0,.4.1.6c0,.2.2.3.3.4s.3.2.5.2h1.3c.2,0,.4,0,.6-.2.2,0,.4-.2.6-.4s.4-.3.5-.5v-1.8h0Z"/>
    <path class="cls-11" d="M484.8,580.6s-.1,0-.2.2-.1,0-.2,0-.2,0-.3,0c-.1,0-.2-.2-.4-.2s-.4-.2-.6-.2-.5,0-.8,0-.8,0-1.1.2c-.3.2-.6.4-.8.7s-.4.6-.5,1-.2.9-.2,1.4,0,1,.2,1.4.3.8.5,1,.5.5.8.7.7.2,1.1.2.7,0,.9,0,.5-.2.6-.3c.2,0,.3-.2.4-.3s.2,0,.3,0,.2,0,.3.2l.5.7c-.2.3-.5.5-.7.7-.3.2-.5.3-.8.4s-.6.2-.9.2h-1c-.6,0-1.1,0-1.6-.3s-.9-.5-1.3-.9-.6-.9-.9-1.5-.3-1.2-.3-2,0-1.3.3-1.9.5-1.1.8-1.5.8-.7,1.4-1,1.2-.4,1.9-.4,1.2,0,1.7.3.9.5,1.3.9l-.5.7h.1Z"/>
    <path class="cls-11" d="M488.8,580.1c.4-.4.8-.7,1.3-.9s1-.4,1.6-.4,1,0,1.3.2c.4.2.7.4,1,.7s.5.7.6,1.1c.1.4.2.9.2,1.4v5.8h-1.8v-5.8c0-.7-.1-1.2-.5-1.5-.3-.4-.8-.5-1.4-.5s-.9,0-1.3.3-.8.5-1.1.9v6.7h-1.8v-13.3h1.8v5.3h0Z"/>
    <path class="cls-11" d="M504.6,586.7c-.2.2-.5.5-.8.7s-.6.3-.9.5c-.3,0-.6.2-1,.2h-1c-.6,0-1.2,0-1.8-.3s-1-.5-1.4-.9-.7-.9-.9-1.5c-.2-.6-.3-1.3-.3-2.1s.1-1.2.3-1.8c.2-.5.5-1,.9-1.4s.8-.7,1.4-1c.5-.2,1.1-.3,1.8-.3s1.1,0,1.5.3.9.5,1.2.8.6.8.8,1.3c.2.5.3,1.1.3,1.8s0,.5,0,.5c0,0-.2,0-.3,0h-6c0,.5.1,1,.2,1.4s.3.7.6,1c.2.3.5.5.9.6s.7.2,1.1.2.7,0,1,0,.5-.2.7-.3.4-.2.5-.3c.1,0,.3,0,.4,0s.2,0,.3.2l.5.7h0v-.2ZM503.1,582.5c0-.3,0-.7-.1-1s-.2-.5-.4-.8c-.2-.2-.4-.4-.7-.5s-.6-.2-1-.2c-.7,0-1.3.2-1.7.6-.4.4-.7,1-.8,1.8h4.8,0Z"/>
    <path class="cls-11" d="M515.4,575.1c.8,0,1.5,0,2.2.3s1.1.5,1.5.8.7.8.9,1.3.3,1,.3,1.7,0,1.2-.3,1.7-.5.9-.9,1.3-.9.7-1.5.8-1.3.3-2.1.3h-2v4.8h-1.9v-12.9h3.9-.1ZM515.4,581.8c.5,0,.9,0,1.3-.2s.7-.3.9-.5.4-.5.6-.8c0-.3.2-.7.2-1.1,0-.8-.2-1.4-.7-1.8-.5-.5-1.2-.7-2.2-.7h-2v5.2h2,0Z"/>
    <path class="cls-11" d="M521.5,580.2c.5-.5,1.1-.8,1.7-1.1.6-.2,1.2-.4,2-.4s1,0,1.4.3c.4.2.7.4,1,.7s.5.7.6,1.1c0,.4.2.9.2,1.4v5.8h-1.2c-.1,0-.2-.2-.2-.3l-.2-.8c-.2.2-.5.4-.7.6s-.5.3-.7.4c-.2,0-.5.2-.8.3h-.9c-.3,0-.7,0-1-.2-.3,0-.6-.2-.8-.5s-.4-.5-.5-.8-.2-.7-.2-1.1,0-.7.3-1c.2-.3.5-.6,1-.9.4-.3,1-.5,1.7-.7s1.6-.3,2.6-.3v-.7c0-.7-.2-1.2-.4-1.5s-.7-.5-1.3-.5-.7,0-1,0c-.3,0-.5.2-.7.3s-.3.2-.5.3c0,0-.3,0-.4,0h-.3s-.2,0-.2-.2l-.3-.6h0l-.2.2ZM526.7,584c-.7,0-1.3,0-1.8.2s-.9.2-1.2.3-.5.3-.7.5c0,.2-.2.4-.2.7s0,.4,0,.6c0,.2.2.3.3.4s.3.2.5.2h1.3c.2,0,.4,0,.6-.2.2,0,.4-.2.6-.4s.4-.3.5-.5v-1.8h0Z"/>
    <path class="cls-11" d="M532.4,580.7c.3-.6.7-1.1,1.1-1.4s.9-.5,1.5-.5h.6c.2,0,.3,0,.5.2v1.3c-.2.2-.3.2-.4.2h-.9c-.3,0-.5,0-.8,0s-.4.2-.6.4-.3.3-.5.6c0,.2-.2.5-.4.8v5.7h-1.8v-9.1h1.4s0,.2.2.4v1.3h.1Z"/>
    <path class="cls-11" d="M539.5,576.1v.5c0,.2-.2.3-.3.4,0,0-.2.2-.4.3s-.3,0-.5,0h-.5c-.2,0-.3-.2-.4-.3s-.2-.2-.3-.4,0-.3,0-.5v-.5c0-.2.2-.3.3-.4s.2-.2.4-.3.3,0,.5,0h.5c.2,0,.3.2.4.3s.2.2.3.4,0,.3,0,.5ZM539.2,578.9v9.1h-1.8v-9.1h1.8Z"/>
    <path class="cls-11" d="M544.6,588.2c-.7,0-1.3-.2-1.7-.6s-.6-1-.6-1.8v-5.5h-1.4c0,0,0-.2,0-.3v-.7l1.5-.2.4-2.7s0-.2,0-.2h1.2v3.1h2.6v1.3h-2.6v5.3c0,.4,0,.6.3.8s.4.3.7.3h.4c.1,0,.2,0,.3,0s.2,0,.2,0h.2q.1,0,0,0h0c0,0,.5.9.5.9-.3.3-.6.5-1,.6s-.8.2-1.2.2h0v-.3Z"/>
    <path class="cls-11" d="M556.2,578.9l-5.1,11.8c0,0,0,.2-.2.3,0,0-.2,0-.4,0h-1.3l1.7-3.7-3.8-8.6h1.5c.2,0,.3,0,.3,0,0,0,0,.2.2.2l2.3,5.5c0,0,0,.3,0,.4,0,0,0,.3,0,.4,0,0,0-.3,0-.4,0,0,0-.3.2-.4l2.2-5.5s0-.2.2-.2h1.9Z"/>
  </g>
  <rect class="cls-1" x="345" y="525.4" width="285" height="90"/>
  <g>
    <path class="cls-11" d="M436.6,475.5v4.3h5.2v1.6h-5.2v5.5h-1.9v-12.9h8v1.6h-6.1Z"/>
    <path class="cls-11" d="M446.1,473.6v13.3h-1.8v-13.3h1.8Z"/>
    <path class="cls-11" d="M452.5,477.5c.7,0,1.3.1,1.8.3s1,.5,1.4,1,.7.9.9,1.5.3,1.2.3,2-.1,1.4-.3,2-.5,1.1-.9,1.5-.8.7-1.4.9c-.5.2-1.1.3-1.8.3s-1.3-.1-1.8-.3c-.5-.2-1-.5-1.4-.9s-.7-.9-.9-1.5-.3-1.2-.3-2,.1-1.4.3-2,.5-1.1.9-1.5.9-.7,1.4-1,1.1-.3,1.8-.3ZM452.5,485.6c.9,0,1.5-.3,1.9-.9s.6-1.4.6-2.5-.2-1.9-.6-2.5-1.1-.9-1.9-.9-1.5.3-2,.9c-.4.6-.6,1.4-.6,2.5s.2,1.9.6,2.5,1.1.9,2,.9Z"/>
    <path class="cls-11" d="M458.6,479c.5-.5,1.1-.9,1.7-1.1s1.2-.4,2-.4,1,0,1.4.3c.4.2.7.4,1,.7s.5.7.6,1.1.2.9.2,1.4v5.8h-1.2c-.1,0-.2-.2-.2-.3l-.2-.8c-.2.2-.5.4-.7.6s-.5.3-.7.4-.5.2-.8.3h-.9c-.3,0-.7,0-1-.1s-.6-.2-.8-.5-.4-.5-.5-.8-.2-.7-.2-1.1.1-.7.3-1c.2-.3.5-.6,1-.9.4-.3,1-.5,1.7-.6s1.6-.3,2.6-.3v-.7c0-.7-.1-1.2-.4-1.5s-.7-.5-1.3-.5-.7,0-1,.1-.5.2-.7.3-.4.2-.5.3c-.1.1-.3.1-.4.1s-.2,0-.3-.1-.2-.1-.2-.2l-.3-.6h-.2ZM463.8,482.8c-.7,0-1.3,0-1.8.2s-.9.2-1.2.4c-.3.1-.5.3-.7.5-.1.2-.2.4-.2.6s0,.4.1.6c0,.2.2.3.3.4.1.1.3.2.5.2h1.3c.2,0,.4-.1.6-.2s.4-.2.6-.4c.2-.1.4-.3.5-.5v-1.8h0Z"/>
    <path class="cls-11" d="M470.6,487c-.7,0-1.3-.2-1.7-.6s-.6-1-.6-1.8v-5.5h-1.4c0,0-.1-.2-.1-.3v-.7l1.5-.2.4-2.7c0-.1,0-.2.1-.2h1.2v3.1h2.6v1.3h-2.6v5.4c0,.4,0,.6.3.8s.4.3.7.3h.4c.1,0,.2,0,.3-.1h.2c0-.1.1-.1.2-.1h.2c0,.1.5,1,.5,1-.3.3-.6.5-1,.6s-.8.2-1.2.2h0v-.5Z"/>
    <path class="cls-11" d="M476.4,474.9c0,.2,0,.3-.1.5,0,.1-.1.3-.3.4-.1.1-.2.2-.4.3h-1c-.1,0-.3-.1-.4-.3s-.2-.2-.3-.4v-1c0-.2.1-.3.3-.4s.2-.2.4-.3.3,0,.5,0h.5c.2,0,.3.1.4.3s.2.2.3.4c0,.1.1.3.1.5ZM476.1,477.7v9.1h-1.8v-9.1h1.8Z"/>
    <path class="cls-11" d="M480.3,479l.6-.6c.2-.2.5-.3.7-.5s.5-.2.8-.3.6-.1.9-.1c.5,0,1,0,1.3.2.4.2.7.4,1,.7.3.3.5.7.6,1.1s.2.9.2,1.4v5.8h-1.8v-5.8c0-.6-.1-1.2-.5-1.5-.3-.4-.8-.5-1.4-.5s-.9.1-1.3.3-.8.5-1.1.9v6.7h-1.8v-9.1h1c.2,0,.4.1.5.4v.9h.3Z"/>
    <path class="cls-11" d="M496.5,478v.7c0,.2-.1.4-.4.4h-1c0,.3.1.5.2.7s0,.4,0,.6c0,.5,0,.9-.3,1.2-.2.4-.4.7-.7.9-.3.3-.7.5-1.1.6s-.9.2-1.4.2-.8,0-1.2-.1c-.2.1-.3.2-.4.4,0,.1-.1.3-.1.4,0,.2,0,.4.3.5s.4.2.7.2h2.1c.4,0,.8,0,1.1.1.4,0,.7.2,1,.3s.5.4.7.6c.2.3.3.6.3,1s-.1.8-.3,1.1-.5.7-.9,1-.8.5-1.4.7-1.1.3-1.8.3-1.3,0-1.8-.2-.9-.3-1.2-.5-.6-.5-.8-.8c-.2-.3-.2-.6-.2-.9s.1-.8.4-1.1.7-.5,1.1-.7c-.3-.1-.5-.3-.6-.5s-.2-.5-.2-.8v-.4c0-.1.1-.3.2-.4s.2-.3.4-.4.3-.2.5-.3c-.5-.2-.8-.6-1.1-1-.3-.4-.4-.9-.4-1.5s0-.9.3-1.2c.2-.4.4-.7.7-.9.3-.3.7-.5,1.1-.6s.9-.2,1.4-.2c.8,0,1.5.2,2,.5h2.8ZM494.7,487.3c0-.2,0-.4-.2-.5-.1-.1-.3-.2-.5-.3s-.5-.1-.7-.2h-2.7c-.3.2-.6.3-.8.6-.2.2-.3.5-.3.8s0,.4.1.5.2.3.5.4.5.2.8.3.7.1,1.1.1.8,0,1.1-.1c.3,0,.6-.2.8-.3s.4-.3.5-.5.2-.4.2-.6h0v-.2ZM491.9,482.3c.3,0,.6,0,.8-.1.2,0,.4-.2.6-.4.2-.1.3-.3.4-.5,0-.2.1-.5.1-.7,0-.5-.2-1-.5-1.3s-.8-.5-1.4-.5-1.1.2-1.4.5-.5.7-.5,1.3,0,.5.1.7c0,.2.2.4.4.5.2.1.4.3.6.4.2,0,.5.1.8.1h0Z"/>
    <path class="cls-11" d="M506.9,473.9c.8,0,1.5.1,2.2.3.6.2,1.1.5,1.5.8s.7.8.9,1.3.3,1,.3,1.7-.1,1.2-.3,1.7-.5.9-.9,1.3-.9.6-1.5.9-1.3.3-2.1.3h-2v4.8h-1.9v-12.9h3.9v-.2ZM506.9,480.6c.5,0,.9,0,1.3-.2s.7-.3.9-.5c.2-.2.4-.5.6-.8.1-.3.2-.7.2-1.1,0-.8-.2-1.4-.7-1.9s-1.2-.7-2.2-.7h-2v5.1h2,0Z"/>
    <path class="cls-11" d="M517,477.5c.7,0,1.3.1,1.8.3s1,.5,1.4,1,.7.9.9,1.5.3,1.2.3,2,0,1.4-.3,2-.5,1.1-.9,1.5-.8.7-1.4.9c-.5.2-1.2.3-1.8.3s-1.3-.1-1.8-.3c-.5-.2-1-.5-1.4-.9s-.7-.9-.9-1.5-.3-1.2-.3-2,0-1.4.3-2,.5-1.1.9-1.5.8-.7,1.4-1c.5-.2,1.2-.3,1.8-.3ZM517,485.6c.9,0,1.5-.3,1.9-.9s.6-1.4.6-2.5-.2-1.9-.6-2.5-1.1-.9-1.9-.9-1.5.3-2,.9c-.4.6-.6,1.4-.6,2.5s.2,1.9.6,2.5,1.1.9,2,.9Z"/>
    <path class="cls-11" d="M525.5,474.9v.5c0,.1-.2.3-.3.4s-.2.2-.4.3-.3,0-.5,0h-.5c-.2,0-.3-.1-.4-.3,0-.1-.2-.2-.3-.4v-1c0-.2.2-.3.3-.4s.2-.2.4-.3.3,0,.5,0h.5c.2,0,.3.1.4.3,0,.1.2.2.3.4v.5ZM525.2,477.7v9.1h-1.8v-9.1h1.8Z"/>
    <path class="cls-11" d="M529.3,479c.2-.2.4-.4.6-.6s.5-.3.7-.5.5-.2.8-.3.6-.1.9-.1c.5,0,1,0,1.3.2s.7.4,1,.7c.3.3.5.7.6,1.1s.2.9.2,1.4v5.8h-1.8v-5.8c0-.6-.2-1.2-.5-1.5-.3-.4-.8-.5-1.4-.5s-.9.1-1.3.3-.8.5-1.1.9v6.7h-1.8v-9.1h1c.2,0,.4.1.5.4v.9h.3Z"/>
    <path class="cls-11" d="M540.5,487c-.7,0-1.3-.2-1.7-.6s-.6-1-.6-1.8v-5.5h-1.4c0,0,0-.2,0-.3v-.7l1.5-.2.4-2.7c0-.1,0-.2,0-.2h1.2v3.1h2.6v1.3h-2.6v5.4c0,.4,0,.6.3.8s.4.3.7.3h.4c.1,0,.2,0,.3-.1h.2c0-.1,0-.1.2-.1s0,0,0,0h0c0,.1.5,1,.5,1-.3.3-.6.5-1,.6s-.8.2-1.2.2h0v-.5Z"/>
  </g>
  <rect class="cls-1" x="345" y="450" width="285" height="60"/>
  <g>
    <path class="cls-11" d="M433.7,399.3v12.9h-1.4c-.1,0-.2-.1-.3-.3l-7.3-9.4v9.8h-1.7v-12.9h1.4c.1,0,.2.1.3.3l7.3,9.5v-9.8h1.7Z"/>
    <path class="cls-11" d="M445,410.7v1.6h-8v-12.9h8v1.6h-6.1v4.1h4.9v1.5h-4.9v4.2h6.1Z"/>
    <path class="cls-11" d="M459.1,405.8c0,1-.1,1.9-.5,2.7s-.8,1.5-1.3,2.1-1.2,1-2,1.4c-.8.3-1.7.5-2.6.5s-1.8-.2-2.6-.5c-.8-.3-1.5-.8-2-1.4s-1-1.3-1.3-2.1-.5-1.7-.5-2.7.2-1.8.5-2.7c.3-.8.8-1.5,1.3-2.1s1.2-1,2-1.4,1.7-.5,2.6-.5,1.8.2,2.6.5,1.5.8,2,1.4,1,1.3,1.3,2.1.5,1.7.5,2.7ZM457.1,405.8c0-.8-.1-1.5-.3-2.1-.2-.6-.5-1.1-.9-1.6-.4-.4-.9-.8-1.4-1s-1.2-.3-1.8-.3-1.3.1-1.8.3-1,.6-1.4,1-.7,1-.9,1.6-.3,1.3-.3,2.1.1,1.5.3,2.1c.2.6.5,1.1.9,1.5s.9.8,1.4,1,1.2.3,1.8.3,1.3-.1,1.8-.3,1-.5,1.4-1c.4-.4.7-.9.9-1.5s.3-1.3.3-2.1Z"/>
    <path class="cls-11" d="M472.1,399.3v12.9h-1.4c-.1,0-.2-.1-.3-.3l-7.3-9.4v9.8h-1.7v-12.9h1.4c.1,0,.2.1.3.3l7.3,9.5v-9.8h1.7Z"/>
    <path class="cls-11" d="M489.9,412.2h-1.5c-.2,0-.3,0-.4-.1s-.2-.2-.2-.3l-1.1-3h-5.7l-1.1,3c0,.1-.1.2-.2.3-.1,0-.2.1-.4.1h-1.5l5.1-12.9h1.9l5.1,12.9h0ZM486.1,407.4l-1.9-5c-.1-.3-.3-.8-.4-1.3,0,.3-.1.5-.2.7s-.1.4-.2.6l-1.9,5h4.6Z"/>
    <path class="cls-11" d="M498.6,399v13.3h-1.1c-.2,0-.4-.1-.5-.4v-1c-.5.5-1,.8-1.5,1.1s-1.1.4-1.7.4-1-.1-1.4-.3c-.4-.2-.8-.5-1.1-.9-.3-.4-.5-.9-.7-1.5s-.2-1.2-.2-2,0-1.3.3-1.9c.2-.6.4-1.1.8-1.5.3-.4.8-.8,1.2-1,.5-.2,1-.4,1.6-.4s1,0,1.4.3.7.4,1,.8v-5h1.9ZM496.8,405.3c-.3-.4-.6-.6-.9-.8s-.7-.2-1.1-.2c-.8,0-1.4.3-1.9.9s-.7,1.4-.7,2.5,0,1.1.1,1.5.2.8.4,1,.4.5.7.6c.3.1.6.2.9.2.5,0,1-.1,1.3-.3s.7-.5,1-1v-4.3h.2Z"/>
    <path class="cls-11" d="M509,403.1l-3.7,9.1h-1.6l-3.7-9.1h1.5c.1,0,.2,0,.3.1s.1.1.2.2l2.2,5.6c0,.2.1.5.2.7,0,.2.1.5.2.7,0-.2.1-.5.2-.7,0-.2.1-.5.2-.7l2.2-5.6c0-.1.1-.2.2-.2,0,0,.2-.1.3-.1h1.4-.1Z"/>
    <path class="cls-11" d="M517.3,401.4c0,.1,0,.2-.2.2h-.2s-.2,0-.4-.1-.3-.2-.5-.3-.5-.2-.7-.3c-.3-.1-.6-.1-1-.1s-.7,0-1,.1-.5.2-.7.4-.3.4-.4.6c0,.2,0,.5,0,.8s0,.6.3.9.4.4.7.6.6.3,1,.4.7.2,1.1.4c.4.1.8.3,1.1.5.4.2.7.4,1,.6.3.3.5.6.7.9s.3.8.3,1.4,0,1.1-.3,1.6c-.2.5-.5.9-.8,1.3s-.8.7-1.4.9-1.2.3-1.8.3-.8,0-1.2-.1-.8-.2-1.1-.3c-.4-.1-.7-.3-1-.5s-.6-.4-.8-.7l.5-.9.2-.2c.1-.1.2,0,.3,0s.3,0,.4.2.4.3.6.4c.2.1.5.3.9.4.3.1.8.2,1.2.2s.8,0,1.1-.2c.3-.1.6-.2.8-.5.2-.2.4-.4.5-.7s.2-.6.2-.9,0-.7-.3-.9-.4-.4-.7-.6-.6-.3-1-.4-.7-.2-1.1-.4c-.4-.1-.8-.3-1.1-.4-.4-.2-.7-.4-1-.6s-.5-.6-.7-1-.3-.9-.3-1.5,0-.9.3-1.3.4-.8.8-1.1c.4-.3.8-.6,1.3-.8.5-.2,1.1-.3,1.7-.3s1.4.1,2,.4,1.1.6,1.6,1l-.5.9h0l-.3-.3Z"/>
    <path class="cls-11" d="M522.4,412.2h-1.9v-12.9h1.9v12.9Z"/>
    <path class="cls-11" d="M539.2,399.3v12.9h-1.7v-10.1l-4.3,7.9c-.2.3-.4.4-.7.4h-.3c-.3,0-.5-.1-.7-.4l-4.4-7.9v10.1h-1.7v-12.9h1.8c.1,0,.2.1.3.3l4.3,7.7c0,.2.2.3.2.5s0,.4.2.5c0-.4.3-.7.4-1l4.2-7.7c0-.1.2-.2.3-.3h2.1Z"/>
    <path class="cls-11" d="M553.6,405.8c0,1-.2,1.8-.5,2.6-.3.8-.8,1.5-1.3,2s-1.2,1-2,1.3-1.7.5-2.6.5h-4.9v-12.9h4.9c1,0,1.8.2,2.6.5s1.5.8,2,1.3c.6.6,1,1.2,1.3,2s.5,1.7.5,2.6h0ZM551.7,405.8c0-.8,0-1.5-.3-2.1s-.5-1.1-.9-1.5-.8-.8-1.4-1-1.2-.3-1.8-.3h-2.9v9.8h2.9c.7,0,1.3-.1,1.8-.3s1-.5,1.4-1c.4-.4.7-.9.9-1.5s.3-1.3.3-2.1Z"/>
  </g>
  <rect class="cls-1" x="345" y="375.4" width="285" height="60"/>
  <g>
    <path class="cls-11" d="M475,326.4c0,.1-.1.2-.2.2h-.2c-.1,0-.2,0-.4-.1-.1-.1-.3-.2-.5-.3s-.5-.2-.7-.3c-.3-.1-.6-.1-1-.1s-.7,0-1,.1-.5.2-.7.4-.3.4-.4.6-.1.5-.1.8,0,.6.3.9.4.4.7.6c.3.2.6.3,1,.4s.7.2,1.1.4c.4.1.8.3,1.1.5.4.2.7.4,1,.6.3.3.5.6.7.9s.3.8.3,1.4-.1,1.1-.3,1.6c-.2.5-.5.9-.9,1.3s-.8.7-1.4.9-1.2.3-1.9.3-.8,0-1.2-.1c-.4,0-.8-.2-1.1-.3-.4-.1-.7-.3-1-.5s-.6-.4-.8-.7l.5-.9.2-.2c.1-.1.2,0,.3,0s.3,0,.4.2.4.3.6.4.5.3.9.4c.3.1.8.2,1.2.2s.8,0,1.1-.2c.3-.1.6-.2.8-.5.2-.2.4-.4.5-.7s.2-.6.2-.9,0-.7-.3-.9-.4-.4-.7-.6c-.3-.2-.6-.3-1-.4s-.7-.2-1.1-.4c-.4-.1-.8-.3-1.1-.4-.4-.2-.7-.4-1-.6s-.5-.6-.7-1-.3-.9-.3-1.5,0-.9.3-1.3.4-.8.8-1.1c.4-.3.8-.6,1.3-.8.5-.2,1.1-.3,1.7-.3s1.4.1,2,.4,1.1.6,1.6,1l-.5.9h0v-.3Z"/>
    <path class="cls-11" d="M488.5,324.3l-5.3,12.9h-1.7l-5.3-12.9h1.5c.2,0,.3,0,.4.1s.2.2.2.3l3.5,8.8c0,.2.2.5.2.7,0,.3.1.5.2.8,0-.3.1-.5.2-.8s.1-.5.2-.7l3.5-8.8c0-.1.1-.2.2-.3.1,0,.2-.1.4-.1h1.8Z"/>
    <path class="cls-11" d="M498.1,335.7v1.6h-8v-12.9h8v1.6h-6.1v4.1h4.9v1.5h-4.9v4.2h6.1Z"/>
    <path class="cls-11" d="M507.8,335.6c.2,0,.3,0,.5.2s.2.3.2.4v1.1h-8.7v-1c0-.1.1-.3.2-.4l4.1-4.1c.3-.3.6-.7.9-1s.5-.6.7-1c.2-.3.3-.6.5-1s.2-.7.2-1,0-.7-.2-1c-.1-.3-.3-.5-.5-.7s-.4-.3-.7-.4-.6-.1-.9-.1-.6,0-.9.1c-.3,0-.5.2-.7.4s-.4.4-.5.6-.2.5-.3.7c0,.2-.2.4-.3.5s-.3.1-.6,0l-.9-.2c0-.6.2-1.1.5-1.6.2-.5.5-.8.9-1.1.4-.3.8-.5,1.3-.7s1-.2,1.6-.2,1.1,0,1.6.2.9.4,1.2.7c.4.3.6.7.8,1.1s.3,1,.3,1.5,0,.9-.2,1.3c-.1.4-.3.8-.6,1.2-.2.4-.5.7-.9,1.1s-.7.7-1,1.1l-3.3,3.4c.2,0,.5-.1.8-.2h4.9Z"/>
  </g>
  <rect class="cls-1" x="345" y="300.4" width="285" height="60"/>
  <g>
    <path class="cls-11" d="M277,861.8h-1.5c-.2,0-.3,0-.4,0s-.2-.2-.2-.3l-1.1-3h-5.7l-1.1,3c0,0-.1.2-.2.3-.1,0-.2,0-.4,0h-1.5l5.1-12.9h1.9l5.1,12.9h0ZM273.2,857l-1.9-5c-.1-.3-.3-.8-.4-1.3,0,.3-.1.5-.2.7s-.1.4-.2.6l-1.9,5h4.6Z"/>
    <path class="cls-11" d="M283.7,854.3s-.1,0-.1.2h-.5c-.1,0-.3,0-.4-.2s-.4-.2-.6-.2h-1.5c-.2,0-.4.2-.5.3s-.3.2-.3.4-.1.3-.1.5,0,.4.2.6.3.3.5.4.5.2.8.3c.3,0,.6.2.9.3s.6.2.9.3.5.3.8.5.4.4.5.7.2.6.2,1,0,.8-.2,1.2c-.1.4-.4.7-.7.9-.3.3-.7.5-1.1.6s-.9.2-1.5.2-1.2,0-1.8-.3-1-.5-1.3-.8l.4-.7s.1-.2.2-.2h.3c0,0,.2,0,.4,0s.3.2.4.3c.2,0,.4.2.6.3s.5,0,.9,0,.6,0,.8,0c.2,0,.4-.2.5-.3s.3-.3.3-.5.1-.3.1-.5,0-.4-.2-.6c-.1-.2-.3-.3-.5-.4s-.5-.2-.8-.3c-.3,0-.6-.2-.9-.3-.3,0-.6-.2-.9-.3s-.5-.3-.8-.5-.4-.4-.5-.7-.2-.6-.2-1,0-.7.2-1,.4-.6.6-.8c.3-.2.6-.4,1-.6.4-.2.9-.2,1.4-.2s1.1,0,1.6.3c.5.2.9.5,1.3.8l-.4.6h0v-.4Z"/>
    <path class="cls-11" d="M293.9,852.7l-5.1,11.8c0,0-.1.2-.2.3,0,0-.2,0-.4,0h-1.3l1.7-3.7-3.8-8.6h1.5c.1,0,.3,0,.4,0,0,0,.1.2.2.2l2.3,5.5c0,0,0,.3.1.4,0,0,0,.3.1.4,0,0,0-.3.1-.4,0,0,.1-.3.1-.4l2.2-5.5s.1-.2.2-.2h1.9Z"/>
    <path class="cls-11" d="M296.9,854c.2-.2.4-.4.6-.6s.5-.3.7-.5.5-.2.8-.3.6,0,.9,0c.5,0,1,0,1.3.2.4.2.7.4,1,.7s.5.7.6,1.1c.1.4.2.9.2,1.4v5.8h-1.8v-5.8c0-.7-.1-1.2-.5-1.5-.3-.4-.8-.5-1.4-.5s-.9,0-1.3.3-.8.5-1.1.9v6.7h-1.8v-9.1h1c.2,0,.4,0,.5.3v.9h.3Z"/>
    <path class="cls-11" d="M311.7,854.4s-.1,0-.2.2-.1,0-.2,0-.2,0-.3,0c-.1,0-.2-.2-.4-.2s-.4-.2-.6-.2-.5,0-.8,0-.8,0-1.1.2c-.3.2-.6.4-.8.7s-.4.6-.5,1-.2.9-.2,1.4,0,1,.2,1.4.3.8.5,1,.5.5.8.7.7.2,1.1.2.7,0,.9,0,.5-.2.6-.3c.2,0,.3-.2.4-.3s.2,0,.3,0,.2,0,.3.2l.5.7c-.2.3-.5.5-.7.7-.3.2-.5.3-.8.4s-.6.2-.9.2h-1c-.6,0-1.1,0-1.6-.3s-.9-.5-1.3-.9-.6-.9-.9-1.5-.3-1.2-.3-2,0-1.3.3-1.9.5-1.1.8-1.5.8-.7,1.4-1,1.2-.4,1.9-.4,1.2,0,1.7.3.9.5,1.3.9l-.5.7h.1Z"/>
    <path class="cls-11" d="M315.7,853.9c.4-.4.8-.7,1.3-.9s1-.4,1.6-.4,1,0,1.3.2c.4.2.7.4,1,.7s.5.7.6,1.1c.1.4.2.9.2,1.4v5.8h-1.8v-5.8c0-.7-.1-1.2-.5-1.5-.3-.4-.8-.5-1.4-.5s-.9,0-1.3.3-.8.5-1.1.9v6.7h-1.8v-13.3h1.8v5.3h0Z"/>
    <path class="cls-11" d="M325.7,854.5c.3-.6.6-1.1,1.1-1.4s.9-.5,1.5-.5h.6c.2,0,.3,0,.5.2v1.3c-.2.2-.3.2-.4.2h-.9c-.3,0-.5,0-.8,0s-.4.2-.6.4-.3.3-.5.6c-.1.2-.2.5-.4.8v5.7h-1.8v-9.1h1.4s.1.2.1.4v1.3h.2Z"/>
    <path class="cls-11" d="M334.2,852.5c.7,0,1.3,0,1.8.3s1,.5,1.4,1,.7.9.9,1.5.3,1.2.3,2-.1,1.4-.3,2-.5,1.1-.9,1.5-.8.7-1.4.9c-.5.2-1.1.3-1.8.3s-1.3,0-1.8-.3-1-.5-1.4-.9-.7-.9-.9-1.5-.3-1.2-.3-2,.1-1.4.3-2,.5-1.1.9-1.5.9-.7,1.4-1c.5-.2,1.1-.3,1.8-.3ZM334.2,860.6c.9,0,1.5-.3,1.9-.9s.6-1.4.6-2.5-.2-1.9-.6-2.5-1.1-.9-1.9-.9-1.5.3-2,.9c-.4.6-.6,1.4-.6,2.5s.2,1.9.6,2.5,1.1.9,2,.9Z"/>
    <path class="cls-11" d="M342.2,854c.2-.2.4-.4.6-.6s.5-.3.7-.5.5-.2.8-.3.6,0,.9,0c.5,0,1,0,1.3.2.4.2.7.4,1,.7s.5.7.6,1.1c.1.4.2.9.2,1.4v5.8h-1.8v-5.8c0-.7-.1-1.2-.5-1.5-.3-.4-.8-.5-1.4-.5s-.9,0-1.3.3-.8.5-1.1.9v6.7h-1.8v-9.1h1c.2,0,.4,0,.5.3v.9h.3Z"/>
    <path class="cls-11" d="M354.5,852.5c.7,0,1.3,0,1.8.3s1,.5,1.4,1,.7.9.9,1.5.3,1.2.3,2-.1,1.4-.3,2-.5,1.1-.9,1.5-.8.7-1.4.9c-.5.2-1.1.3-1.8.3s-1.3,0-1.8-.3-1-.5-1.4-.9-.7-.9-.9-1.5-.3-1.2-.3-2,.1-1.4.3-2,.5-1.1.9-1.5.9-.7,1.4-1c.5-.2,1.1-.3,1.8-.3ZM354.5,860.6c.9,0,1.5-.3,1.9-.9s.6-1.4.6-2.5-.2-1.9-.6-2.5-1.1-.9-1.9-.9-1.5.3-2,.9c-.4.6-.6,1.4-.6,2.5s.2,1.9.6,2.5,1.1.9,2,.9Z"/>
    <path class="cls-11" d="M368.4,852.7v9.1h-1c-.2,0-.4,0-.5-.3v-.9c-.3.2-.5.4-.8.6-.2.2-.5.3-.7.5s-.5.2-.8.3h-.9c-.5,0-1,0-1.3-.2s-.7-.4-1-.7-.5-.7-.6-1.1c-.1-.4-.2-.9-.2-1.4v-5.8h1.8v5.8c0,.7.1,1.2.5,1.5.3.4.8.5,1.4.5s.9,0,1.3-.3.8-.5,1.1-.9v-6.7h1.8,0Z"/>
    <path class="cls-11" d="M376.3,854.3s-.1,0-.1.2h-.5c-.1,0-.3,0-.4-.2s-.4-.2-.6-.2h-1.5c-.2,0-.4.2-.5.3s-.3.2-.3.4-.1.3-.1.5,0,.4.2.6.3.3.5.4.5.2.8.3c.3,0,.6.2.9.3s.6.2.9.3.5.3.8.5.4.4.5.7.2.6.2,1,0,.8-.2,1.2c-.1.4-.4.7-.7.9-.3.3-.7.5-1.1.6s-.9.2-1.5.2-1.2,0-1.8-.3-1-.5-1.3-.8l.4-.7s.1-.2.2-.2h.3c0,0,.2,0,.4,0s.3.2.4.3c.2,0,.4.2.6.3s.5,0,.9,0,.6,0,.8,0c.2,0,.4-.2.5-.3s.3-.3.3-.5.1-.3.1-.5,0-.4-.2-.6c-.1-.2-.3-.3-.5-.4s-.5-.2-.8-.3c-.3,0-.6-.2-.9-.3-.3,0-.6-.2-.9-.3s-.5-.3-.8-.5-.4-.4-.5-.7-.2-.6-.2-1,0-.7.2-1,.4-.6.6-.8c.3-.2.6-.4,1-.6.4-.2.9-.2,1.4-.2s1.1,0,1.6.3c.5.2.9.5,1.3.8l-.4.6h0v-.4Z"/>
    <path class="cls-11" d="M387.8,848.9c.8,0,1.5,0,2.1.2s1,.4,1.4.7.6.7.8,1.1.3.9.3,1.4,0,.6-.1.9c-.1.3-.2.6-.4.8s-.5.5-.8.7-.6.4-1.1.5c1.9.4,2.8,1.3,2.8,2.9s-.1,1-.3,1.5c-.2.5-.5.8-.9,1.2s-.9.6-1.4.8c-.6.2-1.2.3-1.9.3h-4.6v-12.9h4.2-.1ZM385.5,850.4v4.2h2.2c.9,0,1.6-.2,2.1-.6s.7-.9.7-1.5-.2-1.3-.7-1.6-1.1-.5-2-.5h-2.3ZM388.2,860.3c.5,0,.9,0,1.2-.2.3,0,.6-.3.9-.5.2-.2.4-.4.5-.7s.1-.6.1-.9c0-.6-.2-1.2-.7-1.5s-1.1-.5-2.1-.5h-2.7v4.3h2.8Z"/>
    <path class="cls-11" d="M396.4,854.5c.3-.6.6-1.1,1.1-1.4s.9-.5,1.5-.5h.6c.2,0,.3,0,.5.2v1.3c-.2.2-.3.2-.4.2h-.9c-.3,0-.5,0-.8,0s-.4.2-.6.4-.3.3-.5.6c-.1.2-.2.5-.4.8v5.7h-1.8v-9.1h1.4s.1.2.1.4v1.3h.2Z"/>
    <path class="cls-11" d="M403.5,849.9c0,.2,0,.3-.1.5,0,.2-.1.3-.3.4-.1,0-.2.2-.4.3h-1c-.1,0-.3-.2-.4-.3s-.2-.2-.3-.4,0-.3,0-.5v-.5c0-.2.1-.3.3-.4.1,0,.2-.2.4-.3s.3,0,.5,0h.5c.2,0,.3.2.4.3s.2.2.3.4c0,.2.1.3.1.5ZM403.2,852.7v9.1h-1.8v-9.1h1.8Z"/>
    <path class="cls-11" d="M413.4,848.6v13.3h-1.1c-.2,0-.4,0-.5-.3v-1c-.5.5-1,.8-1.5,1.1s-1.1.4-1.7.4-1,0-1.4-.3c-.4-.2-.8-.5-1.1-.9-.3-.4-.5-.9-.7-1.5s-.2-1.2-.2-2,0-1.3.3-1.9.4-1.1.8-1.5c.3-.4.8-.8,1.2-1,.5-.2,1-.4,1.6-.4s1,0,1.4.3.7.4,1,.8v-5h1.9ZM411.6,854.9c-.3-.4-.6-.6-.9-.8s-.7-.2-1.1-.2c-.8,0-1.4.3-1.9.9s-.7,1.4-.7,2.5,0,1.1.1,1.5.2.8.4,1,.4.5.7.6c.3,0,.6.2.9.2.5,0,1,0,1.3-.3.4-.2.7-.5,1-1v-4.3h.2Z"/>
    <path class="cls-11" d="M423.6,853v.7c0,.2-.1.3-.4.4h-1c0,.3.1.5.2.7s0,.4,0,.7c0,.5,0,.9-.3,1.2s-.4.7-.7.9-.7.5-1.1.6-.9.2-1.4.2-.8,0-1.2,0c-.2,0-.3.2-.4.4s-.1.3-.1.4c0,.2,0,.4.3.5s.4.2.7.2h2.1c.4,0,.8,0,1.1,0,.4,0,.7.2,1,.3s.5.4.7.6c.2.3.3.6.3,1s-.1.8-.3,1.2-.5.7-.9,1-.8.5-1.4.7-1.1.3-1.8.3-1.3,0-1.8-.2-.9-.3-1.2-.5-.6-.5-.8-.8c-.2-.3-.2-.6-.2-.9s.1-.8.4-1.1.7-.5,1.1-.7c-.3,0-.5-.3-.6-.5-.2-.2-.2-.5-.2-.8v-.4c0,0,.1-.3.2-.4s.2-.3.4-.4.3-.2.5-.3c-.5-.2-.8-.6-1.1-1-.3-.4-.4-.9-.4-1.5s0-.9.3-1.2.4-.7.7-.9c.3-.3.7-.5,1.1-.6s.9-.2,1.4-.2c.8,0,1.5.2,2,.5h2.8ZM421.9,862.3c0-.2,0-.4-.2-.5s-.3-.2-.5-.3-.5,0-.7-.2h-2.7c-.3.2-.6.3-.8.6-.2.2-.3.5-.3.8s0,.4.1.5.2.3.5.4.5.2.8.3.7,0,1.1,0,.8,0,1.1,0c.3,0,.6-.2.8-.3s.4-.3.5-.5.2-.4.2-.6h0ZM419.1,857.3c.3,0,.6,0,.8,0,.2,0,.4-.2.6-.4s.3-.3.4-.5c0-.2.1-.5.1-.7,0-.5-.2-1-.5-1.3s-.8-.5-1.4-.5-1.1.2-1.4.5-.5.7-.5,1.3,0,.5.1.7c0,.2.2.4.4.5.2.2.4.3.6.4.2,0,.5,0,.8,0h0Z"/>
    <path class="cls-11" d="M432.6,860.5c-.2.2-.5.5-.8.7s-.6.3-.9.5c-.3,0-.6.2-1,.2h-1c-.6,0-1.2,0-1.8-.3s-1-.5-1.4-.9-.7-.9-.9-1.5c-.2-.6-.3-1.3-.3-2.1s.1-1.2.3-1.8c.2-.5.5-1,.9-1.4s.8-.7,1.4-1c.5-.2,1.1-.3,1.8-.3s1.1,0,1.5.3.9.5,1.2.8.6.8.8,1.3c.2.5.3,1.1.3,1.8s0,.5,0,.5c0,0-.2,0-.3,0h-6c0,.5.1,1,.2,1.4s.3.7.6,1c.2.3.5.5.9.6s.7.2,1.1.2.7,0,1,0,.5-.2.7-.3.4-.2.5-.3c.1,0,.3,0,.4,0s.2,0,.3.2l.5.7h0v-.2ZM431.2,856.2c0-.3,0-.7-.1-1s-.2-.5-.4-.8c-.2-.2-.4-.4-.7-.5s-.6-.2-1-.2c-.7,0-1.3.2-1.7.6-.4.4-.7,1-.8,1.8h4.8,0Z"/>
    <path class="cls-11" d="M440,854.3s-.1,0-.1.2h-.5c-.1,0-.3,0-.4-.2s-.4-.2-.6-.2h-1.5c-.2,0-.4.2-.5.3s-.3.2-.3.4-.1.3-.1.5,0,.4.2.6.3.3.5.4.5.2.8.3c.3,0,.6.2.9.3s.6.2.9.3.5.3.8.5.4.4.5.7.2.6.2,1,0,.8-.2,1.2c-.1.4-.4.7-.7.9-.3.3-.7.5-1.1.6s-.9.2-1.5.2-1.2,0-1.8-.3-1-.5-1.3-.8l.4-.7s.1-.2.2-.2h.3c0,0,.2,0,.4,0s.3.2.4.3c.2,0,.4.2.6.3s.5,0,.9,0,.6,0,.8,0c.2,0,.4-.2.5-.3s.3-.3.3-.5.1-.3.1-.5,0-.4-.2-.6c-.1-.2-.3-.3-.5-.4s-.5-.2-.8-.3c-.3,0-.6-.2-.9-.3-.3,0-.6-.2-.9-.3s-.5-.3-.8-.5-.4-.4-.5-.7-.2-.6-.2-1,0-.7.2-1,.4-.6.6-.8c.3-.2.6-.4,1-.6.4-.2.9-.2,1.4-.2s1.1,0,1.6.3c.5.2.9.5,1.3.8l-.4.6h0v-.4Z"/>
  </g>
  <rect class="cls-1" x="45" y="825" width="615" height="60"/>
  <g>
    <path class="cls-11" d="M133.8,926s-.1.2-.2.2h-.2c0,0-.2,0-.4-.2-.1,0-.3-.2-.5-.3s-.4-.2-.7-.3c-.3,0-.6-.2-1-.2s-.7,0-1,.2c-.3,0-.5.2-.7.4s-.3.4-.4.6-.1.5-.1.8,0,.6.3.9c.2.2.4.4.7.6.3.2.6.3,1,.4.4,0,.7.2,1.1.4.4,0,.8.3,1.1.5.4.2.7.4,1,.6.3.3.5.6.7.9s.3.8.3,1.3-.1,1.1-.3,1.6-.5.9-.9,1.3-.8.7-1.4.9-1.2.3-1.9.3-.8,0-1.2,0-.8-.2-1.1-.3c-.3-.2-.7-.3-1-.5s-.6-.4-.8-.7l.6-.9s0,0,.2-.2.2,0,.3,0,.3,0,.4.2c.2,0,.4.3.6.4.2.2.5.3.9.4.3,0,.8.2,1.2.2s.8,0,1.1-.2c.3,0,.6-.2.8-.5.2-.2.4-.4.5-.7s.2-.6.2-.9,0-.7-.3-.9-.4-.4-.7-.6c-.3-.2-.6-.3-1-.4-.4,0-.7-.2-1.1-.4-.4,0-.8-.3-1.1-.4-.4-.2-.7-.4-1-.6s-.5-.6-.7-1-.3-.9-.3-1.5,0-.9.3-1.3c.2-.4.4-.8.8-1.2.3-.3.8-.6,1.3-.8s1.1-.3,1.7-.3,1.4,0,2,.3,1.1.6,1.6,1l-.5.9h-.2Z"/>
    <path class="cls-11" d="M145.9,934.1c.1,0,.2,0,.3,0l.8.8c-.5.6-1.2,1.1-1.9,1.5s-1.7.5-2.7.5-1.8-.2-2.5-.5c-.8-.3-1.4-.8-1.9-1.4-.5-.6-.9-1.3-1.2-2.1s-.4-1.7-.4-2.7.1-1.9.5-2.7c.3-.8.7-1.5,1.3-2.1s1.2-1,2-1.4c.8-.3,1.6-.5,2.6-.5s1.7.2,2.4.5,1.3.7,1.9,1.2l-.6.9s0,0-.2.2-.1,0-.2,0-.2,0-.4-.2-.4-.2-.6-.4-.6-.3-.9-.4c-.4,0-.8-.2-1.4-.2s-1.2,0-1.8.3c-.5.2-1,.5-1.4,1s-.7.9-.9,1.6c-.2.6-.3,1.3-.3,2.1s.1,1.5.3,2.1.5,1.1.9,1.6.9.8,1.4,1,1.1.3,1.7.3h1c.3,0,.6,0,.8-.2s.5-.2.7-.3.4-.3.7-.5h.3-.3Z"/>
    <path class="cls-11" d="M153.9,935.3c.5,0,1,0,1.4-.3s.8-.4,1-.7c.3-.3.5-.7.6-1.1.1-.4.2-.9.2-1.4v-7.8h1.9v7.8c0,.8-.1,1.5-.4,2.1-.2.6-.6,1.2-1,1.7s-1,.8-1.6,1.1-1.4.4-2.2.4-1.5,0-2.2-.4-1.2-.6-1.6-1.1-.8-1-1-1.7c-.2-.6-.4-1.3-.4-2.1v-7.8h1.9v7.8c0,.5,0,1,.2,1.5s.4.8.6,1.1c.3.3.6.6,1,.7.4.2.9.3,1.4.3h.2Z"/>
  </g>
  <rect class="cls-1" x="45" y="900" width="195" height="60"/>
  <g>
    <path class="cls-11" d="M345.3,935.5v1.3h-7v-1.3h2.7v-9.3l-2.2,1.9h-.2c0,0-.2,0-.2,0h-.2s-.1,0-.1,0l-.5-.8,3.9-3.3h1.4v11.6h2.5,0Z"/>
    <path class="cls-11" d="M355.4,936.8h-1.7c-.1,0-.2,0-.3,0s-.1-.2-.2-.2l-2.2-3.5v.3c0,0,0,.2-.1.2l-2,3s-.1.2-.2.2-.2,0-.3,0h-1.6l3.2-4.7-3.1-4.4h2c0,0,.1,0,.2.2l2.2,3.3s0-.2.1-.3,0-.2.1-.3l1.9-2.8c.1-.2.2-.3.4-.3h1.6l-3.1,4.4,3.2,4.8h-.1Z"/>
    <path class="cls-11" d="M357.9,937c0,.2-.2.4-.4.5s-.4.2-.6.2h-.7l5.4-13.5c0-.2.2-.4.4-.5.2,0,.3-.2.5-.2h.8l-5.3,13.4h0Z"/>
    <path class="cls-11" d="M372.6,935.2c.2,0,.3,0,.5.2.1,0,.2.3.2.4v1.1h-8.7v-1c0,0,.1-.3.2-.4l4.1-4.1c.3-.3.6-.7.9-1s.5-.6.7-1c.2-.3.3-.6.5-1s.2-.7.2-1,0-.7-.2-1c-.1-.3-.3-.5-.5-.7s-.4-.3-.7-.4-.6,0-.9,0-.6,0-.9,0c-.3,0-.5.2-.7.4s-.4.3-.5.6c-.1.2-.2.5-.3.7,0,.2-.2.4-.3.5s-.3,0-.6,0l-.9-.2c0-.6.2-1.1.5-1.6.2-.5.5-.8.9-1.2.4-.3.8-.5,1.3-.7s1-.2,1.6-.2,1.1,0,1.6.2.9.4,1.2.7c.4.3.6.7.8,1.1s.3,1,.3,1.5,0,.9-.2,1.3c-.1.4-.3.8-.6,1.2-.2.4-.5.7-.9,1.1s-.7.7-1,1.1l-3.3,3.3c.2,0,.5,0,.8-.2h4.8v.3Z"/>
    <path class="cls-11" d="M383.1,936.8h-1.7c-.1,0-.2,0-.3,0s-.1-.2-.2-.2l-2.2-3.5v.3c0,0,0,.2-.1.2l-2,3s-.1.2-.2.2-.2,0-.3,0h-1.6l3.2-4.7-3.1-4.4h2c0,0,.1,0,.2.2l2.2,3.3s0-.2.1-.3,0-.2.1-.3l1.9-2.8c.1-.2.2-.3.4-.3h1.6l-3.1,4.4,3.2,4.8h-.1Z"/>
    <path class="cls-11" d="M385.6,937c0,.2-.2.4-.4.5s-.4.2-.6.2h-.7l5.4-13.5c0-.2.2-.4.4-.5.2,0,.3-.2.5-.2h.8l-5.3,13.4h0Z"/>
    <path class="cls-11" d="M401.4,932.1v1s0,.2-.1.3-.2,0-.3,0h-1.5v3.3h-1.5v-3.3h-5.7c-.1,0-.2,0-.3,0,0,0-.1-.2-.2-.3l-.2-.9,6.2-8.3h1.7v8.2h1.9ZM398,932.1v-6.1l-4.5,6.2h4.5Z"/>
    <path class="cls-11" d="M410.8,936.8h-1.7c-.1,0-.2,0-.3,0s-.1-.2-.2-.2l-2.2-3.5v.3c0,0,0,.2-.1.2l-2,3s-.1.2-.2.2-.2,0-.3,0h-1.6l3.2-4.7-3.1-4.4h2c0,0,.1,0,.2.2l2.2,3.3s0-.2.1-.3,0-.2.1-.3l1.9-2.8c.1-.2.2-.3.4-.3h1.6l-3.1,4.4,3.2,4.8h-.1Z"/>
    <path class="cls-11" d="M424.4,935.2c.2,0,.3,0,.5.2.1,0,.2.3.2.4v1.1h-8.7v-1c0,0,.1-.3.2-.4l4.1-4.1c.3-.3.6-.7.9-1s.5-.6.7-1c.2-.3.3-.6.5-1s.2-.7.2-1,0-.7-.2-1c-.1-.3-.3-.5-.5-.7s-.4-.3-.7-.4-.6,0-.9,0-.6,0-.9,0c-.3,0-.5.2-.7.4s-.4.3-.5.6c-.1.2-.2.5-.3.7,0,.2-.2.4-.3.5s-.3,0-.6,0l-.9-.2c0-.6.2-1.1.5-1.6.2-.5.5-.8.9-1.2.4-.3.8-.5,1.3-.7s1-.2,1.6-.2,1.1,0,1.6.2.9.4,1.2.7c.4.3.6.7.8,1.1s.3,1,.3,1.5,0,.9-.2,1.3c-.1.4-.3.8-.6,1.2-.2.4-.5.7-.9,1.1s-.7.7-1,1.1l-3.3,3.3c.2,0,.5,0,.8-.2h4.8v.3Z"/>
    <path class="cls-11" d="M429.3,928.7c.7,0,1.3-.2,1.8-.2s1.3,0,1.8.3c.5.2,1,.5,1.3.8.4.3.6.8.8,1.2.2.5.3,1,.3,1.5s-.1,1.3-.4,1.9-.6,1-1,1.4-.9.7-1.5.9-1.2.3-1.9.3-.8,0-1.1,0c-.4,0-.7-.2-1-.3s-.6-.3-.9-.5-.5-.3-.7-.5l.5-.8c.1-.2.3-.2.5-.2s.3,0,.4,0c.1,0,.3.2.5.3s.5.2.8.3.6,0,1,0,.8,0,1.2-.2.6-.3.9-.6c.2-.3.4-.6.6-.9s.2-.8.2-1.2,0-.7-.2-1c-.1-.3-.3-.6-.5-.8s-.5-.4-.9-.5-.7-.2-1.2-.2-1.3,0-2,.3l-1.1-.3,1-6.1h6.2v.8c0,.2,0,.5-.2.6s-.4.2-.8.2h-3.9l-.6,3.2h0v.2Z"/>
    <path class="cls-11" d="M440.8,928.7c-.1,0-.2.3-.3.4-.1,0-.2.2-.3.4.3-.2.6-.3,1-.4s.7-.2,1.1-.2,1,0,1.5.2.9.4,1.2.7.6.7.8,1.2c.2.5.3,1,.3,1.7s-.1,1.2-.3,1.7c-.2.5-.5,1-.9,1.3s-.9.7-1.4.9-1.1.3-1.8.3-1.3,0-1.8-.3-1-.5-1.4-.9-.7-.9-.9-1.4c-.2-.5-.3-1.2-.3-1.8s.1-1.2.4-1.8.6-1.3,1.2-2l3.2-4.3c0,0,.2-.2.4-.3s.4,0,.6,0h1.6l-3.8,4.8h-.1ZM441.6,935.5c.4,0,.8,0,1.1-.2.3,0,.6-.3.9-.5s.4-.5.6-.8.2-.7.2-1,0-.8-.2-1.1-.3-.6-.5-.8-.5-.4-.8-.5-.7-.2-1.1-.2-.8,0-1.1.2-.6.3-.9.6-.4.5-.5.8-.2.7-.2,1,0,.8.2,1.1c.1.3.3.6.5.8s.5.4.8.5.7.2,1.1.2h-.1Z"/>
    <path class="cls-11" d="M448,930.7h4.5v1.5h-4.5v-1.5Z"/>
    <path class="cls-11" d="M456.5,929c.4-.4.8-.8,1.3-1s1-.4,1.6-.4,1,0,1.4.3.8.5,1.1.9.5.9.7,1.4.2,1.2.2,1.9,0,1.4-.3,2c-.2.6-.4,1.1-.8,1.6-.3.4-.8.8-1.2,1-.5.2-1,.4-1.6.4h-.8c-.2,0-.5,0-.7-.2s-.4-.2-.6-.4l-.5-.5v.8c-.1.2-.3.4-.5.4h-1.1v-13.3h1.8v5.4h0v-.3ZM456.5,934.6c.3.4.6.6.9.8s.7.2,1.1.2c.8,0,1.4-.3,1.9-.9.4-.6.7-1.5.7-2.6s-.2-1.9-.6-2.4-.9-.8-1.7-.8-.9,0-1.3.3-.7.5-1,1v4.3h0Z"/>
    <path class="cls-11" d="M467.1,924.9c0,.2,0,.3-.1.5,0,.2-.1.3-.3.4-.1,0-.2.2-.4.3h-1c-.1,0-.3-.2-.4-.3s-.2-.2-.3-.4,0-.3,0-.5v-.5c0-.2.1-.3.3-.4.1,0,.2-.2.4-.3s.3,0,.5,0h.5c.2,0,.3.2.4.3s.2.2.3.4c0,.2.1.3.1.5ZM466.7,927.7v9.1h-1.8v-9.1h1.8Z"/>
    <path class="cls-11" d="M472.1,937c-.7,0-1.3-.2-1.7-.6s-.6-1-.6-1.8v-5.5h-1.4c0,0-.1-.2-.1-.3v-.7l1.5-.2.4-2.7s0-.2.1-.2h1.2v3.1h2.6v1.3h-2.6v5.3c0,.4,0,.6.3.8s.4.3.7.3h.4c.1,0,.2,0,.3,0s.2,0,.2,0h.4c0,0,.5.9.5.9-.3.3-.6.5-1,.6s-.8.2-1.2.2h0v-.3Z"/>
    <path class="cls-11" d="M490.8,936.8h-1.5c-.2,0-.3,0-.4,0s-.2-.2-.2-.3l-1.1-3h-5.7l-1.1,3c0,0-.1.2-.2.3-.1,0-.2,0-.4,0h-1.5l5.1-12.9h1.9l5.1,12.9h0ZM487,932l-1.9-5c-.1-.3-.3-.8-.4-1.3,0,.3-.1.5-.2.7s-.1.4-.2.6l-1.9,5h4.6Z"/>
    <path class="cls-11" d="M506,923.9v12.9h-1.7v-10.1l-4.3,7.9c-.1.3-.4.4-.7.4h-.3c-.3,0-.5-.2-.7-.4l-4.4-7.9v10.1h-1.7v-12.9h1.8s.2,0,.3.3l4.3,7.7c0,.2.2.3.2.5s.1.3.2.5c.1-.3.3-.7.4-1l4.2-7.7c0-.2.2-.2.3-.3h2.1Z"/>
    <path class="cls-11" d="M513.4,923.9c.8,0,1.5,0,2.1.2s1,.4,1.4.7.7.7.8,1.1c.2.4.3.9.3,1.4s0,.6,0,.9c0,.3-.2.6-.4.8s-.5.5-.8.7-.7.4-1.1.5c1.9.4,2.8,1.3,2.8,2.9s0,1-.3,1.5c-.2.5-.5.8-.9,1.2s-.9.6-1.4.8c-.6.2-1.2.3-1.9.3h-4.6v-12.9h4.2,0ZM511.1,925.4v4.2h2.2c.9,0,1.6-.2,2.1-.6s.7-.9.7-1.5-.2-1.3-.7-1.6-1.1-.5-2-.5h-2.3,0ZM513.8,935.3c.5,0,.9,0,1.2-.2.3,0,.6-.3.8-.5s.4-.4.5-.7c0-.3.2-.6.2-.9,0-.6-.2-1.2-.7-1.5s-1.1-.5-2.1-.5h-2.7v4.3h2.8Z"/>
    <path class="cls-11" d="M531.3,936.8h-1.5c-.2,0-.3,0-.4,0s-.2-.2-.2-.3l-1.1-3h-5.7l-1.1,3c0,0,0,.2-.2.3s-.2,0-.4,0h-1.5l5.2-12.9h1.9l5.2,12.9h-.2ZM527.5,932l-1.9-5c0-.3-.3-.8-.4-1.3,0,.3,0,.5-.2.7s0,.4-.2.6l-1.9,5h4.6Z"/>
    <path class="cls-11" d="M545.9,934.1c0,0,.2,0,.3,0l.8.8c-.5.6-1.2,1.1-1.9,1.5s-1.7.5-2.7.5-1.8-.2-2.5-.5c-.8-.3-1.4-.8-1.9-1.4-.5-.6-1-1.3-1.2-2.1-.3-.8-.4-1.7-.4-2.7s.2-1.9.5-2.7.7-1.5,1.3-2.1,1.2-1,2-1.4c.8-.3,1.6-.5,2.6-.5s1.7.2,2.5.5c.7.3,1.3.7,1.9,1.2l-.6.9s0,0-.2.2-.2,0-.2,0c0,0-.2,0-.4-.2s-.3-.2-.6-.4-.6-.3-.9-.4c-.4,0-.8-.2-1.4-.2s-1.2,0-1.8.3c-.5.2-1,.5-1.4,1s-.7.9-.9,1.6-.3,1.3-.3,2.1,0,1.5.3,2.1.5,1.1.9,1.6c.4.4.8.8,1.4,1s1.1.3,1.7.3h1c.3,0,.6,0,.8-.2s.5-.2.7-.3.4-.3.7-.5h.4-.5Z"/>
    <path class="cls-11" d="M559.5,923.9v12.9h-1.9v-5.8h-6.7v5.8h-1.9v-12.9h1.9v5.7h6.7v-5.7h1.9Z"/>
    <path class="cls-11" d="M564.6,936.8h-1.9v-12.9h1.9v12.9Z"/>
    <path class="cls-11" d="M567.1,935.8v-.5c0-.2,0-.3.2-.4,0,0,.2-.2.4-.3h1c0,0,.3.2.4.3s.2.2.3.4v1c0,.2-.2.3-.3.4s-.2.2-.4.2h-1c0,0-.3,0-.4-.2s-.2-.2-.2-.4v-.5Z"/>
    <path class="cls-11" d="M579.2,935.5c-.2.2-.5.5-.8.7s-.6.3-.9.5c-.3,0-.7.2-1,.2h-1c-.6,0-1.2,0-1.8-.3s-1-.5-1.4-.9-.7-.9-.9-1.5-.3-1.3-.3-2.1,0-1.2.3-1.8c.2-.5.5-1,.8-1.4s.8-.7,1.3-1c.5-.2,1.1-.3,1.8-.3s1.1,0,1.5.3.9.5,1.2.8.6.8.8,1.3.3,1.1.3,1.8,0,.5,0,.5c0,0-.2,0-.3,0h-6c0,.5,0,1,.2,1.4,0,.4.3.7.6,1s.5.5.9.6.7.2,1.1.2.7,0,1,0,.5-.2.7-.3c.2,0,.4-.2.5-.3,0,0,.3,0,.4,0s.2,0,.3.2l.5.7h0l.2-.2ZM577.7,931.2c0-.3,0-.7-.2-1s-.2-.5-.4-.8c-.2-.2-.4-.4-.7-.5s-.6-.2-1-.2c-.7,0-1.3.2-1.7.6s-.7,1-.8,1.8h4.8Z"/>
  </g>
  <rect class="cls-1" x="255" y="900" width="405" height="60"/>
  <g>
    <path class="cls-11" d="M335,1005.8c0,1.1-.1,2.1-.4,2.9-.2.8-.6,1.5-1,2.1-.4.5-.9,1-1.5,1.2-.6.3-1.2.4-1.9.4s-1.3,0-1.9-.4c-.6-.3-1.1-.7-1.5-1.2s-.8-1.2-1-2.1-.4-1.8-.4-2.9.1-2.1.4-2.9.6-1.5,1-2.1c.4-.5.9-1,1.5-1.2.6-.3,1.2-.4,1.9-.4s1.3,0,1.9.4c.6.3,1.1.7,1.5,1.2s.8,1.2,1,2.1.4,1.8.4,2.9ZM333.2,1005.8c0-1,0-1.8-.2-2.4s-.4-1.2-.6-1.6c-.3-.4-.6-.7-.9-.8s-.7-.2-1.1-.2-.7,0-1.1.2-.7.5-.9.8c-.3.4-.5.9-.6,1.6-.2.7-.2,1.5-.2,2.4s0,1.8.2,2.4c.2.7.4,1.2.6,1.6.3.4.6.7.9.8s.7.2,1.1.2.7,0,1.1-.2.7-.5.9-.8c.3-.4.5-.9.6-1.6.2-.7.2-1.5.2-2.4Z"/>
    <path class="cls-11" d="M339.1,1004.9h1.1c.1,0,.3-.2.4-.3l4.1-4.8c.1-.2.3-.3.4-.3h2.1l-4.8,5.5c-.1.2-.2.3-.4.4s-.2.2-.4.2c.3,0,.6.3.9.7l5,6.1h-2.2s-.1,0-.2,0c0,0-.1,0-.1-.2l-4.3-5s-.1,0-.2-.2c0,0-.1,0-.2,0s-.2,0-.3,0h-1.2v5.9h-1.9v-12.9h1.9v5.6h0l.3-.5Z"/>
    <path class="cls-11" d="M353.4,999.3c.8,0,1.5,0,2.1.2s1,.4,1.4.7.6.7.8,1.1.3.9.3,1.4,0,.6-.1.9c-.1.3-.2.6-.4.8s-.5.5-.8.7-.6.4-1.1.5c1.9.4,2.8,1.3,2.8,2.9s-.1,1-.3,1.5c-.2.5-.5.8-.9,1.2s-.9.6-1.4.8c-.6.2-1.2.3-1.9.3h-4.6v-12.9h4.2-.1ZM351.1,1000.8v4.2h2.2c.9,0,1.6-.2,2.1-.6s.7-.9.7-1.5-.2-1.3-.7-1.6-1.1-.5-2-.5h-2.3ZM353.8,1010.7c.5,0,.9,0,1.2-.2.3,0,.6-.3.9-.5.2-.2.4-.4.5-.7s.1-.6.1-.9c0-.6-.2-1.2-.7-1.5s-1.1-.5-2.1-.5h-2.7v4.3h2.8Z"/>
    <path class="cls-11" d="M360.4,1006.1h4.5v1.5h-4.5v-1.5Z"/>
    <path class="cls-11" d="M367.1,1002.8c0-.6.3-1.1.5-1.6s.5-.8.9-1.2c.4-.3.8-.5,1.3-.7s1-.2,1.6-.2,1.1,0,1.5.2.9.4,1.2.7.6.6.8,1,.3.9.3,1.3,0,.8-.1,1.1-.2.6-.4.8c-.2.2-.4.4-.7.6s-.6.3-.9.4c.8.2,1.4.6,1.9,1.1s.6,1.2.6,2-.1,1.2-.3,1.6-.5.9-.9,1.2-.9.6-1.4.8-1.1.3-1.7.3-1.3,0-1.8-.2-.9-.4-1.2-.7c-.3-.3-.6-.7-.9-1.1s-.4-.9-.6-1.4l.8-.3c.2,0,.4,0,.6,0s.3,0,.4.3c0,.2.2.4.3.6s.3.4.5.6.5.4.7.5c.3,0,.7.2,1.1.2s.8,0,1.1-.2.6-.3.8-.5.4-.5.5-.8.2-.5.2-.8,0-.6-.1-.9-.2-.5-.5-.7c-.2-.2-.6-.4-1-.5s-1-.2-1.6-.2v-1.3c.5,0,1,0,1.4-.2s.7-.3.9-.5.4-.4.5-.7.2-.6.2-.9,0-.7-.2-.9-.3-.5-.5-.7-.4-.3-.7-.4c-.3,0-.6,0-.9,0s-.6,0-.9,0c-.3,0-.5.2-.7.4s-.4.3-.5.6c-.1.2-.2.5-.3.7,0,.2-.2.4-.3.5s-.3,0-.5,0l-.9-.2h0v.3Z"/>
    <path class="cls-11" d="M385.3,1010.6c.2,0,.3,0,.5.2.1,0,.2.3.2.4v1.1h-8.7v-1c0,0,.1-.3.2-.4l4.1-4.1c.3-.3.6-.7.9-1s.5-.6.7-1c.2-.3.3-.6.5-1s.2-.7.2-1,0-.7-.2-1c-.1-.3-.3-.5-.5-.7s-.4-.3-.7-.4-.6,0-.9,0-.6,0-.9,0c-.3,0-.5.2-.7.4s-.4.3-.5.6c-.1.2-.2.5-.3.7,0,.2-.2.4-.3.5s-.3,0-.6,0l-.9-.2c0-.6.2-1.1.5-1.6.2-.5.5-.8.9-1.2.4-.3.8-.5,1.3-.7s1-.2,1.6-.2,1.1,0,1.6.2.9.4,1.2.7c.4.3.6.7.8,1.1s.3,1,.3,1.5,0,.9-.2,1.3c-.1.4-.3.8-.6,1.2-.2.4-.5.7-.9,1.1s-.7.7-1,1.1l-3.3,3.3c.2,0,.5,0,.8-.2h4.8v.3Z"/>
    <path class="cls-11" d="M402,999.3v12.9h-1.7v-10.1l-4.3,7.9c-.1.3-.4.4-.7.4h-.3c-.3,0-.5-.2-.7-.4l-4.4-7.9v10.1h-1.7v-12.9h1.8s.2,0,.3.3l4.3,7.7c0,.2.2.3.2.5s.1.3.2.5c.1-.3.3-.7.4-1l4.2-7.7c0-.2.2-.2.3-.3h2.1Z"/>
    <path class="cls-11" d="M409.5,999.3c.8,0,1.5,0,2.1.2s1,.4,1.4.7.6.7.8,1.1.3.9.3,1.4,0,.6-.1.9c-.1.3-.2.6-.4.8s-.5.5-.8.7-.6.4-1.1.5c1.9.4,2.8,1.3,2.8,2.9s-.1,1-.3,1.5c-.2.5-.5.8-.9,1.2s-.9.6-1.4.8c-.6.2-1.2.3-1.9.3h-4.6v-12.9h4.2-.1ZM407.2,1000.8v4.2h2.2c.9,0,1.6-.2,2.1-.6s.7-.9.7-1.5-.2-1.3-.7-1.6-1.1-.5-2-.5h-2.3ZM409.9,1010.7c.5,0,.9,0,1.2-.2.3,0,.6-.3.9-.5.2-.2.4-.4.5-.7s.1-.6.1-.9c0-.6-.2-1.2-.7-1.5s-1.1-.5-2.1-.5h-2.7v4.3h2.8Z"/>
    <path class="cls-11" d="M428.2,1001.4s-.1.2-.2.2h-.2c-.1,0-.2,0-.4-.2-.1,0-.3-.2-.5-.3s-.5-.2-.7-.3c-.3,0-.6-.2-1-.2s-.7,0-1,.2c-.3,0-.5.2-.7.4s-.3.4-.4.6-.1.5-.1.8,0,.6.3.9c.2.2.4.4.7.6.3.2.6.3,1,.4.4,0,.7.2,1.1.4.4,0,.8.3,1.1.5.4.2.7.4,1,.6.3.3.5.6.7.9s.3.8.3,1.3-.1,1.1-.3,1.6c-.2.5-.5.9-.9,1.3s-.8.7-1.4.9-1.2.3-1.9.3-.8,0-1.2,0c-.4,0-.8-.2-1.1-.3-.4-.2-.7-.3-1-.5s-.6-.4-.8-.7l.5-.9s.1,0,.2-.2.2,0,.3,0,.3,0,.4.2.4.3.6.4.5.3.9.4c.3,0,.8.2,1.2.2s.8,0,1.1-.2c.3,0,.6-.2.8-.5.2-.2.4-.4.5-.7s.2-.6.2-.9,0-.7-.3-.9-.4-.4-.7-.6c-.3-.2-.6-.3-1-.4-.4,0-.7-.2-1.1-.4-.4,0-.8-.3-1.1-.4-.4-.2-.7-.4-1-.6s-.5-.6-.7-1-.3-.9-.3-1.5,0-.9.3-1.3c.2-.4.4-.8.8-1.2.4-.3.8-.6,1.3-.8s1.1-.3,1.7-.3,1.4,0,2,.3,1.1.6,1.6,1l-.5.9h0Z"/>
    <path class="cls-11" d="M432.5,1004.2c.4-.4.8-.7,1.3-.9s1-.4,1.6-.4,1,0,1.3.2c.4.2.7.4,1,.7s.5.7.6,1.1c.1.4.2.9.2,1.4v5.8h-1.8v-5.8c0-.7-.1-1.2-.5-1.5-.3-.4-.8-.5-1.4-.5s-.9,0-1.3.3-.8.5-1.1.9v6.7h-1.8v-13.3h1.8v5.3h0Z"/>
    <path class="cls-11" d="M440.6,1004.4c.5-.5,1.1-.8,1.7-1.1.6-.2,1.2-.4,2-.4s1,0,1.4.3c.4.2.7.4,1,.7s.5.7.6,1.1c.1.4.2.9.2,1.4v5.8h-1.2c-.1,0-.2-.2-.2-.3l-.2-.8c-.2.2-.5.4-.7.6s-.5.3-.7.4c-.2,0-.5.2-.8.3h-.9c-.3,0-.7,0-1-.2-.3,0-.6-.2-.8-.5s-.4-.5-.5-.8-.2-.7-.2-1.1.1-.7.3-1c.2-.3.5-.6,1-.9.4-.3,1-.5,1.7-.7s1.6-.3,2.6-.3v-.7c0-.7-.1-1.2-.4-1.5s-.7-.5-1.3-.5-.7,0-1,0c-.3,0-.5.2-.7.3s-.4.2-.5.3c-.1,0-.3,0-.4,0h-.3s-.2,0-.2-.2l-.3-.6h0l-.2.2ZM445.7,1008.2c-.7,0-1.3,0-1.8.2s-.9.2-1.2.3c-.3,0-.5.3-.7.5-.1.2-.2.4-.2.7s0,.4.1.6c0,.2.2.3.3.4s.3.2.5.2h1.3c.2,0,.4,0,.6-.2.2,0,.4-.2.6-.4s.4-.3.5-.5v-1.8h0Z"/>
    <path class="cls-11" d="M451.5,1004.8c.3-.6.6-1.1,1.1-1.4s.9-.5,1.5-.5h.6c.2,0,.3,0,.5.2v1.3c-.2.2-.3.2-.4.2h-.9c-.3,0-.5,0-.8,0s-.4.2-.6.4-.3.3-.5.6c-.1.2-.2.5-.4.8v5.7h-1.8v-9.1h1.4s.1.2.1.4v1.3h.2Z"/>
    <path class="cls-11" d="M463.6,1010.9c-.2.2-.5.5-.8.7s-.6.3-.9.5c-.3,0-.6.2-1,.2h-1c-.6,0-1.2,0-1.8-.3s-1-.5-1.4-.9-.7-.9-.9-1.5c-.2-.6-.3-1.3-.3-2.1s.1-1.2.3-1.8c.2-.5.5-1,.9-1.4s.8-.7,1.4-1c.5-.2,1.1-.3,1.8-.3s1.1,0,1.5.3.9.5,1.2.8.6.8.8,1.3c.2.5.3,1.1.3,1.8s0,.5,0,.5c0,0-.2,0-.3,0h-6c0,.5.1,1,.2,1.4s.3.7.6,1c.2.3.5.5.9.6s.7.2,1.1.2.7,0,1,0,.5-.2.7-.3.4-.2.5-.3c.1,0,.3,0,.4,0s.2,0,.3.2l.5.7h0v-.2ZM462.1,1006.7c0-.3,0-.7-.1-1s-.2-.5-.4-.8c-.2-.2-.4-.4-.7-.5s-.6-.2-1-.2c-.7,0-1.3.2-1.7.6-.4.4-.7,1-.8,1.8h4.8,0Z"/>
    <path class="cls-11" d="M473.3,999v13.3h-1.1c-.2,0-.4,0-.5-.3v-1c-.5.5-1,.8-1.5,1.1s-1.1.4-1.7.4-1,0-1.4-.3c-.4-.2-.8-.5-1.1-.9-.3-.4-.5-.9-.7-1.5s-.2-1.2-.2-2,0-1.3.3-1.9.4-1.1.8-1.5c.3-.4.8-.8,1.2-1,.5-.2,1-.4,1.6-.4s1,0,1.4.3.7.4,1,.8v-5h1.9ZM471.5,1005.3c-.3-.4-.6-.6-.9-.8s-.7-.2-1.1-.2c-.8,0-1.4.3-1.9.9s-.7,1.4-.7,2.5,0,1.1.1,1.5.2.8.4,1,.4.5.7.6c.3,0,.6.2.9.2.5,0,1,0,1.3-.3.4-.2.7-.5,1-1v-4.3h.2Z"/>
    <path class="cls-11" d="M488,1010.6v1.6h-7.4v-12.9h1.9v11.3h5.5Z"/>
    <path class="cls-11" d="M489.4,1002.8c0-.6.3-1.1.5-1.6s.5-.8.9-1.2c.4-.3.8-.5,1.3-.7s1-.2,1.6-.2,1.1,0,1.5.2.9.4,1.2.7.6.6.8,1,.3.9.3,1.3,0,.8-.1,1.1-.2.6-.4.8c-.2.2-.4.4-.7.6s-.6.3-.9.4c.8.2,1.4.6,1.9,1.1s.6,1.2.6,2-.1,1.2-.3,1.6-.5.9-.9,1.2-.9.6-1.4.8-1.1.3-1.7.3-1.3,0-1.8-.2-.9-.4-1.2-.7c-.3-.3-.6-.7-.9-1.1s-.4-.9-.6-1.4l.8-.3c.2,0,.4,0,.6,0s.3,0,.4.3c0,.2.2.4.3.6s.3.4.5.6.5.4.7.5c.3,0,.7.2,1.1.2s.8,0,1.1-.2.6-.3.8-.5.4-.5.5-.8.2-.5.2-.8,0-.6-.1-.9-.2-.5-.5-.7c-.2-.2-.6-.4-1-.5s-1-.2-1.6-.2v-1.3c.5,0,1,0,1.4-.2s.7-.3.9-.5.4-.4.5-.7.2-.6.2-.9,0-.7-.2-.9-.3-.5-.5-.7-.4-.3-.7-.4c-.3,0-.6,0-.9,0s-.6,0-.9,0c-.3,0-.5.2-.7.4s-.4.3-.5.6c-.1.2-.2.5-.3.7,0,.2-.2.4-.3.5s-.3,0-.5,0l-.9-.2h0v.3Z"/>
    <path class="cls-11" d="M513.9,1009.5c0,0,.2,0,.3,0l.8.8c-.5.6-1.2,1.1-1.9,1.5s-1.7.5-2.7.5-1.8-.2-2.5-.5c-.8-.3-1.4-.8-1.9-1.4-.5-.6-1-1.3-1.2-2.1-.3-.8-.4-1.7-.4-2.7s.1-1.9.5-2.7.7-1.5,1.3-2.1,1.2-1,2-1.4c.8-.3,1.6-.5,2.6-.5s1.7.2,2.4.5,1.3.7,1.9,1.2l-.6.9s0,0-.2.2-.2,0-.2,0c0,0-.2,0-.4-.2s-.3-.2-.6-.4-.6-.3-.9-.4c-.4,0-.8-.2-1.4-.2s-1.2,0-1.8.3c-.5.2-1,.5-1.4,1s-.7.9-.9,1.6-.3,1.3-.3,2.1.1,1.5.3,2.1.5,1.1.9,1.6.9.8,1.4,1,1.1.3,1.7.3h1c.3,0,.6,0,.8-.2.2,0,.5-.2.7-.3s.4-.3.7-.5h.4-.4Z"/>
    <path class="cls-11" d="M516.3,1004.4c.5-.5,1.1-.8,1.7-1.1.6-.2,1.2-.4,2-.4s1,0,1.4.3c.4.2.7.4,1,.7s.5.7.6,1.1c0,.4.2.9.2,1.4v5.8h-1.2c-.1,0-.2-.2-.2-.3l-.2-.8c-.2.2-.5.4-.7.6s-.5.3-.7.4c-.2,0-.5.2-.8.3h-.9c-.3,0-.7,0-1-.2-.3,0-.6-.2-.8-.5s-.4-.5-.5-.8-.2-.7-.2-1.1,0-.7.3-1c.2-.3.5-.6,1-.9.4-.3,1-.5,1.7-.7s1.6-.3,2.6-.3v-.7c0-.7-.2-1.2-.4-1.5s-.7-.5-1.3-.5-.7,0-1,0c-.3,0-.5.2-.7.3s-.3.2-.5.3c0,0-.3,0-.4,0h-.3s-.2,0-.2-.2l-.3-.6h0l-.2.2ZM521.4,1008.2c-.7,0-1.3,0-1.8.2s-.9.2-1.2.3-.5.3-.7.5c0,.2-.2.4-.2.7s0,.4,0,.6c0,.2.2.3.3.4s.3.2.5.2h1.3c.2,0,.4,0,.6-.2.2,0,.4-.2.6-.4s.4-.3.5-.5v-1.8h0Z"/>
    <path class="cls-11" d="M531.9,1004.8l-.2.2c-.1.1,0,0-.2,0s-.2,0-.3,0c0,0-.2-.2-.4-.2s-.3-.2-.6-.2-.5,0-.8,0-.8,0-1.1.2-.6.4-.8.7-.4.6-.5,1-.2.9-.2,1.4,0,1,.2,1.4.3.8.5,1,.5.5.8.7.7.2,1.1.2.7,0,.9,0,.5-.2.6-.3.3-.2.4-.3.2,0,.3,0,.2,0,.3.2l.5.7c-.2.3-.5.5-.7.7s-.5.3-.8.4-.6.2-.9.2h-1c-.6,0-1.1,0-1.6-.3s-.9-.5-1.3-.9c-.4-.4-.7-.9-.9-1.5s-.3-1.2-.3-2,0-1.3.3-1.9.5-1.1.8-1.5.8-.7,1.4-1,1.2-.4,1.8-.4,1.2,0,1.7.3.9.5,1.3.9l-.5.7h.2Z"/>
    <path class="cls-11" d="M535.9,1004.2c.4-.4.8-.7,1.3-.9s1-.4,1.6-.4,1,0,1.3.2.7.4,1,.7.5.7.6,1.1c0,.4.2.9.2,1.4v5.8h-1.8v-5.8c0-.7-.2-1.2-.5-1.5-.3-.4-.8-.5-1.4-.5s-.9,0-1.3.3-.8.5-1.1.9v6.7h-1.8v-13.3h1.8v5.3h.1Z"/>
    <path class="cls-11" d="M551.7,1010.9c-.2.2-.5.5-.8.7s-.6.3-.9.5c-.3,0-.7.2-1,.2h-1c-.6,0-1.2,0-1.8-.3s-1-.5-1.4-.9-.7-.9-.9-1.5-.3-1.3-.3-2.1,0-1.2.3-1.8c.2-.5.5-1,.8-1.4s.8-.7,1.3-1c.5-.2,1.1-.3,1.8-.3s1.1,0,1.5.3.9.5,1.2.8.6.8.8,1.3.3,1.1.3,1.8,0,.5,0,.5c0,0-.2,0-.3,0h-6c0,.5,0,1,.2,1.4,0,.4.3.7.6,1s.5.5.9.6.7.2,1.1.2.7,0,1,0,.5-.2.7-.3c.2,0,.4-.2.5-.3,0,0,.3,0,.4,0s.2,0,.3.2l.5.7h0l.2-.2ZM550.2,1006.7c0-.3,0-.7-.2-1s-.2-.5-.4-.8c-.2-.2-.4-.4-.7-.5s-.6-.2-1-.2c-.7,0-1.3.2-1.7.6s-.7,1-.8,1.8h4.8Z"/>
    <path class="cls-11" d="M566.6,1010.7v1.6h-8v-12.9h8v1.6h-6.1v4.1h4.9v1.5h-4.9v4.2h6.1Z"/>
    <path class="cls-11" d="M577.8,1009.5c0,0,.2,0,.3,0l.8.8c-.5.6-1.2,1.1-1.9,1.5s-1.7.5-2.7.5-1.8-.2-2.5-.5c-.8-.3-1.4-.8-1.9-1.4-.5-.6-1-1.3-1.2-2.1-.3-.8-.4-1.7-.4-2.7s.2-1.9.5-2.7.7-1.5,1.3-2.1,1.2-1,2-1.4c.8-.3,1.6-.5,2.6-.5s1.7.2,2.5.5c.7.3,1.3.7,1.9,1.2l-.6.9s0,0-.2.2-.2,0-.2,0c0,0-.2,0-.4-.2s-.3-.2-.6-.4-.6-.3-.9-.4c-.4,0-.8-.2-1.4-.2s-1.2,0-1.8.3c-.5.2-1,.5-1.4,1s-.7.9-.9,1.6-.3,1.3-.3,2.1,0,1.5.3,2.1.5,1.1.9,1.6c.4.4.8.8,1.4,1s1.1.3,1.7.3h1c.3,0,.6,0,.8-.2s.5-.2.7-.3.4-.3.7-.5h.4-.5Z"/>
    <path class="cls-11" d="M589.5,1009.5c0,0,.2,0,.3,0l.8.8c-.5.6-1.2,1.1-1.9,1.5s-1.7.5-2.7.5-1.8-.2-2.5-.5c-.8-.3-1.4-.8-1.9-1.4-.5-.6-1-1.3-1.2-2.1-.3-.8-.4-1.7-.4-2.7s.2-1.9.5-2.7.7-1.5,1.3-2.1,1.2-1,2-1.4c.8-.3,1.6-.5,2.6-.5s1.7.2,2.5.5c.7.3,1.3.7,1.9,1.2l-.6.9s0,0-.2.2-.2,0-.2,0c0,0-.2,0-.4-.2s-.3-.2-.6-.4-.6-.3-.9-.4c-.4,0-.8-.2-1.4-.2s-1.2,0-1.8.3c-.5.2-1,.5-1.4,1s-.7.9-.9,1.6-.3,1.3-.3,2.1,0,1.5.3,2.1.5,1.1.9,1.6c.4.4.8.8,1.4,1s1.1.3,1.7.3h1c.3,0,.6,0,.8-.2s.5-.2.7-.3.4-.3.7-.5h.4-.5Z"/>
  </g>
  <rect class="cls-1" x="255" y="975.4" width="405" height="60"/>
  <g>
    <path class="cls-11" d="M85.4,999.3c.8,0,1.6,0,2.2.3s1.1.5,1.5.8.7.8.9,1.3.3,1,.3,1.7,0,1.2-.3,1.7-.5.9-.9,1.3-.9.7-1.5.8-1.3.3-2.1.3h-2v4.8h-1.9v-12.9h3.9,0ZM85.4,1006c.5,0,.9,0,1.3-.2s.7-.3.9-.5c.2-.2.4-.5.6-.8,0-.3.2-.7.2-1.1,0-.8-.2-1.4-.7-1.8-.5-.5-1.2-.7-2.2-.7h-2v5.2h2-.1Z"/>
    <path class="cls-11" d="M96.3,999.3c.8,0,1.6,0,2.2.3s1.1.5,1.5.8.7.8.9,1.3.3,1,.3,1.7,0,1.2-.3,1.7-.5.9-.9,1.3-.9.7-1.5.8-1.3.3-2.1.3h-2v4.8h-1.9v-12.9h3.9,0ZM96.3,1006c.5,0,.9,0,1.3-.2s.7-.3.9-.5c.2-.2.4-.5.6-.8,0-.3.2-.7.2-1.1,0-.8-.2-1.4-.7-1.8-.5-.5-1.2-.7-2.2-.7h-2v5.2h2-.1Z"/>
  </g>
  <rect class="cls-1" x="45" y="975.4" width="90" height="60"/>
  <g>
    <path class="cls-11" d="M190.6,1012.2h-1.5c-.2,0-.3,0-.4,0s-.2-.2-.2-.3l-1.1-3h-5.7l-1.1,3c0,0-.1.2-.2.3s-.2,0-.4,0h-1.5l5.1-12.9h1.9l5.1,12.9h0ZM186.8,1007.4l-1.9-5c-.1-.3-.3-.8-.4-1.3,0,.3-.1.5-.2.7,0,.2-.1.4-.2.6l-1.9,5h4.6,0Z"/>
    <path class="cls-11" d="M200.9,1009.5c.1,0,.2,0,.3,0l.8.8c-.5.6-1.2,1.1-1.9,1.5s-1.7.5-2.7.5-1.8-.2-2.5-.5c-.8-.3-1.4-.8-1.9-1.4-.5-.6-.9-1.3-1.2-2.1s-.4-1.7-.4-2.7.1-1.9.5-2.7c.3-.8.7-1.5,1.3-2.1s1.2-1,2-1.4c.8-.3,1.6-.5,2.6-.5s1.7.2,2.4.5,1.3.7,1.9,1.2l-.6.9s0,0-.2.2-.1,0-.2,0-.2,0-.4-.2-.4-.2-.6-.4-.6-.3-.9-.4c-.4,0-.8-.2-1.4-.2s-1.2,0-1.8.3c-.5.2-1,.5-1.4,1s-.7.9-.9,1.6c-.2.6-.3,1.3-.3,2.1s.1,1.5.3,2.1.5,1.1.9,1.6.9.8,1.4,1,1.1.3,1.7.3h1c.3,0,.6,0,.8-.2s.5-.2.7-.3.4-.3.7-.5h.3-.3Z"/>
    <path class="cls-11" d="M207.8,999.3c.8,0,1.6,0,2.2.3s1.1.5,1.5.8.7.8.9,1.3.3,1,.3,1.7-.1,1.2-.3,1.7-.5.9-.9,1.3c-.4.4-.9.7-1.5.8s-1.3.3-2.1.3h-2v4.8h-1.9v-12.9h3.9,0ZM207.8,1006c.5,0,.9,0,1.3-.2s.7-.3.9-.5.4-.5.6-.8c.1-.3.2-.7.2-1.1,0-.8-.2-1.4-.7-1.8-.5-.5-1.2-.7-2.2-.7h-2v5.2h2-.1Z"/>
  </g>
  <rect class="cls-1" x="150" y="975.4" width="90" height="60"/>
  <g>
    <path class="cls-11" d="M215.3,214.1c.1,0,.2,0,.3.1l.8.8c-.5.6-1.2,1.1-1.9,1.4s-1.7.5-2.7.5-1.8-.2-2.5-.5c-.8-.3-1.4-.8-1.9-1.4-.5-.6-.9-1.3-1.2-2.1s-.4-1.7-.4-2.7.1-1.9.5-2.7c.3-.8.7-1.5,1.3-2.1s1.2-1,2-1.4c.8-.3,1.6-.5,2.6-.5s1.7.1,2.4.4c.7.3,1.3.7,1.9,1.2l-.6.9s0,.1-.2.2-.1,0-.2,0-.2,0-.4-.2-.4-.2-.6-.4-.6-.3-.9-.4c-.4-.1-.8-.2-1.4-.2s-1.2.1-1.8.3c-.5.2-1,.6-1.4,1s-.7.9-.9,1.6c-.2.6-.3,1.3-.3,2.1s.1,1.5.3,2.1.5,1.1.9,1.6.9.8,1.4,1,1.1.3,1.7.3h1c.3,0,.6-.1.8-.2s.5-.2.7-.4c.2-.1.4-.3.7-.5,0,0,.1,0,.1-.1h.2l-.3.3Z"/>
    <path class="cls-11" d="M221.7,207.6c.7,0,1.3.1,1.8.3s1,.5,1.4.9.7.9.9,1.5.3,1.2.3,1.9-.1,1.4-.3,1.9-.5,1.1-.9,1.5-.8.7-1.4.9c-.5.2-1.1.3-1.8.3s-1.3-.1-1.8-.3-1-.5-1.4-.9-.7-.9-.9-1.5-.3-1.2-.3-1.9.1-1.4.3-1.9.5-1.1.9-1.5.9-.7,1.4-.9,1.1-.3,1.8-.3ZM221.7,215.6c.9,0,1.5-.3,1.9-.9.4-.6.6-1.4.6-2.5s-.2-1.9-.6-2.5-1.1-.9-1.9-.9-1.5.3-2,.9c-.4.6-.6,1.4-.6,2.5s.2,1.9.6,2.5,1.1.9,2,.9Z"/>
    <path class="cls-11" d="M229.7,209.4c.3-.6.6-1.1,1.1-1.4s.9-.5,1.5-.5h.6c.2,0,.3.1.5.2v1.3c-.2.2-.3.2-.4.2h-.9c-.3,0-.5,0-.8.1s-.4.2-.6.4-.3.4-.4.6c-.1.2-.2.5-.4.8v5.7h-1.8v-9.1h1c.2,0,.3,0,.4.1,0,0,.1.2.1.4v1.3h.1,0Z"/>
    <path class="cls-11" d="M241.8,215.5c-.2.2-.5.5-.8.6-.3.2-.6.3-.9.4-.3.1-.6.2-1,.2h-1c-.6,0-1.2-.1-1.8-.3s-1-.5-1.4-.9-.7-.9-.9-1.5-.3-1.3-.3-2.1.1-1.2.3-1.8.5-1,.9-1.4.8-.7,1.4-1c.5-.2,1.1-.4,1.8-.4s1.1,0,1.5.3c.5.2.9.4,1.2.8s.6.8.8,1.3.3,1.1.3,1.8,0,.4,0,.5-.2.1-.3.1h-6c0,.6.1,1,.2,1.4.1.4.3.7.6,1,.2.3.5.5.9.6s.7.2,1.1.2.7,0,1-.1c.3,0,.5-.2.7-.3s.4-.2.5-.3.3-.1.4-.1.2,0,.3.2l.5.6h0v.2ZM240.3,211.2c0-.4,0-.7-.1-1s-.2-.6-.4-.8-.4-.4-.7-.5-.6-.2-.9-.2c-.7,0-1.3.2-1.7.6s-.7,1-.8,1.8h4.8-.2Z"/>
    <path class="cls-11" d="M250.6,206c0,.1-.1.2-.2.2h-.2c0,0-.2,0-.4-.1-.1-.1-.3-.2-.5-.3s-.4-.2-.7-.3-.6-.1-1-.1-.7,0-1,.1-.5.2-.7.4-.3.4-.4.6c-.1.2-.1.5-.1.8s0,.6.3.9c.2.2.4.4.7.6s.6.3,1,.4c.4.1.7.2,1.1.4.4.1.8.3,1.1.4.4.2.7.4,1,.6.3.3.5.6.7.9s.3.8.3,1.4-.1,1.1-.3,1.6-.5.9-.9,1.3-.8.7-1.4.9-1.2.3-1.9.3-.8,0-1.2-.1-.8-.2-1.1-.3c-.4-.1-.7-.3-1-.5s-.6-.4-.8-.7l.6-.9.2-.2h.3c.1,0,.3,0,.4.2.2.1.4.3.6.4s.5.3.9.4c.3.1.8.2,1.2.2s.8,0,1.1-.2c.3-.1.6-.2.8-.4s.4-.4.5-.7.2-.6.2-.9,0-.7-.3-.9c-.2-.2-.4-.4-.7-.6-.3-.2-.6-.3-1-.4-.4-.1-.7-.2-1.1-.4-.4-.1-.8-.3-1.1-.4-.4-.2-.7-.4-1-.6-.3-.3-.5-.6-.7-1s-.3-.9-.3-1.4,0-.9.3-1.3c.2-.4.4-.8.8-1.1.4-.3.8-.6,1.3-.8s1.1-.3,1.7-.3,1.4.1,2,.4c.6.2,1.1.6,1.6,1l-.5.9h0l-.2-.4Z"/>
    <path class="cls-11" d="M255.4,204.9c0,.2,0,.3-.1.5,0,.1-.1.3-.3.4-.1.1-.2.2-.4.3s-.3,0-.5,0h-.5c-.2,0-.3-.1-.4-.3s-.2-.2-.3-.4,0-.3,0-.5v-.5c0-.2.1-.3.3-.4s.2-.2.4-.3.3,0,.5,0h.5c.2,0,.3.1.4.3s.2.2.3.4.1.3.1.5ZM255.1,207.7v9.1h-1.8v-9.1h1.8Z"/>
    <path class="cls-11" d="M265.4,208v.7c0,.2-.1.4-.4.4h-1c0,.3.1.5.2.7s0,.4,0,.6c0,.4,0,.9-.3,1.2s-.4.7-.7.9-.7.5-1.1.6-.9.2-1.4.2-.8,0-1.2-.1c-.2.1-.3.2-.4.4s-.1.3-.1.4c0,.2,0,.4.3.5s.4.2.7.2h2.1c.4,0,.8,0,1.1.1.4,0,.7.2,1,.3s.5.4.7.6c.2.3.3.6.3,1s-.1.8-.3,1.1-.5.7-.9,1-.8.5-1.4.7-1.1.3-1.8.3-1.3,0-1.8-.2-.9-.3-1.2-.5-.6-.5-.8-.8c-.2-.3-.2-.6-.2-.9s.1-.8.4-1.1.7-.6,1.1-.7c-.3-.1-.5-.3-.6-.5s-.2-.5-.2-.8v-.4c0-.1.1-.3.2-.4s.2-.3.4-.4c.1-.1.3-.2.5-.3-.5-.2-.8-.6-1.1-1-.3-.4-.4-.9-.4-1.5s0-.9.3-1.2.4-.7.7-.9c.3-.3.7-.5,1.1-.6s.9-.2,1.4-.2c.8,0,1.5.2,2,.5h2.8ZM263.7,217.3c0-.2,0-.4-.2-.5s-.3-.2-.5-.3-.5-.1-.7-.2h-2.7c-.3.2-.6.3-.8.6-.2.2-.3.5-.3.8s0,.4.1.5.2.3.5.4.5.2.8.3.7.1,1.1.1.8,0,1.1-.1c.3,0,.6-.2.8-.3s.4-.3.5-.5.2-.4.2-.6h0v-.2ZM260.9,212.3c.3,0,.6,0,.8-.1.2,0,.4-.2.6-.4.2-.1.3-.3.4-.6,0-.2.1-.4.1-.7,0-.5-.2-.9-.5-1.3-.3-.3-.8-.5-1.4-.5s-1.1.2-1.4.5-.5.7-.5,1.3,0,.5.1.7c0,.2.2.4.4.6.2.1.4.3.6.4.2,0,.5.1.8.1h0Z"/>
    <path class="cls-11" d="M268.8,208.9c.4-.4.8-.7,1.3-.9s1-.4,1.6-.4,1,0,1.3.2c.4.2.7.4,1,.7s.5.7.6,1.1c.1.4.2.9.2,1.4v5.8h-1.8v-5.8c0-.6-.1-1.2-.5-1.5-.3-.4-.8-.5-1.4-.5s-.9.1-1.3.3-.8.5-1.1.9v6.7h-1.8v-13.3h1.8v5.3h0Z"/>
    <path class="cls-11" d="M279.9,217c-.7,0-1.3-.2-1.7-.6-.4-.4-.6-1-.6-1.8v-5.5h-1.4c0,0-.1-.2-.1-.3v-.7l1.5-.2.4-2.7c0-.1,0-.2.1-.2h1.2v3.1h2.6v1.3h-2.6v5.4c0,.4,0,.6.3.8s.4.3.7.3h.4c.1,0,.2,0,.3-.1s.2-.1.2-.1h.4c0,.1.5,1,.5,1-.3.3-.6.5-1,.6s-.8.2-1.2.2h0v-.5Z"/>
    <path class="cls-11" d="M302,203.9v12.9h-1.7v-10.1l-4.3,7.9c-.1.3-.4.4-.7.4h-.3c-.3,0-.5-.1-.7-.4l-4.4-7.9v10.1h-1.7v-12.9h1.8s.2.1.3.3l4.3,7.7c0,.2.2.3.2.5s.1.4.2.5c.1-.4.3-.7.4-1l4.2-7.7c0-.1.2-.2.3-.3h2.1Z"/>
    <path class="cls-11" d="M312.3,207.7v9.1h-1c-.2,0-.4-.1-.5-.4v-.9c-.3.2-.5.4-.8.6-.2.2-.5.3-.7.4s-.5.2-.8.3c-.3,0-.6.1-.9.1-.5,0-1,0-1.3-.2s-.7-.4-1-.7-.5-.7-.6-1.1c-.1-.4-.2-.9-.2-1.4v-5.8h1.8v5.8c0,.6.1,1.2.5,1.5.3.4.8.5,1.4.5s.9-.1,1.3-.3.8-.5,1.1-.9v-6.7h1.8,0Z"/>
    <path class="cls-11" d="M316.5,203.6v13.3h-1.8v-13.3h1.8Z"/>
    <path class="cls-11" d="M321.9,217c-.7,0-1.3-.2-1.7-.6-.4-.4-.6-1-.6-1.8v-5.5h-1.4c0,0-.1-.2-.1-.3v-.7l1.5-.2.4-2.7c0-.1,0-.2.1-.2h1.2v3.1h2.6v1.3h-2.6v5.4c0,.4,0,.6.3.8s.4.3.7.3h.4c.1,0,.2,0,.3-.1s.2-.1.2-.1h.4c0,.1.5,1,.5,1-.3.3-.6.5-1,.6s-.8.2-1.2.2h0v-.5Z"/>
    <path class="cls-11" d="M327.7,204.9c0,.2,0,.3-.1.5,0,.1-.1.3-.3.4-.1.1-.2.2-.4.3h-1c-.1,0-.3-.1-.4-.3-.1-.1-.2-.2-.3-.4s0-.3,0-.5v-.5c0-.2.1-.3.3-.4.1-.1.2-.2.4-.3s.3,0,.5,0h.5c.2,0,.3.1.4.3.1.1.2.2.3.4,0,.1.1.3.1.5ZM327.4,207.7v9.1h-1.8v-9.1h1.8Z"/>
    <path class="cls-11" d="M336.4,209.4s-.1.1-.2.2-.1,0-.2,0-.2,0-.3-.1c-.1,0-.2-.2-.4-.2s-.4-.2-.6-.2-.5-.1-.8-.1-.8,0-1.1.2c-.3.2-.6.4-.8.7s-.4.6-.5,1.1-.2.9-.2,1.4,0,1,.2,1.4.3.8.5,1.1.5.5.8.6.7.2,1.1.2.7,0,.9-.1.5-.2.6-.3c.2-.1.3-.2.4-.3s.2-.1.3-.1.2,0,.3.2l.5.6c-.2.3-.5.5-.7.7-.3.2-.5.3-.8.4s-.6.2-.9.2h-1c-.6,0-1.1-.1-1.6-.3s-.9-.5-1.3-.9-.6-.9-.9-1.5-.3-1.2-.3-2,0-1.3.3-1.9.5-1.1.8-1.5.8-.7,1.4-1,1.2-.4,1.9-.4,1.2.1,1.7.3.9.5,1.3.9l-.5.6h.1Z"/>
    <path class="cls-11" d="M342.3,207.6c.7,0,1.3.1,1.8.3s1,.5,1.4.9.7.9.9,1.5.3,1.2.3,1.9-.1,1.4-.3,1.9-.5,1.1-.9,1.5-.8.7-1.4.9c-.5.2-1.1.3-1.8.3s-1.3-.1-1.8-.3-1-.5-1.4-.9-.7-.9-.9-1.5-.3-1.2-.3-1.9.1-1.4.3-1.9.5-1.1.9-1.5.9-.7,1.4-.9,1.1-.3,1.8-.3ZM342.3,215.6c.9,0,1.5-.3,1.9-.9s.6-1.4.6-2.5-.2-1.9-.6-2.5-1.1-.9-1.9-.9-1.5.3-2,.9c-.4.6-.6,1.4-.6,2.5s.2,1.9.6,2.5,1.1.9,2,.9Z"/>
    <path class="cls-11" d="M350.3,209.4c.3-.6.6-1.1,1.1-1.4s.9-.5,1.5-.5h.6c.2,0,.3.1.5.2v1.3c-.2.2-.3.2-.4.2h-.9c-.3,0-.5,0-.8.1s-.4.2-.6.4-.3.4-.5.6-.2.5-.4.8v5.7h-1.8v-9.1h1c.2,0,.3,0,.4.1s.1.2.1.4v1.3h.2Z"/>
    <path class="cls-11" d="M362.4,215.5c-.2.2-.5.5-.8.6-.3.2-.6.3-.9.4-.3.1-.6.2-1,.2h-1c-.6,0-1.2-.1-1.8-.3s-1-.5-1.4-.9-.7-.9-.9-1.5-.3-1.3-.3-2.1.1-1.2.3-1.8c.2-.6.5-1,.9-1.4s.8-.7,1.4-1c.5-.2,1.1-.4,1.8-.4s1.1,0,1.5.3c.5.2.9.4,1.2.8s.6.8.8,1.3c.2.5.3,1.1.3,1.8s0,.4,0,.5-.2.1-.3.1h-6c0,.6.1,1,.2,1.4s.3.7.6,1c.2.3.5.5.9.6s.7.2,1.1.2.7,0,1-.1c.3,0,.5-.2.7-.3s.4-.2.5-.3c.1,0,.3-.1.4-.1s.2,0,.3.2l.5.6h0v.2ZM360.9,211.2c0-.4,0-.7-.1-1s-.2-.6-.4-.8c-.2-.2-.4-.4-.7-.5s-.6-.2-1-.2c-.7,0-1.3.2-1.7.6-.4.4-.7,1-.8,1.8h4.8,0Z"/>
    <path class="cls-11" d="M380.6,210.4c0,1-.1,1.8-.5,2.6-.3.8-.8,1.5-1.3,2s-1.2,1-2,1.3-1.7.5-2.6.5h-4.9v-12.9h4.9c1,0,1.8.2,2.6.5s1.5.8,2,1.3,1,1.2,1.3,2,.5,1.7.5,2.6h0ZM378.6,210.4c0-.8-.1-1.5-.3-2.1s-.5-1.1-.9-1.6c-.4-.4-.9-.8-1.4-1s-1.2-.3-1.8-.3h-2.9v9.8h2.9c.7,0,1.3-.1,1.8-.3s1-.5,1.4-1c.4-.4.7-.9.9-1.5.2-.6.3-1.3.3-2.1h0Z"/>
    <path class="cls-11" d="M390,215.5c-.2.2-.5.5-.8.6-.3.2-.6.3-.9.4-.3.1-.6.2-1,.2h-1c-.6,0-1.2-.1-1.8-.3s-1-.5-1.4-.9-.7-.9-.9-1.5-.3-1.3-.3-2.1.1-1.2.3-1.8c.2-.6.5-1,.9-1.4s.8-.7,1.4-1c.5-.2,1.1-.4,1.8-.4s1.1,0,1.5.3c.5.2.9.4,1.2.8s.6.8.8,1.3c.2.5.3,1.1.3,1.8s0,.4,0,.5-.2.1-.3.1h-6c0,.6.1,1,.2,1.4s.3.7.6,1c.2.3.5.5.9.6s.7.2,1.1.2.7,0,1-.1c.3,0,.5-.2.7-.3s.4-.2.5-.3c.1,0,.3-.1.4-.1s.2,0,.3.2l.5.6h0v.2ZM388.6,211.2c0-.4,0-.7-.1-1s-.2-.6-.4-.8c-.2-.2-.4-.4-.7-.5s-.6-.2-1-.2c-.7,0-1.3.2-1.7.6-.4.4-.7,1-.8,1.8h4.8,0Z"/>
    <path class="cls-11" d="M393.8,209c.4-.4.8-.8,1.3-1,.5-.3,1-.4,1.6-.4s1,.1,1.4.3.8.5,1.1.9.5.9.7,1.4.2,1.2.2,1.9,0,1.4-.3,2-.4,1.1-.8,1.6c-.3.4-.8.8-1.2,1-.5.2-1,.4-1.6.4h-.8c-.2,0-.5-.1-.7-.2s-.4-.2-.6-.4-.3-.3-.5-.5v.8c-.1.2-.3.4-.5.4h-1.1v-13.3h1.8v5.4h0v-.3ZM393.8,214.6c.3.4.6.6.9.8s.7.2,1.1.2c.8,0,1.4-.3,1.9-.9.4-.6.7-1.5.7-2.6s-.2-1.9-.6-2.4-.9-.8-1.7-.8-.9.1-1.3.3-.7.6-1,1v4.3h0Z"/>
    <path class="cls-11" d="M409.8,207.7v9.1h-1c-.2,0-.4-.1-.5-.4v-.9c-.3.2-.5.4-.8.6-.2.2-.5.3-.7.4s-.5.2-.8.3c-.3,0-.6.1-.9.1-.5,0-1,0-1.3-.2s-.7-.4-1-.7-.5-.7-.6-1.1c-.1-.4-.2-.9-.2-1.4v-5.8h1.8v5.8c0,.6.1,1.2.5,1.5.3.4.8.5,1.4.5s.9-.1,1.3-.3.8-.5,1.1-.9v-6.7h1.8,0Z"/>
    <path class="cls-11" d="M420,208v.7c0,.2-.1.4-.4.4h-1c0,.3.1.5.2.7s0,.4,0,.6c0,.4,0,.9-.3,1.2s-.4.7-.7.9-.7.5-1.1.6-.9.2-1.4.2-.8,0-1.2-.1c-.2.1-.3.2-.4.4s-.1.3-.1.4c0,.2,0,.4.3.5s.4.2.7.2h2.1c.4,0,.8,0,1.1.1.4,0,.7.2,1,.3s.5.4.7.6c.2.3.3.6.3,1s-.1.8-.3,1.1-.5.7-.9,1-.8.5-1.4.7-1.1.3-1.8.3-1.3,0-1.8-.2-.9-.3-1.2-.5-.6-.5-.8-.8c-.2-.3-.2-.6-.2-.9s.1-.8.4-1.1.7-.6,1.1-.7c-.3-.1-.5-.3-.6-.5s-.2-.5-.2-.8v-.4c0-.1.1-.3.2-.4s.2-.3.4-.4c.1-.1.3-.2.5-.3-.5-.2-.8-.6-1.1-1-.3-.4-.4-.9-.4-1.5s0-.9.3-1.2.4-.7.7-.9c.3-.3.7-.5,1.1-.6s.9-.2,1.4-.2c.8,0,1.5.2,2,.5h2.8ZM418.2,217.3c0-.2,0-.4-.2-.5s-.3-.2-.5-.3-.5-.1-.7-.2h-2.7c-.3.2-.6.3-.8.6-.2.2-.3.5-.3.8s0,.4.1.5.2.3.5.4.5.2.8.3.7.1,1.1.1.8,0,1.1-.1c.3,0,.6-.2.8-.3s.4-.3.5-.5.2-.4.2-.6h0v-.2ZM415.4,212.3c.3,0,.6,0,.8-.1.2,0,.4-.2.6-.4.2-.1.3-.3.4-.6,0-.2.1-.4.1-.7,0-.5-.2-.9-.5-1.3-.3-.3-.8-.5-1.4-.5s-1.1.2-1.4.5-.5.7-.5,1.3,0,.5.1.7c0,.2.2.4.4.6.2.1.4.3.6.4.2,0,.5.1.8.1h0Z"/>
    <path class="cls-11" d="M425.9,209c.5-.5,1.1-.9,1.7-1.1.6-.2,1.2-.4,2-.4s1,0,1.4.3c.4.2.7.4,1,.7s.5.7.6,1.1c.1.4.2.9.2,1.4v5.8h-1.2c-.1,0-.2-.2-.2-.3l-.2-.8c-.2.2-.5.4-.7.6s-.5.3-.7.4c-.2.1-.5.2-.8.3h-.9c-.3,0-.7,0-1-.1s-.6-.2-.8-.4-.4-.5-.5-.8-.2-.7-.2-1.1.1-.7.3-1c.2-.3.5-.6,1-.9.4-.3,1-.5,1.7-.6s1.6-.3,2.6-.3v-.7c0-.7-.1-1.2-.4-1.6s-.7-.5-1.3-.5-.7,0-1,.1-.5.2-.7.3-.4.2-.5.3-.3.1-.4.1-.2,0-.3-.1-.2-.1-.2-.2l-.3-.6h-.2ZM431.1,212.8c-.7,0-1.3,0-1.8.2s-.9.2-1.2.4c-.3.1-.5.3-.7.5-.1.2-.2.4-.2.6s0,.4.1.6c0,.2.2.3.3.4s.3.2.5.2h1.3c.2,0,.4-.1.6-.2.2-.1.4-.2.6-.4s.4-.3.5-.5v-1.8h0Z"/>
    <path class="cls-11" d="M436.8,209c.2-.2.4-.4.6-.6s.5-.3.7-.4.5-.2.8-.3c.3,0,.6-.1.9-.1.5,0,1,0,1.3.2.4.2.7.4,1,.7s.5.7.6,1.1c.1.4.2.9.2,1.4v5.8h-1.8v-5.8c0-.6-.1-1.2-.5-1.5-.3-.4-.8-.5-1.4-.5s-.9.1-1.3.3-.8.5-1.1.9v6.7h-1.8v-9.1h1c.2,0,.4.1.5.4v.9h.3Z"/>
    <path class="cls-11" d="M452.9,203.6v13.3h-1.1c-.2,0-.4-.1-.5-.4v-1.1c-.5.5-1,.8-1.5,1.1s-1.1.4-1.7.4-1-.1-1.4-.3-.8-.5-1.1-.9c-.3-.4-.5-.9-.7-1.5s-.2-1.2-.2-2,0-1.3.3-1.9.4-1.1.8-1.5c.3-.4.8-.8,1.2-1,.5-.2,1-.4,1.6-.4s1,0,1.4.3c.4.2.7.4,1,.8v-5h1.9ZM451.1,209.9c-.3-.4-.6-.6-.9-.8s-.7-.2-1.1-.2c-.8,0-1.4.3-1.9.9s-.7,1.4-.7,2.5,0,1.1.1,1.5.2.8.4,1,.4.4.7.6c.3.1.6.2.9.2.5,0,1-.1,1.3-.3s.7-.6,1-1v-4.3h.2Z"/>
    <path class="cls-11" d="M468.5,205.5h-4.1v11.3h-1.9v-11.3h-4.1v-1.6h10.1v1.6h0Z"/>
    <path class="cls-11" d="M469.8,209.4c.3-.6.6-1.1,1.1-1.4s.9-.5,1.5-.5h.6c.2,0,.3.1.5.2v1.3c-.2.2-.3.2-.4.2h-.9c-.3,0-.5,0-.8.1s-.4.2-.6.4-.3.4-.5.6-.2.5-.4.8v5.7h-1.8v-9.1h1c.2,0,.3,0,.4.1s.1.2.1.4v1.3h.2Z"/>
    <path class="cls-11" d="M474.3,209c.5-.5,1.1-.9,1.7-1.1.6-.2,1.2-.4,2-.4s1,0,1.4.3c.4.2.7.4,1,.7s.5.7.6,1.1c.1.4.2.9.2,1.4v5.8h-1.2c-.1,0-.2-.2-.2-.3l-.2-.8c-.2.2-.5.4-.7.6s-.5.3-.7.4c-.2.1-.5.2-.8.3h-.9c-.3,0-.7,0-1-.1s-.6-.2-.8-.4-.4-.5-.5-.8-.2-.7-.2-1.1.1-.7.3-1c.2-.3.5-.6,1-.9.4-.3,1-.5,1.7-.6s1.6-.3,2.6-.3v-.7c0-.7-.1-1.2-.4-1.6s-.7-.5-1.3-.5-.7,0-1,.1-.5.2-.7.3-.4.2-.5.3-.3.1-.4.1-.2,0-.3-.1-.2-.1-.2-.2l-.3-.6h-.2ZM479.5,212.8c-.7,0-1.3,0-1.8.2s-.9.2-1.2.4c-.3.1-.5.3-.7.5-.1.2-.2.4-.2.6s0,.4.1.6c0,.2.2.3.3.4s.3.2.5.2h1.3c.2,0,.4-.1.6-.2.2-.1.4-.2.6-.4s.4-.3.5-.5v-1.8h0Z"/>
    <path class="cls-11" d="M490,209.4s-.1.1-.2.2-.1,0-.2,0-.2,0-.3-.1c-.1,0-.2-.2-.4-.2s-.4-.2-.6-.2-.5-.1-.8-.1-.8,0-1.1.2c-.3.2-.6.4-.8.7s-.4.6-.5,1.1-.2.9-.2,1.4,0,1,.2,1.4.3.8.5,1.1.5.5.8.6.7.2,1.1.2.7,0,.9-.1.5-.2.6-.3c.2-.1.3-.2.4-.3s.2-.1.3-.1.2,0,.3.2l.5.6c-.2.3-.5.5-.7.7-.3.2-.5.3-.8.4s-.6.2-.9.2h-1c-.6,0-1.1-.1-1.6-.3s-.9-.5-1.3-.9-.6-.9-.9-1.5-.3-1.2-.3-2,0-1.3.3-1.9.5-1.1.8-1.5.8-.7,1.4-1,1.2-.4,1.9-.4,1.2.1,1.7.3.9.5,1.3.9l-.5.6h.1Z"/>
    <path class="cls-11" d="M499.5,215.5c-.2.2-.5.5-.8.6-.3.2-.6.3-.9.4-.3.1-.6.2-1,.2h-1c-.6,0-1.2-.1-1.8-.3s-1-.5-1.4-.9-.7-.9-.9-1.5-.3-1.3-.3-2.1.1-1.2.3-1.8c.2-.6.5-1,.9-1.4s.8-.7,1.4-1c.5-.2,1.1-.4,1.8-.4s1.1,0,1.5.3c.5.2.9.4,1.2.8s.6.8.8,1.3c.2.5.3,1.1.3,1.8s0,.4,0,.5-.2.1-.3.1h-6c0,.6.1,1,.2,1.4s.3.7.6,1c.2.3.5.5.9.6s.7.2,1.1.2.7,0,1-.1c.3,0,.5-.2.7-.3s.4-.2.5-.3c.1,0,.3-.1.4-.1s.2,0,.3.2l.5.6h0v.2ZM498,211.2c0-.4,0-.7-.1-1s-.2-.6-.4-.8c-.2-.2-.4-.4-.7-.5s-.6-.2-1-.2c-.7,0-1.3.2-1.7.6-.4.4-.7,1-.8,1.8h4.8,0Z"/>
  </g>
  <rect class="cls-1" x="30" y="180" width="645" height="60"/>
  <g>
    <path class="cls-8" d="M156.6,412h-1.5c-.2,0-.3,0-.4-.1s-.2-.2-.2-.3l-1.1-3h-5.7l-1.1,3c0,.1-.1.2-.2.3s-.2.1-.4.1h-1.5l5.1-12.9h1.9l5.1,12.9h0ZM152.8,407.2l-1.9-5c-.1-.3-.3-.8-.4-1.3,0,.3-.1.5-.2.7,0,.2-.1.4-.2.6l-1.9,5h4.6,0Z"/>
    <path class="cls-8" d="M159.4,404.6c.3-.6.6-1.1,1.1-1.4s.9-.5,1.5-.5h.6c.2,0,.3.1.5.2v1.3c-.2.2-.3.2-.4.2h-.9c-.3,0-.5,0-.8.1s-.4.2-.6.4-.3.4-.4.6c-.1.2-.2.5-.4.8v5.7h-1.8v-9.1h1c.2,0,.3,0,.4.1,0,0,.1.2.1.4v1.3h.1,0Z"/>
    <path class="cls-8" d="M164.4,412v-9.1h1.1c.2,0,.4.1.5.4v.9c.5-.4.8-.7,1.2-1,.4-.2.9-.4,1.4-.4s1.1.2,1.5.5.6.8.8,1.4c.1-.3.3-.6.5-.8.2-.2.4-.4.7-.6s.5-.3.8-.3.6-.1.9-.1c.5,0,.9,0,1.3.2.4.1.7.4,1,.7.3.3.5.7.6,1.1s.2.9.2,1.5v5.8h-1.8v-5.8c0-.7-.1-1.2-.4-1.5-.3-.4-.7-.5-1.3-.5s-.5,0-.7.1-.4.2-.6.4-.3.4-.4.6c-.1.3-.1.6-.1.9v5.8h-1.8v-5.8c0-.7-.1-1.2-.4-1.6s-.7-.5-1.2-.5-.7.1-1.1.3c-.3.2-.6.5-.9.8v6.8h-1.8v-.2Z"/>
    <path class="cls-8" d="M187,402.9l-3.7,9.1h-1.6l-3.7-9.1h1.4c.1,0,.2,0,.3.1s.1.1.2.2l2.2,5.6c0,.2.1.5.2.7,0,.2.1.5.2.7,0-.2.1-.5.2-.7,0-.2.1-.5.2-.7l2.2-5.6c0-.1.1-.2.2-.2,0,0,.2-.1.3-.1h1.4Z"/>
    <path class="cls-8" d="M193.4,406.9c.2-.3.4-.6.7-.9-.3.2-.7.4-1.1.6s-.8.2-1.3.2-.9,0-1.4-.2c-.4-.2-.8-.4-1.1-.7-.3-.3-.6-.7-.8-1.2s-.3-1-.3-1.6.1-1.1.3-1.6.5-.9.9-1.3.8-.7,1.4-.9,1.1-.3,1.8-.3,1.2.1,1.7.3c.5.2.9.5,1.3.9s.6.8.8,1.3.3,1.1.3,1.7,0,.7-.1,1.1-.2.7-.3,1-.3.6-.5,1c-.2.3-.4.6-.6,1l-3.1,4.5c0,.1-.2.2-.4.3-.2,0-.3.1-.5.1h-1.6l3.9-5.1h0v-.2ZM189.8,402.9c0,.8.2,1.4.6,1.9.4.4,1,.6,1.8.6s.8,0,1.1-.2.6-.3.8-.5.4-.5.5-.8.2-.6.2-.9,0-.7-.2-1.1c-.1-.3-.3-.6-.5-.8s-.5-.4-.8-.5-.6-.2-1-.2-.7,0-1,.2-.6.3-.8.5-.4.5-.5.8-.2.6-.2,1h0Z"/>
    <path class="cls-8" d="M198.6,411v-.5c0-.1.1-.3.2-.4.1-.1.2-.2.4-.3h1c.1,0,.3.1.4.3.1.1.2.2.3.4v1c0,.2-.1.3-.3.4s-.2.2-.4.2h-1c-.1,0-.3-.1-.4-.2-.1-.1-.2-.2-.2-.4v-.5Z"/>
    <path class="cls-8" d="M210.7,410.4c.2,0,.3,0,.4.2.1.1.2.3.2.4v1.1h-8.7v-1c0-.2.1-.3.2-.4l4.1-4.1c.3-.3.6-.7.9-1,.3-.3.5-.6.7-1,.2-.3.3-.6.4-1s.2-.7.2-1,0-.7-.2-1c-.1-.3-.3-.5-.5-.7s-.4-.3-.7-.4-.6-.1-.9-.1-.6,0-.9.1c-.3,0-.5.2-.7.4s-.4.4-.5.6-.2.5-.3.7c0,.2-.2.4-.3.5s-.3.1-.6,0l-.9-.2c0-.6.2-1.1.5-1.6.2-.5.6-.8.9-1.1.4-.3.8-.5,1.3-.7s1-.2,1.6-.2,1.1,0,1.6.2.9.4,1.2.7.6.7.8,1.1c.2.5.3,1,.3,1.5s0,.9-.2,1.3-.3.8-.6,1.2c-.2.4-.5.7-.9,1.1s-.7.7-1,1.1l-3.3,3.4c.2,0,.5-.1.8-.2h5.1Z"/>
    <path class="cls-8" d="M213.4,405.9h4.5v1.5h-4.5v-1.5Z"/>
    <path class="cls-8" d="M231.2,412h-1.5c-.2,0-.3,0-.4-.1s-.2-.2-.2-.3l-1.1-3h-5.7l-1.1,3c0,.1-.1.2-.2.3s-.2.1-.4.1h-1.5l5.1-12.9h1.9l5.1,12.9h0ZM227.5,407.2l-1.9-5c-.1-.3-.3-.8-.4-1.3,0,.3-.1.5-.2.7,0,.2-.1.4-.2.6l-1.9,5h4.6,0Z"/>
  </g>
  <path class="cls-11" d="M89.6,30.8h6.6v2.6c2.2-2.7,4.8-3.4,7-3.4s5.7,1.4,7.3,4.2c2.4-3.4,5.9-4.2,8.4-4.2s6.5,1.6,8.1,4.5c.5.9,1.5,3,1.5,7.2v17.5h-6.6v-15.6c0-3.2-.3-4.5-.6-5.1-.4-1.1-1.4-2.5-3.8-2.5s-3,.9-3.9,2.1c-1.2,1.6-1.3,4-1.3,6.5v14.6h-6.6v-15.6c0-3.2-.3-4.5-.6-5.1-.4-1.1-1.4-2.5-3.8-2.5s-3,.9-3.9,2.1c-1.1,1.6-1.3,4-1.3,6.5v14.6h-6.6v-28.4h.1ZM66.7,30.8h6.6v2.6c.7-.9,1.8-1.8,2.8-2.4,1.3-.7,2.6-.9,4-.9s3.4.3,5.2,1.4l-2.7,6c-1.5-.9-2.7-1-3.4-1-1.4,0-2.8.2-4.1,1.5-1.8,2-1.8,4.7-1.8,6.5v14.7h-6.6v-28.4h0ZM36.7,45c0,4.9,3.1,9,7.9,9s8-3,8-9-3.8-9.2-8-9.2-7.9,4-7.9,9.1h0ZM52.2,30.8h6.6v28.4h-6.6v-3c-2.9,3.4-6.5,3.8-8.5,3.8-8.8,0-13.8-7.3-13.8-15.1s6.3-14.9,13.8-14.9,5.7.5,8.4,4v-3.3h.1Z"/>
  <g>
    <path class="cls-11" d="M49.8,115.9c.2,0,.4,0,.6.3l1.7,1.8c-.9,1.2-2.1,2.1-3.5,2.7s-3,.9-4.9.9-3.3-.3-4.6-.9c-1.4-.6-2.5-1.4-3.5-2.4-1-1-1.7-2.3-2.2-3.7-.5-1.5-.8-3-.8-4.8s.3-3.3.8-4.8c.6-1.4,1.3-2.7,2.3-3.7,1-1,2.2-1.9,3.6-2.4,1.4-.6,2.9-.9,4.6-.9s3.2.3,4.5.8c1.3.6,2.4,1.3,3.3,2.2l-1.4,2c0,.1-.2.2-.3.3-.1,0-.3.1-.6.1s-.3,0-.5-.1c-.2,0-.4-.2-.6-.3s-.4-.3-.7-.4-.6-.3-.9-.4-.8-.2-1.2-.3c-.5,0-1-.1-1.6-.1-1,0-2,.2-2.8.6-.9.4-1.6.9-2.2,1.6-.6.7-1.1,1.6-1.4,2.6-.3,1-.5,2.2-.5,3.4s.2,2.5.6,3.5c.4,1,.9,1.9,1.5,2.6.6.7,1.4,1.2,2.2,1.6.9.4,1.8.6,2.8.6s1.1,0,1.6,0,.9-.2,1.3-.3.8-.3,1.1-.5c.4-.2.7-.5,1.1-.8.1,0,.2-.2.3-.2.1,0,.2,0,.4,0Z"/>
    <path class="cls-11" d="M61.3,104.7c1.2,0,2.3.2,3.3.6,1,.4,1.9,1,2.6,1.7.7.7,1.3,1.6,1.6,2.7.4,1,.6,2.2.6,3.5s-.2,2.5-.6,3.5c-.4,1-.9,1.9-1.6,2.7-.7.7-1.6,1.3-2.6,1.7-1,.4-2.1.6-3.3.6s-2.3-.2-3.3-.6c-1-.4-1.9-1-2.6-1.7-.7-.7-1.3-1.6-1.6-2.7-.4-1-.6-2.2-.6-3.5s.2-2.5.6-3.5c.4-1,.9-1.9,1.6-2.7.7-.7,1.6-1.3,2.6-1.7,1-.4,2.1-.6,3.3-.6ZM61.3,118.6c1.4,0,2.4-.5,3-1.4.7-.9,1-2.3,1-4s-.3-3.1-1-4c-.7-.9-1.7-1.4-3-1.4s-2.4.5-3.1,1.4c-.7.9-1,2.3-1,4s.3,3.1,1,4c.7.9,1.7,1.4,3.1,1.4Z"/>
    <path class="cls-11" d="M76.2,107.8c.5-1,1.1-1.8,1.8-2.3s1.5-.8,2.5-.8,1.4.2,1.8.5l-.3,3c0,.2-.1.3-.2.4-.1,0-.2.1-.4.1s-.4,0-.7,0-.6,0-.9,0c-.4,0-.8,0-1.2.2s-.6.3-.9.6c-.3.2-.5.5-.7.9s-.4.7-.6,1.2v10.1h-4v-16.4h2.3c.4,0,.7,0,.8.2.2.1.3.4.3.8l.2,1.9Z"/>
    <path class="cls-11" d="M89.9,121.7c-1.4,0-2.5-.4-3.3-1.2-.8-.8-1.1-1.9-1.1-3.3v-9.2h-1.7c-.2,0-.4,0-.5-.2s-.2-.3-.2-.6v-1.6l2.6-.4.8-4.5c0-.2.2-.4.3-.5.1-.1.3-.2.6-.2h2v5.2h4.4v2.8h-4.4v8.9c0,.5.1.9.4,1.2s.6.4,1,.4.5,0,.6,0c.2,0,.3-.1.4-.2s.2-.1.3-.2.2,0,.3,0,.2,0,.3,0c0,0,.2.1.2.3l1.2,1.9c-.6.5-1.2.8-2,1.1-.7.2-1.5.4-2.3.4Z"/>
    <path class="cls-11" d="M99.2,113.7c0,.8.2,1.6.4,2.2.2.6.5,1.1.9,1.5.4.4.8.7,1.4.9.5.2,1.1.3,1.8.3s1.2,0,1.7-.2.9-.3,1.2-.5c.3-.2.7-.3.9-.5.3-.1.5-.2.8-.2s.6.1.7.4l1.1,1.4c-.4.5-.9.9-1.5,1.3-.5.3-1.1.6-1.7.8s-1.2.4-1.8.4-1.2.1-1.8.1c-1.1,0-2.2-.2-3.2-.6-1-.4-1.8-.9-2.6-1.7-.7-.7-1.3-1.7-1.7-2.8s-.6-2.4-.6-3.8.2-2.2.5-3.2c.4-1,.9-1.8,1.6-2.6.7-.7,1.5-1.3,2.5-1.7,1-.4,2.1-.6,3.3-.6s2,.2,2.9.5c.9.3,1.6.8,2.3,1.4.6.6,1.1,1.4,1.5,2.3.4.9.5,2,.5,3.2s0,1-.2,1.2c-.1.2-.4.3-.7.3h-10.2ZM106.8,111.3c0-.5,0-1-.2-1.4-.1-.5-.4-.9-.6-1.2s-.7-.6-1.1-.8c-.4-.2-1-.3-1.5-.3-1.1,0-2,.3-2.7,1-.7.7-1.1,1.6-1.3,2.8h7.5Z"/>
    <path class="cls-11" d="M127.7,121.4h-3.8c-.3,0-.5,0-.7-.2-.2-.1-.3-.3-.4-.5l-3.5-5.7c0,.2-.1.4-.2.5s-.1.3-.2.4l-3.1,4.8c-.1.2-.3.3-.4.5-.2.2-.4.2-.6.2h-3.5l5.6-8.5-5.4-8h3.8c.3,0,.5,0,.6.1s.3.2.4.4l3.4,5.5c.1-.4.3-.7.5-1.1l2.8-4.3c.2-.4.5-.6.9-.6h3.6l-5.4,7.8,5.6,8.6Z"/>
    <path class="cls-11" d="M129.1,110.1h8.3v3.3h-8.3v-3.3Z"/>
    <path class="cls-11" d="M161.6,121.4h-3.3c-.4,0-.7,0-.9-.3-.2-.2-.4-.4-.5-.7l-1.7-4.7h-9.6l-1.7,4.7c0,.2-.3.5-.5.7-.2.2-.5.3-.9.3h-3.4l9.1-23.1h4.4l9.1,23.1ZM154,112.7l-2.8-7.7c-.1-.3-.3-.7-.4-1.2s-.3-1-.4-1.5c-.1.5-.3,1.1-.4,1.5-.1.5-.3.9-.4,1.2l-2.8,7.7h7.4Z"/>
    <path class="cls-11" d="M178.9,98.3v1.7c0,.5,0,.9-.2,1.2-.1.3-.2.6-.3.8l-8.8,18c-.2.4-.4.7-.8,1-.3.3-.8.4-1.3.4h-2.9l8.9-17.7c.2-.4.4-.7.6-1,.2-.3.4-.6.7-.9h-11.1c-.2,0-.5,0-.6-.3s-.3-.4-.3-.6v-2.7h16Z"/>
    <path class="cls-11" d="M195.7,117.7c.4,0,.8.1,1,.4.3.2.4.6.4,1v2.4h-15.9v-1.3c0-.3,0-.5.2-.8.1-.3.3-.6.5-.8l7-7c.6-.6,1.1-1.2,1.6-1.7.5-.5.9-1.1,1.2-1.6.3-.5.5-1.1.7-1.6.2-.5.2-1.1.2-1.7s0-1-.2-1.5c-.2-.4-.4-.8-.7-1.1-.3-.3-.6-.5-1.1-.6s-.9-.2-1.4-.2-.9,0-1.3.2-.8.3-1.1.6c-.3.2-.6.5-.8.8-.2.3-.4.7-.5,1.1-.2.5-.4.8-.7,1-.3.2-.7.2-1.2.1l-2.1-.4c.2-1.1.5-2.1.9-2.9s1-1.5,1.7-2.1,1.5-1,2.4-1.3,1.8-.4,2.9-.4,2,.2,2.9.5c.9.3,1.6.8,2.3,1.3.6.6,1.1,1.3,1.5,2.1.4.8.5,1.7.5,2.7s-.1,1.6-.4,2.4c-.3.7-.6,1.4-1,2.1-.4.7-.9,1.3-1.5,1.9-.6.6-1.2,1.2-1.8,1.9l-5.2,5.3c.5-.1,1-.3,1.5-.3.5,0,1-.1,1.4-.1h5.9Z"/>
    <path class="cls-11" d="M205.1,106.7c.5-.1,1-.2,1.5-.2.5,0,.9,0,1.4,0,1.2,0,2.3.2,3.2.5.9.4,1.7.9,2.3,1.5.6.6,1.1,1.4,1.4,2.2.3.9.5,1.8.5,2.8s-.2,2.3-.6,3.4c-.4,1-1,1.9-1.8,2.6-.8.7-1.7,1.3-2.7,1.7s-2.2.6-3.4.6-1.4,0-2.1-.2c-.7-.1-1.3-.3-1.8-.6-.6-.3-1.1-.5-1.6-.9-.5-.3-.9-.7-1.3-1l1.2-1.7c.3-.4.6-.5,1-.5s.5,0,.8.3c.3.2.6.4,1,.6s.8.4,1.3.6c.5.2,1.1.3,1.8.3s1.4-.1,1.9-.4c.6-.2,1-.6,1.4-1,.4-.4.6-.9.8-1.5.2-.6.3-1.2.3-1.9,0-1.3-.4-2.2-1.1-3-.7-.7-1.8-1.1-3.2-1.1s-2.2.2-3.4.6l-2.5-.7,1.9-11.2h11.4v1.7c0,.6-.2,1-.5,1.4s-.9.5-1.8.5h-6.4l-.8,4.8Z"/>
  </g>
</svg>