<?xml version="1.0" encoding="utf-8"?>
<!-- Generator: Adobe Illustrator 26.3.1, SVG Export Plug-In . SVG Version: 6.00 Build 0)  -->
<svg version="1.1" id="Layer_1" xmlns="http://www.w3.org/2000/svg" xmlns:xlink="http://www.w3.org/1999/xlink" x="0px" y="0px"
	 viewBox="0 0 377 419.3" style="enable-background:new 0 0 377 419.3;" xml:space="preserve">
<style type="text/css">
	.st0{fill:#333E48;}
	.st1{fill:#00C1DE;}
	.st2{fill:#7D868C;}
	.st3{fill:#FFFFFF;}
	.st4{fill:#008FBB;}
</style>
<g>
	<rect class="st0" width="377" height="419.3"/>
</g>
<g>
	<path class="st1" d="M358.7,358.2H16.5V81.7h342.1V358.2z M17.7,357h339.7v-274H17.7V357z"/>
</g>
<g>
	<rect x="17.1" y="371.4" class="st2" width="342.8" height="30.8"/>
</g>
<g>
	<path class="st3" d="M29,18.7h3.1v13.6H29v-1.4c-1.4,1.6-3.1,1.8-4,1.8c-4.2,0-6.5-3.5-6.5-7.2c0-4.4,3-7.2,6.6-7.2
		c1,0,2.7,0.3,4,1.9L29,18.7L29,18.7z M21.6,25.6c0,2.4,1.5,4.3,3.8,4.3c2,0,3.8-1.5,3.8-4.3s-1.8-4.4-3.8-4.4
		C23.1,21.2,21.6,23.1,21.6,25.6 M35.8,18.7H39v1.2c0.3-0.4,0.9-0.9,1.3-1.1c0.6-0.4,1.2-0.5,1.9-0.5c0.8,0,1.6,0.1,2.5,0.6
		l-1.3,2.9c-0.7-0.5-1.3-0.5-1.6-0.5c-0.7,0-1.3,0.1-2,0.8C39,23.1,39,24.4,39,25.3v7.1h-3.1L35.8,18.7L35.8,18.7z M46.7,18.7h3.1
		V20c1.1-1.3,2.3-1.6,3.3-1.6c1.4,0,2.7,0.7,3.5,2c1.1-1.6,2.8-2,4-2c1.6,0,3.1,0.8,3.8,2.1c0.3,0.5,0.7,1.5,0.7,3.4v8.4h-3.1v-7.5
		c0-1.5-0.2-2.1-0.3-2.4c-0.2-0.5-0.7-1.2-1.8-1.2c-0.8,0-1.4,0.4-1.9,1c-0.5,0.8-0.6,1.9-0.6,3.1v7h-3.1v-7.5
		c0-1.5-0.2-2.1-0.3-2.4c-0.2-0.5-0.7-1.2-1.8-1.2c-0.8,0-1.4,0.4-1.9,1c-0.5,0.8-0.6,1.9-0.6,3.1v7h-3.1L46.7,18.7L46.7,18.7z"/>
</g>
<g>
	<g>
		<path class="st3" d="M30.6,49.5c-1.5-1.4-3-1.5-3.8-1.5c-3,0-5,2.2-5,5.3s2.1,5.2,5.1,5.2c1.7,0,2.9-0.8,3.7-1.6v2.5
			c-1.4,0.8-2.8,1-3.8,1c-2.5,0-4.1-1.1-4.9-1.9c-1.6-1.5-2.2-3.3-2.2-5.2c0-2.5,1.1-4.3,2.2-5.4c1.4-1.3,3.1-1.8,5-1.8
			c1.3,0,2.5,0.2,3.7,1L30.6,49.5L30.6,49.5z"/>
	</g>
	<g>
		<path class="st3" d="M46.9,53.2c0,4.1-3,7.2-7.2,7.2s-7.2-3.1-7.2-7.2s3-7.2,7.2-7.2S46.9,49.1,46.9,53.2z M44.8,53.2
			c0-3.1-2.1-5.2-5.1-5.2s-5.1,2.2-5.1,5.2s2.1,5.2,5.1,5.2S44.8,56.2,44.8,53.2z"/>
	</g>
	<g>
		<path class="st3" d="M52,46.2c1.7,0,2.8,0.2,3.7,0.8c1.5,1,1.6,2.7,1.6,3.3c0,2-1.2,3.4-3.1,3.9l4.3,5.9H56l-4-5.7h-0.4v5.7h-2.1
			V46.2L52,46.2L52,46.2z M51.7,52.6h0.7c0.6,0,3-0.1,3-2.3c0-2-1.8-2.1-2.9-2.1h-0.7C51.7,48.2,51.7,52.6,51.7,52.6z"/>
	</g>
	<g>
		<path class="st3" d="M64.5,48.2v11.8h-2.1V48.2h-3.2v-2h8.5v2H64.5z"/>
	</g>
	<g>
		<path class="st3" d="M77.1,48.2h-5.5v3.5H77v2h-5.3v4.3h5.5v2h-7.6V46.2h7.6V48.2L77.1,48.2z"/>
	</g>
	<g>
		<path class="st3" d="M82.8,52.8L79,46.2h2.4l2.7,4.7l2.8-4.7h2.4l-4,6.6l4.2,7.2H87l-3-5.3l-3.2,5.3h-2.4L82.8,52.8L82.8,52.8z"/>
	</g>
	<g>
		<path class="st3" d="M94.1,44.9c2.4,0,4.2,1.8,4.2,4.2s-1.8,4.2-4.2,4.2s-4.2-1.8-4.2-4.2S91.7,44.9,94.1,44.9z M94.1,45.5
			c-2,0-3.5,1.6-3.5,3.6s1.5,3.6,3.5,3.6s3.5-1.6,3.5-3.6S96.2,45.5,94.1,45.5z M95.1,51.3l-1.4-1.8v1.8h-0.9v-4.5H94
			c1.4,0,1.6,0.9,1.6,1.3c0,0.7-0.4,1.1-1,1.3l1.5,1.9L95.1,51.3L95.1,51.3z M93.7,48.8h0.2c0.6,0,0.9-0.2,0.9-0.6
			c0-0.6-0.6-0.6-0.9-0.6h-0.2V48.8z"/>
	</g>
	<g>
		<path class="st3" d="M99.7,54.6h5v2.1h-5V54.6z"/>
	</g>
	<g>
		<path class="st3" d="M115.5,56.7h-5.9l-1.5,3.3h-2.3l6.9-14.6l6.6,14.6H117C117,60.1,115.5,56.7,115.5,56.7z M114.7,54.7l-2.1-4.7
			l-2.1,4.7H114.7z"/>
	</g>
	<g>
		<path class="st3" d="M127.3,48.2h-6.8v-2h10.3L122,60.5l-1.7-1C120.4,59.5,127.3,48.2,127.3,48.2z"/>
	</g>
	<g>
		<path class="st3" d="M135.1,48.2h-2.4l1.2-2h3.4V60H135L135.1,48.2L135.1,48.2z"/>
	</g>
	<g>
		<path class="st3" d="M149.5,48.2h-4.3l-0.7,2.3c0.2,0,0.4,0,0.6,0c1.2,0,2.3,0.4,3.2,1.2c0.7,0.6,1.4,1.7,1.4,3.5
			c0,1.5-0.5,2.7-1.4,3.7c-1.1,1.1-2.4,1.4-3.8,1.4c-0.8,0-1.8-0.1-2.6-0.6c-0.2-0.1-1-0.6-1.6-1.6l1.6-1.3c0,0.1,0.4,0.8,1.1,1.2
			c0.5,0.3,1.1,0.5,1.8,0.5c1.1,0,1.8-0.4,2.1-0.8c0.4-0.4,0.9-1.2,0.9-2.3s-0.4-1.8-0.8-2.2c-0.7-0.6-1.6-0.8-2.3-0.8
			c-0.6,0-1.1,0.1-1.6,0.3c-0.4,0.2-0.8,0.3-1.2,0.6l2.1-7h5.7L149.5,48.2L149.5,48.2z"/>
	</g>
</g>
<g>
	<g>
		<path class="st3" d="M139.5,390.5h-0.9c-0.1,0-0.2,0-0.2-0.1s-0.1-0.1-0.1-0.2l-0.7-1.7h-3.3l-0.7,1.7c0,0.1-0.1,0.1-0.1,0.2
			c-0.1,0-0.1,0.1-0.2,0.1h-0.9l3-7.5h1.1L139.5,390.5L139.5,390.5z M137.3,387.7l-1.1-2.9c-0.1-0.2-0.2-0.5-0.2-0.8
			c0,0.1-0.1,0.3-0.1,0.4s-0.1,0.2-0.1,0.3l-1.1,2.9H137.3L137.3,387.7z"/>
	</g>
	<g>
		<path class="st3" d="M143.4,386.1c0,0-0.1,0.1-0.1,0.1c0,0-0.1,0-0.1,0c-0.1,0-0.1,0-0.2-0.1s-0.1-0.1-0.2-0.1
			c-0.1,0-0.2-0.1-0.3-0.1c-0.1,0-0.3-0.1-0.5-0.1c-0.1,0-0.3,0-0.4,0c-0.1,0-0.2,0.1-0.3,0.1s-0.1,0.1-0.2,0.2s-0.1,0.2-0.1,0.3
			c0,0.1,0,0.2,0.1,0.3s0.2,0.2,0.3,0.2s0.3,0.1,0.4,0.2c0.2,0,0.3,0.1,0.5,0.2s0.3,0.1,0.5,0.2c0.2,0.1,0.3,0.2,0.4,0.3
			c0.1,0.1,0.2,0.2,0.3,0.4s0.1,0.3,0.1,0.5c0,0.2,0,0.5-0.1,0.7c-0.1,0.2-0.2,0.4-0.4,0.5c-0.2,0.1-0.4,0.3-0.6,0.4
			s-0.5,0.1-0.9,0.1c-0.4,0-0.7-0.1-1-0.2s-0.6-0.3-0.8-0.5l0.2-0.4c0,0,0.1-0.1,0.1-0.1s0.1,0,0.2,0s0.1,0,0.2,0.1s0.1,0.1,0.2,0.2
			s0.2,0.1,0.4,0.2c0.1,0,0.3,0.1,0.5,0.1c0.2,0,0.3,0,0.4-0.1c0.1,0,0.2-0.1,0.3-0.2s0.1-0.2,0.2-0.3c0-0.1,0.1-0.2,0.1-0.3
			c0-0.1,0-0.2-0.1-0.4c-0.1-0.1-0.2-0.2-0.3-0.2s-0.3-0.1-0.4-0.2c-0.2,0-0.3-0.1-0.5-0.2s-0.3-0.1-0.5-0.2s-0.3-0.2-0.4-0.3
			s-0.2-0.2-0.3-0.4s-0.1-0.4-0.1-0.6c0-0.2,0-0.4,0.1-0.6c0.1-0.2,0.2-0.4,0.4-0.5c0.2-0.1,0.4-0.3,0.6-0.3s0.5-0.1,0.8-0.1
			c0.4,0,0.7,0.1,0.9,0.2c0.3,0.1,0.5,0.3,0.7,0.5L143.4,386.1L143.4,386.1z"/>
	</g>
	<g>
		<path class="st3" d="M149.4,385.2l-2.9,6.8c0,0.1-0.1,0.1-0.1,0.2c-0.1,0-0.1,0.1-0.2,0.1h-0.8l1-2.1l-2.2-5h0.9
			c0.1,0,0.1,0,0.2,0.1s0.1,0.1,0.1,0.1l1.4,3.2c0,0.1,0.1,0.2,0.1,0.2s0.1,0.2,0.1,0.2c0-0.1,0.1-0.2,0.1-0.2s0.1-0.2,0.1-0.2
			l1.3-3.2c0-0.1,0.1-0.1,0.1-0.1c0.1,0,0.1-0.1,0.2-0.1L149.4,385.2L149.4,385.2z"/>
	</g>
	<g>
		<path class="st3" d="M151.2,385.9c0.1-0.1,0.2-0.2,0.4-0.3c0.1-0.1,0.3-0.2,0.4-0.3s0.3-0.1,0.4-0.2s0.3-0.1,0.5-0.1
			c0.3,0,0.6,0,0.8,0.1s0.4,0.2,0.6,0.4s0.3,0.4,0.3,0.6c0.1,0.2,0.1,0.5,0.1,0.8v3.4h-1v-3.4c0-0.4-0.1-0.7-0.3-0.9
			s-0.4-0.3-0.8-0.3c-0.3,0-0.5,0.1-0.7,0.2c-0.2,0.1-0.4,0.3-0.6,0.5v3.9h-1v-5.3h0.6c0.1,0,0.2,0.1,0.3,0.2L151.2,385.9
			L151.2,385.9z"/>
	</g>
	<g>
		<path class="st3" d="M159.8,386.2C159.8,386.2,159.7,386.2,159.8,386.2c-0.1,0.1-0.2,0.1-0.2,0.1s-0.1,0-0.2-0.1
			c-0.1,0-0.1-0.1-0.2-0.1c-0.1,0-0.2-0.1-0.3-0.1s-0.3-0.1-0.5-0.1c-0.2,0-0.5,0-0.7,0.1c-0.2,0.1-0.4,0.2-0.5,0.4
			s-0.2,0.4-0.3,0.6c-0.1,0.2-0.1,0.5-0.1,0.8s0,0.6,0.1,0.8s0.2,0.5,0.3,0.6s0.3,0.3,0.5,0.4c0.2,0.1,0.4,0.1,0.6,0.1
			s0.4,0,0.5-0.1s0.3-0.1,0.4-0.2s0.2-0.1,0.2-0.2c0.1,0,0.1-0.1,0.2-0.1c0.1,0,0.1,0,0.2,0.1l0.3,0.4c-0.1,0.1-0.3,0.3-0.4,0.4
			s-0.3,0.2-0.5,0.3s-0.4,0.1-0.5,0.1c-0.2,0-0.4,0-0.6,0c-0.3,0-0.6-0.1-0.9-0.2s-0.5-0.3-0.8-0.5s-0.4-0.5-0.5-0.9
			s-0.2-0.7-0.2-1.2c0-0.4,0.1-0.8,0.2-1.1c0.1-0.3,0.3-0.6,0.5-0.9c0.2-0.2,0.5-0.4,0.8-0.6s0.7-0.2,1.1-0.2c0.4,0,0.7,0.1,1,0.2
			s0.6,0.3,0.8,0.5L159.8,386.2L159.8,386.2z"/>
	</g>
	<g>
		<path class="st3" d="M162.1,385.9c0.2-0.2,0.5-0.4,0.7-0.5c0.3-0.1,0.6-0.2,0.9-0.2c0.3,0,0.6,0,0.8,0.1s0.4,0.2,0.6,0.4
			s0.3,0.4,0.3,0.6c0.1,0.2,0.1,0.5,0.1,0.8v3.4h-1v-3.4c0-0.4-0.1-0.7-0.3-0.9s-0.4-0.3-0.8-0.3c-0.3,0-0.5,0.1-0.7,0.2
			c-0.2,0.1-0.4,0.3-0.6,0.5v3.9h-1v-7.7h1L162.1,385.9L162.1,385.9z"/>
	</g>
	<g>
		<path class="st3" d="M167.8,386.2c0.2-0.4,0.4-0.6,0.6-0.8s0.5-0.3,0.9-0.3c0.1,0,0.2,0,0.3,0c0.1,0,0.2,0.1,0.3,0.1l-0.1,0.8
			c0,0.1-0.1,0.1-0.2,0.1c-0.1,0-0.1,0-0.2,0c-0.1,0-0.2,0-0.3,0c-0.2,0-0.3,0-0.4,0.1c-0.1,0-0.2,0.1-0.3,0.2
			c-0.1,0.1-0.2,0.2-0.3,0.3c-0.1,0.1-0.1,0.3-0.2,0.5v3.3h-1v-5.3h0.6c0.1,0,0.2,0,0.2,0.1s0.1,0.1,0.1,0.2L167.8,386.2
			L167.8,386.2z"/>
	</g>
	<g>
		<path class="st3" d="M173,385.1c0.4,0,0.7,0.1,1.1,0.2c0.3,0.1,0.6,0.3,0.8,0.5s0.4,0.5,0.5,0.9c0.1,0.3,0.2,0.7,0.2,1.1
			s-0.1,0.8-0.2,1.1c-0.1,0.3-0.3,0.6-0.5,0.9s-0.5,0.4-0.8,0.5c-0.3,0.1-0.7,0.2-1.1,0.2s-0.8-0.1-1.1-0.2s-0.6-0.3-0.8-0.5
			c-0.2-0.2-0.4-0.5-0.5-0.9s-0.2-0.7-0.2-1.1s0.1-0.8,0.2-1.1s0.3-0.6,0.5-0.9s0.5-0.4,0.8-0.5S172.6,385.1,173,385.1z M173,389.8
			c0.5,0,0.9-0.2,1.1-0.5s0.4-0.8,0.4-1.4s-0.1-1.1-0.4-1.4s-0.6-0.5-1.1-0.5s-0.9,0.2-1.1,0.5s-0.4,0.8-0.4,1.4s0.1,1.1,0.4,1.4
			S172.5,389.8,173,389.8z"/>
	</g>
	<g>
		<path class="st3" d="M177.6,385.9c0.1-0.1,0.2-0.2,0.4-0.3c0.1-0.1,0.3-0.2,0.4-0.3s0.3-0.1,0.4-0.2s0.3-0.1,0.5-0.1
			c0.3,0,0.6,0,0.8,0.1s0.4,0.2,0.6,0.4s0.3,0.4,0.3,0.6c0.1,0.2,0.1,0.5,0.1,0.8v3.4h-1v-3.4c0-0.4-0.1-0.7-0.3-0.9
			s-0.4-0.3-0.8-0.3c-0.3,0-0.5,0.1-0.7,0.2c-0.2,0.1-0.4,0.3-0.6,0.5v3.9h-1v-5.3h0.6c0.1,0,0.2,0.1,0.3,0.2L177.6,385.9
			L177.6,385.9z"/>
	</g>
	<g>
		<path class="st3" d="M184.8,385.1c0.4,0,0.7,0.1,1.1,0.2c0.3,0.1,0.6,0.3,0.8,0.5s0.4,0.5,0.5,0.9c0.1,0.3,0.2,0.7,0.2,1.1
			s-0.1,0.8-0.2,1.1c-0.1,0.3-0.3,0.6-0.5,0.9s-0.5,0.4-0.8,0.5c-0.3,0.1-0.7,0.2-1.1,0.2s-0.8-0.1-1.1-0.2
			c-0.3-0.1-0.6-0.3-0.8-0.5c-0.2-0.2-0.4-0.5-0.5-0.9s-0.2-0.7-0.2-1.1s0.1-0.8,0.2-1.1s0.3-0.6,0.5-0.9s0.5-0.4,0.8-0.5
			C184,385.2,184.4,385.1,184.8,385.1z M184.8,389.8c0.5,0,0.9-0.2,1.1-0.5s0.4-0.8,0.4-1.4s-0.1-1.1-0.4-1.4s-0.6-0.5-1.1-0.5
			s-0.9,0.2-1.1,0.5s-0.4,0.8-0.4,1.4s0.1,1.1,0.4,1.4S184.2,389.8,184.8,389.8z"/>
	</g>
	<g>
		<path class="st3" d="M192.8,385.2v5.3h-0.6c-0.1,0-0.2-0.1-0.3-0.2l-0.1-0.5c-0.1,0.1-0.2,0.2-0.4,0.3c-0.1,0.1-0.3,0.2-0.4,0.3
			s-0.3,0.1-0.4,0.2s-0.3,0.1-0.5,0.1c-0.3,0-0.6,0-0.8-0.1s-0.4-0.2-0.6-0.4s-0.3-0.4-0.3-0.6c-0.1-0.2-0.1-0.5-0.1-0.8v-3.4h1v3.4
			c0,0.4,0.1,0.7,0.3,0.9s0.4,0.3,0.8,0.3c0.3,0,0.5-0.1,0.7-0.2c0.2-0.1,0.4-0.3,0.6-0.5v-3.9L192.8,385.2L192.8,385.2z"/>
	</g>
	<g>
		<path class="st3" d="M197.4,386.1c0,0-0.1,0.1-0.1,0.1c0,0-0.1,0-0.1,0c-0.1,0-0.1,0-0.2-0.1s-0.1-0.1-0.2-0.1
			c-0.1,0-0.2-0.1-0.3-0.1c-0.1,0-0.3-0.1-0.5-0.1c-0.1,0-0.3,0-0.4,0c-0.1,0-0.2,0.1-0.3,0.1s-0.1,0.1-0.2,0.2s-0.1,0.2-0.1,0.3
			c0,0.1,0,0.2,0.1,0.3s0.2,0.2,0.3,0.2s0.3,0.1,0.4,0.2c0.2,0,0.3,0.1,0.5,0.2s0.3,0.1,0.5,0.2s0.3,0.2,0.4,0.3
			c0.1,0.1,0.2,0.2,0.3,0.4s0.1,0.3,0.1,0.5c0,0.2,0,0.5-0.1,0.7c-0.1,0.2-0.2,0.4-0.4,0.5s-0.4,0.3-0.6,0.4s-0.5,0.1-0.9,0.1
			c-0.4,0-0.7-0.1-1-0.2s-0.6-0.3-0.8-0.5l0.2-0.4c0,0,0.1-0.1,0.1-0.1c0,0,0.1,0,0.2,0c0.1,0,0.1,0,0.2,0.1s0.1,0.1,0.2,0.2
			s0.2,0.1,0.4,0.2c0.1,0,0.3,0.1,0.5,0.1c0.2,0,0.3,0,0.4-0.1c0.1,0,0.2-0.1,0.3-0.2s0.1-0.2,0.2-0.3s0.1-0.2,0.1-0.3
			c0-0.1,0-0.2-0.1-0.4c-0.1-0.1-0.2-0.2-0.3-0.2s-0.3-0.1-0.4-0.2c-0.2,0-0.3-0.1-0.5-0.2s-0.3-0.1-0.5-0.2s-0.3-0.2-0.4-0.3
			s-0.2-0.2-0.3-0.4s-0.1-0.4-0.1-0.6c0-0.2,0-0.4,0.1-0.6c0.1-0.2,0.2-0.4,0.4-0.5c0.2-0.1,0.4-0.3,0.6-0.3s0.5-0.1,0.8-0.1
			c0.4,0,0.7,0.1,0.9,0.2s0.5,0.3,0.7,0.5L197.4,386.1L197.4,386.1z"/>
	</g>
	<g>
		<path class="st3" d="M204.1,383c0.5,0,0.9,0,1.2,0.1c0.3,0.1,0.6,0.2,0.8,0.4s0.4,0.4,0.5,0.6c0.1,0.2,0.1,0.5,0.1,0.8
			c0,0.2,0,0.4-0.1,0.5s-0.1,0.3-0.3,0.5s-0.3,0.3-0.4,0.4c-0.2,0.1-0.4,0.2-0.6,0.3c1.1,0.2,1.6,0.8,1.6,1.7c0,0.3-0.1,0.6-0.2,0.9
			s-0.3,0.5-0.5,0.7s-0.5,0.3-0.8,0.4c-0.3,0.1-0.7,0.2-1.1,0.2h-2.7V383L204.1,383L204.1,383z M202.8,383.9v2.5h1.3
			c0.6,0,0.9-0.1,1.2-0.3s0.4-0.5,0.4-0.9c0-0.4-0.1-0.7-0.4-0.9c-0.2-0.2-0.6-0.3-1.2-0.3L202.8,383.9L202.8,383.9z M204.3,389.6
			c0.3,0,0.5,0,0.7-0.1s0.4-0.2,0.5-0.3c0.1-0.1,0.2-0.2,0.3-0.4s0.1-0.3,0.1-0.5c0-0.4-0.1-0.7-0.4-0.9s-0.7-0.3-1.2-0.3h-1.6v2.5
			H204.3L204.3,389.6z"/>
	</g>
	<g>
		<path class="st3" d="M209.2,386.2c0.2-0.4,0.4-0.6,0.6-0.8s0.5-0.3,0.9-0.3c0.1,0,0.2,0,0.3,0c0.1,0,0.2,0.1,0.3,0.1l-0.1,0.8
			c0,0.1-0.1,0.1-0.2,0.1c-0.1,0-0.1,0-0.2,0c-0.1,0-0.2,0-0.3,0c-0.2,0-0.3,0-0.4,0.1s-0.2,0.1-0.3,0.2c-0.1,0.1-0.2,0.2-0.3,0.3
			c-0.1,0.1-0.1,0.3-0.2,0.5v3.3h-1v-5.3h0.6c0.1,0,0.2,0,0.2,0.1s0.1,0.1,0.1,0.2L209.2,386.2L209.2,386.2z"/>
	</g>
	<g>
		<path class="st3" d="M213.3,383.5c0,0.1,0,0.2-0.1,0.3c0,0.1-0.1,0.2-0.1,0.2s-0.1,0.1-0.2,0.1s-0.2,0-0.3,0s-0.2,0-0.3,0
			c-0.1,0-0.2-0.1-0.2-0.1s-0.1-0.1-0.1-0.2c0-0.1-0.1-0.2-0.1-0.3s0-0.2,0.1-0.3c0-0.1,0.1-0.2,0.1-0.2s0.1-0.1,0.2-0.1
			c0.1,0,0.2,0,0.3,0s0.2,0,0.3,0s0.2,0.1,0.2,0.1s0.1,0.1,0.1,0.2C213.3,383.4,213.3,383.5,213.3,383.5z M213.1,385.2v5.3h-1v-5.3
			H213.1z"/>
	</g>
	<g>
		<path class="st3" d="M219,382.8v7.7h-0.6c-0.1,0-0.2-0.1-0.3-0.2l-0.1-0.6c-0.2,0.3-0.5,0.5-0.8,0.6c-0.3,0.2-0.6,0.2-1,0.2
			c-0.3,0-0.6-0.1-0.8-0.2c-0.2-0.1-0.5-0.3-0.6-0.5c-0.2-0.2-0.3-0.5-0.4-0.9s-0.1-0.7-0.1-1.2c0-0.4,0.1-0.8,0.2-1.1
			c0.1-0.3,0.3-0.6,0.4-0.9s0.4-0.4,0.7-0.6c0.3-0.1,0.6-0.2,1-0.2c0.3,0,0.6,0,0.8,0.2c0.2,0.1,0.4,0.2,0.6,0.4v-2.9L219,382.8
			L219,382.8z M218,386.5c-0.2-0.2-0.4-0.4-0.5-0.5c-0.2-0.1-0.4-0.1-0.6-0.1c-0.5,0-0.8,0.2-1.1,0.5s-0.4,0.8-0.4,1.5
			c0,0.3,0,0.6,0.1,0.9s0.1,0.4,0.2,0.6s0.2,0.3,0.4,0.3c0.2,0.1,0.3,0.1,0.5,0.1c0.3,0,0.6-0.1,0.8-0.2s0.4-0.3,0.6-0.6L218,386.5
			L218,386.5z"/>
	</g>
	<g>
		<path class="st3" d="M225,385.4v0.4c0,0.1-0.1,0.2-0.2,0.2l-0.6,0.1c0.1,0.1,0.1,0.2,0.1,0.3c0,0.1,0,0.2,0,0.4
			c0,0.3-0.1,0.5-0.1,0.7c-0.1,0.2-0.2,0.4-0.4,0.5s-0.4,0.3-0.6,0.3c-0.2,0.1-0.5,0.1-0.8,0.1c-0.2,0-0.5,0-0.7-0.1
			c-0.1,0.1-0.2,0.1-0.2,0.2c-0.1,0.1-0.1,0.1-0.1,0.2c0,0.1,0.1,0.2,0.1,0.3c0.1,0.1,0.2,0.1,0.4,0.1c0.2,0,0.4,0,0.6,0
			s0.4,0,0.6,0s0.4,0,0.6,0.1c0.2,0,0.4,0.1,0.6,0.2s0.3,0.2,0.4,0.4c0.1,0.1,0.1,0.4,0.1,0.6c0,0.2-0.1,0.5-0.2,0.7
			s-0.3,0.4-0.5,0.6c-0.2,0.2-0.5,0.3-0.8,0.4s-0.7,0.1-1.1,0.1s-0.7,0-1-0.1s-0.5-0.2-0.7-0.3c-0.2-0.1-0.3-0.3-0.4-0.5
			s-0.1-0.4-0.1-0.5c0-0.3,0.1-0.5,0.2-0.7s0.4-0.3,0.7-0.4c-0.1-0.1-0.3-0.2-0.4-0.3s-0.1-0.3-0.1-0.5c0-0.1,0-0.2,0-0.2
			s0.1-0.2,0.1-0.2c0.1-0.1,0.1-0.2,0.2-0.2s0.2-0.1,0.3-0.2c-0.3-0.1-0.5-0.3-0.6-0.6s-0.2-0.5-0.2-0.9c0-0.3,0.1-0.5,0.1-0.7
			c0.1-0.2,0.2-0.4,0.4-0.5s0.4-0.3,0.6-0.3s0.5-0.1,0.8-0.1c0.5,0,0.9,0.1,1.2,0.3L225,385.4L225,385.4z M223.9,390.8
			c0-0.1,0-0.2-0.1-0.3s-0.2-0.1-0.3-0.2c-0.1,0-0.3-0.1-0.4-0.1s-0.3,0-0.5,0c-0.2,0-0.4,0-0.5,0c-0.2,0-0.4,0-0.5,0
			c-0.2,0.1-0.3,0.2-0.4,0.3c-0.1,0.1-0.2,0.3-0.2,0.5c0,0.1,0,0.2,0.1,0.3c0.1,0.1,0.1,0.2,0.3,0.2s0.3,0.1,0.4,0.2
			s0.4,0.1,0.7,0.1s0.5,0,0.7-0.1c0.2,0,0.4-0.1,0.5-0.2c0.1-0.1,0.2-0.2,0.3-0.3S224,390.9,223.9,390.8L223.9,390.8z M222.3,387.9
			c0.2,0,0.3,0,0.5-0.1s0.2-0.1,0.3-0.2s0.2-0.2,0.2-0.3s0.1-0.3,0.1-0.4c0-0.3-0.1-0.5-0.3-0.7c-0.2-0.2-0.5-0.3-0.8-0.3
			s-0.6,0.1-0.8,0.3s-0.3,0.4-0.3,0.7c0,0.1,0,0.3,0.1,0.4s0.1,0.2,0.2,0.3c0.1,0.1,0.2,0.2,0.3,0.2
			C222,387.8,222.1,387.9,222.3,387.9L222.3,387.9z"/>
	</g>
	<g>
		<path class="st3" d="M230.3,389.7c-0.1,0.1-0.3,0.3-0.4,0.4c-0.2,0.1-0.3,0.2-0.5,0.3c-0.2,0.1-0.4,0.1-0.6,0.1s-0.4,0-0.6,0
			c-0.4,0-0.7-0.1-1-0.2c-0.3-0.1-0.6-0.3-0.8-0.5c-0.2-0.2-0.4-0.5-0.5-0.9c-0.1-0.4-0.2-0.8-0.2-1.2c0-0.4,0.1-0.7,0.2-1
			c0.1-0.3,0.3-0.6,0.5-0.8c0.2-0.2,0.5-0.4,0.8-0.6c0.3-0.1,0.7-0.2,1-0.2c0.3,0,0.6,0,0.9,0.2c0.3,0.1,0.5,0.3,0.7,0.5
			c0.2,0.2,0.4,0.5,0.5,0.8c0.1,0.3,0.2,0.6,0.2,1c0,0.2,0,0.3-0.1,0.3c0,0-0.1,0.1-0.2,0.1h-3.5c0,0.3,0.1,0.6,0.1,0.8
			c0.1,0.2,0.2,0.4,0.3,0.6s0.3,0.3,0.5,0.4c0.2,0.1,0.4,0.1,0.6,0.1c0.2,0,0.4,0,0.6-0.1s0.3-0.1,0.4-0.2c0.1-0.1,0.2-0.1,0.3-0.2
			c0.1,0,0.1-0.1,0.2-0.1c0.1,0,0.1,0,0.2,0.1L230.3,389.7L230.3,389.7z M229.4,387.2c0-0.2,0-0.4-0.1-0.6c-0.1-0.2-0.1-0.3-0.2-0.4
			s-0.2-0.2-0.4-0.3s-0.4-0.1-0.6-0.1c-0.4,0-0.8,0.1-1,0.4s-0.4,0.6-0.5,1L229.4,387.2L229.4,387.2z"/>
	</g>
	<g>
		<path class="st3" d="M234.6,386.1c0,0-0.1,0.1-0.1,0.1c0,0-0.1,0-0.1,0c-0.1,0-0.1,0-0.2-0.1s-0.1-0.1-0.2-0.1
			c-0.1,0-0.2-0.1-0.3-0.1c-0.1,0-0.3-0.1-0.5-0.1c-0.1,0-0.3,0-0.4,0c-0.1,0-0.2,0.1-0.3,0.1s-0.1,0.1-0.2,0.2
			c-0.1,0.1-0.1,0.2-0.1,0.3c0,0.1,0,0.2,0.1,0.3s0.2,0.2,0.3,0.2s0.3,0.1,0.4,0.2c0.2,0,0.3,0.1,0.5,0.2s0.3,0.1,0.5,0.2
			c0.2,0.1,0.3,0.2,0.4,0.3c0.1,0.1,0.2,0.2,0.3,0.4s0.1,0.3,0.1,0.5c0,0.2,0,0.5-0.1,0.7c-0.1,0.2-0.2,0.4-0.4,0.5
			s-0.4,0.3-0.6,0.4s-0.5,0.1-0.9,0.1c-0.4,0-0.7-0.1-1-0.2s-0.6-0.3-0.8-0.5l0.2-0.4c0,0,0.1-0.1,0.1-0.1c0,0,0.1,0,0.2,0
			c0.1,0,0.1,0,0.2,0.1c0.1,0,0.1,0.1,0.2,0.2s0.2,0.1,0.4,0.2c0.1,0,0.3,0.1,0.5,0.1c0.2,0,0.3,0,0.4-0.1c0.1,0,0.2-0.1,0.3-0.2
			c0.1-0.1,0.1-0.2,0.2-0.3c0-0.1,0.1-0.2,0.1-0.3c0-0.1,0-0.2-0.1-0.4c-0.1-0.1-0.2-0.2-0.3-0.2s-0.3-0.1-0.4-0.2
			c-0.2,0-0.3-0.1-0.5-0.2s-0.3-0.1-0.5-0.2s-0.3-0.2-0.4-0.3s-0.2-0.2-0.3-0.4s-0.1-0.4-0.1-0.6c0-0.2,0-0.4,0.1-0.6
			c0.1-0.2,0.2-0.4,0.4-0.5c0.2-0.1,0.4-0.3,0.6-0.3s0.5-0.1,0.8-0.1c0.4,0,0.7,0.1,0.9,0.2s0.5,0.3,0.7,0.5L234.6,386.1
			L234.6,386.1z"/>
	</g>
</g>
<g>
	<g>
		<path class="st3" d="M269.2,111.5c0,0.1-0.1,0.1-0.1,0.1c0,0-0.1,0-0.1,0s-0.1,0-0.2-0.1s-0.2-0.1-0.3-0.2s-0.3-0.1-0.4-0.2
			c-0.2-0.1-0.4-0.1-0.6-0.1c-0.2,0-0.4,0-0.6,0.1c-0.2,0.1-0.3,0.1-0.4,0.2c-0.1,0.1-0.2,0.2-0.2,0.3c-0.1,0.1-0.1,0.3-0.1,0.4
			c0,0.2,0,0.4,0.1,0.5s0.2,0.2,0.4,0.3s0.4,0.2,0.6,0.2c0.2,0.1,0.4,0.1,0.6,0.2s0.4,0.2,0.6,0.3s0.4,0.2,0.6,0.4s0.3,0.3,0.4,0.5
			c0.1,0.2,0.1,0.5,0.1,0.8c0,0.3-0.1,0.6-0.2,0.9c-0.1,0.3-0.3,0.5-0.5,0.8s-0.5,0.4-0.8,0.5c-0.3,0.1-0.7,0.2-1.1,0.2
			c-0.2,0-0.5,0-0.7-0.1s-0.4-0.1-0.6-0.2c-0.2-0.1-0.4-0.2-0.6-0.3s-0.3-0.2-0.5-0.4l0.3-0.5c0,0,0.1-0.1,0.1-0.1c0,0,0.1,0,0.1,0
			c0.1,0,0.2,0,0.2,0.1c0.1,0.1,0.2,0.2,0.4,0.2s0.3,0.2,0.5,0.2c0.2,0.1,0.4,0.1,0.7,0.1c0.2,0,0.4,0,0.6-0.1
			c0.2-0.1,0.3-0.2,0.5-0.3c0.1-0.1,0.2-0.2,0.3-0.4c0.1-0.2,0.1-0.3,0.1-0.5c0-0.2,0-0.4-0.1-0.5s-0.2-0.3-0.4-0.3
			c-0.2-0.1-0.4-0.2-0.6-0.2s-0.4-0.1-0.6-0.2c-0.2-0.1-0.4-0.2-0.6-0.2c-0.2-0.1-0.4-0.2-0.6-0.4s-0.3-0.3-0.4-0.6
			s-0.1-0.5-0.1-0.8c0-0.3,0-0.5,0.2-0.8c0.1-0.2,0.3-0.5,0.5-0.7s0.5-0.3,0.7-0.5c0.3-0.1,0.6-0.2,1-0.2c0.4,0,0.8,0.1,1.2,0.2
			s0.7,0.3,0.9,0.6L269.2,111.5L269.2,111.5z"/>
	</g>
	<g>
		<path class="st3" d="M277.2,110.2l-3,7.5h-1l-3-7.5h0.9c0.1,0,0.2,0,0.2,0.1s0.1,0.1,0.1,0.2l2,5.1c0,0.1,0.1,0.3,0.1,0.4
			c0,0.2,0.1,0.3,0.1,0.5c0-0.2,0.1-0.3,0.1-0.5c0-0.2,0.1-0.3,0.1-0.4l2-5.1c0-0.1,0.1-0.1,0.1-0.2s0.1-0.1,0.2-0.1H277.2
			L277.2,110.2z"/>
	</g>
	<g>
		<path class="st3" d="M282.8,116.8v0.9h-4.6v-7.5h4.6v0.9h-3.5v2.4h2.8v0.9h-2.8v2.4L282.8,116.8L282.8,116.8z"/>
	</g>
	<g>
		<path class="st3" d="M288.4,116.8c0.1,0,0.2,0,0.3,0.1s0.1,0.2,0.1,0.2v0.6h-5v-0.3c0-0.1,0-0.1,0-0.2s0.1-0.2,0.1-0.2l2.4-2.4
			c0.2-0.2,0.4-0.4,0.5-0.6s0.3-0.4,0.4-0.6s0.2-0.4,0.3-0.6c0.1-0.2,0.1-0.4,0.1-0.6s0-0.4-0.1-0.6s-0.2-0.3-0.3-0.4
			s-0.2-0.2-0.4-0.2c-0.2-0.1-0.3-0.1-0.5-0.1s-0.4,0-0.5,0.1s-0.3,0.1-0.4,0.2s-0.2,0.2-0.3,0.3s-0.1,0.3-0.2,0.4
			c0,0.1-0.1,0.2-0.2,0.3c-0.1,0-0.2,0.1-0.3,0l-0.5-0.1c0-0.3,0.1-0.7,0.3-0.9s0.3-0.5,0.5-0.7s0.5-0.3,0.7-0.4
			c0.3-0.1,0.6-0.1,0.9-0.1s0.6,0.1,0.9,0.1s0.5,0.2,0.7,0.4c0.2,0.2,0.4,0.4,0.5,0.7c0.1,0.3,0.2,0.6,0.2,0.9c0,0.3,0,0.5-0.1,0.8
			s-0.2,0.5-0.3,0.7c-0.1,0.2-0.3,0.4-0.5,0.6c-0.2,0.2-0.4,0.4-0.6,0.6l-1.9,1.9c0.1,0,0.3-0.1,0.4-0.1s0.3,0,0.4,0L288.4,116.8
			L288.4,116.8z"/>
	</g>
</g>
<g>
	<g>
		<path class="st3" d="M241.1,161.1v7.5h-0.6c-0.1,0-0.2,0-0.2-0.1s-0.1-0.1-0.2-0.1l-4.2-5.5c0,0.1,0,0.2,0,0.3c0,0.1,0,0.2,0,0.3
			v5.1h-1v-7.5h0.6c0.1,0,0.2,0,0.2,0s0.1,0.1,0.2,0.1l4.2,5.5c0-0.1,0-0.2,0-0.3c0-0.1,0-0.2,0-0.3V161L241.1,161.1L241.1,161.1z"
			/>
	</g>
	<g>
		<path class="st3" d="M247.6,167.6v0.9H243V161h4.6v0.9h-3.5v2.4h2.8v0.9h-2.8v2.4L247.6,167.6L247.6,167.6z"/>
	</g>
	<g>
		<path class="st3" d="M256,164.8c0,0.6-0.1,1.1-0.3,1.5c-0.2,0.5-0.4,0.9-0.8,1.2c-0.3,0.3-0.7,0.6-1.2,0.8c-0.5,0.2-1,0.3-1.5,0.3
			s-1.1-0.1-1.5-0.3s-0.9-0.4-1.2-0.8c-0.3-0.3-0.6-0.7-0.8-1.2s-0.3-1-0.3-1.5s0.1-1.1,0.3-1.5c0.2-0.5,0.4-0.9,0.8-1.2
			c0.3-0.3,0.7-0.6,1.2-0.8s1-0.3,1.5-0.3s1.1,0.1,1.5,0.3s0.9,0.4,1.2,0.8c0.3,0.3,0.6,0.7,0.8,1.2S256,164.2,256,164.8z
			 M254.9,164.8c0-0.4-0.1-0.9-0.2-1.2c-0.1-0.4-0.3-0.7-0.5-0.9s-0.5-0.4-0.8-0.6c-0.3-0.1-0.7-0.2-1.1-0.2s-0.8,0.1-1.1,0.2
			c-0.3,0.1-0.6,0.3-0.8,0.6s-0.4,0.6-0.5,0.9c-0.1,0.4-0.2,0.8-0.2,1.2s0.1,0.9,0.2,1.2c0.1,0.4,0.3,0.6,0.5,0.9s0.5,0.4,0.8,0.6
			s0.7,0.2,1.1,0.2s0.8-0.1,1.1-0.2c0.3-0.1,0.6-0.3,0.8-0.6s0.4-0.6,0.5-0.9S254.9,165.2,254.9,164.8z"/>
	</g>
	<g>
		<path class="st3" d="M263.5,161.1v7.5H263c-0.1,0-0.2,0-0.2-0.1s-0.1-0.1-0.2-0.1l-4.2-5.5c0,0.1,0,0.2,0,0.3c0,0.1,0,0.2,0,0.3
			v5.1h-1v-7.5h0.6c0.1,0,0.2,0,0.2,0s0.1,0.1,0.2,0.1l4.2,5.5c0-0.1,0-0.2,0-0.3c0-0.1,0-0.2,0-0.3V161L263.5,161.1L263.5,161.1z"
			/>
	</g>
	<g>
		<path class="st3" d="M264.9,161.1h2.5v0.6h-0.9v2.5h-0.7v-2.5h-0.9L264.9,161.1L264.9,161.1z M271.5,161.1v3.1h-0.6v-1.8l0-0.4
			l-0.9,1.7c0,0.1-0.1,0.1-0.1,0.1s-0.1,0-0.1,0h-0.1c-0.1,0-0.2-0.1-0.2-0.2l-0.9-1.7l0,0.4v1.8h-0.6v-3.1h0.6c0.1,0,0.1,0,0.1,0
			c0,0,0.1,0,0.1,0.1l0.8,1.5c0,0.1,0.1,0.2,0.1,0.3c0-0.1,0-0.1,0.1-0.1c0-0.1,0-0.1,0.1-0.1l0.8-1.5c0,0,0.1-0.1,0.1-0.1
			s0.1,0,0.1,0L271.5,161.1L271.5,161.1z"/>
	</g>
	<g>
		<path class="st3" d="M282,168.5h-0.9c-0.1,0-0.2,0-0.2-0.1s-0.1-0.1-0.1-0.2l-0.7-1.7h-3.3l-0.7,1.7c0,0.1-0.1,0.1-0.1,0.2
			s-0.1,0.1-0.2,0.1H275l3-7.5h1.1L282,168.5L282,168.5z M279.8,165.8l-1.1-2.9c-0.1-0.2-0.2-0.4-0.2-0.8c0,0.1-0.1,0.3-0.1,0.4
			s-0.1,0.2-0.1,0.3l-1.1,2.9L279.8,165.8L279.8,165.8z"/>
	</g>
	<g>
		<path class="st3" d="M287.2,160.8v7.7h-0.6c-0.1,0-0.2-0.1-0.3-0.2l-0.1-0.6c-0.2,0.3-0.5,0.5-0.8,0.6c-0.3,0.2-0.6,0.2-1,0.2
			c-0.3,0-0.6-0.1-0.8-0.2s-0.5-0.3-0.6-0.5c-0.2-0.2-0.3-0.5-0.4-0.9c-0.1-0.3-0.1-0.7-0.1-1.2c0-0.4,0-0.8,0.2-1.1
			s0.3-0.6,0.5-0.9c0.2-0.2,0.4-0.4,0.7-0.6s0.6-0.2,1-0.2c0.3,0,0.6,0.1,0.8,0.2c0.2,0.1,0.4,0.2,0.6,0.4v-2.9H287.2L287.2,160.8z
			 M286.2,164.5c-0.2-0.2-0.4-0.4-0.5-0.5s-0.4-0.1-0.6-0.1c-0.5,0-0.8,0.2-1.1,0.5s-0.4,0.8-0.4,1.5c0,0.3,0,0.6,0.1,0.9
			s0.1,0.4,0.2,0.6s0.2,0.3,0.4,0.3s0.3,0.1,0.5,0.1c0.3,0,0.5-0.1,0.8-0.2c0.2-0.1,0.4-0.3,0.6-0.6L286.2,164.5L286.2,164.5z"/>
	</g>
	<g>
		<path class="st3" d="M293.2,163.2l-2.1,5.3h-0.9l-2.1-5.3h0.8c0.1,0,0.1,0,0.2,0.1s0.1,0.1,0.1,0.1l1.3,3.3c0,0.1,0.1,0.3,0.1,0.4
			c0,0.1,0.1,0.3,0.1,0.4c0-0.1,0.1-0.3,0.1-0.4s0.1-0.3,0.1-0.4l1.3-3.3c0-0.1,0.1-0.1,0.1-0.1s0.1-0.1,0.2-0.1L293.2,163.2
			L293.2,163.2z"/>
	</g>
	<g>
		<path class="st3" d="M298.1,162.3c0,0.1-0.1,0.1-0.1,0.1c0,0-0.1,0-0.1,0s-0.1,0-0.2-0.1s-0.2-0.1-0.3-0.2s-0.3-0.1-0.4-0.2
			c-0.2-0.1-0.4-0.1-0.6-0.1c-0.2,0-0.4,0-0.6,0.1c-0.2,0.1-0.3,0.1-0.4,0.2c-0.1,0.1-0.2,0.2-0.2,0.4c-0.1,0.1-0.1,0.3-0.1,0.4
			c0,0.2,0,0.4,0.1,0.5s0.2,0.2,0.4,0.3s0.4,0.2,0.6,0.2c0.2,0.1,0.4,0.1,0.6,0.2s0.4,0.2,0.6,0.3s0.4,0.2,0.6,0.4s0.3,0.3,0.4,0.5
			c0.1,0.2,0.1,0.5,0.1,0.8c0,0.3-0.1,0.6-0.2,0.9c-0.1,0.3-0.3,0.5-0.5,0.8s-0.5,0.4-0.8,0.5c-0.3,0.1-0.7,0.2-1.1,0.2
			c-0.2,0-0.5,0-0.7-0.1s-0.4-0.1-0.6-0.2c-0.2-0.1-0.4-0.2-0.6-0.3s-0.3-0.2-0.5-0.4l0.3-0.5c0,0,0.1-0.1,0.1-0.1c0,0,0.1,0,0.1,0
			c0.1,0,0.2,0,0.2,0.1c0.1,0.1,0.2,0.2,0.4,0.2c0.1,0.1,0.3,0.2,0.5,0.2c0.2,0.1,0.4,0.1,0.7,0.1c0.2,0,0.4,0,0.6-0.1
			c0.2-0.1,0.3-0.1,0.5-0.3c0.1-0.1,0.2-0.2,0.3-0.4s0.1-0.3,0.1-0.5c0-0.2,0-0.4-0.1-0.5s-0.2-0.3-0.4-0.4s-0.4-0.2-0.6-0.2
			c-0.2-0.1-0.4-0.1-0.6-0.2s-0.4-0.1-0.6-0.2s-0.4-0.2-0.6-0.4s-0.3-0.3-0.4-0.6c-0.1-0.2-0.1-0.5-0.1-0.8c0-0.3,0-0.5,0.2-0.8
			c0.1-0.2,0.3-0.5,0.5-0.7c0.2-0.2,0.5-0.4,0.7-0.5c0.3-0.1,0.6-0.2,1-0.2c0.4,0,0.8,0.1,1.2,0.2s0.7,0.3,0.9,0.6L298.1,162.3
			L298.1,162.3z"/>
	</g>
	<g>
		<path class="st3" d="M301.1,168.5h-1.1V161h1.1V168.5z"/>
	</g>
	<g>
		<path class="st3" d="M310.8,161.1v7.5h-1v-5.3c0-0.1,0-0.2,0-0.3s0-0.2,0-0.3l-2.5,4.6c-0.1,0.2-0.2,0.3-0.4,0.3h-0.2
			c-0.2,0-0.3-0.1-0.4-0.3l-2.5-4.6c0,0.2,0,0.4,0,0.6v5.3h-1v-7.5h0.8c0.1,0,0.2,0,0.2,0c0,0,0.1,0.1,0.1,0.2l2.5,4.5
			c0,0.1,0.1,0.2,0.1,0.3c0,0.1,0.1,0.2,0.1,0.3c0.1-0.2,0.2-0.4,0.3-0.6l2.5-4.5c0-0.1,0.1-0.1,0.1-0.2c0,0,0.1,0,0.2,0
			L310.8,161.1L310.8,161.1z"/>
	</g>
	<g>
		<path class="st3" d="M319.2,164.8c0,0.6-0.1,1.1-0.3,1.5c-0.2,0.5-0.4,0.9-0.8,1.2c-0.3,0.3-0.7,0.6-1.2,0.8s-1,0.3-1.5,0.3h-2.8
			V161h2.8c0.6,0,1.1,0.1,1.5,0.3c0.5,0.2,0.9,0.4,1.2,0.8c0.3,0.3,0.6,0.7,0.8,1.2C319.1,163.7,319.2,164.2,319.2,164.8
			L319.2,164.8z M318,164.8c0-0.4-0.1-0.8-0.2-1.2c-0.1-0.4-0.3-0.6-0.5-0.9c-0.2-0.2-0.5-0.4-0.8-0.6s-0.7-0.2-1.1-0.2h-1.7v5.7
			h1.7c0.4,0,0.8-0.1,1.1-0.2s0.6-0.3,0.8-0.6s0.4-0.5,0.5-0.9C318,165.7,318,165.3,318,164.8L318,164.8z"/>
	</g>
</g>
<g>
	<g>
		<path class="st3" d="M246.9,211.6v2.5h3v0.9h-3v3.2h-1.1v-7.5h4.6v0.9L246.9,211.6L246.9,211.6z"/>
	</g>
	<g>
		<path class="st3" d="M252.6,210.5v7.7h-1v-7.7H252.6z"/>
	</g>
	<g>
		<path class="st3" d="M256.3,212.8c0.4,0,0.7,0.1,1.1,0.2s0.6,0.3,0.8,0.6s0.4,0.5,0.5,0.9c0.1,0.3,0.2,0.7,0.2,1.1
			s-0.1,0.8-0.2,1.1c-0.1,0.3-0.3,0.6-0.5,0.9s-0.5,0.4-0.8,0.6s-0.7,0.2-1.1,0.2s-0.8-0.1-1.1-0.2c-0.3-0.1-0.6-0.3-0.8-0.6
			c-0.2-0.2-0.4-0.5-0.5-0.9s-0.2-0.7-0.2-1.1s0.1-0.8,0.2-1.1c0.1-0.3,0.3-0.6,0.5-0.9s0.5-0.4,0.8-0.6
			C255.5,212.9,255.9,212.8,256.3,212.8z M256.3,217.5c0.5,0,0.9-0.2,1.1-0.5s0.4-0.8,0.4-1.4s-0.1-1.1-0.4-1.4s-0.6-0.5-1.1-0.5
			s-0.9,0.2-1.1,0.5s-0.4,0.8-0.4,1.4s0.1,1.1,0.4,1.4S255.8,217.5,256.3,217.5z"/>
	</g>
	<g>
		<path class="st3" d="M259.8,213.6c0.3-0.3,0.6-0.5,1-0.6c0.4-0.1,0.7-0.2,1.1-0.2c0.3,0,0.6,0.1,0.8,0.1c0.2,0.1,0.4,0.2,0.6,0.4
			s0.3,0.4,0.4,0.6s0.1,0.5,0.1,0.8v3.4h-0.5c-0.1,0-0.2,0-0.2-0.1c0,0-0.1-0.1-0.1-0.2l-0.1-0.5c-0.1,0.1-0.3,0.2-0.4,0.3
			c-0.1,0.1-0.3,0.2-0.4,0.2c-0.1,0.1-0.3,0.1-0.5,0.1c-0.2,0-0.3,0.1-0.5,0.1c-0.2,0-0.4,0-0.6-0.1c-0.2-0.1-0.3-0.1-0.5-0.3
			s-0.2-0.3-0.3-0.4s-0.1-0.4-0.1-0.6c0-0.2,0.1-0.4,0.2-0.6c0.1-0.2,0.3-0.4,0.5-0.5c0.3-0.1,0.6-0.3,1-0.4s0.9-0.1,1.5-0.2v-0.4
			c0-0.4-0.1-0.7-0.3-0.9s-0.4-0.3-0.8-0.3c-0.2,0-0.4,0-0.6,0.1c-0.1,0.1-0.3,0.1-0.4,0.2c-0.1,0.1-0.2,0.1-0.3,0.2
			c-0.1,0.1-0.2,0.1-0.2,0.1c-0.1,0-0.1,0-0.2-0.1s-0.1-0.1-0.1-0.1L259.8,213.6L259.8,213.6z M262.8,215.9c-0.4,0-0.8,0.1-1,0.1
			s-0.5,0.1-0.7,0.2c-0.2,0.1-0.3,0.2-0.4,0.3s-0.1,0.2-0.1,0.4s0,0.2,0.1,0.3c0,0.1,0.1,0.2,0.2,0.2c0.1,0.1,0.2,0.1,0.3,0.1
			c0.1,0,0.2,0,0.3,0c0.2,0,0.3,0,0.4-0.1s0.2-0.1,0.4-0.1c0.1-0.1,0.2-0.1,0.3-0.2c0.1-0.1,0.2-0.2,0.3-0.3L262.8,215.9
			L262.8,215.9z"/>
	</g>
	<g>
		<path class="st3" d="M270.2,218.2h-1v-4.5h-2.7v3.1c0,0.2,0,0.4,0.1,0.5s0.2,0.1,0.4,0.1c0.1,0,0.2,0,0.2,0c0.1,0,0.1-0.1,0.2-0.1
			s0.1-0.1,0.1-0.1c0,0,0.1,0,0.1,0c0,0,0.1,0,0.1,0s0,0,0.1,0.1l0.3,0.5c-0.2,0.1-0.4,0.3-0.6,0.4s-0.5,0.1-0.7,0.1
			c-0.4,0-0.8-0.1-1-0.4s-0.4-0.6-0.4-1v-3.2h-0.6c-0.1,0-0.1,0-0.1-0.1s-0.1-0.1-0.1-0.2v-0.4l0.9-0.1l0.2-1.6c0-0.1,0-0.1,0.1-0.1
			c0,0,0.1-0.1,0.1-0.1h0.5v1.8h3.7L270.2,218.2L270.2,218.2z M270.4,211.2c0,0.1,0,0.2-0.1,0.3c0,0.1-0.1,0.2-0.1,0.2
			s-0.1,0.1-0.2,0.1s-0.2,0.1-0.3,0.1s-0.2,0-0.3-0.1c-0.1,0-0.2-0.1-0.2-0.1s-0.1-0.1-0.1-0.2c0-0.1,0-0.2,0-0.3s0-0.2,0-0.3
			s0.1-0.2,0.1-0.2s0.1-0.1,0.2-0.1c0.1,0,0.2-0.1,0.3-0.1s0.2,0,0.3,0.1s0.2,0.1,0.2,0.1s0.1,0.1,0.1,0.2S270.4,211.1,270.4,211.2z
			"/>
	</g>
	<g>
		<path class="st3" d="M272.6,213.6c0.1-0.1,0.2-0.2,0.4-0.3s0.3-0.2,0.4-0.3c0.1-0.1,0.3-0.1,0.5-0.2c0.2,0,0.3-0.1,0.5-0.1
			c0.3,0,0.5,0.1,0.8,0.1c0.2,0.1,0.4,0.2,0.6,0.4s0.3,0.4,0.3,0.6c0.1,0.2,0.1,0.5,0.1,0.8v3.4h-1v-3.4c0-0.4-0.1-0.7-0.3-0.9
			s-0.4-0.3-0.8-0.3c-0.3,0-0.5,0.1-0.7,0.2c-0.2,0.1-0.4,0.3-0.6,0.5v3.9h-1v-5.3h0.6c0.1,0,0.2,0.1,0.3,0.2L272.6,213.6
			L272.6,213.6z"/>
	</g>
	<g>
		<path class="st3" d="M282,213.1v0.4c0,0.1-0.1,0.2-0.2,0.2l-0.6,0.1c0,0.1,0.1,0.2,0.1,0.3s0,0.2,0,0.4c0,0.3,0,0.5-0.1,0.7
			s-0.2,0.4-0.4,0.5c-0.2,0.1-0.4,0.3-0.6,0.3c-0.2,0.1-0.5,0.1-0.8,0.1c-0.2,0-0.5,0-0.7-0.1c-0.1,0.1-0.2,0.1-0.2,0.2
			c0,0.1-0.1,0.1-0.1,0.2c0,0.1,0,0.2,0.1,0.3s0.2,0.1,0.4,0.1c0.2,0,0.4,0,0.6,0.1c0.2,0,0.4,0,0.6,0c0.2,0,0.4,0,0.6,0.1
			s0.4,0.1,0.6,0.2s0.3,0.2,0.4,0.4c0.1,0.1,0.1,0.4,0.1,0.6c0,0.2-0.1,0.4-0.2,0.7s-0.3,0.4-0.5,0.6s-0.5,0.3-0.8,0.4
			c-0.3,0.1-0.7,0.1-1,0.1s-0.7,0-1-0.1s-0.5-0.2-0.7-0.3s-0.3-0.3-0.4-0.4s-0.1-0.4-0.1-0.5c0-0.3,0.1-0.5,0.2-0.7
			c0.2-0.2,0.4-0.3,0.7-0.4c-0.1-0.1-0.3-0.2-0.4-0.3s-0.1-0.3-0.1-0.5c0-0.1,0-0.2,0-0.2s0.1-0.2,0.1-0.2c0.1-0.1,0.1-0.2,0.2-0.2
			c0.1-0.1,0.2-0.1,0.3-0.2c-0.3-0.1-0.5-0.3-0.6-0.6s-0.2-0.5-0.2-0.9c0-0.3,0-0.5,0.1-0.7s0.2-0.4,0.4-0.5s0.4-0.3,0.6-0.3
			s0.5-0.1,0.8-0.1c0.5,0,0.9,0.1,1.2,0.3L282,213.1L282,213.1z M281,218.5c0-0.1,0-0.2-0.1-0.3s-0.2-0.1-0.3-0.2
			c-0.1,0-0.3-0.1-0.4-0.1s-0.3,0-0.5,0c-0.2,0-0.4,0-0.5,0s-0.4,0-0.5-0.1c-0.2,0.1-0.3,0.2-0.5,0.3c-0.1,0.1-0.2,0.3-0.2,0.4
			c0,0.1,0,0.2,0.1,0.3c0.1,0.1,0.1,0.2,0.3,0.2s0.3,0.1,0.5,0.2c0.2,0,0.4,0.1,0.6,0.1s0.5,0,0.7-0.1c0.2,0,0.4-0.1,0.5-0.2
			c0.1-0.1,0.2-0.2,0.3-0.3C281,218.7,281,218.6,281,218.5L281,218.5z M279.4,215.6c0.2,0,0.3,0,0.5-0.1s0.2-0.1,0.3-0.2
			s0.2-0.2,0.2-0.3s0.1-0.3,0.1-0.4c0-0.3-0.1-0.6-0.3-0.7s-0.5-0.3-0.8-0.3s-0.6,0.1-0.8,0.3c-0.2,0.2-0.3,0.4-0.3,0.7
			c0,0.1,0,0.3,0.1,0.4c0,0.1,0.1,0.2,0.2,0.3c0.1,0.1,0.2,0.2,0.3,0.2C279,215.5,279.2,215.6,279.4,215.6L279.4,215.6z"/>
	</g>
	<g>
		<path class="st3" d="M286.5,213.7c0.1-0.1,0.2-0.2,0.4-0.4s0.3-0.2,0.4-0.3s0.3-0.1,0.5-0.2s0.3-0.1,0.5-0.1
			c0.3,0,0.6,0.1,0.8,0.2c0.2,0.1,0.5,0.3,0.6,0.5c0.2,0.2,0.3,0.5,0.4,0.9s0.1,0.7,0.1,1.2c0,0.4,0,0.8-0.2,1.1
			c-0.1,0.3-0.3,0.6-0.5,0.9c-0.2,0.2-0.4,0.4-0.7,0.6s-0.6,0.2-1,0.2c-0.3,0-0.6-0.1-0.8-0.2c-0.2-0.1-0.4-0.2-0.6-0.4v2.3h-1v-7.1
			h0.6c0.1,0,0.2,0.1,0.3,0.2L286.5,213.7L286.5,213.7z M286.6,216.9c0.2,0.2,0.4,0.4,0.5,0.5c0.2,0.1,0.4,0.1,0.6,0.1
			c0.5,0,0.8-0.2,1.1-0.5s0.4-0.8,0.4-1.5c0-0.3,0-0.6-0.1-0.9s-0.1-0.4-0.2-0.6s-0.2-0.3-0.4-0.3s-0.3-0.1-0.5-0.1
			c-0.3,0-0.5,0.1-0.8,0.2c-0.2,0.1-0.4,0.3-0.6,0.6V216.9L286.6,216.9z"/>
	</g>
	<g>
		<path class="st3" d="M293.7,212.8c0.4,0,0.7,0.1,1.1,0.2c0.3,0.1,0.6,0.3,0.8,0.6s0.4,0.5,0.5,0.9s0.2,0.7,0.2,1.1
			s-0.1,0.8-0.2,1.1c-0.1,0.3-0.3,0.6-0.5,0.9s-0.5,0.4-0.8,0.6c-0.3,0.1-0.7,0.2-1.1,0.2s-0.8-0.1-1.1-0.2s-0.6-0.3-0.8-0.6
			c-0.2-0.2-0.4-0.5-0.5-0.9s-0.2-0.7-0.2-1.1s0.1-0.8,0.2-1.1s0.3-0.6,0.5-0.9s0.5-0.4,0.8-0.6S293.3,212.8,293.7,212.8z
			 M293.7,217.5c0.5,0,0.9-0.2,1.1-0.5s0.4-0.8,0.4-1.4s-0.1-1.1-0.4-1.4s-0.6-0.5-1.1-0.5s-0.9,0.2-1.1,0.5
			c-0.2,0.3-0.4,0.8-0.4,1.4s0.1,1.1,0.4,1.4S293.2,217.5,293.7,217.5z"/>
	</g>
	<g>
		<path class="st3" d="M298.7,211.3c0,0.1,0,0.2-0.1,0.3c0,0.1-0.1,0.2-0.1,0.2s-0.1,0.1-0.2,0.1s-0.2,0.1-0.3,0.1s-0.2,0-0.3-0.1
			c-0.1,0-0.2-0.1-0.2-0.1s-0.1-0.1-0.1-0.2s-0.1-0.2-0.1-0.3s0-0.2,0.1-0.3s0.1-0.2,0.1-0.2s0.1-0.1,0.2-0.1s0.2-0.1,0.3-0.1
			s0.2,0,0.3,0.1c0.1,0,0.2,0.1,0.2,0.1s0.1,0.1,0.1,0.2C298.6,211.1,298.7,211.2,298.7,211.3z M298.5,212.9v5.3h-1v-5.3H298.5z"/>
	</g>
	<g>
		<path class="st3" d="M300.9,213.6c0.1-0.1,0.2-0.2,0.4-0.3c0.1-0.1,0.3-0.2,0.4-0.3s0.3-0.1,0.5-0.2s0.3-0.1,0.5-0.1
			c0.3,0,0.5,0.1,0.8,0.1c0.2,0.1,0.4,0.2,0.6,0.4c0.1,0.2,0.3,0.4,0.3,0.6s0.1,0.5,0.1,0.8v3.4h-1v-3.4c0-0.4-0.1-0.7-0.3-0.9
			s-0.4-0.3-0.8-0.3c-0.3,0-0.5,0.1-0.7,0.2c-0.2,0.1-0.4,0.3-0.6,0.5v3.9h-1v-5.3h0.6c0.1,0,0.2,0.1,0.3,0.2L300.9,213.6
			L300.9,213.6z"/>
	</g>
	<g>
		<path class="st3" d="M307.4,218.3c-0.4,0-0.8-0.1-1-0.4s-0.4-0.6-0.4-1v-3.2h-0.6c-0.1,0-0.1,0-0.1-0.1s-0.1-0.1-0.1-0.2v-0.4
			l0.9-0.1l0.2-1.6c0-0.1,0-0.1,0.1-0.1c0,0,0.1-0.1,0.1-0.1h0.5v1.8h1.5v0.7h-1.5v3.1c0,0.2,0,0.4,0.1,0.5c0.1,0.1,0.2,0.1,0.4,0.1
			c0.1,0,0.2,0,0.2,0s0.1-0.1,0.2-0.1s0.1-0.1,0.1-0.1s0.1,0,0.1,0c0,0,0.1,0,0.1,0s0,0,0.1,0.1l0.3,0.5c-0.2,0.1-0.4,0.3-0.6,0.4
			C307.9,218.2,307.6,218.3,307.4,218.3L307.4,218.3z"/>
	</g>
</g>
<g>
	<g>
		<path class="st3" d="M40.2,272.4c0-0.4,0.2-0.6,0.3-0.9s0.3-0.5,0.5-0.7c0.2-0.2,0.5-0.3,0.7-0.4c0.3-0.1,0.6-0.1,0.9-0.1
			s0.6,0,0.9,0.1s0.5,0.2,0.7,0.4s0.3,0.4,0.5,0.6s0.2,0.5,0.2,0.8c0,0.2,0,0.5-0.1,0.6s-0.1,0.4-0.2,0.5c-0.1,0.1-0.2,0.3-0.4,0.4
			c-0.2,0.1-0.3,0.2-0.5,0.2c0.5,0.1,0.8,0.4,1.1,0.6s0.4,0.7,0.4,1.1c0,0.4-0.1,0.7-0.2,1s-0.3,0.5-0.5,0.7s-0.5,0.3-0.8,0.4
			s-0.6,0.1-1,0.1c-0.4,0-0.7,0-1-0.1c-0.3-0.1-0.5-0.2-0.7-0.4s-0.4-0.4-0.5-0.6s-0.2-0.5-0.3-0.8l0.4-0.2c0.1,0,0.2-0.1,0.3,0
			c0.1,0,0.2,0.1,0.2,0.2c0,0.1,0.1,0.2,0.2,0.4s0.2,0.2,0.3,0.4c0.1,0.1,0.3,0.2,0.4,0.3c0.2,0.1,0.4,0.1,0.7,0.1s0.5,0,0.7-0.1
			s0.3-0.2,0.5-0.3s0.2-0.3,0.3-0.4s0.1-0.3,0.1-0.5c0-0.2,0-0.4-0.1-0.5c0-0.2-0.1-0.3-0.3-0.4c-0.1-0.1-0.3-0.2-0.6-0.3
			s-0.6-0.1-1-0.1v-0.7c0.3,0,0.6,0,0.8-0.1s0.4-0.1,0.5-0.3c0.1-0.1,0.2-0.2,0.3-0.4c0.1-0.1,0.1-0.3,0.1-0.5c0-0.2,0-0.4-0.1-0.5
			s-0.2-0.3-0.3-0.4c-0.1-0.1-0.2-0.2-0.4-0.2c-0.2,0-0.3-0.1-0.5-0.1s-0.3,0-0.5,0.1s-0.3,0.1-0.4,0.2s-0.2,0.2-0.3,0.3
			s-0.1,0.3-0.2,0.4c0,0.1-0.1,0.2-0.2,0.3c-0.1,0-0.2,0.1-0.3,0L40.2,272.4L40.2,272.4z"/>
	</g>
	<g>
		<path class="st3" d="M50.7,276.9c0.1,0,0.2,0,0.3,0.1c0.1,0.1,0.1,0.1,0.1,0.2v0.6h-5v-0.4c0-0.1,0-0.1,0-0.2
			c0-0.1,0.1-0.1,0.1-0.2l2.4-2.4c0.2-0.2,0.4-0.4,0.5-0.6s0.3-0.4,0.4-0.5s0.2-0.4,0.3-0.6s0.1-0.4,0.1-0.6s0-0.4-0.1-0.5
			c-0.1-0.2-0.2-0.3-0.3-0.4s-0.2-0.2-0.4-0.2c-0.2,0-0.3-0.1-0.5-0.1s-0.3,0-0.5,0.1s-0.3,0.1-0.4,0.2c-0.1,0.1-0.2,0.2-0.3,0.3
			s-0.1,0.3-0.2,0.4c0,0.1-0.1,0.2-0.2,0.3s-0.2,0.1-0.3,0l-0.5-0.1c0-0.4,0.1-0.6,0.3-0.9c0.1-0.3,0.3-0.5,0.5-0.7
			c0.2-0.2,0.5-0.3,0.7-0.4c0.3-0.1,0.6-0.1,0.9-0.1s0.6,0,0.9,0.1s0.5,0.2,0.7,0.4c0.2,0.2,0.4,0.4,0.5,0.7
			c0.1,0.3,0.2,0.5,0.2,0.9c0,0.3,0,0.5-0.1,0.8s-0.2,0.5-0.3,0.7c-0.1,0.2-0.3,0.4-0.5,0.6c-0.2,0.2-0.4,0.4-0.6,0.6l-1.9,1.9
			c0.2,0,0.3-0.1,0.4-0.1c0.2,0,0.3,0,0.4,0H50.7L50.7,276.9z"/>
	</g>
	<g>
		<path class="st3" d="M53.7,273.6H54c0.1,0,0.2,0,0.3,0c0.1,0,0.2-0.1,0.2-0.2l2.4-2.8c0.1-0.1,0.2-0.2,0.2-0.2s0.2,0,0.3,0h1
			l-2.8,3.2c-0.1,0.1-0.1,0.2-0.2,0.2s-0.1,0.1-0.2,0.1c0.2,0.1,0.4,0.2,0.5,0.4l2.9,3.5h-1c-0.1,0-0.1,0-0.2,0s-0.1,0-0.1,0
			c0,0-0.1,0-0.1-0.1s-0.1-0.1-0.1-0.1l-2.5-2.9c0,0-0.1-0.1-0.1-0.1s-0.1-0.1-0.1-0.1s-0.1,0-0.2,0c-0.1,0-0.1,0-0.2,0h-0.5v3.4
			h-1.1v-7.5h1.1L53.7,273.6L53.7,273.6z"/>
	</g>
	<g>
		<path class="st3" d="M62,270.3c0.5,0,0.9,0,1.2,0.1s0.6,0.2,0.8,0.4s0.4,0.4,0.5,0.6c0.1,0.2,0.2,0.5,0.2,0.8c0,0.2,0,0.4-0.1,0.5
			s-0.1,0.3-0.3,0.5s-0.3,0.3-0.4,0.4c-0.2,0.1-0.4,0.2-0.6,0.3c1.1,0.2,1.6,0.8,1.6,1.7c0,0.3-0.1,0.6-0.2,0.9s-0.3,0.5-0.5,0.7
			s-0.5,0.3-0.8,0.4s-0.7,0.2-1.1,0.2h-2.7v-7.5L62,270.3L62,270.3z M60.6,271.2v2.5h1.3c0.5,0,1-0.1,1.2-0.3s0.4-0.5,0.4-0.9
			c0-0.4-0.1-0.7-0.4-0.9c-0.2-0.2-0.7-0.3-1.2-0.3L60.6,271.2L60.6,271.2z M62.2,276.9c0.3,0,0.5,0,0.7-0.1s0.4-0.2,0.5-0.3
			c0.1-0.1,0.2-0.2,0.3-0.4c0.1-0.2,0.1-0.3,0.1-0.5c0-0.4-0.1-0.7-0.4-0.9s-0.7-0.3-1.2-0.3h-1.6v2.5H62.2L62.2,276.9z"/>
	</g>
	<g>
		<path class="st3" d="M66.7,277.9c-0.1,0.1-0.1,0.2-0.2,0.3c-0.1,0.1-0.2,0.1-0.3,0.1h-0.4l3.1-7.8c0.1-0.1,0.1-0.2,0.2-0.3
			s0.2-0.1,0.3-0.1h0.4L66.7,277.9L66.7,277.9z"/>
	</g>
	<g>
		<path class="st3" d="M72.7,273.1c-0.1,0.1-0.1,0.1-0.2,0.2s-0.1,0.1-0.2,0.2c0.2-0.1,0.3-0.2,0.6-0.2c0.2-0.1,0.4-0.1,0.7-0.1
			c0.3,0,0.6,0,0.8,0.1s0.5,0.2,0.7,0.4c0.2,0.2,0.4,0.4,0.5,0.7s0.2,0.6,0.2,1s-0.1,0.7-0.2,1c-0.1,0.3-0.3,0.6-0.5,0.8
			s-0.5,0.4-0.8,0.5s-0.7,0.2-1.1,0.2s-0.7-0.1-1-0.2s-0.6-0.3-0.8-0.5c-0.2-0.2-0.4-0.5-0.5-0.8c-0.1-0.3-0.2-0.7-0.2-1.1
			c0-0.3,0.1-0.7,0.2-1.1c0.1-0.4,0.4-0.8,0.7-1.2l1.9-2.5c0.1-0.1,0.1-0.1,0.2-0.2s0.2-0.1,0.3-0.1h0.9L72.7,273.1L72.7,273.1z
			 M73.2,277c0.2,0,0.5,0,0.7-0.1c0.2-0.1,0.4-0.2,0.5-0.3c0.1-0.1,0.2-0.3,0.3-0.5c0.1-0.2,0.1-0.4,0.1-0.6c0-0.2,0-0.5-0.1-0.6
			c-0.1-0.2-0.2-0.4-0.3-0.5s-0.3-0.2-0.5-0.3c-0.2-0.1-0.4-0.1-0.6-0.1s-0.5,0-0.7,0.1s-0.3,0.2-0.5,0.3c-0.1,0.1-0.2,0.3-0.3,0.5
			s-0.1,0.4-0.1,0.6c0,0.2,0,0.4,0.1,0.6s0.2,0.4,0.3,0.5c0.1,0.1,0.3,0.2,0.5,0.3C72.7,277,72.9,277,73.2,277L73.2,277z"/>
	</g>
	<g>
		<path class="st3" d="M82,275.1v0.6c0,0.1,0,0.1-0.1,0.1s-0.1,0.1-0.2,0.1h-0.9v1.9H80v-1.9h-3.3c-0.1,0-0.1,0-0.2-0.1
			c-0.1,0-0.1-0.1-0.1-0.2l-0.1-0.5l3.6-4.8h1v4.8L82,275.1L82,275.1z M80,275.1v-2.9c0-0.1,0-0.2,0-0.3s0-0.2,0-0.4l-2.6,3.6
			L80,275.1L80,275.1z"/>
	</g>
	<g>
		<path class="st3" d="M84.3,273.6h0.4c0.1,0,0.2,0,0.3,0s0.2-0.1,0.2-0.2l2.4-2.8c0.1-0.1,0.2-0.2,0.2-0.2s0.2,0,0.3,0h0.9
			l-2.8,3.2c-0.1,0.1-0.1,0.2-0.2,0.2s-0.1,0.1-0.2,0.1c0.2,0.1,0.4,0.2,0.5,0.4l2.9,3.5h-1c-0.1,0-0.1,0-0.2,0s-0.1,0-0.1,0
			c0,0-0.1,0-0.1-0.1s-0.1-0.1-0.1-0.1l-2.5-2.9c0,0-0.1-0.1-0.1-0.1c0,0-0.1-0.1-0.1-0.1c-0.1,0-0.1,0-0.2,0c-0.1,0-0.1,0-0.2,0
			h-0.4v3.4h-1.1v-7.5h1.1L84.3,273.6L84.3,273.6z"/>
	</g>
	<g>
		<path class="st3" d="M92.6,270.3c0.5,0,0.9,0,1.2,0.1s0.6,0.2,0.8,0.4s0.4,0.4,0.5,0.6c0.1,0.2,0.2,0.5,0.2,0.8
			c0,0.2,0,0.4-0.1,0.5s-0.1,0.3-0.2,0.5c-0.1,0.1-0.3,0.3-0.4,0.4c-0.2,0.1-0.4,0.2-0.6,0.3c1.1,0.2,1.6,0.8,1.6,1.7
			c0,0.3-0.1,0.6-0.2,0.9c-0.1,0.3-0.3,0.5-0.5,0.7c-0.2,0.2-0.5,0.3-0.8,0.4s-0.7,0.2-1.1,0.2h-2.7v-7.5L92.6,270.3L92.6,270.3z
			 M91.3,271.2v2.5h1.3c0.6,0,0.9-0.1,1.2-0.3c0.3-0.2,0.4-0.5,0.4-0.9c0-0.4-0.1-0.7-0.4-0.9c-0.2-0.2-0.7-0.3-1.2-0.3L91.3,271.2
			L91.3,271.2z M92.8,276.9c0.3,0,0.5,0,0.7-0.1s0.4-0.2,0.5-0.3c0.1-0.1,0.2-0.2,0.3-0.4s0.1-0.3,0.1-0.5c0-0.4-0.1-0.7-0.4-0.9
			s-0.7-0.3-1.2-0.3h-1.6v2.5H92.8L92.8,276.9z"/>
	</g>
	<g>
		<path class="st3" d="M103.9,276.9v0.9h-4.3v-7.5h1.1v6.6L103.9,276.9L103.9,276.9z"/>
	</g>
	<g>
		<path class="st3" d="M109.4,277v0.8h-4.1V277h1.6v-4.9c0-0.2,0-0.3,0-0.5l-1.3,1.1c0,0-0.1,0.1-0.2,0.1c-0.1,0-0.1,0-0.1,0
			c0,0-0.1,0-0.1,0c0,0-0.1,0-0.1-0.1l-0.3-0.4l2.2-1.9h0.8v6.7L109.4,277L109.4,277z"/>
	</g>
	<g>
		<path class="st3" d="M114.8,277.8h-1.1v-7.5h1.1V277.8z"/>
	</g>
	<g>
		<path class="st3" d="M116.3,274.2h2.6v0.9h-2.6V274.2z"/>
	</g>
	<g>
		<path class="st3" d="M124,273.5C124,273.5,123.9,273.6,124,273.5c-0.1,0.1-0.2,0.1-0.2,0.1s-0.1,0-0.2-0.1c-0.1,0-0.1-0.1-0.2-0.1
			c-0.1,0-0.2-0.1-0.3-0.1c-0.1,0-0.3-0.1-0.5-0.1c-0.2,0-0.5,0-0.7,0.1c-0.2,0.1-0.3,0.2-0.5,0.4s-0.2,0.4-0.3,0.6
			s-0.1,0.5-0.1,0.8s0,0.6,0.1,0.8c0.1,0.2,0.2,0.5,0.3,0.6s0.3,0.3,0.5,0.4c0.2,0.1,0.4,0.1,0.6,0.1s0.4,0,0.5-0.1s0.3-0.1,0.3-0.2
			c0.1-0.1,0.2-0.1,0.2-0.2c0.1,0,0.1-0.1,0.2-0.1c0.1,0,0.2,0,0.2,0.1l0.3,0.4c-0.1,0.1-0.3,0.3-0.4,0.4s-0.3,0.2-0.5,0.3
			c-0.2,0.1-0.3,0.1-0.5,0.1s-0.4,0-0.6,0c-0.3,0-0.6-0.1-0.9-0.2s-0.5-0.3-0.8-0.5s-0.4-0.5-0.5-0.9s-0.2-0.7-0.2-1.2
			c0-0.4,0.1-0.8,0.2-1.1s0.3-0.6,0.5-0.9c0.2-0.2,0.5-0.4,0.8-0.6s0.7-0.2,1.1-0.2c0.4,0,0.7,0.1,1,0.2s0.6,0.3,0.8,0.5L124,273.5
			L124,273.5z"/>
	</g>
	<g>
		<path class="st3" d="M125.1,273.2c0.3-0.3,0.6-0.5,1-0.6c0.3-0.1,0.7-0.2,1.1-0.2c0.3,0,0.6,0,0.8,0.1s0.4,0.2,0.6,0.4
			c0.2,0.2,0.3,0.4,0.4,0.6s0.1,0.5,0.1,0.8v3.4h-0.4c-0.1,0-0.2,0-0.2,0s-0.1-0.1-0.1-0.2l-0.1-0.5c-0.1,0.1-0.3,0.2-0.4,0.3
			c-0.1,0.1-0.3,0.2-0.4,0.2c-0.1,0.1-0.3,0.1-0.5,0.1c-0.2,0-0.3,0-0.5,0s-0.4,0-0.6-0.1c-0.2-0.1-0.3-0.1-0.5-0.3
			c-0.1-0.1-0.2-0.3-0.3-0.4c-0.1-0.2-0.1-0.4-0.1-0.6c0-0.2,0.1-0.4,0.2-0.6s0.3-0.4,0.6-0.5c0.3-0.1,0.6-0.3,1-0.4
			s0.9-0.1,1.5-0.2v-0.4c0-0.4-0.1-0.7-0.3-0.9s-0.4-0.3-0.8-0.3c-0.2,0-0.4,0-0.6,0.1c-0.2,0.1-0.3,0.1-0.4,0.2
			c-0.1,0.1-0.2,0.1-0.3,0.2s-0.2,0.1-0.2,0.1c-0.1,0-0.1,0-0.2-0.1s-0.1-0.1-0.1-0.1L125.1,273.2L125.1,273.2z M128.1,275.5
			c-0.4,0-0.8,0-1.1,0.1s-0.5,0.1-0.7,0.2c-0.2,0.1-0.3,0.2-0.4,0.3s-0.1,0.2-0.1,0.4s0,0.2,0.1,0.3c0,0.1,0.1,0.2,0.2,0.2
			s0.2,0.1,0.3,0.1c0.1,0,0.2,0,0.3,0c0.2,0,0.3,0,0.4,0s0.2-0.1,0.4-0.1s0.2-0.1,0.3-0.2s0.2-0.2,0.3-0.3L128.1,275.5L128.1,275.5z
			"/>
	</g>
	<g>
		<path class="st3" d="M134.2,273.5C134.2,273.5,134.1,273.6,134.2,273.5c-0.1,0.1-0.2,0.1-0.2,0.1s-0.1,0-0.2-0.1
			c-0.1,0-0.1-0.1-0.2-0.1c-0.1,0-0.2-0.1-0.3-0.1s-0.3-0.1-0.5-0.1c-0.2,0-0.5,0-0.7,0.1c-0.2,0.1-0.4,0.2-0.5,0.4
			s-0.2,0.4-0.3,0.6c-0.1,0.2-0.1,0.5-0.1,0.8s0,0.6,0.1,0.8c0.1,0.2,0.2,0.5,0.3,0.6c0.1,0.2,0.3,0.3,0.5,0.4
			c0.2,0.1,0.4,0.1,0.6,0.1s0.4,0,0.5-0.1s0.3-0.1,0.4-0.2c0.1-0.1,0.2-0.1,0.2-0.2c0.1,0,0.1-0.1,0.2-0.1c0.1,0,0.1,0,0.2,0.1
			l0.3,0.4c-0.1,0.1-0.3,0.3-0.4,0.4c-0.1,0.1-0.3,0.2-0.5,0.3s-0.4,0.1-0.5,0.1s-0.4,0-0.6,0c-0.3,0-0.6-0.1-0.9-0.2
			s-0.5-0.3-0.8-0.5s-0.4-0.5-0.5-0.9s-0.2-0.7-0.2-1.2c0-0.4,0.1-0.8,0.2-1.1s0.3-0.6,0.5-0.9c0.2-0.2,0.5-0.4,0.8-0.6
			s0.7-0.2,1.1-0.2c0.4,0,0.7,0.1,1,0.2s0.6,0.3,0.8,0.5L134.2,273.5L134.2,273.5z"/>
	</g>
	<g>
		<path class="st3" d="M136.5,273.2c0.2-0.2,0.5-0.4,0.7-0.5c0.3-0.1,0.6-0.2,0.9-0.2c0.3,0,0.6,0,0.8,0.1s0.4,0.2,0.6,0.4
			s0.3,0.4,0.3,0.6s0.1,0.5,0.1,0.8v3.4h-1v-3.4c0-0.4-0.1-0.7-0.3-0.9s-0.4-0.3-0.8-0.3c-0.3,0-0.5,0.1-0.7,0.2
			c-0.2,0.1-0.4,0.3-0.6,0.5v3.9h-1v-7.7h1L136.5,273.2L136.5,273.2z"/>
	</g>
	<g>
		<path class="st3" d="M145.7,277.1c-0.1,0.1-0.3,0.3-0.4,0.4c-0.2,0.1-0.3,0.2-0.5,0.3c-0.2,0.1-0.4,0.1-0.6,0.1s-0.4,0-0.6,0
			c-0.4,0-0.7-0.1-1-0.2c-0.3-0.1-0.6-0.3-0.8-0.5c-0.2-0.2-0.4-0.5-0.5-0.9c-0.1-0.4-0.2-0.8-0.2-1.2c0-0.4,0.1-0.7,0.2-1
			c0.1-0.3,0.3-0.6,0.5-0.8c0.2-0.2,0.5-0.4,0.8-0.6c0.3-0.1,0.7-0.2,1-0.2c0.3,0,0.6,0,0.9,0.2c0.3,0.1,0.5,0.3,0.7,0.5
			c0.2,0.2,0.4,0.5,0.5,0.8c0.1,0.3,0.2,0.6,0.2,1c0,0.2,0,0.3-0.1,0.3c0,0-0.1,0.1-0.2,0.1H142c0,0.3,0.1,0.6,0.1,0.8
			c0.1,0.2,0.2,0.4,0.3,0.6s0.3,0.3,0.5,0.4c0.2,0.1,0.4,0.1,0.6,0.1c0.2,0,0.4,0,0.6-0.1s0.3-0.1,0.4-0.2c0.1-0.1,0.2-0.1,0.3-0.2
			c0.1,0,0.1-0.1,0.2-0.1c0.1,0,0.1,0,0.2,0.1L145.7,277.1L145.7,277.1z M144.8,274.6c0-0.2,0-0.4-0.1-0.6c-0.1-0.2-0.1-0.3-0.2-0.4
			s-0.2-0.2-0.4-0.3s-0.4-0.1-0.6-0.1c-0.4,0-0.8,0.1-1,0.4s-0.4,0.6-0.5,1L144.8,274.6L144.8,274.6z"/>
	</g>
	<g>
		<path class="st3" d="M152,270.3c0.5,0,0.9,0.1,1.2,0.2c0.4,0.1,0.6,0.3,0.9,0.5c0.2,0.2,0.4,0.5,0.5,0.7s0.2,0.6,0.2,1
			s-0.1,0.7-0.2,1c-0.1,0.3-0.3,0.5-0.5,0.8s-0.5,0.4-0.9,0.5c-0.4,0.1-0.8,0.2-1.2,0.2h-1.2v2.8h-1.1v-7.5L152,270.3L152,270.3z
			 M152,274.2c0.3,0,0.5,0,0.7-0.1s0.4-0.2,0.5-0.3s0.2-0.3,0.3-0.5c0.1-0.2,0.1-0.4,0.1-0.6c0-0.5-0.1-0.8-0.4-1.1
			c-0.3-0.3-0.7-0.4-1.3-0.4h-1.2v3H152L152,274.2z"/>
	</g>
	<g>
		<path class="st3" d="M155.7,273.2c0.3-0.3,0.6-0.5,1-0.6c0.4-0.1,0.7-0.2,1.1-0.2c0.3,0,0.6,0,0.8,0.1s0.4,0.2,0.6,0.4
			c0.2,0.2,0.3,0.4,0.4,0.6s0.1,0.5,0.1,0.8v3.4h-0.4c-0.1,0-0.2,0-0.2,0s-0.1-0.1-0.1-0.2l-0.1-0.5c-0.1,0.1-0.3,0.2-0.4,0.3
			c-0.1,0.1-0.3,0.2-0.4,0.2c-0.1,0.1-0.3,0.1-0.5,0.1c-0.2,0-0.4,0-0.5,0c-0.2,0-0.4,0-0.6-0.1c-0.2-0.1-0.3-0.1-0.5-0.3
			s-0.2-0.3-0.3-0.4s-0.1-0.4-0.1-0.6c0-0.2,0.1-0.4,0.2-0.6s0.3-0.4,0.6-0.5c0.3-0.1,0.6-0.3,1-0.4s0.9-0.1,1.5-0.2v-0.4
			c0-0.4-0.1-0.7-0.3-0.9s-0.4-0.3-0.8-0.3c-0.2,0-0.4,0-0.6,0.1c-0.1,0.1-0.3,0.1-0.4,0.2c-0.1,0.1-0.2,0.1-0.3,0.2
			s-0.2,0.1-0.2,0.1c-0.1,0-0.1,0-0.2-0.1s-0.1-0.1-0.1-0.1L155.7,273.2L155.7,273.2z M158.7,275.5c-0.4,0-0.8,0-1.1,0.1
			c-0.3,0-0.5,0.1-0.7,0.2c-0.2,0.1-0.3,0.2-0.4,0.3s-0.1,0.2-0.1,0.4s0,0.2,0.1,0.3c0,0.1,0.1,0.2,0.2,0.2c0.1,0.1,0.2,0.1,0.3,0.1
			c0.1,0,0.2,0,0.3,0c0.2,0,0.3,0,0.4,0s0.2-0.1,0.4-0.1c0.1-0.1,0.2-0.1,0.3-0.2c0.1-0.1,0.2-0.2,0.3-0.3L158.7,275.5L158.7,275.5z
			"/>
	</g>
	<g>
		<path class="st3" d="M162,273.5c0.2-0.4,0.4-0.6,0.6-0.8c0.2-0.2,0.5-0.3,0.9-0.3c0.1,0,0.2,0,0.3,0c0.1,0,0.2,0.1,0.3,0.1
			l-0.1,0.8c0,0.1-0.1,0.1-0.2,0.1c-0.1,0-0.1,0-0.2,0c-0.1,0-0.2,0-0.3,0c-0.2,0-0.3,0-0.4,0.1c-0.1,0-0.2,0.1-0.3,0.2
			c-0.1,0.1-0.2,0.2-0.3,0.3c-0.1,0.1-0.1,0.3-0.2,0.5v3.3h-1v-5.3h0.6c0.1,0,0.2,0,0.2,0.1s0.1,0.1,0.1,0.2L162,273.5L162,273.5z"
			/>
	</g>
	<g>
		<path class="st3" d="M166.1,270.9c0,0.1,0,0.2-0.1,0.3c0,0.1-0.1,0.2-0.1,0.2s-0.1,0.1-0.2,0.1s-0.2,0-0.3,0s-0.2,0-0.3,0
			c-0.1,0-0.2-0.1-0.2-0.1s-0.1-0.1-0.1-0.2s-0.1-0.2-0.1-0.3s0-0.2,0.1-0.3s0.1-0.2,0.1-0.2s0.1-0.1,0.2-0.1s0.2,0,0.3,0
			s0.2,0,0.3,0c0.1,0,0.2,0.1,0.2,0.1s0.1,0.1,0.1,0.2C166.1,270.7,166.1,270.8,166.1,270.9z M165.9,272.5v5.3h-1v-5.3H165.9z"/>
	</g>
	<g>
		<path class="st3" d="M169.1,277.9c-0.4,0-0.8-0.1-1-0.4c-0.2-0.2-0.4-0.6-0.4-1v-3.2h-0.6c-0.1,0-0.1,0-0.1-0.1s-0.1-0.1-0.1-0.2
			v-0.4l0.9-0.1l0.2-1.6c0-0.1,0-0.1,0.1-0.1c0,0,0.1,0,0.1,0h0.5v1.8h1.5v0.7h-1.5v3.1c0,0.2,0.1,0.4,0.1,0.5
			c0.1,0.1,0.2,0.1,0.4,0.1c0.1,0,0.2,0,0.2,0c0.1,0,0.1,0,0.2-0.1s0.1-0.1,0.1-0.1c0,0,0.1,0,0.1,0c0,0,0.1,0,0.1,0s0,0,0.1,0.1
			l0.3,0.5c-0.2,0.1-0.4,0.3-0.6,0.4C169.5,277.8,169.3,277.9,169.1,277.9L169.1,277.9z"/>
	</g>
	<g>
		<path class="st3" d="M175.8,272.5l-2.9,6.8c0,0.1-0.1,0.1-0.1,0.2c-0.1,0-0.1,0.1-0.2,0.1h-0.8l1-2.1l-2.2-5h0.9
			c0.1,0,0.2,0,0.2,0.1s0.1,0.1,0.1,0.1l1.4,3.2c0,0.1,0.1,0.2,0.1,0.2s0.1,0.2,0.1,0.2c0-0.1,0.1-0.2,0.1-0.2s0.1-0.2,0.1-0.2
			l1.3-3.2c0-0.1,0.1-0.1,0.1-0.1s0.1-0.1,0.2-0.1L175.8,272.5L175.8,272.5z"/>
	</g>
</g>
<g>
	<g>
		<path class="st3" d="M202.9,272.4c0.1-0.4,0.1-0.6,0.3-0.9s0.3-0.5,0.5-0.7c0.2-0.2,0.5-0.3,0.7-0.4c0.3-0.1,0.6-0.1,0.9-0.1
			s0.6,0,0.9,0.1s0.5,0.2,0.7,0.4s0.3,0.4,0.4,0.6s0.2,0.5,0.2,0.8c0,0.2,0,0.5-0.1,0.6c-0.1,0.2-0.1,0.4-0.2,0.5
			c-0.1,0.1-0.2,0.3-0.4,0.4c-0.2,0.1-0.3,0.2-0.5,0.2c0.5,0.1,0.8,0.4,1.1,0.6c0.2,0.3,0.4,0.7,0.4,1.1c0,0.4-0.1,0.7-0.2,1
			c-0.1,0.3-0.3,0.5-0.5,0.7s-0.5,0.3-0.8,0.4s-0.6,0.1-1,0.1c-0.4,0-0.7,0-1-0.1c-0.3-0.1-0.5-0.2-0.7-0.4
			c-0.2-0.2-0.4-0.4-0.5-0.6s-0.2-0.5-0.3-0.8l0.4-0.2c0.1,0,0.2-0.1,0.3,0c0.1,0,0.2,0.1,0.2,0.2s0.1,0.2,0.2,0.4
			c0.1,0.1,0.2,0.2,0.3,0.4s0.3,0.2,0.4,0.3c0.2,0.1,0.4,0.1,0.6,0.1s0.5,0,0.7-0.1s0.3-0.2,0.5-0.3c0.1-0.1,0.2-0.3,0.3-0.4
			s0.1-0.3,0.1-0.5c0-0.2,0-0.4-0.1-0.5c-0.1-0.2-0.1-0.3-0.3-0.4c-0.1-0.1-0.3-0.2-0.6-0.3c-0.2-0.1-0.6-0.1-0.9-0.1v-0.7
			c0.3,0,0.6,0,0.8-0.1s0.4-0.1,0.5-0.3s0.2-0.2,0.3-0.4s0.1-0.3,0.1-0.5c0-0.2,0-0.4-0.1-0.5c-0.1-0.1-0.1-0.3-0.3-0.4
			s-0.2-0.2-0.4-0.2c-0.2,0-0.3-0.1-0.5-0.1s-0.4,0-0.5,0.1s-0.3,0.1-0.4,0.2c-0.1,0.1-0.2,0.2-0.3,0.3s-0.1,0.3-0.2,0.4
			c-0.1,0.1-0.1,0.2-0.2,0.3s-0.2,0.1-0.3,0L202.9,272.4L202.9,272.4z"/>
	</g>
	<g>
		<path class="st3" d="M213.4,276.9c0.1,0,0.2,0,0.3,0.1s0.1,0.1,0.1,0.2v0.6h-5v-0.4c0-0.1,0-0.1,0-0.2s0.1-0.1,0.1-0.2l2.4-2.4
			c0.2-0.2,0.4-0.4,0.5-0.6s0.3-0.4,0.4-0.5s0.2-0.4,0.3-0.6s0.1-0.4,0.1-0.6s0-0.4-0.1-0.5c-0.1-0.2-0.2-0.3-0.3-0.4
			s-0.2-0.2-0.4-0.2c-0.2,0-0.3-0.1-0.5-0.1s-0.4,0-0.5,0.1s-0.3,0.1-0.4,0.2s-0.2,0.2-0.3,0.3s-0.1,0.3-0.2,0.4
			c-0.1,0.1-0.1,0.2-0.2,0.3c-0.1,0-0.2,0.1-0.3,0l-0.5-0.1c0.1-0.4,0.1-0.6,0.3-0.9s0.3-0.5,0.5-0.7c0.2-0.2,0.5-0.3,0.7-0.4
			c0.3-0.1,0.6-0.1,0.9-0.1s0.6,0,0.9,0.1s0.5,0.2,0.7,0.4c0.2,0.2,0.4,0.4,0.5,0.7c0.1,0.3,0.2,0.5,0.2,0.9c0,0.3,0,0.5-0.1,0.8
			s-0.2,0.5-0.3,0.7c-0.1,0.2-0.3,0.4-0.5,0.6c-0.2,0.2-0.4,0.4-0.6,0.6l-1.9,1.9c0.1,0,0.3-0.1,0.4-0.1c0.1,0,0.3,0,0.4,0H213.4
			L213.4,276.9z"/>
	</g>
	<g>
		<path class="st3" d="M216.4,273.6h0.4c0.1,0,0.2,0,0.3,0s0.2-0.1,0.2-0.2l2.4-2.8c0.1-0.1,0.1-0.2,0.2-0.2s0.2,0,0.3,0h0.9
			l-2.8,3.2c-0.1,0.1-0.1,0.2-0.2,0.2s-0.1,0.1-0.2,0.1c0.2,0.1,0.4,0.2,0.5,0.4l2.9,3.5h-1c-0.1,0-0.1,0-0.2,0s-0.1,0-0.1,0
			c0,0-0.1,0-0.1-0.1s-0.1-0.1-0.1-0.1l-2.5-2.9c0,0-0.1-0.1-0.1-0.1c0,0-0.1-0.1-0.1-0.1s-0.1,0-0.2,0c-0.1,0-0.1,0-0.2,0h-0.4v3.4
			h-1.1v-7.5h1.1L216.4,273.6L216.4,273.6z"/>
	</g>
	<g>
		<path class="st3" d="M224.7,270.3c0.5,0,0.9,0,1.2,0.1s0.6,0.2,0.8,0.4s0.4,0.4,0.5,0.6c0.1,0.2,0.1,0.5,0.1,0.8
			c0,0.2,0,0.4-0.1,0.5c-0.1,0.2-0.1,0.3-0.2,0.5c-0.1,0.1-0.3,0.3-0.4,0.4c-0.2,0.1-0.4,0.2-0.6,0.3c1.1,0.2,1.6,0.8,1.6,1.7
			c0,0.3-0.1,0.6-0.2,0.9c-0.1,0.3-0.3,0.5-0.5,0.7c-0.2,0.2-0.5,0.3-0.8,0.4s-0.7,0.2-1.1,0.2h-2.7v-7.5L224.7,270.3L224.7,270.3z
			 M223.4,271.2v2.5h1.3c0.6,0,0.9-0.1,1.2-0.3s0.4-0.5,0.4-0.9c0-0.4-0.1-0.7-0.4-0.9s-0.6-0.3-1.2-0.3L223.4,271.2L223.4,271.2z
			 M224.9,276.9c0.3,0,0.5,0,0.7-0.1s0.4-0.2,0.5-0.3s0.2-0.2,0.3-0.4s0.1-0.3,0.1-0.5c0-0.4-0.1-0.7-0.4-0.9s-0.7-0.3-1.2-0.3h-1.6
			v2.5H224.9L224.9,276.9z"/>
	</g>
	<g>
		<path class="st3" d="M229.4,277.9c-0.1,0.1-0.1,0.2-0.2,0.3c-0.1,0.1-0.2,0.1-0.3,0.1h-0.4l3.1-7.8c0.1-0.1,0.1-0.2,0.2-0.3
			c0.1-0.1,0.2-0.1,0.3-0.1h0.4L229.4,277.9L229.4,277.9z"/>
	</g>
	<g>
		<path class="st3" d="M235.4,273.1c-0.1,0.1-0.1,0.1-0.2,0.2s-0.1,0.1-0.2,0.2c0.2-0.1,0.4-0.2,0.6-0.2c0.2-0.1,0.4-0.1,0.7-0.1
			c0.3,0,0.6,0,0.9,0.1s0.5,0.2,0.7,0.4c0.2,0.2,0.4,0.4,0.5,0.7s0.2,0.6,0.2,1s-0.1,0.7-0.2,1s-0.3,0.6-0.5,0.8s-0.5,0.4-0.8,0.5
			c-0.3,0.1-0.7,0.2-1.1,0.2s-0.7-0.1-1-0.2s-0.6-0.3-0.8-0.5c-0.2-0.2-0.4-0.5-0.5-0.8s-0.2-0.7-0.2-1.1c0-0.3,0.1-0.7,0.2-1.1
			c0.1-0.4,0.4-0.8,0.7-1.2l1.9-2.5c0.1-0.1,0.1-0.1,0.2-0.2c0.1,0,0.2-0.1,0.3-0.1h0.9L235.4,273.1L235.4,273.1z M235.9,277
			c0.2,0,0.5,0,0.6-0.1s0.4-0.2,0.5-0.3s0.2-0.3,0.3-0.5c0.1-0.2,0.1-0.4,0.1-0.6c0-0.2,0-0.5-0.1-0.6c-0.1-0.2-0.2-0.4-0.3-0.5
			s-0.3-0.2-0.5-0.3s-0.4-0.1-0.6-0.1s-0.5,0-0.6,0.1c-0.2,0.1-0.4,0.2-0.5,0.3c-0.1,0.1-0.2,0.3-0.3,0.5c-0.1,0.2-0.1,0.4-0.1,0.6
			c0,0.2,0,0.4,0.1,0.6s0.2,0.4,0.3,0.5s0.3,0.2,0.5,0.3C235.4,277,235.6,277,235.9,277L235.9,277z"/>
	</g>
	<g>
		<path class="st3" d="M244.7,275.1v0.6c0,0.1,0,0.1-0.1,0.1s-0.1,0.1-0.2,0.1h-0.9v1.9h-0.9v-1.9h-3.3c-0.1,0-0.1,0-0.2-0.1
			c-0.1,0-0.1-0.1-0.1-0.2l-0.1-0.5l3.6-4.8h1v4.8L244.7,275.1L244.7,275.1z M242.7,275.1v-2.9c0-0.1,0-0.2,0-0.3c0-0.1,0-0.2,0-0.4
			l-2.6,3.6L242.7,275.1L242.7,275.1z"/>
	</g>
	<g>
		<path class="st3" d="M247,273.6h0.4c0.1,0,0.2,0,0.3,0s0.2-0.1,0.2-0.2l2.4-2.8c0.1-0.1,0.2-0.2,0.2-0.2s0.2,0,0.3,0h0.9l-2.8,3.2
			c-0.1,0.1-0.1,0.2-0.2,0.2s-0.1,0.1-0.2,0.1c0.2,0.1,0.4,0.2,0.5,0.4l2.9,3.5h-1c-0.1,0-0.1,0-0.2,0c-0.1,0-0.1,0-0.1,0
			c0,0-0.1,0-0.1-0.1s-0.1-0.1-0.1-0.1l-2.5-2.9c0,0-0.1-0.1-0.1-0.1s-0.1-0.1-0.1-0.1c0,0-0.1,0-0.2,0c-0.1,0-0.1,0-0.2,0H247v3.4
			h-1.1v-7.5h1.1L247,273.6L247,273.6z"/>
	</g>
	<g>
		<path class="st3" d="M255.3,270.3c0.5,0,0.9,0,1.2,0.1s0.6,0.2,0.8,0.4s0.4,0.4,0.5,0.6s0.1,0.5,0.1,0.8c0,0.2,0,0.4-0.1,0.5
			s-0.1,0.3-0.3,0.5s-0.3,0.3-0.4,0.4c-0.2,0.1-0.4,0.2-0.6,0.3c1.1,0.2,1.6,0.8,1.6,1.7c0,0.3-0.1,0.6-0.2,0.9s-0.3,0.5-0.5,0.7
			c-0.2,0.2-0.5,0.3-0.8,0.4c-0.3,0.1-0.7,0.2-1.1,0.2h-2.7v-7.5L255.3,270.3L255.3,270.3z M254,271.2v2.5h1.3
			c0.6,0,0.9-0.1,1.2-0.3s0.4-0.5,0.4-0.9c0-0.4-0.1-0.7-0.4-0.9s-0.6-0.3-1.2-0.3L254,271.2L254,271.2z M255.6,276.9
			c0.3,0,0.5,0,0.7-0.1s0.4-0.2,0.5-0.3s0.2-0.2,0.3-0.4s0.1-0.3,0.1-0.5c0-0.4-0.1-0.7-0.4-0.9s-0.7-0.3-1.2-0.3H254v2.5H255.6
			L255.6,276.9z"/>
	</g>
	<g>
		<path class="st3" d="M266.6,276.9v0.9h-4.3v-7.5h1.1v6.6L266.6,276.9L266.6,276.9z"/>
	</g>
	<g>
		<path class="st3" d="M272.1,277v0.8h-4V277h1.6v-4.9c0-0.2,0-0.3,0-0.5l-1.3,1.1c0,0-0.1,0.1-0.1,0.1c0,0-0.1,0-0.1,0
			s-0.1,0-0.1,0c0,0-0.1,0-0.1-0.1l-0.3-0.4l2.2-1.9h0.8v6.7L272.1,277L272.1,277z"/>
	</g>
	<g>
		<path class="st3" d="M282.9,274.1c0,0.6-0.1,1.1-0.3,1.5s-0.4,0.9-0.8,1.2s-0.7,0.6-1.2,0.8s-1,0.3-1.5,0.3h-2.8v-7.5h2.8
			c0.6,0,1.1,0.1,1.5,0.3s0.9,0.4,1.2,0.8s0.6,0.7,0.8,1.2C282.8,273,282.9,273.5,282.9,274.1L282.9,274.1z M281.8,274.1
			c0-0.5-0.1-0.8-0.2-1.2c-0.1-0.4-0.3-0.6-0.5-0.9c-0.2-0.2-0.5-0.4-0.8-0.6c-0.3-0.1-0.7-0.2-1.1-0.2h-1.7v5.7h1.7
			c0.4,0,0.8-0.1,1.1-0.2s0.6-0.3,0.8-0.6c0.2-0.2,0.4-0.5,0.5-0.9C281.7,274.9,281.8,274.5,281.8,274.1z"/>
	</g>
	<g>
		<path class="st3" d="M284,274.2h2.6v0.9H284V274.2z"/>
	</g>
	<g>
		<path class="st3" d="M291.7,273.5C291.7,273.5,291.6,273.6,291.7,273.5c-0.1,0.1-0.2,0.1-0.2,0.1s-0.1,0-0.2-0.1
			c-0.1,0-0.1-0.1-0.2-0.1c-0.1,0-0.2-0.1-0.3-0.1c-0.1,0-0.3-0.1-0.5-0.1c-0.2,0-0.5,0-0.7,0.1c-0.2,0.1-0.4,0.2-0.5,0.4
			s-0.2,0.4-0.3,0.6s-0.1,0.5-0.1,0.8s0,0.6,0.1,0.8c0.1,0.2,0.2,0.5,0.3,0.6s0.3,0.3,0.5,0.4c0.2,0.1,0.4,0.1,0.6,0.1
			s0.4,0,0.5-0.1s0.3-0.1,0.4-0.2s0.2-0.1,0.2-0.2c0.1,0,0.1-0.1,0.2-0.1c0.1,0,0.1,0,0.2,0.1l0.3,0.4c-0.1,0.1-0.3,0.3-0.4,0.4
			s-0.3,0.2-0.5,0.3s-0.4,0.1-0.5,0.1s-0.4,0-0.6,0c-0.3,0-0.6-0.1-0.9-0.2c-0.3-0.1-0.5-0.3-0.8-0.5s-0.4-0.5-0.5-0.9
			s-0.2-0.7-0.2-1.2c0-0.4,0-0.8,0.2-1.1c0.1-0.3,0.3-0.6,0.5-0.9c0.2-0.2,0.5-0.4,0.8-0.6s0.7-0.2,1.1-0.2c0.4,0,0.7,0.1,1,0.2
			s0.5,0.3,0.8,0.5L291.7,273.5L291.7,273.5z"/>
	</g>
	<g>
		<path class="st3" d="M292.8,273.2c0.3-0.3,0.6-0.5,1-0.6c0.4-0.1,0.7-0.2,1.1-0.2c0.3,0,0.6,0,0.8,0.1c0.2,0.1,0.4,0.2,0.6,0.4
			c0.2,0.2,0.3,0.4,0.4,0.6s0.1,0.5,0.1,0.8v3.4h-0.5c-0.1,0-0.2,0-0.2,0s-0.1-0.1-0.1-0.2l-0.1-0.5c-0.1,0.1-0.3,0.2-0.4,0.3
			s-0.3,0.2-0.4,0.2c-0.1,0.1-0.3,0.1-0.5,0.1s-0.3,0-0.5,0c-0.2,0-0.4,0-0.6-0.1c-0.2-0.1-0.3-0.1-0.5-0.3
			c-0.1-0.1-0.2-0.3-0.3-0.4s-0.1-0.4-0.1-0.6c0-0.2,0.1-0.4,0.2-0.6c0.1-0.2,0.3-0.4,0.5-0.5c0.3-0.1,0.6-0.3,1-0.4
			s0.9-0.1,1.5-0.2v-0.4c0-0.4-0.1-0.7-0.3-0.9c-0.2-0.2-0.4-0.3-0.8-0.3c-0.2,0-0.4,0-0.6,0.1s-0.3,0.1-0.4,0.2
			c-0.1,0.1-0.2,0.1-0.3,0.2c-0.1,0.1-0.2,0.1-0.2,0.1c-0.1,0-0.1,0-0.2-0.1s-0.1-0.1-0.1-0.1L292.8,273.2L292.8,273.2z
			 M295.8,275.5c-0.4,0-0.8,0-1,0.1c-0.3,0-0.5,0.1-0.7,0.2c-0.2,0.1-0.3,0.2-0.4,0.3s-0.1,0.2-0.1,0.4s0,0.2,0.1,0.3
			s0.1,0.2,0.2,0.2c0.1,0.1,0.2,0.1,0.3,0.1c0.1,0,0.2,0,0.3,0c0.2,0,0.3,0,0.4,0s0.2-0.1,0.4-0.1s0.2-0.1,0.3-0.2
			c0.1-0.1,0.2-0.2,0.3-0.3L295.8,275.5L295.8,275.5z"/>
	</g>
	<g>
		<path class="st3" d="M301.9,273.5C301.9,273.5,301.8,273.6,301.9,273.5c-0.1,0.1-0.2,0.1-0.2,0.1s-0.1,0-0.2-0.1
			c-0.1,0-0.1-0.1-0.2-0.1c-0.1,0-0.2-0.1-0.3-0.1c-0.1,0-0.3-0.1-0.5-0.1c-0.2,0-0.5,0-0.7,0.1c-0.2,0.1-0.4,0.2-0.5,0.4
			s-0.2,0.4-0.3,0.6s-0.1,0.5-0.1,0.8s0,0.6,0.1,0.8c0.1,0.2,0.2,0.5,0.3,0.6s0.3,0.3,0.5,0.4c0.2,0.1,0.4,0.1,0.6,0.1
			s0.4,0,0.5-0.1s0.3-0.1,0.4-0.2c0.1-0.1,0.2-0.1,0.2-0.2c0.1,0,0.1-0.1,0.2-0.1c0.1,0,0.1,0,0.2,0.1l0.3,0.4
			c-0.1,0.1-0.3,0.3-0.4,0.4s-0.3,0.2-0.5,0.3s-0.4,0.1-0.5,0.1s-0.4,0-0.6,0c-0.3,0-0.6-0.1-0.9-0.2c-0.3-0.1-0.5-0.3-0.8-0.5
			s-0.4-0.5-0.5-0.9s-0.2-0.7-0.2-1.2c0-0.4,0-0.8,0.2-1.1s0.3-0.6,0.5-0.9c0.2-0.2,0.5-0.4,0.8-0.6s0.7-0.2,1.1-0.2
			c0.4,0,0.7,0.1,1,0.2s0.5,0.3,0.8,0.5L301.9,273.5L301.9,273.5z"/>
	</g>
	<g>
		<path class="st3" d="M304.2,273.2c0.2-0.2,0.5-0.4,0.7-0.5c0.3-0.1,0.6-0.2,0.9-0.2c0.3,0,0.5,0,0.8,0.1s0.4,0.2,0.6,0.4
			s0.3,0.4,0.3,0.6c0.1,0.2,0.1,0.5,0.1,0.8v3.4h-1v-3.4c0-0.4-0.1-0.7-0.3-0.9s-0.4-0.3-0.8-0.3c-0.3,0-0.5,0.1-0.7,0.2
			c-0.2,0.1-0.4,0.3-0.6,0.5v3.9h-1v-7.7h1L304.2,273.2L304.2,273.2z"/>
	</g>
	<g>
		<path class="st3" d="M313.4,277.1c-0.1,0.1-0.3,0.3-0.4,0.4c-0.2,0.1-0.3,0.2-0.5,0.3s-0.4,0.1-0.6,0.1c-0.2,0-0.4,0-0.6,0
			c-0.4,0-0.7-0.1-1-0.2c-0.3-0.1-0.6-0.3-0.8-0.5s-0.4-0.5-0.5-0.9c-0.1-0.4-0.2-0.8-0.2-1.2c0-0.4,0.1-0.7,0.2-1
			c0.1-0.3,0.3-0.6,0.5-0.8c0.2-0.2,0.5-0.4,0.8-0.6s0.7-0.2,1-0.2c0.3,0,0.6,0,0.9,0.2c0.3,0.1,0.5,0.3,0.7,0.5
			c0.2,0.2,0.4,0.5,0.5,0.8c0.1,0.3,0.2,0.6,0.2,1c0,0.2,0,0.3,0,0.3c0,0-0.1,0.1-0.2,0.1h-3.5c0,0.3,0.1,0.6,0.1,0.8
			c0.1,0.2,0.2,0.4,0.3,0.6s0.3,0.3,0.5,0.4s0.4,0.1,0.6,0.1c0.2,0,0.4,0,0.6-0.1c0.2,0,0.3-0.1,0.4-0.2c0.1-0.1,0.2-0.1,0.3-0.2
			s0.1-0.1,0.2-0.1c0.1,0,0.1,0,0.2,0.1L313.4,277.1L313.4,277.1z M312.5,274.6c0-0.2,0-0.4-0.1-0.6c-0.1-0.2-0.1-0.3-0.2-0.4
			s-0.2-0.2-0.4-0.3s-0.3-0.1-0.5-0.1c-0.4,0-0.8,0.1-1,0.4s-0.4,0.6-0.5,1L312.5,274.6L312.5,274.6z"/>
	</g>
	<g>
		<path class="st3" d="M322,276.9v0.9h-4.6v-7.5h4.6v0.9h-3.5v2.4h2.8v0.9h-2.8v2.4L322,276.9L322,276.9z"/>
	</g>
	<g>
		<path class="st3" d="M328.7,276.2c0.1,0,0.1,0,0.2,0.1l0.4,0.5c-0.3,0.4-0.7,0.6-1.1,0.8c-0.4,0.2-1,0.3-1.6,0.3
			c-0.5,0-1-0.1-1.5-0.3c-0.4-0.2-0.8-0.5-1.1-0.8s-0.5-0.7-0.7-1.2s-0.3-1-0.3-1.5s0.1-1.1,0.3-1.5s0.4-0.9,0.8-1.2
			s0.7-0.6,1.2-0.8s1-0.3,1.5-0.3s1,0.1,1.4,0.3s0.8,0.4,1.1,0.7l-0.4,0.5c0,0,0,0.1-0.1,0.1s-0.1,0-0.1,0c-0.1,0-0.1,0-0.2-0.1
			s-0.2-0.1-0.4-0.2s-0.3-0.2-0.5-0.2c-0.2-0.1-0.5-0.1-0.8-0.1c-0.4,0-0.7,0.1-1,0.2s-0.6,0.3-0.8,0.6c-0.2,0.2-0.4,0.5-0.5,0.9
			c-0.1,0.4-0.2,0.8-0.2,1.2s0.1,0.9,0.2,1.2c0.1,0.4,0.3,0.7,0.5,0.9c0.2,0.2,0.5,0.4,0.8,0.6c0.3,0.1,0.6,0.2,1,0.2
			c0.2,0,0.4,0,0.6,0c0.2,0,0.3-0.1,0.5-0.1c0.1,0,0.3-0.1,0.4-0.2s0.3-0.2,0.4-0.3c0,0,0.1,0,0.1-0.1S328.6,276.2,328.7,276.2
			L328.7,276.2z"/>
	</g>
	<g>
		<path class="st3" d="M335.6,276.2c0.1,0,0.1,0,0.2,0.1l0.4,0.5c-0.3,0.4-0.7,0.6-1.1,0.8s-1,0.3-1.6,0.3c-0.5,0-1-0.1-1.5-0.3
			s-0.8-0.5-1.1-0.8s-0.5-0.7-0.7-1.2s-0.3-1-0.3-1.5s0.1-1.1,0.3-1.5s0.4-0.9,0.8-1.2s0.7-0.6,1.2-0.8s1-0.3,1.5-0.3s1,0.1,1.4,0.3
			s0.8,0.4,1.1,0.7l-0.4,0.5c0,0,0,0.1-0.1,0.1s-0.1,0-0.1,0c-0.1,0-0.1,0-0.2-0.1s-0.2-0.1-0.4-0.2s-0.3-0.2-0.5-0.2
			c-0.2-0.1-0.5-0.1-0.8-0.1c-0.4,0-0.7,0.1-1,0.2s-0.6,0.3-0.8,0.6c-0.2,0.2-0.4,0.5-0.5,0.9c-0.1,0.4-0.2,0.8-0.2,1.2
			s0.1,0.9,0.2,1.2c0.1,0.4,0.3,0.7,0.5,0.9s0.5,0.4,0.8,0.6c0.3,0.1,0.6,0.2,1,0.2c0.2,0,0.4,0,0.6,0s0.3-0.1,0.5-0.1
			s0.3-0.1,0.4-0.2s0.3-0.2,0.4-0.3c0,0,0.1,0,0.1-0.1S335.6,276.2,335.6,276.2L335.6,276.2z"/>
	</g>
</g>
<g>
	<g>
		<path class="st3" d="M97.8,326.5v0.8h-4.1v-0.8h1.6v-4.9c0-0.2,0-0.3,0-0.5l-1.3,1.1c0,0-0.1,0.1-0.2,0.1c-0.1,0-0.1,0-0.1,0
			s-0.1,0-0.1,0c0,0-0.1,0-0.1-0.1l-0.3-0.4l2.2-1.9h0.8v6.7L97.8,326.5L97.8,326.5z"/>
	</g>
	<g>
		<path class="st3" d="M103.6,326.4c0.1,0,0.2,0,0.3,0.1s0.1,0.1,0.1,0.2v0.6h-5V327c0-0.1,0-0.1,0-0.2s0.1-0.1,0.1-0.2l2.4-2.4
			c0.2-0.2,0.4-0.4,0.5-0.6s0.3-0.4,0.4-0.5s0.2-0.4,0.3-0.6c0.1-0.2,0.1-0.4,0.1-0.6s0-0.4-0.1-0.5c-0.1-0.2-0.2-0.3-0.3-0.4
			c-0.1-0.1-0.2-0.2-0.4-0.2c-0.2,0-0.3-0.1-0.5-0.1s-0.3,0-0.5,0.1s-0.3,0.1-0.4,0.2s-0.2,0.2-0.3,0.3s-0.1,0.3-0.2,0.4
			c-0.1,0.1-0.1,0.2-0.2,0.3c-0.1,0-0.2,0.1-0.3,0l-0.5-0.1c0.1-0.4,0.1-0.6,0.3-0.9s0.3-0.5,0.5-0.7c0.2-0.2,0.5-0.3,0.7-0.4
			c0.3-0.1,0.6-0.1,0.9-0.1s0.6,0,0.9,0.1s0.5,0.2,0.7,0.4c0.2,0.2,0.4,0.4,0.5,0.7c0.1,0.3,0.2,0.5,0.2,0.9c0,0.3,0,0.5-0.1,0.8
			s-0.2,0.5-0.3,0.7c-0.1,0.2-0.3,0.4-0.5,0.6c-0.2,0.2-0.4,0.4-0.6,0.6l-1.9,1.9c0.2,0,0.3-0.1,0.4-0.1s0.3,0,0.4,0H103.6
			L103.6,326.4z"/>
	</g>
	<g>
		<path class="st3" d="M108.7,323.4c0.5,0.1,0.8,0.4,1.1,0.7c0.2,0.3,0.4,0.7,0.4,1.2c0,0.3-0.1,0.6-0.2,0.9
			c-0.1,0.3-0.3,0.5-0.5,0.7c-0.2,0.2-0.5,0.3-0.8,0.4c-0.3,0.1-0.7,0.1-1,0.1s-0.7,0-1-0.1s-0.6-0.2-0.8-0.4
			c-0.2-0.2-0.4-0.4-0.5-0.7c-0.1-0.3-0.2-0.6-0.2-0.9c0-0.5,0.1-0.9,0.4-1.2c0.2-0.3,0.6-0.5,1.1-0.7c-0.4-0.1-0.7-0.4-0.9-0.7
			c-0.2-0.3-0.3-0.6-0.3-1c0-0.3,0.1-0.5,0.2-0.8c0.1-0.2,0.3-0.5,0.5-0.6s0.4-0.3,0.7-0.4s0.6-0.1,0.9-0.1s0.7,0,0.9,0.1
			s0.5,0.2,0.7,0.4c0.2,0.2,0.3,0.4,0.5,0.6s0.2,0.5,0.2,0.8c0,0.4-0.1,0.8-0.3,1S109.1,323.3,108.7,323.4L108.7,323.4z
			 M107.6,326.6c0.2,0,0.4,0,0.6-0.1s0.3-0.2,0.5-0.3s0.2-0.3,0.3-0.4c0.1-0.2,0.1-0.4,0.1-0.5c0-0.2,0-0.5-0.1-0.6
			s-0.2-0.3-0.3-0.4c-0.1-0.1-0.3-0.2-0.5-0.2c-0.2,0-0.4-0.1-0.6-0.1s-0.4,0-0.6,0.1s-0.3,0.1-0.5,0.2c-0.1,0.1-0.2,0.3-0.3,0.4
			s-0.1,0.4-0.1,0.6c0,0.2,0,0.4,0.1,0.5c0.1,0.2,0.2,0.3,0.3,0.4s0.3,0.2,0.5,0.3S107.3,326.6,107.6,326.6L107.6,326.6z
			 M107.6,320.5c-0.2,0-0.4,0-0.6,0.1c-0.2,0.1-0.3,0.1-0.4,0.3s-0.2,0.2-0.2,0.4c-0.1,0.1-0.1,0.3-0.1,0.5s0,0.3,0.1,0.5
			c0.1,0.1,0.1,0.3,0.2,0.4s0.2,0.2,0.4,0.3s0.4,0.1,0.6,0.1s0.4,0,0.6-0.1c0.2-0.1,0.3-0.2,0.4-0.3s0.2-0.3,0.2-0.4
			c0.1-0.2,0.1-0.3,0.1-0.5s0-0.3-0.1-0.5s-0.1-0.3-0.2-0.4c-0.1-0.1-0.2-0.2-0.4-0.3C108,320.6,107.8,320.5,107.6,320.5
			L107.6,320.5z"/>
	</g>
	<g>
		<path class="st3" d="M115.3,323.1h0.4c0.1,0,0.2,0,0.3,0s0.2-0.1,0.2-0.2l2.4-2.8c0.1-0.1,0.2-0.2,0.2-0.2s0.2,0,0.3,0h0.9
			l-2.8,3.2c-0.1,0.1-0.1,0.2-0.2,0.2s-0.1,0.1-0.2,0.1c0.2,0.1,0.4,0.2,0.5,0.4l2.9,3.5h-1c-0.1,0-0.1,0-0.2,0s-0.1,0-0.1,0
			c0,0-0.1,0-0.1-0.1s-0.1-0.1-0.1-0.1l-2.5-2.9c0,0-0.1-0.1-0.1-0.1c0,0-0.1-0.1-0.1-0.1s-0.1,0-0.2,0c-0.1,0-0.1,0-0.2,0h-0.4v3.4
			h-1.1v-7.5h1.1C115.3,319.8,115.3,323.1,115.3,323.1z"/>
	</g>
	<g>
		<path class="st3" d="M123.6,319.8c0.5,0,0.9,0,1.2,0.1s0.6,0.2,0.8,0.4s0.4,0.4,0.5,0.6c0.1,0.2,0.2,0.5,0.2,0.8
			c0,0.2,0,0.4-0.1,0.5c-0.1,0.2-0.1,0.3-0.2,0.5c-0.1,0.1-0.3,0.3-0.4,0.4c-0.2,0.1-0.4,0.2-0.6,0.3c1.1,0.2,1.6,0.8,1.6,1.7
			c0,0.3-0.1,0.6-0.2,0.9c-0.1,0.3-0.3,0.5-0.5,0.7c-0.2,0.2-0.5,0.3-0.8,0.4s-0.7,0.2-1.1,0.2h-2.7v-7.5L123.6,319.8L123.6,319.8z
			 M122.3,320.7v2.5h1.3c0.6,0,0.9-0.1,1.2-0.3c0.3-0.2,0.4-0.5,0.4-0.9c0-0.4-0.1-0.7-0.4-0.9s-0.7-0.3-1.2-0.3L122.3,320.7
			L122.3,320.7z M123.8,326.4c0.3,0,0.5,0,0.7-0.1c0.2-0.1,0.4-0.2,0.5-0.3s0.2-0.2,0.3-0.4s0.1-0.3,0.1-0.5c0-0.4-0.1-0.7-0.4-0.9
			s-0.7-0.3-1.2-0.3h-1.6v2.5H123.8L123.8,326.4z"/>
	</g>
	<g>
		<path class="st3" d="M128.3,327.4c-0.1,0.1-0.1,0.2-0.2,0.3c-0.1,0.1-0.2,0.1-0.3,0.1h-0.4l3.1-7.8c0.1-0.1,0.1-0.2,0.2-0.3
			s0.2-0.1,0.3-0.1h0.4L128.3,327.4L128.3,327.4z"/>
	</g>
	<g>
		<path class="st3" d="M136.9,326.4c0.1,0,0.2,0,0.3,0.1s0.1,0.1,0.1,0.2v0.6h-5V327c0-0.1,0-0.1,0-0.2s0.1-0.1,0.1-0.2l2.4-2.4
			c0.2-0.2,0.4-0.4,0.5-0.6s0.3-0.4,0.4-0.5s0.2-0.4,0.3-0.6s0.1-0.4,0.1-0.6s0-0.4-0.1-0.5c-0.1-0.2-0.2-0.3-0.3-0.4
			s-0.2-0.2-0.4-0.2c-0.2,0-0.3-0.1-0.5-0.1s-0.4,0-0.5,0.1s-0.3,0.1-0.4,0.2s-0.2,0.2-0.3,0.3s-0.1,0.3-0.2,0.4
			c-0.1,0.1-0.1,0.2-0.2,0.3c-0.1,0-0.2,0.1-0.3,0l-0.5-0.1c0.1-0.4,0.1-0.6,0.3-0.9c0.1-0.3,0.3-0.5,0.5-0.7
			c0.2-0.2,0.5-0.3,0.7-0.4c0.3-0.1,0.6-0.1,0.9-0.1s0.6,0,0.9,0.1s0.5,0.2,0.7,0.4c0.2,0.2,0.4,0.4,0.5,0.7
			c0.1,0.3,0.2,0.5,0.2,0.9c0,0.3,0,0.5-0.1,0.8s-0.2,0.5-0.3,0.7s-0.3,0.4-0.5,0.6c-0.2,0.2-0.4,0.4-0.6,0.6l-1.9,1.9
			c0.1,0,0.3-0.1,0.4-0.1c0.1,0,0.3,0,0.4,0H136.9L136.9,326.4z"/>
	</g>
	<g>
		<path class="st3" d="M139.8,322.6c0.4-0.1,0.7-0.1,1-0.1c0.4,0,0.7,0.1,1,0.2c0.3,0.1,0.6,0.3,0.8,0.5s0.4,0.4,0.5,0.7
			s0.1,0.6,0.1,0.9c0,0.4-0.1,0.8-0.2,1.1c-0.1,0.3-0.3,0.6-0.6,0.8s-0.5,0.4-0.9,0.5s-0.7,0.2-1.1,0.2c-0.2,0-0.4,0-0.6-0.1
			s-0.4-0.1-0.6-0.2c-0.2-0.1-0.3-0.2-0.5-0.3c-0.1-0.1-0.3-0.2-0.4-0.3l0.3-0.4c0.1-0.1,0.1-0.1,0.3-0.1c0.1,0,0.1,0,0.2,0.1
			s0.2,0.1,0.3,0.2c0.1,0.1,0.3,0.1,0.4,0.2c0.2,0,0.4,0.1,0.6,0.1c0.2,0,0.5,0,0.7-0.1c0.2-0.1,0.4-0.2,0.5-0.4s0.2-0.3,0.3-0.5
			s0.1-0.4,0.1-0.7c0-0.2,0-0.4-0.1-0.6s-0.2-0.3-0.3-0.5s-0.3-0.2-0.5-0.3c-0.2-0.1-0.4-0.1-0.7-0.1c-0.4,0-0.8,0.1-1.2,0.2
			l-0.6-0.2l0.6-3.5h3.6v0.4c0,0.1-0.1,0.3-0.1,0.4s-0.2,0.1-0.5,0.1h-2.3L139.8,322.6L139.8,322.6z"/>
	</g>
	<g>
		<path class="st3" d="M146.4,322.6c-0.1,0.1-0.1,0.1-0.2,0.2s-0.1,0.1-0.2,0.2c0.2-0.1,0.4-0.2,0.6-0.2c0.2-0.1,0.4-0.1,0.7-0.1
			c0.3,0,0.6,0,0.9,0.1s0.5,0.2,0.7,0.4c0.2,0.2,0.4,0.4,0.5,0.7s0.2,0.6,0.2,1s-0.1,0.7-0.2,1c-0.1,0.3-0.3,0.6-0.5,0.8
			s-0.5,0.4-0.8,0.5s-0.7,0.2-1.1,0.2s-0.7-0.1-1-0.2s-0.6-0.3-0.8-0.5c-0.2-0.2-0.4-0.5-0.5-0.8s-0.2-0.7-0.2-1.1
			c0-0.3,0.1-0.7,0.2-1.1c0.1-0.4,0.4-0.8,0.7-1.2l1.9-2.5c0.1-0.1,0.1-0.1,0.2-0.2c0.1,0,0.2-0.1,0.3-0.1h0.9L146.4,322.6
			L146.4,322.6z M146.9,326.6c0.2,0,0.5,0,0.6-0.1c0.2-0.1,0.4-0.2,0.5-0.3c0.1-0.1,0.2-0.3,0.3-0.5c0.1-0.2,0.1-0.4,0.1-0.6
			c0-0.2,0-0.5-0.1-0.6s-0.2-0.4-0.3-0.5s-0.3-0.2-0.5-0.3c-0.2-0.1-0.4-0.1-0.6-0.1s-0.5,0-0.6,0.1c-0.2,0.1-0.4,0.2-0.5,0.3
			c-0.1,0.1-0.2,0.3-0.3,0.5c-0.1,0.2-0.1,0.4-0.1,0.6c0,0.2,0,0.4,0.1,0.6s0.2,0.4,0.3,0.5s0.3,0.2,0.5,0.3
			C146.4,326.5,146.6,326.5,146.9,326.6L146.9,326.6z"/>
	</g>
	<g>
		<path class="st3" d="M154.6,323.1h0.4c0.1,0,0.2,0,0.3,0s0.2-0.1,0.2-0.2l2.4-2.8c0.1-0.1,0.1-0.2,0.2-0.2s0.2,0,0.3,0h0.9
			l-2.8,3.2c-0.1,0.1-0.1,0.2-0.2,0.2s-0.1,0.1-0.2,0.1c0.2,0.1,0.4,0.2,0.5,0.4l2.9,3.5h-1c-0.1,0-0.1,0-0.2,0c-0.1,0-0.1,0-0.1,0
			c0,0-0.1,0-0.1-0.1s-0.1-0.1-0.1-0.1l-2.5-2.9c0,0-0.1-0.1-0.1-0.1s-0.1-0.1-0.1-0.1c-0.1,0-0.1,0-0.2,0c-0.1,0-0.1,0-0.2,0h-0.4
			v3.4h-1.1v-7.5h1.1L154.6,323.1L154.6,323.1z"/>
	</g>
	<g>
		<path class="st3" d="M162.9,319.8c0.5,0,0.9,0,1.2,0.1s0.6,0.2,0.8,0.4s0.4,0.4,0.5,0.6c0.1,0.2,0.1,0.5,0.1,0.8
			c0,0.2,0,0.4-0.1,0.5c-0.1,0.2-0.1,0.3-0.3,0.5c-0.1,0.1-0.3,0.3-0.4,0.4c-0.2,0.1-0.4,0.2-0.6,0.3c1.1,0.2,1.6,0.8,1.6,1.7
			c0,0.3-0.1,0.6-0.2,0.9c-0.1,0.3-0.3,0.5-0.5,0.7c-0.2,0.2-0.5,0.3-0.8,0.4c-0.3,0.1-0.7,0.2-1.1,0.2h-2.7v-7.5L162.9,319.8
			L162.9,319.8z M161.6,320.7v2.5h1.3c0.6,0,0.9-0.1,1.2-0.3s0.4-0.5,0.4-0.9c0-0.4-0.1-0.7-0.4-0.9s-0.6-0.3-1.2-0.3L161.6,320.7
			L161.6,320.7z M163.1,326.4c0.3,0,0.5,0,0.7-0.1s0.4-0.2,0.5-0.3s0.2-0.2,0.3-0.4s0.1-0.3,0.1-0.5c0-0.4-0.1-0.7-0.4-0.9
			s-0.7-0.3-1.2-0.3h-1.6v2.5H163.1L163.1,326.4z"/>
	</g>
	<g>
		<path class="st3" d="M167.6,327.4c-0.1,0.1-0.1,0.2-0.2,0.3c-0.1,0.1-0.2,0.1-0.3,0.1h-0.4l3.1-7.8c0.1-0.1,0.1-0.2,0.2-0.3
			c0.1-0.1,0.2-0.1,0.3-0.1h0.4L167.6,327.4L167.6,327.4z"/>
	</g>
	<g>
		<path class="st3" d="M173,322.6c0.4-0.1,0.7-0.1,1-0.1c0.4,0,0.7,0.1,1,0.2c0.3,0.1,0.6,0.3,0.8,0.5s0.4,0.4,0.5,0.7
			s0.1,0.6,0.1,0.9c0,0.4-0.1,0.8-0.2,1.1c-0.1,0.3-0.3,0.6-0.6,0.8c-0.2,0.2-0.5,0.4-0.9,0.5s-0.7,0.2-1.1,0.2
			c-0.2,0-0.4,0-0.6-0.1c-0.2,0-0.4-0.1-0.6-0.2c-0.2-0.1-0.3-0.2-0.5-0.3s-0.3-0.2-0.4-0.3l0.3-0.4c0.1-0.1,0.2-0.1,0.3-0.1
			c0.1,0,0.1,0,0.2,0.1c0.1,0,0.2,0.1,0.3,0.2c0.1,0.1,0.3,0.1,0.4,0.2c0.2,0,0.4,0.1,0.6,0.1c0.2,0,0.5,0,0.7-0.1s0.4-0.2,0.5-0.4
			s0.2-0.3,0.3-0.5c0.1-0.2,0.1-0.4,0.1-0.7c0-0.2,0-0.4-0.1-0.6s-0.2-0.3-0.3-0.5s-0.3-0.2-0.5-0.3c-0.2-0.1-0.4-0.1-0.7-0.1
			c-0.4,0-0.8,0.1-1.2,0.2l-0.6-0.2l0.6-3.5h3.6v0.4c0,0.1-0.1,0.3-0.1,0.4s-0.2,0.1-0.5,0.1h-2.3L173,322.6L173,322.6z"/>
	</g>
	<g>
		<path class="st3" d="M182.5,326.5v0.8h-4.1v-0.8h1.6v-4.9c0-0.2,0-0.3,0-0.5l-1.3,1.1c0,0-0.1,0.1-0.1,0.1c-0.1,0-0.1,0-0.1,0
			c0,0-0.1,0-0.1,0c0,0-0.1,0-0.1-0.1l-0.3-0.4l2.2-1.9h0.8v6.7L182.5,326.5L182.5,326.5z"/>
	</g>
	<g>
		<path class="st3" d="M188.3,326.4c0.1,0,0.2,0,0.3,0.1s0.1,0.1,0.1,0.2v0.6h-5V327c0-0.1,0-0.1,0-0.2s0.1-0.1,0.1-0.2l2.4-2.4
			c0.2-0.2,0.4-0.4,0.5-0.6s0.3-0.4,0.4-0.5s0.2-0.4,0.3-0.6s0.1-0.4,0.1-0.6s0-0.4-0.1-0.5c-0.1-0.2-0.2-0.3-0.3-0.4
			c-0.1-0.1-0.2-0.2-0.4-0.2c-0.2,0-0.3-0.1-0.5-0.1s-0.4,0-0.5,0.1s-0.3,0.1-0.4,0.2s-0.2,0.2-0.3,0.3s-0.1,0.3-0.2,0.4
			c-0.1,0.1-0.1,0.2-0.2,0.3c-0.1,0-0.2,0.1-0.3,0l-0.5-0.1c0.1-0.4,0.1-0.6,0.3-0.9s0.3-0.5,0.5-0.7c0.2-0.2,0.5-0.3,0.7-0.4
			c0.3-0.1,0.6-0.1,0.9-0.1s0.6,0,0.9,0.1c0.3,0.1,0.5,0.2,0.7,0.4c0.2,0.2,0.4,0.4,0.5,0.7c0.1,0.3,0.2,0.5,0.2,0.9
			c0,0.3,0,0.5-0.1,0.8s-0.2,0.5-0.3,0.7c-0.1,0.2-0.3,0.4-0.5,0.6c-0.2,0.2-0.4,0.4-0.6,0.6l-1.9,1.9c0.1,0,0.3-0.1,0.4-0.1
			c0.1,0,0.3,0,0.4,0H188.3L188.3,326.4z"/>
	</g>
	<g>
		<path class="st3" d="M193.9,323.1h0.4c0.1,0,0.2,0,0.3,0s0.2-0.1,0.2-0.2l2.4-2.8c0.1-0.1,0.1-0.2,0.2-0.2s0.2,0,0.3,0h0.9
			l-2.8,3.2c-0.1,0.1-0.1,0.2-0.2,0.2s-0.1,0.1-0.2,0.1c0.2,0.1,0.4,0.2,0.5,0.4l2.9,3.5h-1c-0.1,0-0.1,0-0.2,0c-0.1,0-0.1,0-0.1,0
			c0,0-0.1,0-0.1-0.1s-0.1-0.1-0.1-0.1l-2.5-2.9c0,0-0.1-0.1-0.1-0.1s-0.1-0.1-0.1-0.1s-0.1,0-0.2,0c-0.1,0-0.1,0-0.2,0h-0.4v3.4
			h-1.1v-7.5h1.1L193.9,323.1L193.9,323.1z"/>
	</g>
	<g>
		<path class="st3" d="M202.2,319.8c0.5,0,0.9,0,1.2,0.1s0.6,0.2,0.8,0.4c0.2,0.2,0.4,0.4,0.5,0.6c0.1,0.2,0.1,0.5,0.1,0.8
			c0,0.2,0,0.4-0.1,0.5s-0.1,0.3-0.3,0.5s-0.3,0.3-0.4,0.4c-0.2,0.1-0.4,0.2-0.6,0.3c1.1,0.2,1.6,0.8,1.6,1.7c0,0.3-0.1,0.6-0.2,0.9
			c-0.1,0.3-0.3,0.5-0.5,0.7c-0.2,0.2-0.5,0.3-0.8,0.4s-0.7,0.2-1.1,0.2h-2.7v-7.5L202.2,319.8L202.2,319.8z M200.9,320.7v2.5h1.3
			c0.6,0,0.9-0.1,1.2-0.3s0.4-0.5,0.4-0.9c0-0.4-0.1-0.7-0.4-0.9s-0.6-0.3-1.2-0.3L200.9,320.7L200.9,320.7z M202.5,326.4
			c0.3,0,0.5,0,0.7-0.1s0.4-0.2,0.5-0.3s0.2-0.2,0.3-0.4s0.1-0.3,0.1-0.5c0-0.4-0.1-0.7-0.4-0.9s-0.7-0.3-1.2-0.3h-1.6v2.5H202.5
			L202.5,326.4z"/>
	</g>
	<g>
		<path class="st3" d="M211.5,319.8c0.5,0,0.9,0.1,1.2,0.2c0.4,0.1,0.6,0.3,0.9,0.5c0.2,0.2,0.4,0.5,0.5,0.7s0.2,0.6,0.2,1
			s-0.1,0.7-0.2,1c-0.1,0.3-0.3,0.5-0.5,0.8s-0.5,0.4-0.9,0.5c-0.4,0.1-0.8,0.2-1.2,0.2h-1.2v2.8h-1.1v-7.5L211.5,319.8L211.5,319.8
			z M211.5,323.7c0.3,0,0.5,0,0.7-0.1s0.4-0.2,0.5-0.3s0.2-0.3,0.3-0.5c0.1-0.2,0.1-0.4,0.1-0.6c0-0.5-0.1-0.8-0.4-1.1
			c-0.3-0.3-0.7-0.4-1.3-0.4h-1.2v3H211.5L211.5,323.7z"/>
	</g>
	<g>
		<path class="st3" d="M216.3,323c0.2-0.4,0.4-0.6,0.6-0.8c0.2-0.2,0.5-0.3,0.9-0.3c0.1,0,0.2,0,0.3,0c0.1,0,0.2,0.1,0.3,0.1
			l-0.1,0.8c0,0.1-0.1,0.1-0.2,0.1c-0.1,0-0.1,0-0.2,0c-0.1,0-0.2,0-0.3,0c-0.2,0-0.3,0-0.4,0.1c-0.1,0-0.2,0.1-0.3,0.2
			c-0.1,0.1-0.2,0.2-0.3,0.3c-0.1,0.1-0.1,0.3-0.2,0.5v3.3h-1V322h0.6c0.1,0,0.2,0,0.2,0.1s0.1,0.1,0.1,0.2L216.3,323L216.3,323z"/>
	</g>
	<g>
		<path class="st3" d="M220.4,320.4c0,0.1,0,0.2-0.1,0.3c0,0.1-0.1,0.2-0.1,0.2S220,321,220,321s-0.2,0-0.3,0s-0.2,0-0.3,0
			c-0.1,0-0.2-0.1-0.2-0.1s-0.1-0.1-0.1-0.2s-0.1-0.2-0.1-0.3s0-0.2,0.1-0.3s0.1-0.2,0.1-0.2s0.1-0.1,0.2-0.1s0.2,0,0.3,0
			s0.2,0,0.3,0c0.1,0,0.2,0.1,0.2,0.1s0.1,0.1,0.1,0.2C220.4,320.2,220.4,320.3,220.4,320.4z M220.2,322v5.3h-1V322H220.2z"/>
	</g>
	<g>
		<path class="st3" d="M226.3,322l-2.1,5.3h-0.9l-2.1-5.3h0.8c0.1,0,0.1,0,0.2,0.1s0.1,0.1,0.1,0.1l1.3,3.3c0.1,0.1,0.1,0.3,0.1,0.4
			c0,0.1,0.1,0.3,0.1,0.4c0-0.1,0.1-0.3,0.1-0.4c0-0.1,0.1-0.3,0.1-0.4l1.3-3.3c0-0.1,0.1-0.1,0.1-0.1s0.1-0.1,0.2-0.1L226.3,322
			L226.3,322z"/>
	</g>
	<g>
		<path class="st3" d="M226.9,322.8c0.3-0.3,0.6-0.5,1-0.6c0.4-0.1,0.7-0.2,1.1-0.2c0.3,0,0.6,0,0.8,0.1s0.4,0.2,0.6,0.4
			c0.2,0.2,0.3,0.4,0.4,0.6s0.1,0.5,0.1,0.8v3.4h-0.4c-0.1,0-0.2,0-0.2,0s-0.1-0.1-0.1-0.2l-0.1-0.5c-0.1,0.1-0.3,0.2-0.4,0.3
			c-0.1,0.1-0.3,0.2-0.4,0.2c-0.1,0.1-0.3,0.1-0.5,0.1c-0.2,0-0.4,0-0.5,0c-0.2,0-0.4,0-0.6-0.1c-0.2-0.1-0.3-0.1-0.5-0.3
			s-0.2-0.3-0.3-0.4s-0.1-0.4-0.1-0.6c0-0.2,0.1-0.4,0.2-0.6s0.3-0.4,0.6-0.5c0.3-0.1,0.6-0.3,1-0.4s0.9-0.1,1.5-0.2v-0.4
			c0-0.4-0.1-0.7-0.3-0.9s-0.4-0.3-0.8-0.3c-0.2,0-0.4,0-0.6,0.1c-0.1,0.1-0.3,0.1-0.4,0.2c-0.1,0.1-0.2,0.1-0.3,0.2
			s-0.2,0.1-0.2,0.1c-0.1,0-0.1,0-0.2-0.1s-0.1-0.1-0.1-0.1L226.9,322.8L226.9,322.8z M229.9,325c-0.4,0-0.8,0-1.1,0.1
			c-0.3,0-0.5,0.1-0.7,0.2c-0.2,0.1-0.3,0.2-0.4,0.3s-0.1,0.2-0.1,0.4s0,0.2,0.1,0.3c0,0.1,0.1,0.2,0.2,0.2c0.1,0.1,0.2,0.1,0.3,0.1
			c0.1,0,0.2,0,0.3,0c0.2,0,0.3,0,0.4,0s0.2-0.1,0.4-0.1c0.1-0.1,0.2-0.1,0.3-0.2c0.1-0.1,0.2-0.2,0.3-0.3L229.9,325L229.9,325z"/>
	</g>
	<g>
		<path class="st3" d="M234,327.4c-0.4,0-0.8-0.1-1-0.4s-0.4-0.6-0.4-1v-3.2H232c-0.1,0-0.1,0-0.1-0.1s-0.1-0.1-0.1-0.2v-0.4
			l0.9-0.1l0.2-1.6c0-0.1,0-0.1,0.1-0.1c0,0,0.1,0,0.1,0h0.5v1.8h1.5v0.7h-1.5v3.1c0,0.2,0.1,0.4,0.1,0.5s0.2,0.1,0.4,0.1
			c0.1,0,0.2,0,0.2,0s0.1,0,0.2-0.1s0.1-0.1,0.1-0.1c0,0,0.1,0,0.1,0c0,0,0.1,0,0.1,0s0,0,0.1,0.1l0.3,0.5c-0.2,0.1-0.4,0.3-0.6,0.4
			C234.4,327.4,234.2,327.4,234,327.4L234,327.4z"/>
	</g>
	<g>
		<path class="st3" d="M240.4,326.6c-0.1,0.1-0.3,0.3-0.4,0.4c-0.2,0.1-0.3,0.2-0.5,0.3c-0.2,0.1-0.4,0.1-0.6,0.1s-0.4,0-0.6,0
			c-0.4,0-0.7-0.1-1-0.2c-0.3-0.1-0.6-0.3-0.8-0.5c-0.2-0.2-0.4-0.5-0.5-0.9c-0.1-0.4-0.2-0.8-0.2-1.2c0-0.4,0.1-0.7,0.2-1
			c0.1-0.3,0.3-0.6,0.5-0.8c0.2-0.2,0.5-0.4,0.8-0.6c0.3-0.1,0.7-0.2,1-0.2c0.3,0,0.6,0,0.9,0.2c0.3,0.1,0.5,0.3,0.7,0.5
			c0.2,0.2,0.4,0.5,0.5,0.8c0.1,0.3,0.2,0.6,0.2,1c0,0.2,0,0.3-0.1,0.3c0,0-0.1,0.1-0.2,0.1h-3.5c0,0.3,0.1,0.6,0.1,0.8
			c0.1,0.2,0.2,0.4,0.3,0.6s0.3,0.3,0.5,0.4c0.2,0.1,0.4,0.1,0.6,0.1c0.2,0,0.4,0,0.6-0.1s0.3-0.1,0.4-0.2c0.1-0.1,0.2-0.1,0.3-0.2
			c0.1,0,0.1-0.1,0.2-0.1c0.1,0,0.1,0,0.2,0.1L240.4,326.6L240.4,326.6z M239.6,324.1c0-0.2,0-0.4-0.1-0.6c-0.1-0.2-0.1-0.3-0.2-0.4
			s-0.2-0.2-0.4-0.3s-0.4-0.1-0.6-0.1c-0.4,0-0.8,0.1-1,0.4s-0.4,0.6-0.5,1L239.6,324.1L239.6,324.1z"/>
	</g>
	<g>
		<path class="st3" d="M248.8,326.4v0.9h-4.3v-7.5h1.1v6.6L248.8,326.4L248.8,326.4z"/>
	</g>
	<g>
		<path class="st3" d="M254.1,326.4c0.1,0,0.2,0,0.3,0.1s0.1,0.1,0.1,0.2v0.6h-5V327c0-0.1,0-0.1,0-0.2s0.1-0.1,0.1-0.2l2.4-2.4
			c0.2-0.2,0.4-0.4,0.5-0.6s0.3-0.4,0.4-0.5s0.2-0.4,0.3-0.6s0.1-0.4,0.1-0.6s0-0.4-0.1-0.5c-0.1-0.2-0.2-0.3-0.3-0.4
			s-0.2-0.2-0.4-0.2c-0.2,0-0.3-0.1-0.5-0.1s-0.4,0-0.5,0.1s-0.3,0.1-0.4,0.2s-0.2,0.2-0.3,0.3s-0.1,0.3-0.2,0.4
			c-0.1,0.1-0.1,0.2-0.2,0.3s-0.2,0.1-0.3,0l-0.5-0.1c0.1-0.4,0.1-0.6,0.3-0.9c0.1-0.3,0.3-0.5,0.5-0.7c0.2-0.2,0.5-0.3,0.7-0.4
			c0.3-0.1,0.6-0.1,0.9-0.1s0.6,0,0.9,0.1s0.5,0.2,0.7,0.4c0.2,0.2,0.4,0.4,0.5,0.7c0.1,0.3,0.2,0.5,0.2,0.9c0,0.3,0,0.5-0.1,0.8
			s-0.2,0.5-0.3,0.7s-0.3,0.4-0.5,0.6c-0.2,0.2-0.4,0.4-0.6,0.6l-1.9,1.9c0.1,0,0.3-0.1,0.4-0.1c0.1,0,0.3,0,0.4,0H254.1
			L254.1,326.4z"/>
	</g>
	<g>
		<path class="st3" d="M263.2,326.4v0.9h-4.6v-7.5h4.6v0.9h-3.5v2.4h2.8v0.9h-2.8v2.4L263.2,326.4L263.2,326.4z"/>
	</g>
	<g>
		<path class="st3" d="M269.8,325.7c0.1,0,0.1,0,0.2,0.1l0.4,0.5c-0.3,0.4-0.7,0.6-1.1,0.8c-0.4,0.2-1,0.3-1.6,0.3
			c-0.5,0-1-0.1-1.5-0.3s-0.8-0.5-1.1-0.8s-0.5-0.7-0.7-1.2s-0.3-1-0.3-1.5s0.1-1.1,0.3-1.5s0.4-0.9,0.8-1.2s0.7-0.6,1.2-0.8
			s1-0.3,1.5-0.3s1,0.1,1.4,0.3s0.8,0.4,1.1,0.7l-0.4,0.5c0,0,0,0.1-0.1,0.1s-0.1,0-0.1,0c-0.1,0-0.1,0-0.2-0.1s-0.2-0.1-0.4-0.2
			s-0.3-0.2-0.5-0.2c-0.2-0.1-0.5-0.1-0.8-0.1c-0.4,0-0.7,0.1-1,0.2s-0.6,0.3-0.8,0.6c-0.2,0.2-0.4,0.5-0.5,0.9
			c-0.1,0.4-0.2,0.8-0.2,1.2s0.1,0.9,0.2,1.2c0.1,0.4,0.3,0.7,0.5,0.9s0.5,0.4,0.8,0.6c0.3,0.1,0.6,0.2,1,0.2c0.2,0,0.4,0,0.6,0
			c0.2,0,0.3-0.1,0.5-0.1s0.3-0.1,0.4-0.2s0.3-0.2,0.4-0.3c0,0,0.1,0,0.1-0.1S269.7,325.7,269.8,325.7L269.8,325.7z"/>
	</g>
	<g>
		<path class="st3" d="M276.7,325.7c0.1,0,0.1,0,0.2,0.1l0.4,0.5c-0.3,0.4-0.7,0.6-1.1,0.8c-0.4,0.2-1,0.3-1.6,0.3
			c-0.5,0-1-0.1-1.5-0.3s-0.8-0.5-1.1-0.8s-0.5-0.7-0.7-1.2s-0.3-1-0.3-1.5s0.1-1.1,0.3-1.5s0.4-0.9,0.8-1.2s0.7-0.6,1.2-0.8
			s1-0.3,1.5-0.3s1,0.1,1.4,0.3s0.8,0.4,1.1,0.7l-0.4,0.5c0,0,0,0.1-0.1,0.1s-0.1,0-0.1,0c-0.1,0-0.1,0-0.2-0.1s-0.2-0.1-0.4-0.2
			s-0.3-0.2-0.5-0.2c-0.2-0.1-0.5-0.1-0.8-0.1c-0.4,0-0.7,0.1-1,0.2s-0.6,0.3-0.8,0.6c-0.2,0.2-0.4,0.5-0.5,0.9
			c-0.1,0.4-0.2,0.8-0.2,1.2s0.1,0.9,0.2,1.2c0.1,0.4,0.3,0.7,0.5,0.9c0.2,0.2,0.5,0.4,0.8,0.6c0.3,0.1,0.6,0.2,1,0.2
			c0.2,0,0.4,0,0.6,0s0.3-0.1,0.5-0.1c0.1,0,0.3-0.1,0.4-0.2s0.3-0.2,0.4-0.3c0,0,0.1,0,0.1-0.1S276.7,325.7,276.7,325.7
			L276.7,325.7z"/>
	</g>
</g>
<g>
	<rect x="29.8" y="94.7" class="st4" width="170.3" height="139.5"/>
</g>
<g>
	<path class="st3" d="M347.2,134.4H206.5V94.1h140.7V134.4z M207.7,133.2H346V95.3H207.7V133.2z"/>
</g>
<g>
	<path class="st3" d="M347.2,184.6H206.5v-40.3h140.7V184.6z M207.7,183.4H346v-37.9H207.7V183.4z"/>
</g>
<g>
	<path class="st3" d="M347.2,234.9H206.5v-40.3h140.7V234.9z M207.7,233.7H346v-37.9H207.7V233.7z"/>
</g>
<g>
	<path class="st3" d="M185.6,294.4H29.8v-40.3h155.8V294.4z M31,293.2h153.4v-37.9H31V293.2z"/>
</g>
<g>
	<path class="st3" d="M347.2,294.4H191.4v-40.3h155.8V294.4z M192.6,293.2H346v-37.9H192.6V293.2z"/>
</g>
<g>
	<path class="st3" d="M347.2,345H29.8v-40.3h317.4V345z M31,343.9h315V306H31V343.9z"/>
</g>
<g>
	<g>
		<path class="st3" d="M87.3,168.5H86c-0.2,0-0.3,0-0.4-0.1c-0.1-0.1-0.2-0.2-0.2-0.3l-1-2.7h-5.1l-1,2.7c0,0.1-0.1,0.2-0.2,0.3
			c-0.1,0.1-0.2,0.1-0.4,0.1h-1.3l4.6-11.5h1.7L87.3,168.5L87.3,168.5z M84,164.3l-1.7-4.5c-0.1-0.3-0.2-0.7-0.4-1.1
			c-0.1,0.2-0.1,0.4-0.2,0.6s-0.1,0.4-0.2,0.5l-1.7,4.4H84z"/>
	</g>
	<g>
		<path class="st3" d="M89.9,162c0.3-0.5,0.6-0.9,0.9-1.3c0.4-0.3,0.8-0.5,1.3-0.5c0.2,0,0.3,0,0.5,0.1s0.3,0.1,0.4,0.2l-0.1,1.2
			c0,0.1-0.1,0.2-0.3,0.2c-0.1,0-0.2,0-0.3,0s-0.3,0-0.5,0c-0.2,0-0.5,0-0.7,0.1s-0.4,0.2-0.5,0.3c-0.2,0.1-0.3,0.3-0.4,0.5
			s-0.2,0.4-0.3,0.7v5.1h-1.6v-8.1h0.9c0.2,0,0.3,0,0.3,0.1s0.1,0.2,0.1,0.3L89.9,162L89.9,162z"/>
	</g>
	<g>
		<path class="st3" d="M94.3,168.5v-8.1h0.9c0.2,0,0.3,0.1,0.4,0.3l0.1,0.8c0.3-0.4,0.6-0.6,1-0.9s0.8-0.3,1.3-0.3
			c0.5,0,1,0.1,1.3,0.4c0.3,0.3,0.6,0.7,0.7,1.2c0.1-0.3,0.3-0.5,0.5-0.7c0.2-0.2,0.4-0.4,0.6-0.5c0.2-0.1,0.5-0.2,0.7-0.3
			c0.3-0.1,0.5-0.1,0.8-0.1c0.4,0,0.8,0.1,1.2,0.2c0.3,0.1,0.6,0.3,0.9,0.6c0.2,0.3,0.4,0.6,0.5,1c0.1,0.4,0.2,0.8,0.2,1.3v5.2h-1.6
			v-5.2c0-0.6-0.1-1.1-0.4-1.4c-0.3-0.3-0.7-0.5-1.2-0.5c-0.2,0-0.4,0-0.6,0.1s-0.4,0.2-0.5,0.4c-0.2,0.1-0.3,0.4-0.4,0.6
			c-0.1,0.2-0.1,0.5-0.1,0.8v5.2h-1.6v-5.2c0-0.6-0.1-1.1-0.4-1.4c-0.2-0.3-0.6-0.4-1.1-0.4c-0.3,0-0.7,0.1-0.9,0.3
			s-0.6,0.4-0.8,0.7v6L94.3,168.5L94.3,168.5z"/>
	</g>
	<g>
		<path class="st3" d="M114.6,160.4l-3.3,8.1h-1.4l-3.3-8.1h1.3c0.1,0,0.2,0,0.3,0.1s0.1,0.1,0.2,0.2l1.9,5c0.1,0.2,0.1,0.4,0.2,0.6
			s0.1,0.4,0.1,0.6c0-0.2,0.1-0.4,0.1-0.6s0.1-0.4,0.2-0.6l2-5c0-0.1,0.1-0.2,0.2-0.2s0.2-0.1,0.3-0.1H114.6L114.6,160.4z"/>
	</g>
	<g>
		<path class="st3" d="M120.3,164c0.2-0.3,0.4-0.5,0.6-0.8c-0.3,0.2-0.6,0.4-1,0.5c-0.3,0.1-0.7,0.2-1.1,0.2c-0.4,0-0.8-0.1-1.2-0.2
			c-0.4-0.1-0.7-0.4-1-0.6c-0.3-0.3-0.5-0.6-0.7-1c-0.2-0.4-0.3-0.9-0.3-1.4c0-0.5,0.1-1,0.3-1.4c0.2-0.4,0.4-0.8,0.8-1.2
			c0.3-0.3,0.7-0.6,1.2-0.8s1-0.3,1.6-0.3s1.1,0.1,1.5,0.3c0.5,0.2,0.8,0.4,1.2,0.8c0.3,0.3,0.6,0.7,0.7,1.2c0.2,0.5,0.3,1,0.3,1.5
			c0,0.3,0,0.7-0.1,1s-0.2,0.6-0.3,0.9s-0.2,0.6-0.4,0.9c-0.2,0.3-0.3,0.6-0.6,0.9l-2.8,4c-0.1,0.1-0.2,0.2-0.3,0.3
			s-0.3,0.1-0.5,0.1h-1.4L120.3,164L120.3,164z M117.1,160.4c0,0.7,0.2,1.3,0.6,1.6c0.4,0.4,0.9,0.6,1.6,0.6c0.4,0,0.7-0.1,1-0.2
			c0.3-0.1,0.5-0.3,0.7-0.5c0.2-0.2,0.3-0.4,0.4-0.7c0.1-0.3,0.2-0.5,0.2-0.8c0-0.4-0.1-0.7-0.2-0.9s-0.3-0.5-0.5-0.7
			s-0.4-0.3-0.7-0.4c-0.3-0.1-0.6-0.2-0.9-0.2s-0.6,0.1-0.9,0.2s-0.5,0.3-0.7,0.5s-0.3,0.4-0.5,0.7S117.1,160.1,117.1,160.4
			L117.1,160.4z"/>
	</g>
	<g>
		<path class="st3" d="M124.9,167.6c0-0.1,0-0.3,0.1-0.4s0.1-0.2,0.2-0.3c0.1-0.1,0.2-0.2,0.3-0.2c0.1-0.1,0.3-0.1,0.4-0.1
			s0.3,0,0.4,0.1c0.1,0.1,0.2,0.1,0.3,0.2s0.2,0.2,0.2,0.3c0.1,0.1,0.1,0.3,0.1,0.4s0,0.3-0.1,0.4c-0.1,0.1-0.1,0.2-0.2,0.3
			c-0.1,0.1-0.2,0.2-0.3,0.2s-0.3,0.1-0.4,0.1s-0.3,0-0.4-0.1s-0.2-0.1-0.3-0.2c-0.1-0.1-0.2-0.2-0.2-0.3
			C124.9,167.9,124.9,167.8,124.9,167.6z"/>
	</g>
	<g>
		<path class="st3" d="M136.6,162.8c0,1-0.1,1.9-0.3,2.6c-0.2,0.7-0.5,1.3-0.9,1.8c-0.4,0.5-0.8,0.8-1.3,1.1s-1.1,0.4-1.6,0.4
			s-1.1-0.1-1.6-0.4c-0.5-0.2-0.9-0.6-1.3-1.1c-0.4-0.5-0.7-1.1-0.9-1.8s-0.3-1.6-0.3-2.6s0.1-1.9,0.3-2.6s0.5-1.4,0.9-1.8
			c0.4-0.5,0.8-0.8,1.3-1.1c0.5-0.2,1.1-0.4,1.6-0.4s1.1,0.1,1.6,0.4c0.5,0.2,0.9,0.6,1.3,1.1c0.4,0.5,0.7,1.1,0.9,1.8
			S136.6,161.8,136.6,162.8z M135,162.8c0-0.9-0.1-1.6-0.2-2.2s-0.3-1.1-0.6-1.4c-0.2-0.4-0.5-0.6-0.8-0.8c-0.3-0.1-0.6-0.2-1-0.2
			s-0.7,0.1-1,0.2s-0.6,0.4-0.8,0.8s-0.4,0.8-0.6,1.4s-0.2,1.3-0.2,2.2s0.1,1.6,0.2,2.2s0.3,1.1,0.6,1.4c0.2,0.4,0.5,0.6,0.8,0.8
			c0.3,0.1,0.6,0.2,1,0.2s0.7-0.1,1-0.2s0.6-0.4,0.8-0.8s0.4-0.8,0.6-1.4C134.9,164.4,135,163.7,135,162.8z"/>
	</g>
	<g>
		<path class="st3" d="M138.1,163.1h4v1.3h-4V163.1z"/>
	</g>
	<g>
		<path class="st3" d="M153.9,168.5h-1.3c-0.1,0-0.3,0-0.4-0.1c-0.1-0.1-0.2-0.2-0.2-0.3l-1-2.7H146l-1,2.7c0,0.1-0.1,0.2-0.2,0.3
			s-0.2,0.1-0.4,0.1H143l4.6-11.5h1.7L153.9,168.5z M150.6,164.3l-1.7-4.5c-0.1-0.3-0.2-0.7-0.4-1.1c-0.1,0.2-0.1,0.4-0.2,0.6
			s-0.1,0.4-0.2,0.5l-1.7,4.4H150.6L150.6,164.3z"/>
	</g>
</g>
</svg>
