<?xml version="1.0" encoding="UTF-8"?>
<!DOCTYPE svg PUBLIC "-//W3C//DTD SVG 1.1//EN" "http://www.w3.org/Graphics/SVG/1.1/DTD/svg11.dtd">
<svg version="1.2" width="86.85mm" height="68.37mm" viewBox="3654 1321 8685 6837" preserveAspectRatio="xMidYMid" fill-rule="evenodd" stroke-width="28.222" stroke-linejoin="round" xmlns="http://www.w3.org/2000/svg" xmlns:ooo="http://xml.openoffice.org/svg/export" xmlns:xlink="http://www.w3.org/1999/xlink" xmlns:presentation="http://sun.com/xmlns/staroffice/presentation" xmlns:smil="http://www.w3.org/2001/SMIL20/" xmlns:anim="urn:oasis:names:tc:opendocument:xmlns:animation:1.0" xml:space="preserve">
 <defs class="EmbeddedBulletChars">
  <g id="bullet-char-template-57356" transform="scale(0.00048828125,-0.00048828125)">
   <path d="M 580,1141 L 1163,571 580,0 -4,571 580,1141 Z"/>
  </g>
  <g id="bullet-char-template-57354" transform="scale(0.00048828125,-0.00048828125)">
   <path d="M 8,1128 L 1137,1128 1137,0 8,0 8,1128 Z"/>
  </g>
  <g id="bullet-char-template-10146" transform="scale(0.00048828125,-0.00048828125)">
   <path d="M 174,0 L 602,739 174,1481 1456,739 174,0 Z M 1358,739 L 309,1346 659,739 1358,739 Z"/>
  </g>
  <g id="bullet-char-template-10132" transform="scale(0.00048828125,-0.00048828125)">
   <path d="M 2015,739 L 1276,0 717,0 1260,543 174,543 174,936 1260,936 717,1481 1274,1481 2015,739 Z"/>
  </g>
  <g id="bullet-char-template-10007" transform="scale(0.00048828125,-0.00048828125)">
   <path d="M 0,-2 C -7,14 -16,27 -25,37 L 356,567 C 262,823 215,952 215,954 215,979 228,992 255,992 264,992 276,990 289,987 310,991 331,999 354,1012 L 381,999 492,748 772,1049 836,1024 860,1049 C 881,1039 901,1025 922,1006 886,937 835,863 770,784 769,783 710,716 594,584 L 774,223 C 774,196 753,168 711,139 L 727,119 C 717,90 699,76 672,76 641,76 570,178 457,381 L 164,-76 C 142,-110 111,-127 72,-127 30,-127 9,-110 8,-76 1,-67 -2,-52 -2,-32 -2,-23 -1,-13 0,-2 Z"/>
  </g>
  <g id="bullet-char-template-10004" transform="scale(0.00048828125,-0.00048828125)">
   <path d="M 285,-33 C 182,-33 111,30 74,156 52,228 41,333 41,471 41,549 55,616 82,672 116,743 169,778 240,778 293,778 328,747 346,684 L 369,508 C 377,444 397,411 428,410 L 1163,1116 C 1174,1127 1196,1133 1229,1133 1271,1133 1292,1118 1292,1087 L 1292,965 C 1292,929 1282,901 1262,881 L 442,47 C 390,-6 338,-33 285,-33 Z"/>
  </g>
  <g id="bullet-char-template-9679" transform="scale(0.00048828125,-0.00048828125)">
   <path d="M 813,0 C 632,0 489,54 383,161 276,268 223,411 223,592 223,773 276,916 383,1023 489,1130 632,1184 813,1184 992,1184 1136,1130 1245,1023 1353,916 1407,772 1407,592 1407,412 1353,268 1245,161 1136,54 992,0 813,0 Z"/>
  </g>
  <g id="bullet-char-template-8226" transform="scale(0.00048828125,-0.00048828125)">
   <path d="M 346,457 C 273,457 209,483 155,535 101,586 74,649 74,723 74,796 101,859 155,911 209,963 273,989 346,989 419,989 480,963 531,910 582,859 608,796 608,723 608,648 583,586 532,535 482,483 420,457 346,457 Z"/>
  </g>
  <g id="bullet-char-template-8211" transform="scale(0.00048828125,-0.00048828125)">
   <path d="M -4,459 L 1135,459 1135,606 -4,606 -4,459 Z"/>
  </g>
  <g id="bullet-char-template-61548" transform="scale(0.00048828125,-0.00048828125)">
   <path d="M 173,740 C 173,903 231,1043 346,1159 462,1274 601,1332 765,1332 928,1332 1067,1274 1183,1159 1299,1043 1357,903 1357,740 1357,577 1299,437 1183,322 1067,206 928,148 765,148 601,148 462,206 346,322 231,437 173,577 173,740 Z"/>
  </g>
 </defs>
 <g class="Page">
  <g class="com.sun.star.drawing.PolyPolygonShape">
   <g id="id3">
    <rect class="BoundingBox" stroke="none" fill="none" x="4132" y="1321" width="7765" height="3126"/>
    <path fill="rgb(255,209,146)" stroke="none" d="M 4147,4431 L 11880,4431 11880,1337 4147,1337 4147,4431 Z"/>
    <path fill="none" stroke="rgb(163,72,4)" stroke-width="30" stroke-linejoin="miter" d="M 4147,4431 L 11880,4431 11880,1337 4147,1337 4147,4431 Z"/>
   </g>
  </g>
  <g class="com.sun.star.drawing.PolyPolygonShape">
   <g id="id4">
    <rect class="BoundingBox" stroke="none" fill="none" x="4441" y="1631" width="2197" height="651"/>
    <path fill="rgb(255,172,172)" stroke="none" d="M 4456,2266 L 6622,2266 6622,1646 4456,1646 4456,2266 Z"/>
    <path fill="none" stroke="rgb(204,31,26)" stroke-width="30" stroke-linejoin="miter" d="M 4456,2266 L 6622,2266 6622,1646 4456,1646 4456,2266 Z"/>
   </g>
  </g>
  <g class="com.sun.star.drawing.PolyPolygonShape">
   <g id="id5">
    <rect class="BoundingBox" stroke="none" fill="none" x="4441" y="2559" width="2197" height="651"/>
    <path fill="rgb(255,172,172)" stroke="none" d="M 4456,3194 L 6622,3194 6622,2574 4456,2574 4456,3194 Z"/>
    <path fill="none" stroke="rgb(204,31,26)" stroke-width="30" stroke-linejoin="miter" d="M 4456,3194 L 6622,3194 6622,2574 4456,2574 4456,3194 Z"/>
   </g>
  </g>
  <g class="com.sun.star.drawing.PolyPolygonShape">
   <g id="id6">
    <rect class="BoundingBox" stroke="none" fill="none" x="4441" y="3487" width="4981" height="651"/>
    <path fill="rgb(255,172,172)" stroke="none" d="M 4456,4121 L 9406,4121 9406,3502 4456,3502 4456,4121 Z"/>
    <path fill="none" stroke="rgb(204,31,26)" stroke-width="30" stroke-linejoin="miter" d="M 4456,4121 L 9406,4121 9406,3502 4456,3502 4456,4121 Z"/>
   </g>
  </g>
  <g class="com.sun.star.drawing.PolyPolygonShape">
   <g id="id7">
    <rect class="BoundingBox" stroke="none" fill="none" x="7225" y="2559" width="2197" height="651"/>
    <path fill="rgb(255,172,172)" stroke="none" d="M 7240,3194 L 9406,3194 9406,2574 7240,2574 7240,3194 Z"/>
    <path fill="none" stroke="rgb(204,31,26)" stroke-width="30" stroke-linejoin="miter" d="M 7240,3194 L 9406,3194 9406,2574 7240,2574 7240,3194 Z"/>
   </g>
  </g>
  <g class="com.sun.star.drawing.PolyPolygonShape">
   <g id="id8">
    <rect class="BoundingBox" stroke="none" fill="none" x="5369" y="5652" width="5290" height="650"/>
    <path fill="rgb(255,172,172)" stroke="none" d="M 5384,6286 L 10643,6286 10643,5667 5384,5667 5384,6286 Z"/>
    <path fill="none" stroke="rgb(204,31,26)" stroke-width="30" stroke-linejoin="miter" d="M 5384,6286 L 10643,6286 10643,5667 5384,5667 5384,6286 Z"/>
   </g>
  </g>
  <g class="com.sun.star.drawing.PolyPolygonShape">
   <g id="id9">
    <rect class="BoundingBox" stroke="none" fill="none" x="5369" y="7508" width="5290" height="650"/>
    <path fill="rgb(255,172,172)" stroke="none" d="M 5384,8142 L 10643,8142 10643,7523 5384,7523 5384,8142 Z"/>
    <path fill="none" stroke="rgb(204,31,26)" stroke-width="30" stroke-linejoin="miter" d="M 5384,8142 L 10643,8142 10643,7523 5384,7523 5384,8142 Z"/>
   </g>
  </g>
  <g class="com.sun.star.drawing.ClosedBezierShape">
   <g id="id10">
    <rect class="BoundingBox" stroke="none" fill="none" x="4732" y="1840" width="150" height="218"/>
    <path fill="rgb(0,0,0)" stroke="none" d="M 4881,1979 L 4881,1841 4858,1841 4858,1980 C 4858,2019 4833,2039 4807,2039 4783,2039 4758,2020 4758,1980 L 4758,1841 4732,1841 4732,1979 C 4732,2023 4766,2057 4807,2057 4848,2057 4881,2023 4881,1979 Z"/>
   </g>
  </g>
  <g class="com.sun.star.drawing.ClosedBezierShape">
   <g id="id11">
    <rect class="BoundingBox" stroke="none" fill="none" x="4922" y="1910" width="101" height="144"/>
    <path fill="rgb(0,0,0)" stroke="none" d="M 5022,2009 C 5022,1993 5011,1983 5010,1982 4998,1971 4990,1970 4975,1967 4958,1964 4945,1961 4945,1946 4945,1927 4966,1927 4970,1927 4980,1927 4995,1929 5013,1939 L 5017,1919 C 5001,1912 4988,1910 4973,1910 4966,1910 4923,1910 4923,1949 4923,1964 4932,1973 4940,1979 4949,1985 4955,1987 4972,1990 4983,1992 5001,1996 5001,2011 5001,2033 4976,2033 4972,2033 4948,2033 4931,2021 4926,2017 L 4922,2039 C 4932,2043 4948,2052 4972,2052 4978,2052 4994,2052 5008,2042 5017,2035 5022,2022 5022,2009 Z"/>
   </g>
  </g>
  <g class="com.sun.star.drawing.ClosedBezierShape">
   <g id="id12">
    <rect class="BoundingBox" stroke="none" fill="none" x="5041" y="1910" width="115" height="144"/>
    <path fill="rgb(0,0,0)" stroke="none" d="M 5155,1982 C 5155,1971 5155,1949 5143,1932 5130,1913 5111,1910 5101,1910 5068,1910 5041,1941 5041,1979 5041,2019 5069,2052 5105,2052 5124,2052 5141,2045 5154,2036 L 5152,2016 C 5132,2032 5112,2033 5105,2033 5082,2033 5063,2011 5062,1982 L 5155,1982 Z M 5137,1965 L 5063,1965 C 5068,1943 5084,1928 5101,1928 5116,1928 5133,1938 5137,1965 Z"/>
   </g>
  </g>
  <g class="com.sun.star.drawing.ClosedBezierShape">
   <g id="id13">
    <rect class="BoundingBox" stroke="none" fill="none" x="5190" y="1912" width="76" height="138"/>
    <path fill="rgb(0,0,0)" stroke="none" d="M 5264,1932 L 5264,1912 C 5237,1913 5221,1927 5211,1941 L 5211,1914 5190,1914 5190,2049 5212,2049 5212,1985 C 5212,1955 5235,1933 5264,1932 Z"/>
   </g>
  </g>
  <g class="com.sun.star.drawing.ClosedBezierShape">
   <g id="id14">
    <rect class="BoundingBox" stroke="none" fill="none" x="5387" y="1910" width="109" height="144"/>
    <path fill="rgb(0,0,0)" stroke="none" d="M 5495,2048 L 5495,1961 C 5495,1931 5473,1910 5446,1910 5426,1910 5413,1915 5398,1923 L 5399,1942 C 5416,1931 5431,1927 5446,1927 5460,1927 5472,1939 5472,1962 L 5472,1974 C 5427,1975 5388,1988 5388,2014 5388,2027 5396,2052 5423,2052 5427,2052 5455,2051 5472,2038 L 5472,2048 5495,2048 Z M 5472,2008 C 5472,2014 5472,2021 5461,2027 5453,2033 5441,2033 5438,2033 5424,2033 5410,2026 5410,2013 5410,1992 5459,1990 5472,1990 L 5472,2008 Z"/>
   </g>
  </g>
  <g class="com.sun.star.drawing.ClosedBezierShape">
   <g id="id15">
    <rect class="BoundingBox" stroke="none" fill="none" x="5542" y="1912" width="122" height="194"/>
    <path fill="rgb(0,0,0)" stroke="none" d="M 5663,1981 C 5663,1946 5644,1912 5615,1912 5596,1912 5579,1919 5565,1930 L 5565,1916 5543,1916 5543,2105 5566,2105 5566,2035 C 5575,2043 5589,2052 5608,2052 5637,2052 5663,2023 5663,1981 Z M 5639,1981 C 5639,2012 5618,2033 5595,2033 5583,2033 5575,2028 5569,2020 5566,2014 5566,2014 5566,2008 L 5566,1949 C 5573,1938 5585,1932 5598,1932 5622,1932 5639,1954 5639,1981 Z"/>
   </g>
  </g>
  <g class="com.sun.star.drawing.ClosedBezierShape">
   <g id="id16">
    <rect class="BoundingBox" stroke="none" fill="none" x="5701" y="1912" width="120" height="194"/>
    <path fill="rgb(0,0,0)" stroke="none" d="M 5820,1981 C 5820,1946 5802,1912 5773,1912 5755,1912 5738,1919 5724,1930 L 5724,1916 5701,1916 5701,2105 5725,2105 5725,2035 C 5734,2043 5747,2052 5765,2052 5794,2052 5820,2023 5820,1981 Z M 5797,1981 C 5797,2012 5776,2033 5753,2033 5742,2033 5734,2028 5728,2020 5725,2014 5725,2014 5725,2008 L 5725,1949 C 5732,1938 5744,1932 5756,1932 5779,1932 5797,1954 5797,1981 Z"/>
   </g>
  </g>
  <g class="com.sun.star.drawing.ClosedBezierShape">
   <g id="id17">
    <rect class="BoundingBox" stroke="none" fill="none" x="5965" y="1841" width="156" height="209"/>
    <path fill="rgb(0,0,0)" stroke="none" d="M 6119,1993 C 6119,1966 6093,1945 6061,1940 6088,1933 6111,1915 6111,1893 6111,1865 6079,1841 6035,1841 L 5965,1841 5965,2049 6043,2049 C 6087,2048 6119,2021 6119,1992 L 6119,1993 Z M 6087,1893 C 6087,1910 6066,1930 6024,1930 L 5989,1930 5989,1857 6027,1857 C 6061,1857 6087,1872 6087,1892 L 6087,1893 Z M 6095,1992 C 6095,2015 6068,2032 6035,2032 L 5989,2032 5989,1949 6033,1949 C 6065,1950 6095,1969 6095,1993 L 6095,1992 Z"/>
   </g>
  </g>
  <g class="com.sun.star.drawing.ClosedBezierShape">
   <g id="id18">
    <rect class="BoundingBox" stroke="none" fill="none" x="7532" y="2802" width="152" height="217"/>
    <path fill="rgb(0,0,0)" stroke="none" d="M 7682,2941 L 7682,2802 7659,2802 7659,2942 C 7659,2981 7634,3001 7608,3001 7583,3001 7559,2982 7559,2942 L 7559,2802 7532,2802 7532,2941 C 7532,2985 7567,3018 7607,3018 7648,3018 7682,2985 7682,2941 Z"/>
   </g>
  </g>
  <g class="com.sun.star.drawing.ClosedBezierShape">
   <g id="id19">
    <rect class="BoundingBox" stroke="none" fill="none" x="7723" y="2871" width="101" height="144"/>
    <path fill="rgb(0,0,0)" stroke="none" d="M 7823,2970 C 7823,2954 7812,2944 7811,2943 7799,2932 7791,2931 7776,2928 7759,2925 7745,2922 7745,2907 7745,2889 7767,2889 7771,2889 7781,2889 7797,2890 7814,2900 L 7818,2881 C 7802,2873 7790,2871 7775,2871 7766,2871 7724,2871 7724,2910 7724,2925 7733,2934 7740,2940 7750,2946 7756,2948 7773,2951 7784,2953 7802,2957 7802,2972 7802,2993 7778,2993 7773,2993 7748,2993 7732,2982 7726,2978 L 7723,2999 C 7732,3003 7749,3013 7774,3013 7779,3013 7796,3013 7808,3002 7818,2995 7823,2983 7823,2970 Z"/>
   </g>
  </g>
  <g class="com.sun.star.drawing.ClosedBezierShape">
   <g id="id20">
    <rect class="BoundingBox" stroke="none" fill="none" x="7841" y="2871" width="116" height="144"/>
    <path fill="rgb(0,0,0)" stroke="none" d="M 7956,2943 C 7956,2933 7955,2910 7944,2893 7931,2874 7913,2871 7902,2871 7869,2871 7841,2902 7841,2941 7841,2980 7871,3013 7907,3013 7926,3013 7943,3005 7954,2996 L 7953,2977 C 7934,2992 7914,2994 7907,2994 7883,2994 7864,2972 7863,2943 L 7956,2943 Z M 7939,2926 L 7865,2926 C 7870,2904 7885,2889 7902,2889 7918,2889 7935,2899 7939,2926 Z"/>
   </g>
  </g>
  <g class="com.sun.star.drawing.ClosedBezierShape">
   <g id="id21">
    <rect class="BoundingBox" stroke="none" fill="none" x="7991" y="2874" width="76" height="137"/>
    <path fill="rgb(0,0,0)" stroke="none" d="M 8065,2894 L 8065,2874 C 8038,2874 8022,2888 8012,2902 L 8012,2875 7991,2875 7991,3010 8014,3010 8014,2946 C 8014,2917 8035,2894 8065,2894 Z"/>
   </g>
  </g>
  <g class="com.sun.star.drawing.ClosedBezierShape">
   <g id="id22">
    <rect class="BoundingBox" stroke="none" fill="none" x="8188" y="2871" width="108" height="144"/>
    <path fill="rgb(0,0,0)" stroke="none" d="M 8295,3009 L 8295,2922 C 8295,2892 8274,2871 8246,2871 8226,2871 8212,2876 8198,2884 L 8200,2904 C 8216,2893 8231,2889 8246,2889 8260,2889 8272,2901 8272,2923 L 8272,2936 C 8226,2936 8188,2949 8188,2975 8188,2988 8197,3013 8223,3013 8227,3013 8256,3012 8273,2998 L 8273,3009 8295,3009 Z M 8272,2969 C 8272,2975 8272,2982 8262,2988 8253,2993 8241,2994 8238,2994 8223,2994 8210,2987 8210,2974 8210,2954 8259,2951 8272,2951 L 8272,2969 Z"/>
   </g>
  </g>
  <g class="com.sun.star.drawing.ClosedBezierShape">
   <g id="id23">
    <rect class="BoundingBox" stroke="none" fill="none" x="8343" y="2874" width="121" height="195"/>
    <path fill="rgb(0,0,0)" stroke="none" d="M 8463,2942 C 8463,2907 8445,2874 8415,2874 8397,2874 8380,2880 8366,2891 L 8366,2877 8344,2877 8344,3067 8367,3067 8367,2996 C 8376,3004 8389,3013 8407,3013 8436,3013 8463,2984 8463,2942 Z M 8440,2942 C 8440,2973 8418,2995 8396,2995 8384,2995 8376,2989 8370,2981 8367,2975 8367,2975 8367,2969 L 8367,2910 C 8374,2899 8386,2893 8399,2893 8421,2893 8440,2915 8440,2942 Z"/>
   </g>
  </g>
  <g class="com.sun.star.drawing.ClosedBezierShape">
   <g id="id24">
    <rect class="BoundingBox" stroke="none" fill="none" x="8501" y="2874" width="121" height="195"/>
    <path fill="rgb(0,0,0)" stroke="none" d="M 8621,2942 C 8621,2907 8602,2874 8574,2874 8556,2874 8537,2880 8524,2891 L 8524,2877 8501,2877 8501,3067 8525,3067 8525,2996 C 8534,3004 8547,3013 8566,3013 8595,3013 8621,2984 8621,2942 Z M 8598,2942 C 8598,2973 8577,2995 8553,2995 8542,2995 8533,2989 8528,2981 8525,2975 8525,2975 8525,2969 L 8525,2910 C 8532,2899 8543,2893 8557,2893 8580,2893 8598,2915 8598,2942 Z"/>
   </g>
  </g>
  <g class="com.sun.star.drawing.ClosedBezierShape">
   <g id="id25">
    <rect class="BoundingBox" stroke="none" fill="none" x="8745" y="2802" width="184" height="209"/>
    <path fill="rgb(0,0,0)" stroke="none" d="M 8928,3010 L 8850,2802 8823,2802 8745,3010 8767,3010 8790,2948 8878,2948 8900,3010 8928,3010 Z M 8871,2931 L 8796,2931 C 8811,2889 8800,2920 8815,2877 8822,2860 8832,2834 8834,2823 8835,2827 8837,2835 8844,2855 L 8871,2931 Z"/>
   </g>
  </g>
  <g class="com.sun.star.drawing.PolyPolygonShape">
   <g id="id26">
    <rect class="BoundingBox" stroke="none" fill="none" x="4936" y="2783" width="123" height="210"/>
    <path fill="rgb(0,0,0)" stroke="none" d="M 5058,2992 L 5058,2972 4977,2973 4962,2973 4962,2783 4936,2783 4936,2992 5058,2992 Z"/>
   </g>
  </g>
  <g class="com.sun.star.drawing.PolyPolygonShape">
   <g id="id27">
    <rect class="BoundingBox" stroke="none" fill="none" x="5094" y="2795" width="30" height="198"/>
    <path fill="rgb(0,0,0)" stroke="none" d="M 5121,2992 L 5121,2859 5097,2859 5097,2992 5121,2992 Z M 5123,2822 L 5123,2795 5095,2795 5095,2822 5123,2822 Z"/>
   </g>
  </g>
  <g class="com.sun.star.drawing.ClosedBezierShape">
   <g id="id28">
    <rect class="BoundingBox" stroke="none" fill="none" x="5170" y="2783" width="121" height="213"/>
    <path fill="rgb(0,0,0)" stroke="none" d="M 5290,2925 C 5290,2888 5270,2856 5240,2856 5229,2856 5210,2859 5192,2874 L 5192,2783 5170,2783 5170,2992 5193,2991 5193,2977 C 5200,2984 5213,2994 5233,2994 5264,2994 5290,2965 5290,2925 Z M 5267,2925 C 5267,2963 5240,2976 5222,2976 5211,2976 5201,2971 5193,2957 L 5193,2892 C 5198,2885 5209,2874 5225,2874 5243,2874 5267,2887 5267,2925 Z"/>
   </g>
  </g>
  <g class="com.sun.star.drawing.ClosedBezierShape">
   <g id="id29">
    <rect class="BoundingBox" stroke="none" fill="none" x="5319" y="2855" width="76" height="138"/>
    <path fill="rgb(0,0,0)" stroke="none" d="M 5393,2875 L 5393,2855 C 5367,2855 5349,2870 5340,2884 L 5340,2857 5319,2857 5319,2992 5342,2992 5342,2928 C 5342,2897 5363,2876 5393,2875 Z"/>
   </g>
  </g>
  <g class="com.sun.star.drawing.ClosedBezierShape">
   <g id="id30">
    <rect class="BoundingBox" stroke="none" fill="none" x="5415" y="2852" width="108" height="143"/>
    <path fill="rgb(0,0,0)" stroke="none" d="M 5522,2991 L 5522,2905 C 5522,2874 5499,2852 5472,2852 5452,2852 5439,2857 5425,2865 L 5427,2886 C 5442,2875 5457,2871 5472,2871 5486,2871 5498,2883 5498,2905 L 5498,2918 C 5453,2919 5415,2931 5415,2957 5415,2970 5423,2994 5449,2994 5453,2994 5481,2994 5499,2980 L 5499,2991 5522,2991 Z M 5498,2952 C 5498,2957 5498,2965 5488,2970 5479,2976 5468,2976 5464,2976 5450,2976 5437,2969 5437,2957 5437,2936 5485,2934 5498,2933 L 5498,2952 Z"/>
   </g>
  </g>
  <g class="com.sun.star.drawing.ClosedBezierShape">
   <g id="id31">
    <rect class="BoundingBox" stroke="none" fill="none" x="5562" y="2855" width="75" height="138"/>
    <path fill="rgb(0,0,0)" stroke="none" d="M 5636,2875 L 5636,2855 C 5609,2855 5593,2870 5583,2884 L 5583,2857 5562,2857 5562,2992 5584,2992 5584,2928 C 5584,2897 5607,2876 5636,2875 Z"/>
   </g>
  </g>
  <g class="com.sun.star.drawing.ClosedBezierShape">
   <g id="id32">
    <rect class="BoundingBox" stroke="none" fill="none" x="5646" y="2858" width="132" height="196"/>
    <path fill="rgb(0,0,0)" stroke="none" d="M 5776,2858 L 5753,2858 C 5714,2953 5714,2967 5714,2974 L 5713,2974 C 5711,2954 5687,2898 5685,2895 L 5669,2858 5646,2858 5705,2991 5693,3019 C 5685,3036 5680,3036 5676,3036 5671,3036 5662,3035 5653,3031 L 5654,3051 C 5661,3052 5669,3053 5676,3053 5686,3052 5698,3049 5711,3018 L 5776,2858 Z"/>
   </g>
  </g>
  <g class="com.sun.star.drawing.ClosedBezierShape">
   <g id="id33">
    <rect class="BoundingBox" stroke="none" fill="none" x="5892" y="2783" width="185" height="210"/>
    <path fill="rgb(0,0,0)" stroke="none" d="M 6076,2992 L 5998,2783 5971,2783 5892,2992 5916,2992 5939,2930 6025,2930 6048,2992 6076,2992 Z M 6019,2914 L 5945,2914 C 5960,2871 5949,2902 5964,2860 5970,2842 5980,2817 5982,2806 5983,2810 5985,2817 5992,2837 L 6019,2914 Z"/>
   </g>
  </g>
  <g class="com.sun.star.drawing.ClosedBezierShape">
   <g id="id34">
    <rect class="BoundingBox" stroke="none" fill="none" x="6274" y="3706" width="158" height="215"/>
    <path fill="rgb(0,0,0)" stroke="none" d="M 6431,3902 L 6429,3882 C 6420,3888 6412,3893 6402,3896 6392,3900 6382,3900 6371,3900 6352,3900 6334,3890 6322,3875 6308,3857 6302,3835 6302,3813 6302,3791 6308,3769 6322,3751 6334,3736 6352,3726 6371,3726 6380,3726 6390,3727 6398,3729 6407,3732 6416,3736 6423,3742 L 6428,3717 C 6419,3714 6409,3711 6400,3708 6391,3706 6381,3706 6371,3706 6345,3706 6321,3718 6303,3738 6285,3758 6274,3785 6274,3813 6274,3840 6285,3867 6303,3888 6321,3907 6345,3919 6371,3919 6382,3919 6392,3919 6402,3916 6413,3913 6422,3908 6431,3902 Z"/>
   </g>
  </g>
  <g class="com.sun.star.drawing.PolyPolygonShape">
   <g id="id35">
    <rect class="BoundingBox" stroke="none" fill="none" x="6575" y="3708" width="25" height="209"/>
    <path fill="rgb(0,0,0)" stroke="none" d="M 6599,3916 L 6599,3708 6575,3708 6575,3916 6599,3916 Z"/>
   </g>
  </g>
  <g class="com.sun.star.drawing.PolyPolygonShape">
   <g id="id36">
    <rect class="BoundingBox" stroke="none" fill="none" x="6645" y="3719" width="30" height="198"/>
    <path fill="rgb(0,0,0)" stroke="none" d="M 6671,3916 L 6671,3782 6648,3782 6648,3916 6671,3916 Z M 6674,3746 L 6674,3720 6646,3720 6646,3746 6674,3746 Z"/>
   </g>
  </g>
  <g class="com.sun.star.drawing.ClosedBezierShape">
   <g id="id37">
    <rect class="BoundingBox" stroke="none" fill="none" x="6721" y="3708" width="121" height="212"/>
    <path fill="rgb(0,0,0)" stroke="none" d="M 6841,3849 C 6841,3812 6820,3780 6792,3780 6780,3780 6761,3783 6743,3797 L 6743,3708 6721,3708 6721,3917 6744,3916 6744,3902 C 6751,3909 6764,3919 6784,3919 6815,3919 6841,3889 6841,3849 Z M 6817,3849 C 6817,3888 6792,3901 6773,3901 6762,3901 6752,3896 6744,3882 L 6744,3816 C 6749,3808 6760,3798 6776,3798 6795,3798 6817,3811 6817,3849 Z"/>
   </g>
  </g>
  <g class="com.sun.star.drawing.ClosedBezierShape">
   <g id="id38">
    <rect class="BoundingBox" stroke="none" fill="none" x="6870" y="3780" width="75" height="137"/>
    <path fill="rgb(0,0,0)" stroke="none" d="M 6944,3800 L 6944,3780 C 6918,3780 6901,3795 6891,3808 L 6891,3781 6870,3781 6870,3916 6892,3916 6892,3853 C 6892,3822 6915,3800 6944,3800 Z"/>
   </g>
  </g>
  <g class="com.sun.star.drawing.ClosedBezierShape">
   <g id="id39">
    <rect class="BoundingBox" stroke="none" fill="none" x="6965" y="3777" width="109" height="143"/>
    <path fill="rgb(0,0,0)" stroke="none" d="M 7073,3916 L 7073,3829 C 7073,3798 7051,3777 7024,3777 7004,3777 6991,3782 6976,3790 L 6978,3810 C 6994,3799 7009,3795 7024,3795 7038,3795 7050,3807 7050,3829 L 7050,3842 C 7005,3842 6966,3856 6966,3882 6966,3895 6974,3919 7001,3919 7005,3919 7033,3918 7051,3905 L 7051,3916 7073,3916 Z M 7050,3876 C 7050,3882 7050,3890 7040,3895 7031,3901 7020,3901 7016,3901 7002,3901 6988,3894 6988,3882 6988,3861 7037,3859 7050,3858 L 7050,3876 Z"/>
   </g>
  </g>
  <g class="com.sun.star.drawing.ClosedBezierShape">
   <g id="id40">
    <rect class="BoundingBox" stroke="none" fill="none" x="7113" y="3780" width="75" height="137"/>
    <path fill="rgb(0,0,0)" stroke="none" d="M 7187,3800 L 7187,3780 C 7160,3780 7144,3795 7135,3808 L 7135,3781 7113,3781 7113,3916 7136,3916 7136,3853 C 7136,3822 7158,3800 7187,3800 Z"/>
   </g>
  </g>
  <g class="com.sun.star.drawing.ClosedBezierShape">
   <g id="id41">
    <rect class="BoundingBox" stroke="none" fill="none" x="7197" y="3781" width="132" height="199"/>
    <path fill="rgb(0,0,0)" stroke="none" d="M 7327,3782 L 7304,3782 C 7265,3879 7265,3893 7264,3899 7262,3879 7239,3824 7237,3821 L 7220,3782 7197,3782 7256,3916 7245,3944 C 7237,3961 7231,3961 7227,3961 7222,3961 7212,3960 7204,3956 L 7205,3976 C 7212,3977 7220,3979 7227,3979 7238,3977 7249,3973 7261,3943 L 7327,3782 Z"/>
   </g>
  </g>
  <g class="com.sun.star.drawing.PolyPolygonShape">
   <g id="id42">
    <rect class="BoundingBox" stroke="none" fill="none" x="7197" y="5870" width="124" height="209"/>
    <path fill="rgb(0,0,0)" stroke="none" d="M 7319,6078 L 7319,6059 7238,6059 7223,6059 7223,5870 7197,5870 7197,6078 7319,6078 Z"/>
   </g>
  </g>
  <g class="com.sun.star.drawing.PolyPolygonShape">
   <g id="id43">
    <rect class="BoundingBox" stroke="none" fill="none" x="7356" y="5881" width="29" height="198"/>
    <path fill="rgb(0,0,0)" stroke="none" d="M 7381,6078 L 7381,5944 7358,5944 7358,6078 7381,6078 Z M 7384,5908 L 7384,5882 7356,5882 7356,5908 7384,5908 Z"/>
   </g>
  </g>
  <g class="com.sun.star.drawing.ClosedBezierShape">
   <g id="id44">
    <rect class="BoundingBox" stroke="none" fill="none" x="7430" y="5942" width="108" height="137"/>
    <path fill="rgb(0,0,0)" stroke="none" d="M 7537,6078 L 7537,5989 C 7537,5969 7533,5942 7495,5942 7469,5942 7454,5962 7452,5964 L 7452,5943 7431,5943 7431,6078 7454,6078 7454,6004 C 7454,5985 7461,5960 7484,5960 7514,5960 7514,5981 7514,5991 L 7514,6078 7537,6078 Z"/>
   </g>
  </g>
  <g class="com.sun.star.drawing.ClosedBezierShape">
   <g id="id45">
    <rect class="BoundingBox" stroke="none" fill="none" x="7588" y="5944" width="108" height="138"/>
    <path fill="rgb(0,0,0)" stroke="none" d="M 7695,6078 L 7695,5944 7672,5944 7672,6032 C 7672,6054 7655,6065 7636,6065 7615,6065 7612,6057 7612,6044 L 7612,5944 7588,5944 7588,6045 C 7588,6067 7595,6081 7621,6081 7637,6081 7658,6076 7673,6063 L 7673,6078 7695,6078 Z"/>
   </g>
  </g>
  <g class="com.sun.star.drawing.PolyPolygonShape">
   <g id="id46">
    <rect class="BoundingBox" stroke="none" fill="none" x="7722" y="5944" width="139" height="135"/>
    <path fill="rgb(0,0,0)" stroke="none" d="M 7860,6078 L 7800,6009 7855,5944 7830,5944 7790,5994 7749,5944 7723,5944 7781,6009 7722,6078 7747,6078 7790,6021 7835,6078 7860,6078 Z"/>
   </g>
  </g>
  <g class="com.sun.star.drawing.PolyPolygonShape">
   <g id="id47">
    <rect class="BoundingBox" stroke="none" fill="none" x="7989" y="5870" width="118" height="209"/>
    <path fill="rgb(0,0,0)" stroke="none" d="M 8106,6078 L 8049,5997 8099,5946 8072,5946 8012,6008 8012,5870 7989,5870 7989,6078 8011,6078 8011,6036 8035,6012 8081,6078 8106,6078 Z"/>
   </g>
  </g>
  <g class="com.sun.star.drawing.ClosedBezierShape">
   <g id="id48">
    <rect class="BoundingBox" stroke="none" fill="none" x="8114" y="5939" width="116" height="143"/>
    <path fill="rgb(0,0,0)" stroke="none" d="M 8229,6012 C 8229,6002 8229,5980 8218,5962 8205,5943 8186,5939 8175,5939 8142,5939 8115,5972 8115,6010 8115,6050 8144,6081 8180,6081 8200,6081 8217,6074 8228,6066 L 8226,6046 C 8208,6062 8187,6063 8180,6063 8156,6063 8137,6041 8136,6012 L 8229,6012 Z M 8212,5995 L 8138,5995 C 8142,5973 8158,5958 8175,5958 8191,5958 8209,5968 8212,5995 Z"/>
   </g>
  </g>
  <g class="com.sun.star.drawing.ClosedBezierShape">
   <g id="id49">
    <rect class="BoundingBox" stroke="none" fill="none" x="8265" y="5942" width="75" height="137"/>
    <path fill="rgb(0,0,0)" stroke="none" d="M 8339,5962 L 8339,5942 C 8312,5942 8296,5957 8285,5970 L 8285,5943 8265,5943 8265,6078 8288,6078 8288,6015 C 8288,5984 8309,5962 8339,5962 Z"/>
   </g>
  </g>
  <g class="com.sun.star.drawing.ClosedBezierShape">
   <g id="id50">
    <rect class="BoundingBox" stroke="none" fill="none" x="8369" y="5942" width="107" height="137"/>
    <path fill="rgb(0,0,0)" stroke="none" d="M 8475,6078 L 8475,5989 C 8475,5969 8471,5942 8433,5942 8406,5942 8392,5962 8390,5964 L 8390,5943 8369,5943 8369,6078 8392,6078 8392,6004 C 8392,5985 8399,5960 8422,5960 8451,5960 8451,5981 8451,5991 L 8451,6078 8475,6078 Z"/>
   </g>
  </g>
  <g class="com.sun.star.drawing.ClosedBezierShape">
   <g id="id51">
    <rect class="BoundingBox" stroke="none" fill="none" x="8512" y="5939" width="116" height="143"/>
    <path fill="rgb(0,0,0)" stroke="none" d="M 8627,6012 C 8627,6002 8626,5980 8615,5962 8602,5943 8584,5939 8573,5939 8540,5939 8512,5972 8512,6010 8512,6050 8542,6081 8578,6081 8597,6081 8614,6074 8625,6066 L 8624,6046 C 8605,6062 8585,6063 8578,6063 8554,6063 8535,6041 8534,6012 L 8627,6012 Z M 8609,5995 L 8536,5995 C 8541,5973 8556,5958 8573,5958 8589,5958 8606,5968 8609,5995 Z"/>
   </g>
  </g>
  <g class="com.sun.star.drawing.PolyPolygonShape">
   <g id="id52">
    <rect class="BoundingBox" stroke="none" fill="none" x="8661" y="5870" width="25" height="209"/>
    <path fill="rgb(0,0,0)" stroke="none" d="M 8685,6078 L 8685,5870 8661,5870 8661,6078 8685,6078 Z"/>
   </g>
  </g>
  <g class="com.sun.star.drawing.PolyPolygonShape">
   <g id="id53">
    <rect class="BoundingBox" stroke="none" fill="none" x="7260" y="7692" width="157" height="209"/>
    <path fill="rgb(0,0,0)" stroke="none" d="M 7416,7900 L 7416,7692 7389,7692 7389,7782 7287,7782 7287,7692 7260,7692 7260,7900 7287,7900 7287,7801 7389,7801 7389,7900 7416,7900 Z"/>
   </g>
  </g>
  <g class="com.sun.star.drawing.ClosedBezierShape">
   <g id="id54">
    <rect class="BoundingBox" stroke="none" fill="none" x="7464" y="7761" width="108" height="143"/>
    <path fill="rgb(0,0,0)" stroke="none" d="M 7571,7899 L 7571,7813 C 7571,7783 7550,7761 7522,7761 7502,7761 7488,7766 7474,7775 L 7476,7795 C 7492,7783 7506,7780 7522,7780 7536,7780 7548,7792 7548,7814 L 7548,7827 C 7502,7827 7464,7840 7464,7866 7464,7879 7472,7903 7498,7903 7503,7903 7532,7902 7549,7889 L 7549,7899 7571,7899 Z M 7548,7860 C 7548,7866 7548,7873 7538,7879 7529,7884 7518,7885 7515,7885 7499,7885 7486,7878 7486,7865 7486,7844 7535,7842 7548,7842 L 7548,7860 Z"/>
   </g>
  </g>
  <g class="com.sun.star.drawing.ClosedBezierShape">
   <g id="id55">
    <rect class="BoundingBox" stroke="none" fill="none" x="7611" y="7764" width="75" height="137"/>
    <path fill="rgb(0,0,0)" stroke="none" d="M 7685,7784 L 7685,7764 C 7659,7764 7642,7778 7633,7792 L 7633,7765 7611,7765 7611,7900 7634,7900 7634,7835 C 7634,7806 7656,7784 7685,7784 Z"/>
   </g>
  </g>
  <g class="com.sun.star.drawing.ClosedBezierShape">
   <g id="id56">
    <rect class="BoundingBox" stroke="none" fill="none" x="7701" y="7692" width="121" height="212"/>
    <path fill="rgb(0,0,0)" stroke="none" d="M 7821,7899 L 7821,7692 7799,7692 7799,7779 C 7783,7767 7766,7764 7755,7764 7725,7764 7702,7795 7702,7833 7702,7873 7725,7903 7754,7903 7764,7903 7781,7900 7798,7884 L 7798,7899 7821,7899 Z M 7798,7859 C 7798,7863 7798,7869 7788,7877 7781,7882 7774,7885 7766,7885 7748,7885 7725,7872 7725,7833 7725,7794 7752,7782 7769,7782 7783,7781 7792,7788 7798,7797 L 7798,7859 Z"/>
   </g>
  </g>
  <g class="com.sun.star.drawing.ClosedBezierShape">
   <g id="id57">
    <rect class="BoundingBox" stroke="none" fill="none" x="7853" y="7765" width="197" height="136"/>
    <path fill="rgb(0,0,0)" stroke="none" d="M 8049,7766 L 8027,7766 8008,7831 C 8005,7841 7996,7871 7994,7884 7993,7875 7985,7848 7980,7831 L 7961,7766 7940,7766 7923,7823 C 7920,7834 7909,7868 7908,7884 7906,7869 7896,7835 7891,7819 L 7875,7766 7853,7766 7894,7900 7918,7900 7937,7838 C 7941,7825 7949,7795 7950,7784 7951,7792 7956,7813 7960,7826 L 7982,7900 8008,7900 8049,7766 Z"/>
   </g>
  </g>
  <g class="com.sun.star.drawing.ClosedBezierShape">
   <g id="id58">
    <rect class="BoundingBox" stroke="none" fill="none" x="8065" y="7761" width="108" height="143"/>
    <path fill="rgb(0,0,0)" stroke="none" d="M 8172,7899 L 8172,7813 C 8172,7783 8150,7761 8121,7761 8102,7761 8089,7766 8075,7775 L 8076,7795 C 8092,7783 8107,7780 8121,7780 8135,7780 8148,7792 8148,7814 L 8148,7827 C 8103,7827 8065,7840 8065,7866 8065,7879 8073,7903 8099,7903 8103,7903 8131,7902 8149,7889 L 8149,7899 8172,7899 Z M 8148,7860 C 8148,7866 8148,7873 8137,7879 8129,7884 8117,7885 8114,7885 8100,7885 8086,7878 8086,7865 8086,7844 8134,7842 8148,7842 L 8148,7860 Z"/>
   </g>
  </g>
  <g class="com.sun.star.drawing.ClosedBezierShape">
   <g id="id59">
    <rect class="BoundingBox" stroke="none" fill="none" x="8211" y="7764" width="76" height="137"/>
    <path fill="rgb(0,0,0)" stroke="none" d="M 8285,7784 L 8285,7764 C 8259,7764 8242,7778 8233,7792 L 8233,7765 8211,7765 8211,7900 8235,7900 8235,7835 C 8235,7806 8256,7784 8285,7784 Z"/>
   </g>
  </g>
  <g class="com.sun.star.drawing.ClosedBezierShape">
   <g id="id60">
    <rect class="BoundingBox" stroke="none" fill="none" x="8302" y="7761" width="115" height="143"/>
    <path fill="rgb(0,0,0)" stroke="none" d="M 8416,7834 C 8416,7824 8415,7801 8404,7784 8392,7764 8373,7761 8363,7761 8329,7761 8302,7793 8302,7832 8302,7871 8331,7903 8367,7903 8386,7903 8403,7896 8414,7887 L 8413,7868 C 8394,7883 8374,7885 8367,7885 8343,7885 8324,7863 8323,7834 L 8416,7834 Z M 8399,7817 L 8325,7817 C 8330,7795 8346,7780 8363,7780 8378,7780 8395,7790 8399,7817 Z"/>
   </g>
  </g>
  <g class="com.sun.star.drawing.LineShape">
   <g id="id61">
    <rect class="BoundingBox" stroke="none" fill="none" x="6562" y="4475" width="45" height="998"/>
    <path fill="none" stroke="rgb(204,31,26)" stroke-width="30" stroke-linejoin="miter" d="M 6591,4476 L 6577,5471"/>
   </g>
  </g>
  <g class="com.sun.star.drawing.PolyPolygonShape">
   <g id="id62">
    <rect class="BoundingBox" stroke="none" fill="none" x="6500" y="5430" width="157" height="158"/>
    <path fill="rgb(204,31,26)" stroke="none" d="M 6576,5587 L 6500,5430 6578,5470 6656,5432 6576,5587 Z"/>
   </g>
  </g>
  <g class="com.sun.star.drawing.PolyPolygonShape">
   <g id="id63">
    <rect class="BoundingBox" stroke="none" fill="none" x="6466" y="5396" width="226" height="226"/>
    <path fill="none" stroke="rgb(204,31,26)" stroke-width="30" stroke-linejoin="miter" d="M 6576,5587 L 6500,5430 6578,5470 6656,5432 6576,5587 Z"/>
   </g>
  </g>
  <g class="com.sun.star.drawing.LineShape">
   <g id="id64">
    <rect class="BoundingBox" stroke="none" fill="none" x="9331" y="4638" width="45" height="998"/>
    <path fill="none" stroke="rgb(204,31,26)" stroke-width="30" stroke-linejoin="miter" d="M 9360,4639 L 9346,5634"/>
   </g>
  </g>
  <g class="com.sun.star.drawing.PolyPolygonShape">
   <g id="id65">
    <rect class="BoundingBox" stroke="none" fill="none" x="9281" y="4523" width="157" height="159"/>
    <path fill="rgb(204,31,26)" stroke="none" d="M 9362,4523 L 9437,4680 9360,4640 9281,4678 9362,4523 Z"/>
   </g>
  </g>
  <g class="com.sun.star.drawing.PolyPolygonShape">
   <g id="id66">
    <rect class="BoundingBox" stroke="none" fill="none" x="9246" y="4489" width="225" height="226"/>
    <path fill="none" stroke="rgb(204,31,26)" stroke-width="30" stroke-linejoin="miter" d="M 9362,4523 L 9437,4680 9360,4640 9281,4678 9362,4523 Z"/>
   </g>
  </g>
  <g class="com.sun.star.drawing.LineShape">
   <g id="id67">
    <rect class="BoundingBox" stroke="none" fill="none" x="6551" y="6340" width="45" height="998"/>
    <path fill="none" stroke="rgb(204,31,26)" stroke-width="30" stroke-linejoin="miter" d="M 6580,6341 L 6566,7336"/>
   </g>
  </g>
  <g class="com.sun.star.drawing.PolyPolygonShape">
   <g id="id68">
    <rect class="BoundingBox" stroke="none" fill="none" x="6489" y="7295" width="156" height="158"/>
    <path fill="rgb(204,31,26)" stroke="none" d="M 6565,7452 L 6489,7295 6567,7335 6644,7298 6565,7452 Z"/>
   </g>
  </g>
  <g class="com.sun.star.drawing.PolyPolygonShape">
   <g id="id69">
    <rect class="BoundingBox" stroke="none" fill="none" x="6455" y="7261" width="224" height="226"/>
    <path fill="none" stroke="rgb(204,31,26)" stroke-width="30" stroke-linejoin="miter" d="M 6565,7452 L 6489,7295 6567,7335 6644,7298 6565,7452 Z"/>
   </g>
  </g>
  <g class="com.sun.star.drawing.LineShape">
   <g id="id70">
    <rect class="BoundingBox" stroke="none" fill="none" x="9321" y="6463" width="45" height="998"/>
    <path fill="none" stroke="rgb(204,31,26)" stroke-width="30" stroke-linejoin="miter" d="M 9350,6464 L 9336,7459"/>
   </g>
  </g>
  <g class="com.sun.star.drawing.PolyPolygonShape">
   <g id="id71">
    <rect class="BoundingBox" stroke="none" fill="none" x="9270" y="6348" width="158" height="159"/>
    <path fill="rgb(204,31,26)" stroke="none" d="M 9352,6348 L 9427,6505 9350,6465 9271,6503 9352,6348 Z"/>
   </g>
  </g>
  <g class="com.sun.star.drawing.PolyPolygonShape">
   <g id="id72">
    <rect class="BoundingBox" stroke="none" fill="none" x="9236" y="6314" width="225" height="226"/>
    <path fill="none" stroke="rgb(204,31,26)" stroke-width="30" stroke-linejoin="miter" d="M 9352,6348 L 9427,6505 9350,6465 9271,6503 9352,6348 Z"/>
   </g>
  </g>
  <g class="com.sun.star.drawing.ClosedBezierShape">
   <g id="id73">
    <rect class="BoundingBox" stroke="none" fill="none" x="4183" y="4872" width="159" height="214"/>
    <path fill="rgb(0,0,0)" stroke="none" d="M 4340,5068 L 4338,5048 C 4330,5054 4321,5059 4311,5062 4301,5066 4291,5066 4281,5066 4260,5066 4243,5056 4230,5041 4217,5023 4210,5001 4210,4978 4210,4956 4217,4934 4230,4916 4243,4901 4260,4891 4281,4891 4290,4891 4299,4892 4307,4894 4316,4897 4325,4901 4333,4907 L 4337,4882 C 4328,4879 4318,4876 4309,4874 4300,4872 4290,4872 4281,4872 4253,4872 4229,4884 4212,4903 4193,4924 4183,4950 4183,4978 4183,5007 4193,5033 4212,5054 4229,5073 4253,5085 4281,5085 4291,5085 4301,5085 4312,5082 4322,5079 4331,5074 4340,5068 Z"/>
   </g>
  </g>
  <g class="com.sun.star.drawing.ClosedBezierShape">
   <g id="id74">
    <rect class="BoundingBox" stroke="none" fill="none" x="4375" y="4943" width="108" height="143"/>
    <path fill="rgb(0,0,0)" stroke="none" d="M 4482,5082 L 4482,4996 C 4482,4964 4459,4943 4431,4943 4412,4943 4398,4948 4384,4956 L 4386,4977 C 4402,4965 4417,4961 4431,4961 4445,4961 4457,4974 4457,4996 L 4457,5009 C 4412,5009 4375,5022 4375,5048 4375,5061 4383,5085 4409,5085 4413,5085 4441,5085 4458,5071 L 4458,5082 4482,5082 Z M 4457,5043 C 4457,5048 4457,5056 4447,5061 4438,5067 4427,5067 4424,5067 4409,5067 4396,5060 4396,5048 4396,5027 4444,5025 4457,5024 L 4457,5043 Z"/>
   </g>
  </g>
  <g class="com.sun.star.drawing.PolyPolygonShape">
   <g id="id75">
    <rect class="BoundingBox" stroke="none" fill="none" x="4528" y="4874" width="26" height="210"/>
    <path fill="rgb(0,0,0)" stroke="none" d="M 4553,5083 L 4553,4874 4529,4874 4529,5083 4553,5083 Z"/>
   </g>
  </g>
  <g class="com.sun.star.drawing.PolyPolygonShape">
   <g id="id76">
    <rect class="BoundingBox" stroke="none" fill="none" x="4602" y="4874" width="24" height="210"/>
    <path fill="rgb(0,0,0)" stroke="none" d="M 4625,5083 L 4625,4874 4602,4874 4602,5083 4625,5083 Z"/>
   </g>
  </g>
  <g class="com.sun.star.drawing.ClosedBezierShape">
   <g id="id77">
    <rect class="BoundingBox" stroke="none" fill="none" x="4758" y="4910" width="96" height="176"/>
    <path fill="rgb(0,0,0)" stroke="none" d="M 4853,5074 L 4848,5056 C 4840,5062 4830,5066 4821,5066 4810,5066 4806,5057 4806,5041 L 4806,4967 4848,4967 4848,4948 4806,4948 4806,4910 4784,4910 4784,4948 4758,4948 4758,4967 4783,4967 4783,5046 C 4783,5064 4787,5085 4809,5085 4830,5085 4845,5078 4853,5074 Z"/>
   </g>
  </g>
  <g class="com.sun.star.drawing.ClosedBezierShape">
   <g id="id78">
    <rect class="BoundingBox" stroke="none" fill="none" x="4872" y="4943" width="134" height="143"/>
    <path fill="rgb(0,0,0)" stroke="none" d="M 5004,5016 C 5004,4976 4974,4943 4939,4943 4901,4943 4872,4977 4872,5016 4872,5056 4902,5085 4938,5085 4974,5085 5004,5055 5004,5016 Z M 4981,5013 C 4981,5048 4960,5066 4938,5066 4918,5066 4895,5049 4895,5013 4895,4977 4919,4962 4938,4962 4959,4962 4981,4978 4981,5013 Z"/>
   </g>
  </g>
  <g class="com.sun.star.drawing.ClosedBezierShape">
   <g id="id79">
    <rect class="BoundingBox" stroke="none" fill="none" x="5126" y="4943" width="101" height="143"/>
    <path fill="rgb(0,0,0)" stroke="none" d="M 5226,5044 C 5226,5027 5215,5017 5215,5016 5203,5006 5194,5004 5179,5001 5163,4998 5149,4995 5149,4980 5149,4961 5170,4961 5174,4961 5184,4961 5201,4962 5218,4973 L 5221,4953 C 5206,4946 5192,4943 5177,4943 5170,4943 5128,4943 5128,4983 5128,4998 5136,5008 5144,5013 5153,5020 5160,5021 5176,5024 5187,5026 5205,5030 5205,5046 5205,5066 5180,5066 5176,5066 5152,5066 5135,5055 5130,5052 L 5126,5072 C 5136,5077 5152,5085 5176,5085 5182,5085 5199,5085 5212,5076 5221,5068 5226,5056 5226,5044 Z"/>
   </g>
  </g>
  <g class="com.sun.star.drawing.ClosedBezierShape">
   <g id="id80">
    <rect class="BoundingBox" stroke="none" fill="none" x="5245" y="4943" width="115" height="143"/>
    <path fill="rgb(0,0,0)" stroke="none" d="M 5359,5016 C 5359,5006 5359,4984 5347,4965 5335,4947 5317,4943 5306,4943 5273,4943 5245,4976 5245,5014 5245,5054 5275,5085 5310,5085 5329,5085 5346,5078 5358,5070 L 5356,5050 C 5337,5066 5318,5067 5311,5067 5287,5067 5268,5046 5267,5016 L 5359,5016 Z M 5342,5000 L 5268,5000 C 5273,4977 5289,4962 5306,4962 5321,4962 5338,4973 5342,5000 Z"/>
   </g>
  </g>
  <g class="com.sun.star.drawing.ClosedBezierShape">
   <g id="id81">
    <rect class="BoundingBox" stroke="none" fill="none" x="5394" y="4946" width="76" height="138"/>
    <path fill="rgb(0,0,0)" stroke="none" d="M 5468,4966 L 5468,4946 C 5442,4946 5424,4961 5415,4974 L 5415,4947 5394,4947 5394,5083 5417,5083 5417,5018 C 5417,4988 5438,4966 5468,4966 Z"/>
   </g>
  </g>
  <g class="com.sun.star.drawing.ClosedBezierShape">
   <g id="id82">
    <rect class="BoundingBox" stroke="none" fill="none" x="5478" y="4948" width="131" height="136"/>
    <path fill="rgb(0,0,0)" stroke="none" d="M 5608,4948 L 5586,4948 5561,5012 C 5555,5028 5546,5053 5543,5067 5541,5056 5533,5035 5530,5027 L 5501,4948 5478,4948 5529,5083 5556,5083 5608,4948 Z"/>
   </g>
  </g>
  <g class="com.sun.star.drawing.PolyPolygonShape">
   <g id="id83">
    <rect class="BoundingBox" stroke="none" fill="none" x="5636" y="4886" width="30" height="198"/>
    <path fill="rgb(0,0,0)" stroke="none" d="M 5662,5083 L 5662,4948 5639,4948 5639,5083 5662,5083 Z M 5665,4913 L 5665,4886 5637,4886 5637,4913 5665,4913 Z"/>
   </g>
  </g>
  <g class="com.sun.star.drawing.ClosedBezierShape">
   <g id="id84">
    <rect class="BoundingBox" stroke="none" fill="none" x="5698" y="4943" width="115" height="143"/>
    <path fill="rgb(0,0,0)" stroke="none" d="M 5812,5070 L 5810,5050 C 5795,5062 5779,5066 5764,5066 5739,5066 5722,5045 5722,5015 5722,4992 5733,4962 5765,4962 5780,4962 5791,4965 5807,4977 L 5811,4956 C 5793,4946 5783,4943 5765,4943 5723,4943 5698,4980 5698,5016 5698,5053 5726,5085 5763,5085 5779,5085 5796,5081 5812,5070 Z"/>
   </g>
  </g>
  <g class="com.sun.star.drawing.ClosedBezierShape">
   <g id="id85">
    <rect class="BoundingBox" stroke="none" fill="none" x="5833" y="4943" width="115" height="143"/>
    <path fill="rgb(0,0,0)" stroke="none" d="M 5947,5016 C 5947,5006 5947,4984 5935,4965 5922,4947 5904,4943 5893,4943 5860,4943 5833,4976 5833,5014 5833,5054 5861,5085 5897,5085 5916,5085 5934,5078 5946,5070 L 5944,5050 C 5924,5066 5904,5067 5898,5067 5874,5067 5855,5046 5854,5016 L 5947,5016 Z M 5929,5000 L 5855,5000 C 5860,4977 5876,4962 5893,4962 5908,4962 5925,4973 5929,5000 Z"/>
   </g>
  </g>
  <g class="com.sun.star.drawing.ClosedBezierShape">
   <g id="id86">
    <rect class="BoundingBox" stroke="none" fill="none" x="5966" y="4943" width="102" height="143"/>
    <path fill="rgb(0,0,0)" stroke="none" d="M 6066,5044 C 6066,5027 6055,5017 6054,5016 6043,5006 6035,5004 6020,5001 6003,4998 5989,4995 5989,4980 5989,4961 6011,4961 6015,4961 6025,4961 6040,4962 6057,4973 L 6061,4953 C 6045,4946 6033,4943 6018,4943 6011,4943 5967,4943 5967,4983 5967,4998 5976,5008 5984,5013 5994,5020 6000,5021 6017,5024 6028,5026 6045,5030 6045,5046 6045,5066 6021,5066 6017,5066 5993,5066 5975,5055 5969,5052 L 5966,5072 C 5975,5077 5993,5085 6017,5085 6022,5085 6039,5085 6052,5076 6061,5068 6066,5056 6066,5044 Z"/>
   </g>
  </g>
  <g class="com.sun.star.drawing.ClosedBezierShape">
   <g id="id87">
    <rect class="BoundingBox" stroke="none" fill="none" x="9558" y="4782" width="139" height="209"/>
    <path fill="rgb(0,0,0)" stroke="none" d="M 9696,4990 L 9696,4969 9658,4969 C 9654,4969 9651,4969 9647,4969 L 9585,4969 9585,4892 9684,4892 9684,4874 9585,4874 9585,4802 9626,4802 C 9629,4802 9633,4802 9637,4802 L 9692,4802 9692,4782 9558,4782 9558,4990 9696,4990 Z"/>
   </g>
  </g>
  <g class="com.sun.star.drawing.ClosedBezierShape">
   <g id="id88">
    <rect class="BoundingBox" stroke="none" fill="none" x="9717" y="4856" width="130" height="135"/>
    <path fill="rgb(0,0,0)" stroke="none" d="M 9846,4856 L 9824,4856 9801,4918 C 9794,4934 9784,4959 9782,4973 L 9781,4973 C 9780,4962 9772,4941 9769,4933 L 9740,4856 9717,4856 9768,4990 9795,4990 9846,4856 Z"/>
   </g>
  </g>
  <g class="com.sun.star.drawing.ClosedBezierShape">
   <g id="id89">
    <rect class="BoundingBox" stroke="none" fill="none" x="9863" y="4850" width="116" height="143"/>
    <path fill="rgb(0,0,0)" stroke="none" d="M 9978,4922 C 9978,4912 9977,4890 9966,4872 9953,4854 9935,4850 9924,4850 9891,4850 9863,4882 9863,4920 9863,4960 9893,4992 9929,4992 9948,4992 9965,4985 9976,4977 L 9975,4956 C 9956,4973 9936,4974 9929,4974 9905,4974 9885,4952 9884,4922 L 9978,4922 Z M 9961,4906 L 9886,4906 C 9892,4883 9907,4869 9924,4869 9940,4869 9957,4879 9961,4906 Z"/>
   </g>
  </g>
  <g class="com.sun.star.drawing.ClosedBezierShape">
   <g id="id90">
    <rect class="BoundingBox" stroke="none" fill="none" x="10011" y="4853" width="109" height="138"/>
    <path fill="rgb(0,0,0)" stroke="none" d="M 10119,4990 L 10119,4900 C 10119,4880 10115,4853 10078,4853 10051,4853 10037,4873 10035,4876 L 10035,4855 10012,4855 10012,4990 10037,4990 10037,4916 C 10037,4896 10044,4871 10067,4871 10095,4871 10096,4892 10096,4902 L 10096,4990 10119,4990 Z"/>
   </g>
  </g>
  <g class="com.sun.star.drawing.ClosedBezierShape">
   <g id="id91">
    <rect class="BoundingBox" stroke="none" fill="none" x="10151" y="4817" width="96" height="176"/>
    <path fill="rgb(0,0,0)" stroke="none" d="M 10246,4981 L 10241,4963 C 10233,4970 10224,4973 10214,4973 10203,4973 10199,4964 10199,4947 L 10199,4873 10241,4873 10241,4856 10199,4856 10199,4817 10177,4817 10177,4856 10151,4856 10151,4873 10176,4873 10176,4953 C 10176,4971 10181,4992 10202,4992 10223,4992 10238,4985 10246,4981 Z"/>
   </g>
  </g>
  <g class="com.sun.star.drawing.ClosedBezierShape">
   <g id="id92">
    <rect class="BoundingBox" stroke="none" fill="none" x="10381" y="4853" width="109" height="138"/>
    <path fill="rgb(0,0,0)" stroke="none" d="M 10489,4990 L 10489,4900 C 10489,4880 10485,4853 10447,4853 10420,4853 10406,4873 10404,4876 L 10404,4855 10382,4855 10382,4990 10406,4990 10406,4916 C 10406,4896 10413,4871 10436,4871 10465,4871 10466,4892 10466,4902 L 10466,4990 10489,4990 Z"/>
   </g>
  </g>
  <g class="com.sun.star.drawing.ClosedBezierShape">
   <g id="id93">
    <rect class="BoundingBox" stroke="none" fill="none" x="10525" y="4850" width="133" height="143"/>
    <path fill="rgb(0,0,0)" stroke="none" d="M 10657,4922 C 10657,4882 10627,4850 10591,4850 10555,4850 10525,4883 10525,4922 10525,4962 10556,4992 10591,4992 10627,4992 10657,4961 10657,4922 Z M 10633,4919 C 10633,4955 10613,4973 10591,4973 10570,4973 10549,4955 10549,4919 10549,4883 10572,4869 10591,4869 10612,4869 10633,4884 10633,4919 Z"/>
   </g>
  </g>
  <g class="com.sun.star.drawing.ClosedBezierShape">
   <g id="id94">
    <rect class="BoundingBox" stroke="none" fill="none" x="10674" y="4817" width="96" height="176"/>
    <path fill="rgb(0,0,0)" stroke="none" d="M 10769,4981 L 10764,4963 C 10756,4970 10747,4973 10736,4973 10725,4973 10721,4964 10721,4947 L 10721,4873 10764,4873 10764,4856 10721,4856 10721,4817 10700,4817 10700,4856 10674,4856 10674,4873 10699,4873 10699,4953 C 10699,4971 10704,4992 10724,4992 10746,4992 10761,4985 10769,4981 Z"/>
   </g>
  </g>
  <g class="com.sun.star.drawing.PolyPolygonShape">
   <g id="id95">
    <rect class="BoundingBox" stroke="none" fill="none" x="10802" y="4792" width="28" height="199"/>
    <path fill="rgb(0,0,0)" stroke="none" d="M 10827,4990 L 10827,4856 10804,4856 10804,4990 10827,4990 Z M 10829,4820 L 10829,4793 10802,4793 10802,4820 10829,4820 Z"/>
   </g>
  </g>
  <g class="com.sun.star.drawing.ClosedBezierShape">
   <g id="id96">
    <rect class="BoundingBox" stroke="none" fill="none" x="10860" y="4779" width="130" height="213"/>
    <path fill="rgb(0,0,0)" stroke="none" d="M 10989,4806 L 10989,4781 10964,4781 10964,4806 10989,4806 Z M 10988,4990 L 10988,4856 10966,4856 10966,4990 10988,4990 Z M 10940,4873 L 10940,4856 10903,4856 10903,4820 C 10903,4801 10914,4797 10922,4797 10928,4797 10934,4799 10940,4802 L 10940,4782 C 10938,4782 10930,4779 10922,4779 10900,4779 10882,4799 10882,4829 L 10882,4856 10860,4856 10860,4873 10882,4873 10882,4990 10904,4990 10904,4873 10940,4873 Z"/>
   </g>
  </g>
  <g class="com.sun.star.drawing.ClosedBezierShape">
   <g id="id97">
    <rect class="BoundingBox" stroke="none" fill="none" x="11025" y="4850" width="116" height="143"/>
    <path fill="rgb(0,0,0)" stroke="none" d="M 11140,4977 L 11139,4956 C 11122,4968 11106,4973 11091,4973 11066,4973 11050,4951 11050,4921 11050,4898 11061,4870 11092,4870 11108,4870 11118,4872 11135,4883 L 11139,4863 C 11120,4853 11110,4850 11092,4850 11050,4850 11026,4887 11026,4922 11026,4959 11053,4992 11091,4992 11107,4992 11123,4988 11140,4977 Z"/>
   </g>
  </g>
  <g class="com.sun.star.drawing.ClosedBezierShape">
   <g id="id98">
    <rect class="BoundingBox" stroke="none" fill="none" x="11167" y="4850" width="108" height="143"/>
    <path fill="rgb(0,0,0)" stroke="none" d="M 11274,4989 L 11274,4902 C 11274,4871 11252,4850 11225,4850 11205,4850 11192,4855 11177,4863 L 11179,4883 C 11195,4872 11210,4868 11225,4868 11239,4868 11251,4880 11251,4902 L 11251,4915 C 11206,4916 11167,4928 11167,4954 11167,4967 11175,4992 11202,4992 11206,4992 11234,4992 11251,4978 L 11251,4989 11274,4989 Z M 11251,4949 C 11251,4954 11251,4962 11240,4967 11232,4974 11220,4974 11217,4974 11203,4974 11189,4966 11189,4954 11189,4933 11238,4931 11251,4930 L 11251,4949 Z"/>
   </g>
  </g>
  <g class="com.sun.star.drawing.ClosedBezierShape">
   <g id="id99">
    <rect class="BoundingBox" stroke="none" fill="none" x="11303" y="4817" width="96" height="176"/>
    <path fill="rgb(0,0,0)" stroke="none" d="M 11398,4981 L 11392,4963 C 11384,4970 11375,4973 11365,4973 11354,4973 11350,4964 11350,4947 L 11350,4873 11392,4873 11392,4856 11350,4856 11350,4817 11329,4817 11329,4856 11303,4856 11303,4873 11328,4873 11328,4953 C 11328,4971 11332,4992 11353,4992 11374,4992 11389,4985 11398,4981 Z"/>
   </g>
  </g>
  <g class="com.sun.star.drawing.PolyPolygonShape">
   <g id="id100">
    <rect class="BoundingBox" stroke="none" fill="none" x="11429" y="4792" width="30" height="199"/>
    <path fill="rgb(0,0,0)" stroke="none" d="M 11456,4990 L 11456,4856 11432,4856 11432,4990 11456,4990 Z M 11458,4820 L 11458,4793 11430,4793 11430,4820 11458,4820 Z"/>
   </g>
  </g>
  <g class="com.sun.star.drawing.ClosedBezierShape">
   <g id="id101">
    <rect class="BoundingBox" stroke="none" fill="none" x="11490" y="4850" width="133" height="143"/>
    <path fill="rgb(0,0,0)" stroke="none" d="M 11622,4922 C 11622,4882 11591,4850 11555,4850 11519,4850 11490,4883 11490,4922 11490,4962 11520,4992 11555,4992 11591,4992 11622,4961 11622,4922 Z M 11598,4919 C 11598,4955 11577,4973 11555,4973 11534,4973 11513,4955 11513,4919 11513,4883 11536,4869 11555,4869 11576,4869 11598,4884 11598,4919 Z"/>
   </g>
  </g>
  <g class="com.sun.star.drawing.ClosedBezierShape">
   <g id="id102">
    <rect class="BoundingBox" stroke="none" fill="none" x="11658" y="4853" width="107" height="138"/>
    <path fill="rgb(0,0,0)" stroke="none" d="M 11764,4990 L 11764,4900 C 11764,4880 11760,4853 11724,4853 11696,4853 11681,4873 11679,4876 L 11679,4855 11658,4855 11658,4990 11681,4990 11681,4916 C 11681,4896 11689,4871 11712,4871 11741,4871 11741,4892 11741,4902 L 11741,4990 11764,4990 Z"/>
   </g>
  </g>
  <g class="com.sun.star.drawing.PolyPolygonShape">
   <g id="id103">
    <rect class="BoundingBox" stroke="none" fill="none" x="11820" y="4964" width="27" height="65"/>
    <path fill="rgb(0,0,0)" stroke="none" d="M 11846,4988 L 11846,4964 11820,4964 11820,4989 11828,4989 11820,5028 11832,5028 11846,4988 Z"/>
   </g>
  </g>
  <g class="com.sun.star.drawing.PolyPolygonShape">
   <g id="id104">
    <rect class="BoundingBox" stroke="none" fill="none" x="9551" y="5175" width="30" height="198"/>
    <path fill="rgb(0,0,0)" stroke="none" d="M 9578,5372 L 9578,5237 9554,5237 9554,5372 9578,5372 Z M 9580,5202 L 9580,5175 9552,5175 9552,5202 9580,5202 Z"/>
   </g>
  </g>
  <g class="com.sun.star.drawing.ClosedBezierShape">
   <g id="id105">
    <rect class="BoundingBox" stroke="none" fill="none" x="9627" y="5235" width="108" height="138"/>
    <path fill="rgb(0,0,0)" stroke="none" d="M 9734,5372 L 9734,5282 C 9734,5262 9729,5235 9692,5235 9665,5235 9650,5255 9648,5258 L 9648,5236 9627,5236 9627,5372 9650,5372 9650,5298 C 9650,5278 9658,5253 9680,5253 9709,5253 9709,5274 9709,5284 L 9709,5372 9734,5372 Z"/>
   </g>
  </g>
  <g class="com.sun.star.drawing.ClosedBezierShape">
   <g id="id106">
    <rect class="BoundingBox" stroke="none" fill="none" x="9768" y="5161" width="98" height="213"/>
    <path fill="rgb(0,0,0)" stroke="none" d="M 9865,5184 L 9865,5164 C 9861,5163 9852,5161 9841,5161 9812,5161 9790,5182 9790,5211 L 9790,5237 9768,5237 9768,5255 9790,5255 9790,5372 9813,5372 9813,5255 9847,5255 9847,5237 9812,5237 9812,5203 C 9812,5181 9832,5179 9841,5179 9847,5179 9855,5179 9865,5184 Z"/>
   </g>
  </g>
  <g class="com.sun.star.drawing.ClosedBezierShape">
   <g id="id107">
    <rect class="BoundingBox" stroke="none" fill="none" x="9863" y="5232" width="133" height="144"/>
    <path fill="rgb(0,0,0)" stroke="none" d="M 9995,5305 C 9995,5265 9965,5232 9929,5232 9893,5232 9863,5266 9863,5305 9863,5345 9894,5374 9929,5374 9965,5374 9995,5344 9995,5305 Z M 9971,5302 C 9971,5338 9951,5355 9929,5355 9908,5355 9886,5338 9886,5302 9886,5266 9910,5252 9929,5252 9950,5252 9971,5267 9971,5302 Z"/>
   </g>
  </g>
  <g class="com.sun.star.drawing.ClosedBezierShape">
   <g id="id108">
    <rect class="BoundingBox" stroke="none" fill="none" x="10022" y="5235" width="76" height="138"/>
    <path fill="rgb(0,0,0)" stroke="none" d="M 10096,5255 L 10096,5235 C 10069,5235 10053,5250 10044,5264 L 10044,5236 10022,5236 10022,5372 10045,5372 10045,5307 C 10045,5277 10067,5256 10096,5255 Z"/>
   </g>
  </g>
  <g class="com.sun.star.drawing.ClosedBezierShape">
   <g id="id109">
    <rect class="BoundingBox" stroke="none" fill="none" x="10126" y="5235" width="190" height="138"/>
    <path fill="rgb(0,0,0)" stroke="none" d="M 10315,5372 L 10315,5282 C 10315,5262 10311,5235 10275,5235 10257,5235 10240,5243 10229,5259 10221,5237 10201,5235 10191,5235 10169,5235 10155,5247 10147,5258 L 10147,5236 10126,5236 10126,5372 10149,5372 10149,5298 C 10149,5277 10157,5253 10179,5253 10207,5253 10209,5273 10209,5284 L 10209,5372 10232,5372 10232,5298 C 10232,5277 10240,5253 10263,5253 10291,5253 10292,5273 10292,5284 L 10292,5372 10315,5372 Z"/>
   </g>
  </g>
  <g class="com.sun.star.drawing.ClosedBezierShape">
   <g id="id110">
    <rect class="BoundingBox" stroke="none" fill="none" x="10360" y="5232" width="108" height="144"/>
    <path fill="rgb(0,0,0)" stroke="none" d="M 10467,5371 L 10467,5285 C 10467,5254 10445,5232 10417,5232 10398,5232 10384,5237 10370,5245 L 10372,5266 C 10388,5255 10402,5251 10417,5251 10431,5251 10443,5263 10443,5285 L 10443,5298 C 10398,5299 10360,5311 10360,5337 10360,5350 10368,5374 10394,5374 10399,5374 10427,5374 10444,5360 L 10444,5371 10467,5371 Z M 10443,5332 C 10443,5337 10443,5345 10433,5350 10424,5356 10413,5356 10410,5356 10395,5356 10382,5349 10382,5337 10382,5316 10430,5314 10443,5313 L 10443,5332 Z"/>
   </g>
  </g>
  <g class="com.sun.star.drawing.ClosedBezierShape">
   <g id="id111">
    <rect class="BoundingBox" stroke="none" fill="none" x="10497" y="5199" width="95" height="176"/>
    <path fill="rgb(0,0,0)" stroke="none" d="M 10591,5363 L 10586,5345 C 10579,5352 10569,5355 10559,5355 10547,5355 10543,5346 10543,5330 L 10543,5255 10586,5255 10586,5237 10543,5237 10543,5199 10523,5199 10523,5237 10497,5237 10497,5255 10522,5255 10522,5335 C 10522,5353 10526,5374 10547,5374 10568,5374 10584,5367 10591,5363 Z"/>
   </g>
  </g>
  <g class="com.sun.star.drawing.PolyPolygonShape">
   <g id="id112">
    <rect class="BoundingBox" stroke="none" fill="none" x="10624" y="5175" width="28" height="198"/>
    <path fill="rgb(0,0,0)" stroke="none" d="M 10649,5372 L 10649,5237 10626,5237 10626,5372 10649,5372 Z M 10651,5202 L 10651,5175 10624,5175 10624,5202 10651,5202 Z"/>
   </g>
  </g>
  <g class="com.sun.star.drawing.ClosedBezierShape">
   <g id="id113">
    <rect class="BoundingBox" stroke="none" fill="none" x="10683" y="5232" width="133" height="144"/>
    <path fill="rgb(0,0,0)" stroke="none" d="M 10815,5305 C 10815,5265 10784,5232 10749,5232 10712,5232 10683,5266 10683,5305 10683,5345 10714,5374 10748,5374 10784,5374 10815,5344 10815,5305 Z M 10791,5302 C 10791,5338 10771,5355 10748,5355 10728,5355 10706,5338 10706,5302 10706,5266 10729,5252 10748,5252 10769,5252 10791,5267 10791,5302 Z"/>
   </g>
  </g>
  <g class="com.sun.star.drawing.ClosedBezierShape">
   <g id="id114">
    <rect class="BoundingBox" stroke="none" fill="none" x="10850" y="5235" width="109" height="138"/>
    <path fill="rgb(0,0,0)" stroke="none" d="M 10958,5372 L 10958,5282 C 10958,5262 10953,5235 10917,5235 10890,5235 10876,5255 10874,5258 L 10874,5236 10851,5236 10851,5372 10876,5372 10876,5298 C 10876,5278 10883,5253 10906,5253 10934,5253 10935,5274 10935,5284 L 10935,5372 10958,5372 Z"/>
   </g>
  </g>
  <g class="com.sun.star.drawing.ClosedBezierShape">
   <g id="id115">
    <rect class="BoundingBox" stroke="none" fill="none" x="11097" y="5232" width="115" height="144"/>
    <path fill="rgb(0,0,0)" stroke="none" d="M 11211,5305 C 11211,5295 11211,5273 11199,5255 11187,5236 11169,5232 11158,5232 11124,5232 11097,5265 11097,5303 11097,5343 11126,5374 11163,5374 11181,5374 11198,5367 11210,5359 L 11208,5339 C 11189,5355 11170,5356 11163,5356 11139,5356 11119,5335 11118,5305 L 11211,5305 Z M 11194,5289 L 11119,5289 C 11124,5266 11141,5252 11158,5252 11174,5252 11190,5262 11194,5289 Z"/>
   </g>
  </g>
  <g class="com.sun.star.drawing.PolyPolygonShape">
   <g id="id116">
    <rect class="BoundingBox" stroke="none" fill="none" x="11222" y="5237" width="139" height="136"/>
    <path fill="rgb(0,0,0)" stroke="none" d="M 11360,5372 L 11299,5303 11355,5237 11331,5237 11290,5288 11248,5237 11224,5237 11280,5303 11222,5372 11246,5372 11290,5315 11335,5372 11360,5372 Z"/>
   </g>
  </g>
  <g class="com.sun.star.drawing.ClosedBezierShape">
   <g id="id117">
    <rect class="BoundingBox" stroke="none" fill="none" x="11387" y="5235" width="121" height="194"/>
    <path fill="rgb(0,0,0)" stroke="none" d="M 11507,5305 C 11507,5268 11487,5235 11458,5235 11440,5235 11423,5241 11409,5253 L 11409,5238 11387,5238 11387,5428 11410,5428 11410,5357 C 11419,5366 11433,5374 11450,5374 11479,5374 11507,5345 11507,5305 Z M 11482,5305 C 11482,5335 11461,5356 11439,5356 11427,5356 11419,5350 11413,5342 11410,5338 11410,5337 11410,5332 L 11410,5271 C 11417,5261 11429,5254 11442,5254 11465,5254 11482,5277 11482,5305 Z"/>
   </g>
  </g>
  <g class="com.sun.star.drawing.ClosedBezierShape">
   <g id="id118">
    <rect class="BoundingBox" stroke="none" fill="none" x="11537" y="5232" width="134" height="144"/>
    <path fill="rgb(0,0,0)" stroke="none" d="M 11670,5305 C 11670,5265 11640,5232 11604,5232 11566,5232 11537,5266 11537,5305 11537,5345 11568,5374 11604,5374 11640,5374 11670,5344 11670,5305 Z M 11646,5302 C 11646,5338 11626,5355 11604,5355 11582,5355 11561,5338 11561,5302 11561,5266 11583,5252 11604,5252 11625,5252 11646,5267 11646,5302 Z"/>
   </g>
  </g>
  <g class="com.sun.star.drawing.ClosedBezierShape">
   <g id="id119">
    <rect class="BoundingBox" stroke="none" fill="none" x="11690" y="5232" width="101" height="144"/>
    <path fill="rgb(0,0,0)" stroke="none" d="M 11790,5333 C 11790,5316 11779,5306 11778,5305 11767,5295 11759,5293 11744,5290 11726,5287 11713,5284 11713,5269 11713,5251 11735,5251 11739,5251 11748,5251 11764,5252 11781,5262 L 11785,5242 C 11769,5235 11757,5232 11742,5232 11734,5232 11691,5232 11691,5272 11691,5287 11700,5297 11707,5302 11717,5309 11723,5310 11741,5313 11751,5315 11769,5319 11769,5335 11769,5355 11745,5355 11741,5355 11716,5355 11699,5344 11693,5341 L 11690,5361 C 11699,5366 11716,5374 11741,5374 11746,5374 11763,5374 11776,5365 11785,5358 11790,5346 11790,5333 Z"/>
   </g>
  </g>
  <g class="com.sun.star.drawing.PolyPolygonShape">
   <g id="id120">
    <rect class="BoundingBox" stroke="none" fill="none" x="11820" y="5175" width="29" height="198"/>
    <path fill="rgb(0,0,0)" stroke="none" d="M 11846,5372 L 11846,5237 11822,5237 11822,5372 11846,5372 Z M 11848,5202 L 11848,5175 11821,5175 11821,5202 11848,5202 Z"/>
   </g>
  </g>
  <g class="com.sun.star.drawing.ClosedBezierShape">
   <g id="id121">
    <rect class="BoundingBox" stroke="none" fill="none" x="11876" y="5199" width="96" height="176"/>
    <path fill="rgb(0,0,0)" stroke="none" d="M 11971,5363 L 11966,5345 C 11958,5352 11948,5355 11938,5355 11927,5355 11923,5346 11923,5330 L 11923,5255 11966,5255 11966,5237 11923,5237 11923,5199 11902,5199 11902,5237 11876,5237 11876,5255 11902,5255 11902,5335 C 11902,5353 11906,5374 11926,5374 11947,5374 11963,5367 11971,5363 Z"/>
   </g>
  </g>
  <g class="com.sun.star.drawing.PolyPolygonShape">
   <g id="id122">
    <rect class="BoundingBox" stroke="none" fill="none" x="12003" y="5175" width="29" height="198"/>
    <path fill="rgb(0,0,0)" stroke="none" d="M 12029,5372 L 12029,5237 12005,5237 12005,5372 12029,5372 Z M 12031,5202 L 12031,5175 12004,5175 12004,5202 12031,5202 Z"/>
   </g>
  </g>
  <g class="com.sun.star.drawing.ClosedBezierShape">
   <g id="id123">
    <rect class="BoundingBox" stroke="none" fill="none" x="12063" y="5232" width="133" height="144"/>
    <path fill="rgb(0,0,0)" stroke="none" d="M 12195,5305 C 12195,5265 12165,5232 12129,5232 12092,5232 12063,5266 12063,5305 12063,5345 12093,5374 12129,5374 12165,5374 12195,5344 12195,5305 Z M 12172,5302 C 12172,5338 12151,5355 12129,5355 12108,5355 12086,5338 12086,5302 12086,5266 12109,5252 12129,5252 12150,5252 12172,5267 12172,5302 Z"/>
   </g>
  </g>
  <g class="com.sun.star.drawing.ClosedBezierShape">
   <g id="id124">
    <rect class="BoundingBox" stroke="none" fill="none" x="12231" y="5235" width="108" height="138"/>
    <path fill="rgb(0,0,0)" stroke="none" d="M 12338,5372 L 12338,5282 C 12338,5262 12333,5235 12297,5235 12270,5235 12255,5255 12253,5258 L 12253,5236 12231,5236 12231,5372 12255,5372 12255,5298 C 12255,5278 12263,5253 12285,5253 12314,5253 12314,5274 12314,5284 L 12314,5372 12338,5372 Z"/>
   </g>
  </g>
  <g class="com.sun.star.drawing.ClosedBezierShape">
   <g id="id125">
    <rect class="BoundingBox" stroke="none" fill="none" x="3654" y="6727" width="203" height="209"/>
    <path fill="rgb(0,0,0)" stroke="none" d="M 3856,6935 L 3856,6727 3822,6727 3783,6829 C 3773,6856 3759,6893 3756,6907 L 3755,6907 C 3754,6901 3750,6890 3746,6878 L 3698,6754 3688,6727 3654,6727 3654,6935 3677,6935 3677,6750 C 3679,6759 3691,6792 3699,6812 L 3744,6929 3766,6929 3806,6825 3820,6787 C 3823,6778 3831,6757 3832,6750 L 3833,6750 3833,6935 3856,6935 Z"/>
   </g>
  </g>
  <g class="com.sun.star.drawing.ClosedBezierShape">
   <g id="id126">
    <rect class="BoundingBox" stroke="none" fill="none" x="3906" y="6796" width="109" height="143"/>
    <path fill="rgb(0,0,0)" stroke="none" d="M 4014,6934 L 4014,6847 C 4014,6817 3993,6796 3965,6796 3946,6796 3931,6801 3917,6809 L 3919,6829 C 3935,6817 3951,6814 3965,6814 3979,6814 3991,6826 3991,6848 L 3991,6861 C 3946,6861 3907,6874 3907,6900 3907,6913 3916,6938 3943,6938 3947,6938 3975,6937 3992,6923 L 3992,6934 4014,6934 Z M 3991,6894 C 3991,6900 3991,6907 3981,6913 3972,6918 3961,6919 3958,6919 3943,6919 3929,6912 3929,6899 3929,6878 3978,6876 3991,6876 L 3991,6894 Z"/>
   </g>
  </g>
  <g class="com.sun.star.drawing.ClosedBezierShape">
   <g id="id127">
    <rect class="BoundingBox" stroke="none" fill="none" x="4061" y="6798" width="109" height="138"/>
    <path fill="rgb(0,0,0)" stroke="none" d="M 4169,6935 L 4169,6846 C 4169,6827 4164,6798 4127,6798 4100,6798 4086,6820 4084,6822 L 4084,6800 4062,6800 4062,6935 4086,6935 4086,6862 C 4086,6842 4093,6817 4116,6817 4144,6817 4145,6839 4145,6848 L 4145,6935 4169,6935 Z"/>
   </g>
  </g>
  <g class="com.sun.star.drawing.ClosedBezierShape">
   <g id="id128">
    <rect class="BoundingBox" stroke="none" fill="none" x="4211" y="6796" width="109" height="143"/>
    <path fill="rgb(0,0,0)" stroke="none" d="M 4319,6934 L 4319,6847 C 4319,6817 4297,6796 4270,6796 4249,6796 4236,6801 4222,6809 L 4223,6829 C 4239,6817 4255,6814 4270,6814 4284,6814 4296,6826 4296,6848 L 4296,6861 C 4250,6861 4212,6874 4212,6900 4212,6913 4220,6938 4246,6938 4250,6938 4279,6937 4296,6923 L 4296,6934 4319,6934 Z M 4296,6894 C 4296,6900 4296,6907 4285,6913 4277,6918 4265,6919 4262,6919 4247,6919 4233,6912 4233,6899 4233,6878 4283,6876 4296,6876 L 4296,6894 Z"/>
   </g>
  </g>
  <g class="com.sun.star.drawing.ClosedBezierShape">
   <g id="id129">
    <rect class="BoundingBox" stroke="none" fill="none" x="4350" y="6798" width="139" height="199"/>
    <path fill="rgb(0,0,0)" stroke="none" d="M 4488,6817 L 4485,6798 C 4464,6798 4447,6804 4438,6808 4432,6803 4421,6798 4408,6798 4383,6798 4361,6820 4361,6847 4361,6858 4365,6869 4371,6877 4362,6889 4362,6901 4362,6902 4362,6910 4365,6918 4370,6925 4354,6933 4351,6947 4351,6954 4351,6978 4380,6996 4417,6996 4455,6996 4484,6978 4484,6954 4484,6913 4434,6913 4423,6913 L 4395,6913 C 4391,6913 4378,6913 4378,6897 4378,6894 4379,6889 4381,6886 4388,6891 4397,6895 4408,6895 4436,6895 4457,6873 4457,6846 4457,6832 4451,6821 4447,6816 L 4449,6817 C 4455,6817 4463,6816 4471,6816 4476,6816 4488,6816 4488,6816 L 4488,6817 Z M 4436,6846 C 4436,6870 4422,6878 4408,6878 4397,6878 4382,6872 4382,6847 4382,6822 4397,6816 4408,6816 4422,6816 4436,6824 4436,6847 L 4436,6846 Z M 4463,6955 C 4463,6969 4443,6979 4417,6979 4393,6979 4372,6970 4372,6955 4372,6954 4372,6934 4395,6934 L 4423,6934 C 4429,6934 4463,6934 4463,6955 Z"/>
   </g>
  </g>
  <g class="com.sun.star.drawing.ClosedBezierShape">
   <g id="id130">
    <rect class="BoundingBox" stroke="none" fill="none" x="4506" y="6796" width="115" height="143"/>
    <path fill="rgb(0,0,0)" stroke="none" d="M 4620,6868 C 4620,6858 4620,6835 4608,6818 4596,6799 4578,6796 4566,6796 4533,6796 4506,6827 4506,6866 4506,6905 4535,6938 4570,6938 4590,6938 4607,6931 4619,6921 L 4617,6902 C 4598,6917 4579,6919 4571,6919 4547,6919 4528,6897 4527,6868 L 4620,6868 Z M 4603,6851 L 4528,6851 C 4533,6829 4549,6814 4566,6814 4582,6814 4599,6824 4603,6851 Z"/>
   </g>
  </g>
  <g class="com.sun.star.drawing.ClosedBezierShape">
   <g id="id131">
    <rect class="BoundingBox" stroke="none" fill="none" x="4757" y="6727" width="107" height="209"/>
    <path fill="rgb(0,0,0)" stroke="none" d="M 4863,6935 L 4863,6846 C 4863,6827 4859,6799 4823,6799 4804,6799 4790,6809 4780,6821 L 4780,6727 4757,6727 4757,6935 4781,6935 4781,6862 C 4781,6842 4789,6818 4811,6818 4840,6818 4840,6839 4840,6848 L 4840,6935 4863,6935 Z"/>
   </g>
  </g>
  <g class="com.sun.star.drawing.ClosedBezierShape">
   <g id="id132">
    <rect class="BoundingBox" stroke="none" fill="none" x="4906" y="6796" width="108" height="143"/>
    <path fill="rgb(0,0,0)" stroke="none" d="M 5013,6934 L 5013,6847 C 5013,6817 4991,6796 4963,6796 4944,6796 4930,6801 4916,6809 L 4918,6829 C 4933,6817 4948,6814 4963,6814 4977,6814 4990,6826 4990,6848 L 4990,6861 C 4944,6861 4906,6874 4906,6900 4906,6913 4914,6938 4940,6938 4945,6938 4973,6937 4991,6923 L 4991,6934 5013,6934 Z M 4990,6894 C 4990,6900 4990,6907 4979,6913 4970,6918 4959,6919 4956,6919 4941,6919 4928,6912 4928,6899 4928,6878 4976,6876 4990,6876 L 4990,6894 Z"/>
   </g>
  </g>
  <g class="com.sun.star.drawing.ClosedBezierShape">
   <g id="id133">
    <rect class="BoundingBox" stroke="none" fill="none" x="5053" y="6798" width="75" height="138"/>
    <path fill="rgb(0,0,0)" stroke="none" d="M 5127,6820 L 5127,6798 C 5101,6799 5084,6813 5075,6828 L 5075,6800 5053,6800 5053,6935 5076,6935 5076,6871 C 5076,6842 5098,6820 5127,6820 Z"/>
   </g>
  </g>
  <g class="com.sun.star.drawing.ClosedBezierShape">
   <g id="id134">
    <rect class="BoundingBox" stroke="none" fill="none" x="5143" y="6727" width="121" height="213"/>
    <path fill="rgb(0,0,0)" stroke="none" d="M 5263,6934 L 5263,6727 5240,6727 5240,6815 C 5224,6803 5207,6799 5196,6799 5167,6799 5144,6831 5144,6869 5144,6908 5166,6938 5195,6938 5205,6938 5222,6935 5239,6919 L 5239,6934 5263,6934 Z M 5239,6894 C 5239,6898 5239,6904 5229,6912 5222,6917 5215,6920 5207,6920 5189,6920 5167,6907 5167,6869 5167,6830 5192,6818 5210,6818 5224,6817 5232,6824 5239,6833 L 5239,6894 Z"/>
   </g>
  </g>
  <g class="com.sun.star.drawing.ClosedBezierShape">
   <g id="id135">
    <rect class="BoundingBox" stroke="none" fill="none" x="5294" y="6801" width="198" height="135"/>
    <path fill="rgb(0,0,0)" stroke="none" d="M 5491,6801 L 5469,6801 5450,6866 C 5447,6876 5438,6906 5436,6919 5435,6910 5427,6883 5422,6866 L 5403,6801 5382,6801 5365,6858 C 5361,6869 5350,6903 5349,6919 5347,6904 5338,6870 5333,6854 L 5317,6801 5295,6801 5335,6935 5359,6935 5379,6873 C 5383,6860 5391,6829 5392,6818 5393,6826 5398,6847 5402,6861 L 5424,6935 5450,6935 5491,6801 Z"/>
   </g>
  </g>
  <g class="com.sun.star.drawing.ClosedBezierShape">
   <g id="id136">
    <rect class="BoundingBox" stroke="none" fill="none" x="5507" y="6796" width="108" height="143"/>
    <path fill="rgb(0,0,0)" stroke="none" d="M 5614,6934 L 5614,6847 C 5614,6817 5592,6796 5564,6796 5545,6796 5531,6801 5517,6809 L 5519,6829 C 5535,6817 5550,6814 5564,6814 5578,6814 5590,6826 5590,6848 L 5590,6861 C 5545,6861 5507,6874 5507,6900 5507,6913 5516,6938 5542,6938 5546,6938 5574,6937 5591,6923 L 5591,6934 5614,6934 Z M 5590,6894 C 5590,6900 5590,6907 5580,6913 5571,6918 5560,6919 5557,6919 5542,6919 5529,6912 5529,6899 5529,6878 5577,6876 5590,6876 L 5590,6894 Z"/>
   </g>
  </g>
  <g class="com.sun.star.drawing.ClosedBezierShape">
   <g id="id137">
    <rect class="BoundingBox" stroke="none" fill="none" x="5653" y="6798" width="76" height="138"/>
    <path fill="rgb(0,0,0)" stroke="none" d="M 5727,6820 L 5727,6798 C 5701,6799 5684,6813 5675,6828 L 5675,6800 5653,6800 5653,6935 5677,6935 5677,6871 C 5677,6842 5698,6820 5727,6820 Z"/>
   </g>
  </g>
  <g class="com.sun.star.drawing.ClosedBezierShape">
   <g id="id138">
    <rect class="BoundingBox" stroke="none" fill="none" x="5743" y="6796" width="116" height="143"/>
    <path fill="rgb(0,0,0)" stroke="none" d="M 5858,6868 C 5858,6858 5857,6835 5846,6818 5833,6799 5814,6796 5803,6796 5770,6796 5743,6827 5743,6866 5743,6905 5772,6938 5808,6938 5828,6938 5845,6931 5856,6921 L 5855,6902 C 5836,6917 5815,6919 5808,6919 5784,6919 5765,6897 5764,6868 L 5858,6868 Z M 5841,6851 L 5766,6851 C 5771,6829 5786,6814 5803,6814 5819,6814 5837,6824 5841,6851 Z"/>
   </g>
  </g>
  <g class="com.sun.star.drawing.ClosedBezierShape">
   <g id="id139">
    <rect class="BoundingBox" stroke="none" fill="none" x="9623" y="6786" width="139" height="209"/>
    <path fill="rgb(0,0,0)" stroke="none" d="M 9761,6994 L 9761,6973 9724,6973 C 9720,6973 9717,6973 9713,6973 L 9650,6973 9650,6896 9749,6896 9749,6877 9650,6877 9650,6806 9692,6806 C 9695,6806 9699,6806 9703,6806 L 9757,6806 9757,6787 9623,6787 9623,6994 9761,6994 Z"/>
   </g>
  </g>
  <g class="com.sun.star.drawing.ClosedBezierShape">
   <g id="id140">
    <rect class="BoundingBox" stroke="none" fill="none" x="9781" y="6860" width="131" height="135"/>
    <path fill="rgb(0,0,0)" stroke="none" d="M 9911,6860 L 9889,6860 9865,6922 C 9859,6939 9850,6963 9848,6977 L 9847,6977 C 9845,6966 9838,6946 9835,6938 L 9806,6860 9781,6860 9834,6994 9860,6994 9911,6860 Z"/>
   </g>
  </g>
  <g class="com.sun.star.drawing.ClosedBezierShape">
   <g id="id141">
    <rect class="BoundingBox" stroke="none" fill="none" x="9927" y="6855" width="116" height="143"/>
    <path fill="rgb(0,0,0)" stroke="none" d="M 10042,6926 C 10042,6916 10042,6894 10031,6876 10018,6858 9999,6855 9988,6855 9955,6855 9928,6886 9928,6924 9928,6965 9957,6997 9993,6997 10013,6997 10030,6989 10041,6981 L 10039,6961 C 10021,6977 10000,6978 9993,6978 9969,6978 9950,6957 9949,6926 L 10042,6926 Z M 10025,6910 L 9951,6910 C 9955,6888 9971,6873 9988,6873 10005,6873 10022,6883 10025,6910 Z"/>
   </g>
  </g>
  <g class="com.sun.star.drawing.ClosedBezierShape">
   <g id="id142">
    <rect class="BoundingBox" stroke="none" fill="none" x="10076" y="6857" width="109" height="138"/>
    <path fill="rgb(0,0,0)" stroke="none" d="M 10184,6994 L 10184,6904 C 10184,6884 10179,6857 10143,6857 10115,6857 10101,6878 10099,6880 L 10099,6859 10077,6859 10077,6994 10101,6994 10101,6920 C 10101,6900 10108,6876 10131,6876 10160,6876 10161,6897 10161,6906 L 10161,6994 10184,6994 Z"/>
   </g>
  </g>
  <g class="com.sun.star.drawing.ClosedBezierShape">
   <g id="id143">
    <rect class="BoundingBox" stroke="none" fill="none" x="10216" y="6821" width="96" height="177"/>
    <path fill="rgb(0,0,0)" stroke="none" d="M 10311,6985 L 10306,6968 C 10298,6974 10289,6977 10279,6977 10267,6977 10263,6968 10263,6953 L 10263,6878 10306,6878 10306,6860 10263,6860 10263,6821 10242,6821 10242,6860 10216,6860 10216,6878 10241,6878 10241,6958 C 10241,6976 10246,6997 10266,6997 10288,6997 10303,6989 10311,6985 Z"/>
   </g>
  </g>
  <g class="com.sun.star.drawing.ClosedBezierShape">
   <g id="id144">
    <rect class="BoundingBox" stroke="none" fill="none" x="10447" y="6857" width="109" height="138"/>
    <path fill="rgb(0,0,0)" stroke="none" d="M 10555,6994 L 10555,6904 C 10555,6884 10550,6857 10513,6857 10486,6857 10472,6878 10470,6880 L 10470,6859 10447,6859 10447,6994 10472,6994 10472,6920 C 10472,6900 10479,6876 10502,6876 10530,6876 10531,6897 10531,6906 L 10531,6994 10555,6994 Z"/>
   </g>
  </g>
  <g class="com.sun.star.drawing.ClosedBezierShape">
   <g id="id145">
    <rect class="BoundingBox" stroke="none" fill="none" x="10590" y="6855" width="133" height="143"/>
    <path fill="rgb(0,0,0)" stroke="none" d="M 10722,6927 C 10722,6887 10692,6855 10655,6855 10619,6855 10590,6888 10590,6927 10590,6967 10620,6997 10655,6997 10692,6997 10722,6966 10722,6927 Z M 10698,6924 C 10698,6960 10678,6977 10655,6977 10634,6977 10613,6961 10613,6924 10613,6888 10636,6873 10655,6873 10676,6873 10698,6888 10698,6924 Z"/>
   </g>
  </g>
  <g class="com.sun.star.drawing.ClosedBezierShape">
   <g id="id146">
    <rect class="BoundingBox" stroke="none" fill="none" x="10739" y="6821" width="96" height="177"/>
    <path fill="rgb(0,0,0)" stroke="none" d="M 10834,6985 L 10829,6968 C 10821,6974 10812,6977 10802,6977 10791,6977 10787,6968 10787,6953 L 10787,6878 10829,6878 10829,6860 10787,6860 10787,6821 10766,6821 10766,6860 10739,6860 10739,6878 10765,6878 10765,6958 C 10765,6976 10770,6997 10790,6997 10811,6997 10826,6989 10834,6985 Z"/>
   </g>
  </g>
  <g class="com.sun.star.drawing.PolyPolygonShape">
   <g id="id147">
    <rect class="BoundingBox" stroke="none" fill="none" x="10867" y="6796" width="28" height="199"/>
    <path fill="rgb(0,0,0)" stroke="none" d="M 10892,6994 L 10892,6860 10868,6860 10868,6994 10892,6994 Z M 10894,6824 L 10894,6797 10867,6797 10867,6824 10894,6824 Z"/>
   </g>
  </g>
  <g class="com.sun.star.drawing.ClosedBezierShape">
   <g id="id148">
    <rect class="BoundingBox" stroke="none" fill="none" x="10925" y="6783" width="130" height="212"/>
    <path fill="rgb(0,0,0)" stroke="none" d="M 11054,6811 L 11054,6786 11029,6786 11029,6811 11054,6811 Z M 11053,6994 L 11053,6861 11031,6861 11031,6994 11053,6994 Z M 11006,6878 L 11006,6861 10969,6861 10969,6825 C 10969,6806 10980,6802 10988,6802 10994,6802 11000,6804 11006,6807 L 11006,6786 C 11004,6786 10996,6783 10988,6783 10966,6783 10948,6805 10948,6834 L 10948,6861 10925,6861 10925,6878 10948,6878 10948,6994 10970,6994 10970,6878 11006,6878 Z"/>
   </g>
  </g>
  <g class="com.sun.star.drawing.ClosedBezierShape">
   <g id="id149">
    <rect class="BoundingBox" stroke="none" fill="none" x="11091" y="6855" width="115" height="143"/>
    <path fill="rgb(0,0,0)" stroke="none" d="M 11205,6981 L 11204,6961 C 11188,6973 11172,6977 11157,6977 11132,6977 11115,6956 11115,6926 11115,6902 11126,6874 11158,6874 11174,6874 11184,6876 11200,6887 L 11204,6868 C 11186,6857 11176,6855 11158,6855 11115,6855 11091,6891 11091,6926 11091,6964 11118,6997 11157,6997 11173,6997 11189,6992 11205,6981 Z"/>
   </g>
  </g>
  <g class="com.sun.star.drawing.ClosedBezierShape">
   <g id="id150">
    <rect class="BoundingBox" stroke="none" fill="none" x="11232" y="6855" width="108" height="143"/>
    <path fill="rgb(0,0,0)" stroke="none" d="M 11339,6993 L 11339,6906 C 11339,6876 11317,6855 11290,6855 11269,6855 11256,6860 11242,6868 L 11243,6887 C 11259,6876 11274,6872 11290,6872 11304,6872 11316,6884 11316,6906 L 11316,6919 C 11270,6920 11232,6933 11232,6960 11232,6972 11240,6997 11266,6997 11270,6997 11299,6996 11316,6983 L 11316,6993 11339,6993 Z M 11316,6954 C 11316,6960 11316,6967 11305,6973 11297,6978 11284,6978 11281,6978 11267,6978 11253,6972 11253,6959 11253,6938 11303,6936 11316,6936 L 11316,6954 Z"/>
   </g>
  </g>
  <g class="com.sun.star.drawing.ClosedBezierShape">
   <g id="id151">
    <rect class="BoundingBox" stroke="none" fill="none" x="11368" y="6821" width="96" height="177"/>
    <path fill="rgb(0,0,0)" stroke="none" d="M 11463,6985 L 11458,6968 C 11450,6974 11441,6977 11431,6977 11420,6977 11416,6968 11416,6953 L 11416,6878 11458,6878 11458,6860 11416,6860 11416,6821 11395,6821 11395,6860 11368,6860 11368,6878 11394,6878 11394,6958 C 11394,6976 11398,6997 11419,6997 11440,6997 11455,6989 11463,6985 Z"/>
   </g>
  </g>
  <g class="com.sun.star.drawing.PolyPolygonShape">
   <g id="id152">
    <rect class="BoundingBox" stroke="none" fill="none" x="11495" y="6796" width="29" height="199"/>
    <path fill="rgb(0,0,0)" stroke="none" d="M 11521,6994 L 11521,6860 11497,6860 11497,6994 11521,6994 Z M 11523,6824 L 11523,6797 11495,6797 11495,6824 11523,6824 Z"/>
   </g>
  </g>
  <g class="com.sun.star.drawing.ClosedBezierShape">
   <g id="id153">
    <rect class="BoundingBox" stroke="none" fill="none" x="11555" y="6855" width="134" height="143"/>
    <path fill="rgb(0,0,0)" stroke="none" d="M 11687,6927 C 11687,6887 11657,6855 11621,6855 11583,6855 11555,6888 11555,6927 11555,6967 11585,6997 11621,6997 11657,6997 11687,6966 11687,6927 Z M 11663,6924 C 11663,6960 11643,6977 11621,6977 11600,6977 11578,6961 11578,6924 11578,6888 11602,6873 11621,6873 11642,6873 11663,6888 11663,6924 Z"/>
   </g>
  </g>
  <g class="com.sun.star.drawing.ClosedBezierShape">
   <g id="id154">
    <rect class="BoundingBox" stroke="none" fill="none" x="11722" y="6857" width="108" height="138"/>
    <path fill="rgb(0,0,0)" stroke="none" d="M 11829,6994 L 11829,6904 C 11829,6884 11825,6857 11788,6857 11761,6857 11746,6878 11744,6880 L 11744,6859 11723,6859 11723,6994 11746,6994 11746,6920 C 11746,6900 11753,6876 11776,6876 11805,6876 11805,6897 11805,6906 L 11805,6994 11829,6994 Z"/>
   </g>
  </g>
 </g>
</svg>