<?xml version="1.0" encoding="UTF-8"?>
<!DOCTYPE svg PUBLIC "-//W3C//DTD SVG 1.1//EN" "http://www.w3.org/Graphics/SVG/1.1/DTD/svg11.dtd">
<svg version="1.2" width="55.7mm" height="29.8mm" viewBox="3321 2209 5570 2980" preserveAspectRatio="xMidYMid" fill-rule="evenodd" stroke-width="28.222" stroke-linejoin="round" xmlns="http://www.w3.org/2000/svg" xmlns:ooo="http://xml.openoffice.org/svg/export" xmlns:xlink="http://www.w3.org/1999/xlink" xmlns:presentation="http://sun.com/xmlns/staroffice/presentation" xmlns:smil="http://www.w3.org/2001/SMIL20/" xmlns:anim="urn:oasis:names:tc:opendocument:xmlns:animation:1.0" xml:space="preserve">
 <defs class="EmbeddedBulletChars">
  <g id="bullet-char-template-57356" transform="scale(0.00048828125,-0.00048828125)">
   <path d="M 580,1141 L 1163,571 580,0 -4,571 580,1141 Z"/>
  </g>
  <g id="bullet-char-template-57354" transform="scale(0.00048828125,-0.00048828125)">
   <path d="M 8,1128 L 1137,1128 1137,0 8,0 8,1128 Z"/>
  </g>
  <g id="bullet-char-template-10146" transform="scale(0.00048828125,-0.00048828125)">
   <path d="M 174,0 L 602,739 174,1481 1456,739 174,0 Z M 1358,739 L 309,1346 659,739 1358,739 Z"/>
  </g>
  <g id="bullet-char-template-10132" transform="scale(0.00048828125,-0.00048828125)">
   <path d="M 2015,739 L 1276,0 717,0 1260,543 174,543 174,936 1260,936 717,1481 1274,1481 2015,739 Z"/>
  </g>
  <g id="bullet-char-template-10007" transform="scale(0.00048828125,-0.00048828125)">
   <path d="M 0,-2 C -7,14 -16,27 -25,37 L 356,567 C 262,823 215,952 215,954 215,979 228,992 255,992 264,992 276,990 289,987 310,991 331,999 354,1012 L 381,999 492,748 772,1049 836,1024 860,1049 C 881,1039 901,1025 922,1006 886,937 835,863 770,784 769,783 710,716 594,584 L 774,223 C 774,196 753,168 711,139 L 727,119 C 717,90 699,76 672,76 641,76 570,178 457,381 L 164,-76 C 142,-110 111,-127 72,-127 30,-127 9,-110 8,-76 1,-67 -2,-52 -2,-32 -2,-23 -1,-13 0,-2 Z"/>
  </g>
  <g id="bullet-char-template-10004" transform="scale(0.00048828125,-0.00048828125)">
   <path d="M 285,-33 C 182,-33 111,30 74,156 52,228 41,333 41,471 41,549 55,616 82,672 116,743 169,778 240,778 293,778 328,747 346,684 L 369,508 C 377,444 397,411 428,410 L 1163,1116 C 1174,1127 1196,1133 1229,1133 1271,1133 1292,1118 1292,1087 L 1292,965 C 1292,929 1282,901 1262,881 L 442,47 C 390,-6 338,-33 285,-33 Z"/>
  </g>
  <g id="bullet-char-template-9679" transform="scale(0.00048828125,-0.00048828125)">
   <path d="M 813,0 C 632,0 489,54 383,161 276,268 223,411 223,592 223,773 276,916 383,1023 489,1130 632,1184 813,1184 992,1184 1136,1130 1245,1023 1353,916 1407,772 1407,592 1407,412 1353,268 1245,161 1136,54 992,0 813,0 Z"/>
  </g>
  <g id="bullet-char-template-8226" transform="scale(0.00048828125,-0.00048828125)">
   <path d="M 346,457 C 273,457 209,483 155,535 101,586 74,649 74,723 74,796 101,859 155,911 209,963 273,989 346,989 419,989 480,963 531,910 582,859 608,796 608,723 608,648 583,586 532,535 482,483 420,457 346,457 Z"/>
  </g>
  <g id="bullet-char-template-8211" transform="scale(0.00048828125,-0.00048828125)">
   <path d="M -4,459 L 1135,459 1135,606 -4,606 -4,459 Z"/>
  </g>
  <g id="bullet-char-template-61548" transform="scale(0.00048828125,-0.00048828125)">
   <path d="M 173,740 C 173,903 231,1043 346,1159 462,1274 601,1332 765,1332 928,1332 1067,1274 1183,1159 1299,1043 1357,903 1357,740 1357,577 1299,437 1183,322 1067,206 928,148 765,148 601,148 462,206 346,322 231,437 173,577 173,740 Z"/>
  </g>
 </defs>
 <g class="Page">
  <g class="com.sun.star.drawing.PolyPolygonShape">
   <g id="id3">
    <rect class="BoundingBox" stroke="none" fill="none" x="3867" y="4511" width="3606" height="678"/>
    <path fill="rgb(173,216,230)" stroke="none" d="M 3880,5175 L 7459,5175 7459,4524 3880,4524 3880,5175 Z"/>
    <path fill="none" stroke="rgb(92,172,255)" stroke-width="26" stroke-linejoin="miter" d="M 3880,5175 L 7459,5175 7459,4524 3880,4524 3880,5175 Z"/>
   </g>
  </g>
  <g class="com.sun.star.drawing.PolyPolygonShape">
   <g id="id4">
    <rect class="BoundingBox" stroke="none" fill="none" x="5323" y="4740" width="141" height="176"/>
    <path fill="rgb(0,0,0)" stroke="none" d="M 5463,4915 L 5391,4809 5458,4740 5435,4740 5344,4833 5344,4740 5323,4740 5323,4915 5344,4915 5344,4857 5377,4823 5439,4915 5463,4915 Z"/>
   </g>
  </g>
  <g class="com.sun.star.drawing.ClosedBezierShape">
   <g id="id5">
    <rect class="BoundingBox" stroke="none" fill="none" x="5485" y="4798" width="98" height="120"/>
    <path fill="rgb(0,0,0)" stroke="none" d="M 5582,4858 C 5582,4850 5581,4831 5572,4816 5561,4801 5546,4798 5537,4798 5509,4798 5485,4824 5485,4856 5485,4891 5511,4917 5541,4917 5556,4917 5571,4911 5581,4904 L 5579,4888 C 5563,4901 5547,4902 5541,4902 5521,4902 5505,4884 5504,4858 L 5582,4858 Z M 5567,4844 L 5505,4844 C 5509,4826 5523,4813 5537,4813 5550,4813 5564,4822 5567,4844 Z"/>
   </g>
  </g>
  <g class="com.sun.star.drawing.ClosedBezierShape">
   <g id="id6">
    <rect class="BoundingBox" stroke="none" fill="none" x="5611" y="4800" width="63" height="116"/>
    <path fill="rgb(0,0,0)" stroke="none" d="M 5673,4817 L 5673,4800 C 5651,4800 5637,4813 5630,4824 L 5630,4801 5611,4801 5611,4915 5631,4915 5631,4861 C 5631,4835 5649,4817 5673,4817 Z"/>
   </g>
  </g>
  <g class="com.sun.star.drawing.ClosedBezierShape">
   <g id="id7">
    <rect class="BoundingBox" stroke="none" fill="none" x="5698" y="4800" width="92" height="116"/>
    <path fill="rgb(0,0,0)" stroke="none" d="M 5788,4915 L 5788,4839 C 5788,4823 5785,4800 5753,4800 5730,4800 5718,4817 5717,4819 L 5717,4801 5698,4801 5698,4915 5718,4915 5718,4853 C 5718,4836 5724,4815 5743,4815 5768,4815 5769,4833 5769,4841 L 5769,4915 5788,4915 Z"/>
   </g>
  </g>
  <g class="com.sun.star.drawing.ClosedBezierShape">
   <g id="id8">
    <rect class="BoundingBox" stroke="none" fill="none" x="5818" y="4798" width="99" height="120"/>
    <path fill="rgb(0,0,0)" stroke="none" d="M 5916,4858 C 5916,4850 5915,4831 5906,4816 5895,4801 5880,4798 5870,4798 5842,4798 5819,4824 5819,4856 5819,4891 5844,4917 5874,4917 5891,4917 5905,4911 5915,4904 L 5913,4888 C 5897,4901 5881,4902 5874,4902 5854,4902 5838,4884 5837,4858 L 5916,4858 Z M 5901,4844 L 5838,4844 C 5842,4826 5856,4813 5870,4813 5884,4813 5898,4822 5901,4844 Z"/>
   </g>
  </g>
  <g class="com.sun.star.drawing.PolyPolygonShape">
   <g id="id9">
    <rect class="BoundingBox" stroke="none" fill="none" x="5945" y="4740" width="21" height="176"/>
    <path fill="rgb(0,0,0)" stroke="none" d="M 5965,4915 L 5965,4740 5945,4740 5945,4915 5965,4915 Z"/>
   </g>
  </g>
  <g class="com.sun.star.drawing.LineShape">
   <g id="id10">
    <rect class="BoundingBox" stroke="none" fill="none" x="3321" y="3938" width="5570" height="27"/>
    <path fill="none" stroke="rgb(217,203,47)" stroke-width="26" stroke-linejoin="miter" d="M 3321,3951 L 8890,3951"/>
   </g>
  </g>
  <g class="com.sun.star.drawing.PolyPolygonShape">
   <g id="id11">
    <rect class="BoundingBox" stroke="none" fill="none" x="3828" y="3210" width="1850" height="548"/>
    <path fill="rgb(173,216,230)" stroke="none" d="M 3841,3744 L 5664,3744 5664,3223 3841,3223 3841,3744 Z"/>
    <path fill="none" stroke="rgb(92,172,255)" stroke-width="26" stroke-linejoin="miter" d="M 3841,3744 L 5664,3744 5664,3223 3841,3223 3841,3744 Z"/>
   </g>
  </g>
  <g class="com.sun.star.drawing.ClosedBezierShape">
   <g id="id12">
    <rect class="BoundingBox" stroke="none" fill="none" x="4248" y="3415" width="133" height="182"/>
    <path fill="rgb(0,0,0)" stroke="none" d="M 4380,3581 L 4379,3564 C 4371,3569 4364,3573 4355,3576 4347,3579 4339,3579 4330,3579 4314,3579 4298,3570 4288,3556 4276,3542 4271,3523 4271,3505 4271,3486 4276,3467 4288,3452 4298,3440 4314,3431 4330,3431 4338,3431 4345,3432 4353,3434 4360,3436 4367,3440 4374,3445 L 4377,3424 C 4370,3421 4362,3419 4354,3417 4346,3416 4338,3415 4330,3415 4308,3415 4287,3425 4272,3441 4256,3459 4248,3481 4248,3505 4248,3528 4256,3550 4272,3569 4287,3585 4308,3595 4330,3595 4339,3595 4348,3595 4356,3592 4365,3590 4373,3585 4380,3581 Z"/>
   </g>
  </g>
  <g class="com.sun.star.drawing.PolyPolygonShape">
   <g id="id13">
    <rect class="BoundingBox" stroke="none" fill="none" x="4502" y="3417" width="20" height="178"/>
    <path fill="rgb(0,0,0)" stroke="none" d="M 4521,3593 L 4521,3417 4502,3417 4502,3593 4521,3593 Z"/>
   </g>
  </g>
  <g class="com.sun.star.drawing.PolyPolygonShape">
   <g id="id14">
    <rect class="BoundingBox" stroke="none" fill="none" x="4561" y="3427" width="25" height="167"/>
    <path fill="rgb(0,0,0)" stroke="none" d="M 4582,3593 L 4582,3480 4563,3480 4563,3593 4582,3593 Z M 4585,3449 L 4585,3427 4561,3427 4561,3449 4585,3449 Z"/>
   </g>
  </g>
  <g class="com.sun.star.drawing.ClosedBezierShape">
   <g id="id15">
    <rect class="BoundingBox" stroke="none" fill="none" x="4624" y="3417" width="103" height="179"/>
    <path fill="rgb(0,0,0)" stroke="none" d="M 4725,3537 C 4725,3505 4707,3477 4683,3477 4673,3477 4658,3480 4643,3492 L 4643,3417 4624,3417 4624,3593 4644,3592 4644,3580 C 4650,3586 4660,3595 4677,3595 4702,3595 4725,3570 4725,3537 Z M 4704,3537 C 4704,3569 4683,3579 4668,3579 4658,3579 4650,3575 4644,3564 L 4644,3508 C 4648,3502 4657,3493 4670,3493 4685,3493 4704,3504 4704,3537 Z"/>
   </g>
  </g>
  <g class="com.sun.star.drawing.ClosedBezierShape">
   <g id="id16">
    <rect class="BoundingBox" stroke="none" fill="none" x="4749" y="3476" width="64" height="118"/>
    <path fill="rgb(0,0,0)" stroke="none" d="M 4812,3494 L 4812,3477 C 4790,3478 4776,3490 4767,3502 L 4767,3479 4749,3479 4749,3593 4768,3593 4768,3538 C 4768,3513 4787,3495 4812,3494 Z"/>
   </g>
  </g>
  <g class="com.sun.star.drawing.ClosedBezierShape">
   <g id="id17">
    <rect class="BoundingBox" stroke="none" fill="none" x="4830" y="3475" width="91" height="121"/>
    <path fill="rgb(0,0,0)" stroke="none" d="M 4920,3592 L 4920,3519 C 4920,3493 4902,3475 4879,3475 4863,3475 4851,3479 4839,3486 L 4841,3503 C 4854,3493 4867,3490 4879,3490 4891,3490 4901,3500 4901,3519 L 4901,3530 C 4863,3530 4830,3541 4830,3563 4830,3575 4838,3595 4860,3595 4863,3595 4887,3594 4901,3583 L 4901,3592 4920,3592 Z M 4901,3558 C 4901,3563 4901,3570 4892,3575 4885,3579 4875,3579 4873,3579 4861,3579 4849,3574 4849,3562 4849,3545 4890,3543 4901,3543 L 4901,3558 Z"/>
   </g>
  </g>
  <g class="com.sun.star.drawing.ClosedBezierShape">
   <g id="id18">
    <rect class="BoundingBox" stroke="none" fill="none" x="4954" y="3476" width="63" height="118"/>
    <path fill="rgb(0,0,0)" stroke="none" d="M 5016,3494 L 5016,3477 C 4993,3478 4979,3490 4971,3502 L 4971,3479 4954,3479 4954,3593 4972,3593 4972,3538 C 4972,3513 4990,3495 5016,3494 Z"/>
   </g>
  </g>
  <g class="com.sun.star.drawing.ClosedBezierShape">
   <g id="id19">
    <rect class="BoundingBox" stroke="none" fill="none" x="5024" y="3480" width="111" height="165"/>
    <path fill="rgb(0,0,0)" stroke="none" d="M 5134,3480 L 5115,3480 C 5082,3561 5082,3573 5081,3578 5080,3561 5059,3513 5058,3511 L 5044,3480 5024,3480 5073,3593 5064,3615 C 5057,3630 5053,3630 5050,3630 5046,3630 5037,3629 5030,3626 L 5031,3642 C 5037,3644 5044,3644 5050,3644 5058,3644 5068,3641 5079,3615 L 5134,3480 Z"/>
   </g>
  </g>
  <g class="com.sun.star.drawing.PolyPolygonShape">
   <g id="id20">
    <rect class="BoundingBox" stroke="none" fill="none" x="3828" y="2209" width="3672" height="509"/>
    <path fill="rgb(173,216,230)" stroke="none" d="M 3841,2703 L 7485,2703 7485,2222 3841,2222 3841,2703 Z"/>
    <path fill="none" stroke="rgb(92,172,255)" stroke-width="26" stroke-linejoin="miter" d="M 3841,2703 L 7485,2703 7485,2222 3841,2222 3841,2703 Z"/>
   </g>
  </g>
  <g class="com.sun.star.drawing.ClosedBezierShape">
   <g id="id21">
    <rect class="BoundingBox" stroke="none" fill="none" x="5149" y="2398" width="156" height="176"/>
    <path fill="rgb(0,0,0)" stroke="none" d="M 5304,2573 L 5237,2398 5215,2398 5149,2573 5168,2573 5187,2522 5260,2522 5281,2573 5304,2573 Z M 5255,2508 L 5193,2508 C 5205,2472 5196,2498 5209,2462 5214,2447 5222,2426 5224,2416 5225,2419 5226,2427 5232,2443 L 5255,2508 Z"/>
   </g>
  </g>
  <g class="com.sun.star.drawing.ClosedBezierShape">
   <g id="id22">
    <rect class="BoundingBox" stroke="none" fill="none" x="5335" y="2458" width="102" height="164"/>
    <path fill="rgb(0,0,0)" stroke="none" d="M 5436,2516 C 5436,2486 5420,2458 5395,2458 5380,2458 5365,2463 5353,2473 L 5353,2461 5335,2461 5335,2621 5354,2621 5354,2561 C 5362,2568 5373,2575 5388,2575 5413,2575 5436,2551 5436,2516 Z M 5416,2516 C 5416,2543 5397,2560 5378,2560 5368,2560 5362,2555 5357,2548 5354,2545 5354,2544 5354,2540 L 5354,2489 C 5360,2480 5370,2474 5381,2474 5400,2474 5416,2493 5416,2516 Z"/>
   </g>
  </g>
  <g class="com.sun.star.drawing.ClosedBezierShape">
   <g id="id23">
    <rect class="BoundingBox" stroke="none" fill="none" x="5467" y="2458" width="102" height="164"/>
    <path fill="rgb(0,0,0)" stroke="none" d="M 5568,2516 C 5568,2486 5552,2458 5528,2458 5513,2458 5498,2463 5486,2473 L 5486,2461 5467,2461 5467,2621 5487,2621 5487,2561 C 5495,2568 5507,2575 5522,2575 5546,2575 5568,2551 5568,2516 Z M 5549,2516 C 5549,2543 5531,2560 5512,2560 5501,2560 5494,2555 5489,2548 5487,2545 5487,2544 5487,2540 L 5487,2489 C 5493,2480 5503,2474 5514,2474 5533,2474 5549,2493 5549,2516 Z"/>
   </g>
  </g>
  <g class="com.sun.star.drawing.PolyPolygonShape">
   <g id="id24">
    <rect class="BoundingBox" stroke="none" fill="none" x="5599" y="2398" width="21" height="176"/>
    <path fill="rgb(0,0,0)" stroke="none" d="M 5619,2573 L 5619,2398 5600,2398 5600,2573 5619,2573 Z"/>
   </g>
  </g>
  <g class="com.sun.star.drawing.PolyPolygonShape">
   <g id="id25">
    <rect class="BoundingBox" stroke="none" fill="none" x="5659" y="2408" width="24" height="166"/>
    <path fill="rgb(0,0,0)" stroke="none" d="M 5680,2573 L 5680,2461 5661,2461 5661,2573 5680,2573 Z M 5682,2431 L 5682,2408 5659,2408 5659,2431 5682,2431 Z"/>
   </g>
  </g>
  <g class="com.sun.star.drawing.ClosedBezierShape">
   <g id="id26">
    <rect class="BoundingBox" stroke="none" fill="none" x="5709" y="2456" width="99" height="120"/>
    <path fill="rgb(0,0,0)" stroke="none" d="M 5807,2563 L 5805,2546 C 5792,2556 5778,2559 5765,2559 5744,2559 5730,2541 5730,2517 5730,2496 5739,2472 5766,2472 5779,2472 5788,2474 5802,2483 L 5805,2467 C 5790,2458 5781,2456 5766,2456 5731,2456 5710,2486 5710,2517 5710,2548 5733,2575 5765,2575 5778,2575 5793,2572 5807,2563 Z"/>
   </g>
  </g>
  <g class="com.sun.star.drawing.ClosedBezierShape">
   <g id="id27">
    <rect class="BoundingBox" stroke="none" fill="none" x="5829" y="2456" width="91" height="120"/>
    <path fill="rgb(0,0,0)" stroke="none" d="M 5919,2573 L 5919,2499 C 5919,2474 5899,2456 5876,2456 5860,2456 5849,2460 5837,2467 L 5838,2483 C 5851,2474 5864,2471 5876,2471 5888,2471 5898,2481 5898,2500 L 5898,2511 C 5861,2512 5829,2522 5829,2544 5829,2555 5835,2575 5857,2575 5861,2575 5884,2575 5899,2564 L 5899,2573 5919,2573 Z M 5898,2540 C 5898,2544 5898,2551 5890,2555 5882,2560 5873,2560 5870,2560 5858,2560 5847,2554 5847,2544 5847,2526 5887,2525 5898,2524 L 5898,2540 Z"/>
   </g>
  </g>
  <g class="com.sun.star.drawing.ClosedBezierShape">
   <g id="id28">
    <rect class="BoundingBox" stroke="none" fill="none" x="5943" y="2428" width="82" height="148"/>
    <path fill="rgb(0,0,0)" stroke="none" d="M 6023,2566 L 6019,2551 C 6011,2556 6003,2559 5995,2559 5986,2559 5983,2552 5983,2539 L 5983,2475 6019,2475 6019,2460 5983,2460 5983,2428 5965,2428 5965,2460 5943,2460 5943,2475 5964,2475 5964,2543 C 5964,2558 5968,2575 5985,2575 6003,2575 6016,2569 6023,2566 Z"/>
   </g>
  </g>
  <g class="com.sun.star.drawing.PolyPolygonShape">
   <g id="id29">
    <rect class="BoundingBox" stroke="none" fill="none" x="6050" y="2408" width="25" height="166"/>
    <path fill="rgb(0,0,0)" stroke="none" d="M 6072,2573 L 6072,2461 6052,2461 6052,2573 6072,2573 Z M 6074,2431 L 6074,2408 6050,2408 6050,2431 6074,2431 Z"/>
   </g>
  </g>
  <g class="com.sun.star.drawing.ClosedBezierShape">
   <g id="id30">
    <rect class="BoundingBox" stroke="none" fill="none" x="6100" y="2456" width="112" height="120"/>
    <path fill="rgb(0,0,0)" stroke="none" d="M 6211,2517 C 6211,2483 6186,2456 6155,2456 6125,2456 6100,2484 6100,2517 6100,2551 6126,2575 6155,2575 6186,2575 6211,2550 6211,2517 Z M 6192,2515 C 6192,2545 6175,2559 6155,2559 6138,2559 6120,2545 6120,2515 6120,2484 6139,2471 6155,2471 6174,2471 6192,2484 6192,2515 Z"/>
   </g>
  </g>
  <g class="com.sun.star.drawing.ClosedBezierShape">
   <g id="id31">
    <rect class="BoundingBox" stroke="none" fill="none" x="6242" y="2458" width="91" height="116"/>
    <path fill="rgb(0,0,0)" stroke="none" d="M 6332,2573 L 6332,2498 C 6332,2481 6328,2458 6297,2458 6274,2458 6261,2475 6260,2477 L 6260,2459 6242,2459 6242,2573 6261,2573 6261,2511 C 6261,2494 6267,2473 6287,2473 6312,2473 6312,2491 6312,2499 L 6312,2573 6332,2573 Z"/>
   </g>
  </g>
  <g class="com.sun.star.drawing.LineShape">
   <g id="id32">
    <rect class="BoundingBox" stroke="none" fill="none" x="6548" y="2701" width="53" height="1668"/>
    <path fill="none" stroke="rgb(0,0,0)" stroke-width="52" stroke-linejoin="miter" d="M 6574,2702 L 6574,4368"/>
   </g>
  </g>
  <g class="com.sun.star.drawing.PolyPolygonShape">
   <g id="id33">
    <rect class="BoundingBox" stroke="none" fill="none" x="6508" y="4336" width="133" height="132"/>
    <path fill="rgb(0,0,0)" stroke="none" d="M 6575,4467 L 6509,4336 6575,4368 6640,4336 6575,4467 Z"/>
   </g>
  </g>
  <g class="com.sun.star.drawing.PolyPolygonShape">
   <g id="id34">
    <rect class="BoundingBox" stroke="none" fill="none" x="6451" y="4278" width="248" height="249"/>
    <path fill="none" stroke="rgb(0,0,0)" stroke-width="52" stroke-linejoin="miter" d="M 6575,4467 L 6509,4336 6575,4368 6640,4336 6575,4467 Z"/>
   </g>
  </g>
  <g class="com.sun.star.drawing.LineShape">
   <g id="id35">
    <rect class="BoundingBox" stroke="none" fill="none" x="4726" y="2702" width="53" height="366"/>
    <path fill="none" stroke="rgb(0,0,0)" stroke-width="52" stroke-linejoin="miter" d="M 4752,2702 L 4752,3067"/>
   </g>
  </g>
  <g class="com.sun.star.drawing.PolyPolygonShape">
   <g id="id36">
    <rect class="BoundingBox" stroke="none" fill="none" x="4687" y="3035" width="132" height="132"/>
    <path fill="rgb(0,0,0)" stroke="none" d="M 4753,3166 L 4687,3035 4753,3067 4818,3035 4753,3166 Z"/>
   </g>
  </g>
  <g class="com.sun.star.drawing.PolyPolygonShape">
   <g id="id37">
    <rect class="BoundingBox" stroke="none" fill="none" x="4629" y="2977" width="248" height="249"/>
    <path fill="none" stroke="rgb(0,0,0)" stroke-width="52" stroke-linejoin="miter" d="M 4753,3166 L 4687,3035 4753,3067 4818,3035 4753,3166 Z"/>
   </g>
  </g>
  <g class="com.sun.star.drawing.LineShape">
   <g id="id38">
    <rect class="BoundingBox" stroke="none" fill="none" x="4726" y="3743" width="53" height="626"/>
    <path fill="none" stroke="rgb(0,0,0)" stroke-width="52" stroke-linejoin="miter" d="M 4752,3743 L 4752,4368"/>
   </g>
  </g>
  <g class="com.sun.star.drawing.PolyPolygonShape">
   <g id="id39">
    <rect class="BoundingBox" stroke="none" fill="none" x="4687" y="4336" width="132" height="132"/>
    <path fill="rgb(0,0,0)" stroke="none" d="M 4753,4467 L 4687,4336 4753,4368 4818,4336 4753,4467 Z"/>
   </g>
  </g>
  <g class="com.sun.star.drawing.PolyPolygonShape">
   <g id="id40">
    <rect class="BoundingBox" stroke="none" fill="none" x="4629" y="4278" width="248" height="249"/>
    <path fill="none" stroke="rgb(0,0,0)" stroke-width="52" stroke-linejoin="miter" d="M 4753,4467 L 4687,4336 4753,4368 4818,4336 4753,4467 Z"/>
   </g>
  </g>
  <g class="com.sun.star.drawing.ClosedBezierShape">
   <g id="id41">
    <rect class="BoundingBox" stroke="none" fill="none" x="7597" y="3757" width="86" height="121"/>
    <path fill="rgb(0,0,0)" stroke="none" d="M 7682,3842 C 7682,3828 7673,3819 7672,3819 7662,3810 7655,3808 7642,3806 7628,3802 7617,3800 7617,3787 7617,3772 7635,3772 7638,3772 7647,3772 7660,3773 7675,3781 L 7678,3765 C 7664,3759 7654,3757 7640,3757 7634,3757 7599,3757 7599,3790 7599,3802 7606,3811 7612,3816 7620,3822 7626,3823 7639,3825 7649,3827 7664,3830 7664,3843 7664,3861 7643,3861 7639,3861 7619,3861 7605,3851 7600,3848 L 7597,3865 C 7605,3870 7619,3877 7640,3877 7645,3877 7659,3877 7670,3869 7678,3862 7682,3852 7682,3842 Z"/>
   </g>
  </g>
  <g class="com.sun.star.drawing.ClosedBezierShape">
   <g id="id42">
    <rect class="BoundingBox" stroke="none" fill="none" x="7692" y="3761" width="111" height="166"/>
    <path fill="rgb(0,0,0)" stroke="none" d="M 7802,3761 L 7783,3761 C 7749,3842 7749,3853 7748,3859 7747,3842 7726,3795 7725,3793 L 7712,3761 7692,3761 7741,3874 7732,3897 C 7725,3912 7721,3912 7717,3912 7713,3912 7705,3911 7698,3908 L 7699,3924 C 7705,3925 7712,3926 7717,3926 7726,3925 7736,3922 7746,3897 L 7802,3761 Z"/>
   </g>
  </g>
  <g class="com.sun.star.drawing.ClosedBezierShape">
   <g id="id43">
    <rect class="BoundingBox" stroke="none" fill="none" x="7814" y="3757" width="85" height="121"/>
    <path fill="rgb(0,0,0)" stroke="none" d="M 7898,3842 C 7898,3828 7888,3819 7887,3819 7878,3810 7871,3808 7858,3806 7844,3802 7833,3800 7833,3787 7833,3772 7851,3772 7854,3772 7862,3772 7876,3773 7890,3781 L 7894,3765 C 7880,3759 7870,3757 7857,3757 7851,3757 7815,3757 7815,3790 7815,3802 7822,3811 7829,3816 7836,3822 7842,3823 7856,3825 7865,3827 7879,3830 7879,3843 7879,3861 7860,3861 7856,3861 7835,3861 7821,3851 7817,3848 L 7814,3865 C 7822,3870 7836,3877 7856,3877 7861,3877 7874,3877 7885,3869 7894,3862 7898,3852 7898,3842 Z"/>
   </g>
  </g>
  <g class="com.sun.star.drawing.ClosedBezierShape">
   <g id="id44">
    <rect class="BoundingBox" stroke="none" fill="none" x="7913" y="3757" width="98" height="121"/>
    <path fill="rgb(0,0,0)" stroke="none" d="M 8010,3864 L 8009,3847 C 7996,3857 7982,3860 7970,3860 7948,3860 7934,3842 7934,3818 7934,3797 7943,3773 7971,3773 7984,3773 7992,3775 8006,3784 L 8009,3768 C 7994,3759 7986,3757 7970,3757 7934,3757 7914,3787 7914,3818 7914,3849 7937,3877 7969,3877 7983,3877 7997,3873 8010,3864 Z"/>
   </g>
  </g>
  <g class="com.sun.star.drawing.ClosedBezierShape">
   <g id="id45">
    <rect class="BoundingBox" stroke="none" fill="none" x="8032" y="3757" width="91" height="121"/>
    <path fill="rgb(0,0,0)" stroke="none" d="M 8122,3874 L 8122,3800 C 8122,3775 8104,3757 8081,3757 8065,3757 8053,3761 8042,3768 L 8043,3784 C 8056,3775 8069,3772 8081,3772 8093,3772 8103,3782 8103,3801 L 8103,3812 C 8065,3813 8032,3823 8032,3845 8032,3856 8040,3877 8062,3877 8065,3877 8089,3876 8104,3865 L 8104,3874 8122,3874 Z M 8103,3841 C 8103,3845 8103,3852 8094,3856 8087,3861 8077,3861 8075,3861 8063,3861 8051,3855 8051,3845 8051,3827 8092,3826 8103,3825 L 8103,3841 Z"/>
   </g>
  </g>
  <g class="com.sun.star.drawing.PolyPolygonShape">
   <g id="id46">
    <rect class="BoundingBox" stroke="none" fill="none" x="8163" y="3699" width="20" height="176"/>
    <path fill="rgb(0,0,0)" stroke="none" d="M 8182,3874 L 8182,3699 8163,3699 8163,3874 8182,3874 Z"/>
   </g>
  </g>
  <g class="com.sun.star.drawing.PolyPolygonShape">
   <g id="id47">
    <rect class="BoundingBox" stroke="none" fill="none" x="8224" y="3699" width="20" height="176"/>
    <path fill="rgb(0,0,0)" stroke="none" d="M 8243,3874 L 8243,3699 8224,3699 8224,3874 8243,3874 Z"/>
   </g>
  </g>
  <g class="com.sun.star.drawing.PolyPolygonShape">
   <g id="id48">
    <rect class="BoundingBox" stroke="none" fill="none" x="7364" y="4030" width="26" height="167"/>
    <path fill="rgb(0,0,0)" stroke="none" d="M 7387,4196 L 7387,4084 7367,4084 7367,4196 7387,4196 Z M 7389,4052 L 7389,4030 7365,4030 7365,4052 7389,4052 Z"/>
   </g>
  </g>
  <g class="com.sun.star.drawing.ClosedBezierShape">
   <g id="id49">
    <rect class="BoundingBox" stroke="none" fill="none" x="7428" y="4080" width="91" height="117"/>
    <path fill="rgb(0,0,0)" stroke="none" d="M 7518,4196 L 7518,4121 C 7518,4103 7514,4080 7483,4080 7461,4080 7448,4098 7447,4100 L 7447,4082 7428,4082 7428,4196 7448,4196 7448,4134 C 7448,4118 7455,4096 7474,4096 7498,4096 7498,4115 7498,4123 L 7498,4196 7518,4196 Z"/>
   </g>
  </g>
  <g class="com.sun.star.drawing.ClosedBezierShape">
   <g id="id50">
    <rect class="BoundingBox" stroke="none" fill="none" x="7545" y="4050" width="80" height="150"/>
    <path fill="rgb(0,0,0)" stroke="none" d="M 7624,4188 L 7620,4173 C 7614,4179 7606,4182 7598,4182 7589,4182 7585,4174 7585,4161 L 7585,4097 7620,4097 7620,4083 7585,4083 7585,4050 7567,4050 7567,4083 7545,4083 7545,4097 7566,4097 7566,4165 C 7566,4180 7569,4198 7588,4198 7605,4198 7618,4192 7624,4188 Z"/>
   </g>
  </g>
  <g class="com.sun.star.drawing.ClosedBezierShape">
   <g id="id51">
    <rect class="BoundingBox" stroke="none" fill="none" x="7642" y="4078" width="97" height="121"/>
    <path fill="rgb(0,0,0)" stroke="none" d="M 7738,4139 C 7738,4130 7738,4111 7728,4097 7718,4081 7702,4078 7693,4078 7664,4078 7642,4105 7642,4137 7642,4171 7666,4198 7697,4198 7713,4198 7727,4192 7737,4185 L 7736,4168 C 7720,4182 7703,4183 7697,4183 7676,4183 7660,4165 7659,4139 L 7738,4139 Z M 7724,4125 L 7661,4125 C 7665,4106 7678,4094 7693,4094 7706,4094 7720,4102 7724,4125 Z"/>
   </g>
  </g>
  <g class="com.sun.star.drawing.ClosedBezierShape">
   <g id="id52">
    <rect class="BoundingBox" stroke="none" fill="none" x="7767" y="4080" width="64" height="117"/>
    <path fill="rgb(0,0,0)" stroke="none" d="M 7830,4097 L 7830,4080 C 7807,4081 7793,4093 7785,4105 L 7785,4082 7767,4082 7767,4196 7786,4196 7786,4142 C 7786,4117 7804,4098 7830,4097 Z"/>
   </g>
  </g>
  <g class="com.sun.star.drawing.ClosedBezierShape">
   <g id="id53">
    <rect class="BoundingBox" stroke="none" fill="none" x="7841" y="4018" width="83" height="179"/>
    <path fill="rgb(0,0,0)" stroke="none" d="M 7923,4038 L 7923,4021 C 7920,4020 7912,4018 7903,4018 7879,4018 7861,4036 7861,4061 L 7861,4084 7841,4084 7841,4098 7861,4098 7861,4196 7880,4196 7880,4098 7907,4098 7907,4084 7879,4084 7879,4054 C 7879,4035 7896,4033 7902,4033 7907,4033 7914,4034 7923,4038 Z"/>
   </g>
  </g>
  <g class="com.sun.star.drawing.ClosedBezierShape">
   <g id="id54">
    <rect class="BoundingBox" stroke="none" fill="none" x="7927" y="4078" width="91" height="121"/>
    <path fill="rgb(0,0,0)" stroke="none" d="M 8017,4195 L 8017,4122 C 8017,4096 7999,4078 7975,4078 7959,4078 7947,4082 7935,4089 L 7937,4106 C 7951,4096 7963,4093 7975,4093 7987,4093 7997,4103 7997,4122 L 7997,4133 C 7960,4133 7927,4144 7927,4167 7927,4178 7934,4198 7956,4198 7960,4198 7983,4197 7998,4186 L 7998,4195 8017,4195 Z M 7997,4162 C 7997,4167 7997,4173 7989,4178 7981,4182 7972,4183 7969,4183 7957,4183 7945,4177 7945,4166 7945,4148 7987,4146 7997,4146 L 7997,4162 Z"/>
   </g>
  </g>
  <g class="com.sun.star.drawing.ClosedBezierShape">
   <g id="id55">
    <rect class="BoundingBox" stroke="none" fill="none" x="8045" y="4078" width="98" height="121"/>
    <path fill="rgb(0,0,0)" stroke="none" d="M 8142,4185 L 8140,4168 C 8128,4178 8114,4182 8101,4182 8080,4182 8066,4164 8066,4138 8066,4119 8076,4094 8102,4094 8115,4094 8124,4096 8138,4105 L 8141,4089 C 8126,4081 8117,4078 8102,4078 8067,4078 8046,4109 8046,4138 8046,4170 8070,4198 8101,4198 8115,4198 8128,4194 8142,4185 Z"/>
   </g>
  </g>
  <g class="com.sun.star.drawing.ClosedBezierShape">
   <g id="id56">
    <rect class="BoundingBox" stroke="none" fill="none" x="8159" y="4078" width="97" height="121"/>
    <path fill="rgb(0,0,0)" stroke="none" d="M 8255,4139 C 8255,4130 8255,4111 8244,4097 8234,4081 8219,4078 8210,4078 8182,4078 8159,4105 8159,4137 8159,4171 8183,4198 8213,4198 8229,4198 8244,4192 8254,4185 L 8252,4168 C 8236,4182 8219,4183 8214,4183 8194,4183 8178,4165 8177,4139 L 8255,4139 Z M 8240,4125 L 8178,4125 C 8182,4106 8195,4094 8210,4094 8223,4094 8237,4102 8240,4125 Z"/>
   </g>
  </g>
 </g>
</svg>