<?xml version="1.0" encoding="UTF-8"?>
<!DOCTYPE svg PUBLIC "-//W3C//DTD SVG 1.1//EN" "http://www.w3.org/Graphics/SVG/1.1/DTD/svg11.dtd">
<svg version="1.2" width="69.62mm" height="47.51mm" viewBox="8349 2090 6962 4751" preserveAspectRatio="xMidYMid" fill-rule="evenodd" stroke-width="28.222" stroke-linejoin="round" xmlns="http://www.w3.org/2000/svg" xmlns:ooo="http://xml.openoffice.org/svg/export" xmlns:xlink="http://www.w3.org/1999/xlink" xmlns:presentation="http://sun.com/xmlns/staroffice/presentation" xmlns:smil="http://www.w3.org/2001/SMIL20/" xmlns:anim="urn:oasis:names:tc:opendocument:xmlns:animation:1.0" xml:space="preserve">
 <defs class="EmbeddedBulletChars">
  <g id="bullet-char-template-57356" transform="scale(0.00048828125,-0.00048828125)">
   <path d="M 580,1141 L 1163,571 580,0 -4,571 580,1141 Z"/>
  </g>
  <g id="bullet-char-template-57354" transform="scale(0.00048828125,-0.00048828125)">
   <path d="M 8,1128 L 1137,1128 1137,0 8,0 8,1128 Z"/>
  </g>
  <g id="bullet-char-template-10146" transform="scale(0.00048828125,-0.00048828125)">
   <path d="M 174,0 L 602,739 174,1481 1456,739 174,0 Z M 1358,739 L 309,1346 659,739 1358,739 Z"/>
  </g>
  <g id="bullet-char-template-10132" transform="scale(0.00048828125,-0.00048828125)">
   <path d="M 2015,739 L 1276,0 717,0 1260,543 174,543 174,936 1260,936 717,1481 1274,1481 2015,739 Z"/>
  </g>
  <g id="bullet-char-template-10007" transform="scale(0.00048828125,-0.00048828125)">
   <path d="M 0,-2 C -7,14 -16,27 -25,37 L 356,567 C 262,823 215,952 215,954 215,979 228,992 255,992 264,992 276,990 289,987 310,991 331,999 354,1012 L 381,999 492,748 772,1049 836,1024 860,1049 C 881,1039 901,1025 922,1006 886,937 835,863 770,784 769,783 710,716 594,584 L 774,223 C 774,196 753,168 711,139 L 727,119 C 717,90 699,76 672,76 641,76 570,178 457,381 L 164,-76 C 142,-110 111,-127 72,-127 30,-127 9,-110 8,-76 1,-67 -2,-52 -2,-32 -2,-23 -1,-13 0,-2 Z"/>
  </g>
  <g id="bullet-char-template-10004" transform="scale(0.00048828125,-0.00048828125)">
   <path d="M 285,-33 C 182,-33 111,30 74,156 52,228 41,333 41,471 41,549 55,616 82,672 116,743 169,778 240,778 293,778 328,747 346,684 L 369,508 C 377,444 397,411 428,410 L 1163,1116 C 1174,1127 1196,1133 1229,1133 1271,1133 1292,1118 1292,1087 L 1292,965 C 1292,929 1282,901 1262,881 L 442,47 C 390,-6 338,-33 285,-33 Z"/>
  </g>
  <g id="bullet-char-template-9679" transform="scale(0.00048828125,-0.00048828125)">
   <path d="M 813,0 C 632,0 489,54 383,161 276,268 223,411 223,592 223,773 276,916 383,1023 489,1130 632,1184 813,1184 992,1184 1136,1130 1245,1023 1353,916 1407,772 1407,592 1407,412 1353,268 1245,161 1136,54 992,0 813,0 Z"/>
  </g>
  <g id="bullet-char-template-8226" transform="scale(0.00048828125,-0.00048828125)">
   <path d="M 346,457 C 273,457 209,483 155,535 101,586 74,649 74,723 74,796 101,859 155,911 209,963 273,989 346,989 419,989 480,963 531,910 582,859 608,796 608,723 608,648 583,586 532,535 482,483 420,457 346,457 Z"/>
  </g>
  <g id="bullet-char-template-8211" transform="scale(0.00048828125,-0.00048828125)">
   <path d="M -4,459 L 1135,459 1135,606 -4,606 -4,459 Z"/>
  </g>
  <g id="bullet-char-template-61548" transform="scale(0.00048828125,-0.00048828125)">
   <path d="M 173,740 C 173,903 231,1043 346,1159 462,1274 601,1332 765,1332 928,1332 1067,1274 1183,1159 1299,1043 1357,903 1357,740 1357,577 1299,437 1183,322 1067,206 928,148 765,148 601,148 462,206 346,322 231,437 173,577 173,740 Z"/>
  </g>
 </defs>
 <g class="Page">
  <g class="com.sun.star.drawing.PolyPolygonShape">
   <g id="id3">
    <rect class="BoundingBox" stroke="none" fill="none" x="9032" y="5993" width="5190" height="848"/>
    <path fill="rgb(173,216,230)" stroke="none" d="M 9048,6824 L 14205,6824 14205,6010 9048,6010 9048,6824 Z"/>
    <path fill="none" stroke="rgb(92,172,255)" stroke-width="32" stroke-linejoin="miter" d="M 9048,6824 L 14205,6824 14205,6010 9048,6010 9048,6824 Z"/>
   </g>
  </g>
  <g class="com.sun.star.drawing.PolyPolygonShape">
   <g id="id4">
    <rect class="BoundingBox" stroke="none" fill="none" x="11227" y="6279" width="176" height="221"/>
    <path fill="rgb(0,0,0)" stroke="none" d="M 11402,6499 L 11312,6366 11396,6279 11367,6279 11253,6396 11253,6279 11227,6279 11227,6499 11253,6499 11253,6426 11295,6383 11372,6499 11402,6499 Z"/>
   </g>
  </g>
  <g class="com.sun.star.drawing.ClosedBezierShape">
   <g id="id5">
    <rect class="BoundingBox" stroke="none" fill="none" x="11430" y="6352" width="121" height="150"/>
    <path fill="rgb(0,0,0)" stroke="none" d="M 11550,6428 C 11550,6417 11550,6394 11538,6375 11525,6356 11506,6352 11493,6352 11458,6352 11430,6385 11430,6425 11430,6468 11460,6501 11498,6501 11519,6501 11537,6494 11549,6485 L 11547,6464 C 11527,6481 11506,6482 11498,6482 11473,6482 11453,6460 11452,6428 L 11550,6428 Z M 11532,6410 L 11454,6410 C 11459,6387 11475,6371 11493,6371 11511,6371 11528,6382 11532,6410 Z"/>
   </g>
  </g>
  <g class="com.sun.star.drawing.ClosedBezierShape">
   <g id="id6">
    <rect class="BoundingBox" stroke="none" fill="none" x="11587" y="6355" width="79" height="145"/>
    <path fill="rgb(0,0,0)" stroke="none" d="M 11665,6376 L 11665,6355 C 11637,6355 11620,6371 11610,6385 L 11610,6356 11587,6356 11587,6499 11612,6499 11612,6430 C 11612,6399 11634,6377 11665,6376 Z"/>
   </g>
  </g>
  <g class="com.sun.star.drawing.ClosedBezierShape">
   <g id="id7">
    <rect class="BoundingBox" stroke="none" fill="none" x="11696" y="6355" width="114" height="145"/>
    <path fill="rgb(0,0,0)" stroke="none" d="M 11809,6499 L 11809,6404 C 11809,6383 11804,6355 11766,6355 11737,6355 11722,6376 11720,6379 L 11720,6356 11696,6356 11696,6499 11722,6499 11722,6421 C 11722,6400 11730,6374 11754,6374 11784,6374 11784,6396 11784,6406 L 11784,6499 11809,6499 Z"/>
   </g>
  </g>
  <g class="com.sun.star.drawing.ClosedBezierShape">
   <g id="id8">
    <rect class="BoundingBox" stroke="none" fill="none" x="11848" y="6352" width="121" height="150"/>
    <path fill="rgb(0,0,0)" stroke="none" d="M 11968,6428 C 11968,6417 11967,6394 11955,6375 11942,6356 11923,6352 11912,6352 11877,6352 11848,6385 11848,6425 11848,6468 11879,6501 11917,6501 11936,6501 11954,6494 11966,6485 L 11965,6464 C 11945,6481 11924,6482 11917,6482 11892,6482 11872,6460 11871,6428 L 11968,6428 Z M 11950,6410 L 11872,6410 C 11877,6387 11894,6371 11912,6371 11928,6371 11946,6382 11950,6410 Z"/>
   </g>
  </g>
  <g class="com.sun.star.drawing.PolyPolygonShape">
   <g id="id9">
    <rect class="BoundingBox" stroke="none" fill="none" x="12004" y="6279" width="26" height="221"/>
    <path fill="rgb(0,0,0)" stroke="none" d="M 12029,6499 L 12029,6279 12004,6279 12004,6499 12029,6499 Z"/>
   </g>
  </g>
  <g class="com.sun.star.drawing.LineShape">
   <g id="id10">
    <rect class="BoundingBox" stroke="none" fill="none" x="8349" y="4790" width="6962" height="33"/>
    <path fill="none" stroke="rgb(217,203,47)" stroke-width="32" stroke-linejoin="miter" d="M 8349,4806 L 15310,4806"/>
   </g>
  </g>
  <g class="com.sun.star.drawing.PolyPolygonShape">
   <g id="id11">
    <rect class="BoundingBox" stroke="none" fill="none" x="8984" y="4530" width="2311" height="549"/>
    <path fill="rgb(255,248,168)" stroke="none" d="M 9000,5062 L 11278,5062 11278,4546 9000,4546 9000,5062 Z"/>
    <path fill="none" stroke="rgb(217,203,47)" stroke-width="32" stroke-linejoin="miter" d="M 9000,5062 L 11278,5062 11278,4546 9000,4546 9000,5062 Z"/>
   </g>
  </g>
  <g class="com.sun.star.drawing.ClosedBezierShape">
   <g id="id12">
    <rect class="BoundingBox" stroke="none" fill="none" x="9508" y="4733" width="119" height="199"/>
    <path fill="rgb(0,0,0)" stroke="none" d="M 9508,4931 L 9508,4737 9526,4737 9529,4755 9530,4755 C 9534,4748 9539,4743 9545,4739 9552,4736 9560,4734 9571,4734 9588,4734 9601,4740 9611,4751 9621,4763 9625,4781 9625,4805 9625,4828 9621,4845 9611,4857 9601,4869 9588,4875 9571,4875 9560,4875 9552,4873 9546,4869 9539,4865 9534,4860 9530,4855 L 9529,4855 C 9530,4861 9530,4868 9530,4875 L 9530,4931 9508,4931 Z M 9565,4857 C 9579,4857 9588,4852 9594,4844 9600,4835 9602,4822 9602,4804 9602,4786 9600,4773 9594,4765 9588,4756 9579,4752 9565,4752 9553,4752 9544,4756 9538,4764 9533,4772 9530,4784 9530,4799 L 9530,4805 C 9530,4821 9533,4833 9538,4843 9543,4852 9552,4857 9565,4857 Z"/>
   </g>
  </g>
  <g class="com.sun.star.drawing.ClosedBezierShape">
   <g id="id13">
    <rect class="BoundingBox" stroke="none" fill="none" x="9656" y="4700" width="118" height="176"/>
    <path fill="rgb(0,0,0)" stroke="none" d="M 9744,4875 C 9734,4875 9726,4874 9717,4871 9710,4869 9704,4864 9699,4858 9695,4851 9693,4842 9693,4831 L 9693,4755 9656,4755 9656,4740 9693,4736 9697,4700 9715,4700 9715,4737 9769,4737 9769,4755 9715,4755 9715,4827 C 9715,4837 9719,4845 9723,4849 9728,4854 9735,4857 9745,4857 9750,4857 9754,4856 9759,4855 9764,4854 9769,4854 9773,4853 L 9773,4871 C 9768,4872 9764,4873 9759,4874 9754,4874 9749,4875 9744,4875 Z"/>
   </g>
  </g>
  <g class="com.sun.star.drawing.ClosedBezierShape">
   <g id="id14">
    <rect class="BoundingBox" stroke="none" fill="none" x="9812" y="4734" width="130" height="139"/>
    <path fill="rgb(0,0,0)" stroke="none" d="M 9812,4872 L 9812,4856 9853,4852 9853,4755 9816,4751 9816,4737 9871,4737 9874,4761 9875,4761 C 9880,4752 9885,4745 9890,4741 9896,4736 9903,4734 9913,4734 9918,4734 9924,4734 9929,4735 9933,4736 9937,4738 9941,4739 L 9935,4759 C 9932,4757 9929,4756 9925,4754 9922,4753 9917,4752 9913,4752 9905,4752 9899,4754 9894,4759 9888,4764 9884,4770 9880,4777 9877,4785 9876,4794 9876,4803 L 9876,4852 9915,4856 9915,4872 9812,4872 Z"/>
   </g>
  </g>
  <g class="com.sun.star.drawing.ClosedBezierShape">
   <g id="id15">
    <rect class="BoundingBox" stroke="none" fill="none" x="9968" y="4734" width="113" height="142"/>
    <path fill="rgb(0,0,0)" stroke="none" d="M 10012,4875 C 9999,4875 9989,4872 9980,4865 9972,4858 9968,4848 9968,4835 9968,4819 9973,4809 9984,4801 9994,4794 10010,4790 10029,4790 L 10058,4790 10058,4785 C 10058,4772 10055,4764 10049,4759 10043,4754 10035,4752 10025,4752 10018,4752 10011,4753 10004,4755 9998,4757 9991,4760 9986,4763 L 9978,4746 C 9984,4742 9991,4740 9999,4737 10007,4735 10016,4734 10026,4734 10043,4734 10056,4738 10066,4745 10075,4753 10080,4765 10080,4781 L 10080,4872 10061,4872 10058,4854 10057,4854 C 10052,4861 10045,4866 10038,4870 10031,4873 10022,4875 10012,4875 Z M 10016,4857 C 10024,4857 10031,4855 10037,4852 10043,4850 10049,4846 10052,4840 10056,4835 10058,4827 10058,4818 L 10058,4807 10034,4807 C 10018,4807 10007,4809 10000,4814 9993,4818 9990,4825 9990,4834 9990,4842 9992,4848 9997,4851 10002,4855 10008,4857 10016,4857 Z"/>
   </g>
  </g>
  <g class="com.sun.star.drawing.ClosedBezierShape">
   <g id="id16">
    <rect class="BoundingBox" stroke="none" fill="none" x="10125" y="4734" width="109" height="142"/>
    <path fill="rgb(0,0,0)" stroke="none" d="M 10191,4875 C 10171,4875 10156,4869 10144,4859 10132,4848 10126,4829 10126,4805 10126,4788 10129,4774 10136,4763 10141,4753 10149,4745 10159,4741 10169,4736 10180,4734 10193,4734 10201,4734 10208,4735 10215,4736 10221,4738 10227,4740 10233,4743 L 10226,4761 C 10221,4758 10216,4756 10211,4754 10205,4753 10200,4752 10194,4752 10179,4752 10168,4757 10161,4765 10154,4774 10150,4787 10150,4804 10150,4823 10154,4837 10161,4845 10169,4853 10179,4857 10193,4857 10201,4857 10208,4856 10214,4854 10221,4852 10226,4851 10231,4848 L 10231,4868 C 10226,4870 10220,4872 10213,4873 10205,4874 10198,4875 10191,4875 Z"/>
   </g>
  </g>
  <g class="com.sun.star.drawing.ClosedBezierShape">
   <g id="id17">
    <rect class="BoundingBox" stroke="none" fill="none" x="10274" y="4734" width="124" height="142"/>
    <path fill="rgb(0,0,0)" stroke="none" d="M 10344,4875 C 10322,4875 10305,4869 10293,4857 10281,4845 10274,4827 10274,4804 10274,4790 10277,4777 10283,4766 10288,4756 10295,4748 10305,4742 10314,4737 10326,4734 10338,4734 10356,4734 10370,4740 10381,4751 10391,4763 10396,4778 10396,4798 L 10396,4809 10297,4809 C 10298,4820 10300,4831 10304,4838 10308,4844 10314,4849 10321,4852 10328,4855 10336,4857 10346,4857 10353,4857 10360,4856 10367,4854 10375,4852 10383,4849 10390,4846 L 10390,4866 C 10382,4869 10374,4871 10366,4873 10358,4874 10351,4875 10344,4875 Z M 10372,4790 C 10372,4778 10369,4769 10363,4762 10357,4756 10349,4752 10338,4752 10327,4752 10318,4756 10311,4762 10304,4769 10300,4779 10298,4790 L 10372,4790 Z"/>
   </g>
  </g>
  <g class="com.sun.star.drawing.ClosedBezierShape">
   <g id="id18">
    <rect class="BoundingBox" stroke="none" fill="none" x="10464" y="4690" width="60" height="222"/>
    <path fill="rgb(0,0,0)" stroke="none" d="M 10501,4911 C 10488,4896 10479,4880 10473,4861 10467,4842 10464,4823 10464,4802 10464,4782 10467,4762 10473,4743 10479,4724 10488,4706 10501,4691 L 10523,4691 C 10510,4707 10501,4725 10495,4744 10489,4763 10486,4782 10486,4802 10486,4822 10489,4841 10495,4859 10501,4878 10510,4895 10522,4911 L 10501,4911 Z"/>
   </g>
  </g>
  <g class="com.sun.star.drawing.ClosedBezierShape">
   <g id="id19">
    <rect class="BoundingBox" stroke="none" fill="none" x="10611" y="4692" width="60" height="223"/>
    <path fill="rgb(0,0,0)" stroke="none" d="M 10633,4692 C 10645,4707 10655,4725 10661,4743 10667,4762 10670,4782 10670,4802 10670,4822 10667,4842 10661,4861 10655,4880 10645,4897 10633,4913 L 10611,4913 C 10623,4897 10632,4879 10638,4860 10644,4842 10647,4822 10647,4802 10647,4783 10644,4764 10638,4745 10632,4726 10623,4708 10611,4692 L 10633,4692 Z"/>
   </g>
  </g>
  <g class="com.sun.star.drawing.LineShape">
   <g id="id20">
    <rect class="BoundingBox" stroke="none" fill="none" x="10105" y="3244" width="67" height="1108"/>
    <path fill="none" stroke="rgb(0,0,0)" stroke-width="65" stroke-linejoin="miter" d="M 10138,3245 L 10138,4351"/>
   </g>
  </g>
  <g class="com.sun.star.drawing.PolyPolygonShape">
   <g id="id21">
    <rect class="BoundingBox" stroke="none" fill="none" x="10057" y="4311" width="164" height="164"/>
    <path fill="rgb(0,0,0)" stroke="none" d="M 10139,4474 L 10057,4311 10139,4351 10220,4311 10139,4474 Z"/>
   </g>
  </g>
  <g class="com.sun.star.drawing.PolyPolygonShape">
   <g id="id22">
    <rect class="BoundingBox" stroke="none" fill="none" x="9984" y="4239" width="309" height="309"/>
    <path fill="none" stroke="rgb(0,0,0)" stroke-width="65" stroke-linejoin="miter" d="M 10139,4474 L 10057,4311 10139,4351 10220,4311 10139,4474 Z"/>
   </g>
  </g>
  <g class="com.sun.star.drawing.LineShape">
   <g id="id23">
    <rect class="BoundingBox" stroke="none" fill="none" x="10105" y="5060" width="67" height="756"/>
    <path fill="none" stroke="rgb(0,0,0)" stroke-width="65" stroke-linejoin="miter" d="M 10138,5061 L 10138,5815"/>
   </g>
  </g>
  <g class="com.sun.star.drawing.PolyPolygonShape">
   <g id="id24">
    <rect class="BoundingBox" stroke="none" fill="none" x="10057" y="5774" width="164" height="165"/>
    <path fill="rgb(0,0,0)" stroke="none" d="M 10139,5938 L 10057,5774 10139,5815 10220,5774 10139,5938 Z"/>
   </g>
  </g>
  <g class="com.sun.star.drawing.PolyPolygonShape">
   <g id="id25">
    <rect class="BoundingBox" stroke="none" fill="none" x="9984" y="5700" width="310" height="313"/>
    <path fill="none" stroke="rgb(0,0,0)" stroke-width="65" stroke-linejoin="miter" d="M 10139,5938 L 10057,5774 10139,5815 10220,5774 10139,5938 Z"/>
   </g>
  </g>
  <g class="com.sun.star.drawing.PolyPolygonShape">
   <g id="id26">
    <rect class="BoundingBox" stroke="none" fill="none" x="11911" y="2090" width="2311" height="1173"/>
    <path fill="rgb(173,216,230)" stroke="none" d="M 11927,3246 L 14205,3246 14205,2106 11927,2106 11927,3246 Z"/>
    <path fill="none" stroke="rgb(92,172,255)" stroke-width="32" stroke-linejoin="miter" d="M 11927,3246 L 14205,3246 14205,2106 11927,2106 11927,3246 Z"/>
   </g>
  </g>
  <g class="com.sun.star.drawing.ClosedBezierShape">
   <g id="id27">
    <rect class="BoundingBox" stroke="none" fill="none" x="12283" y="2375" width="154" height="221"/>
    <path fill="rgb(0,0,0)" stroke="none" d="M 12436,2439 C 12436,2406 12405,2376 12361,2376 L 12283,2376 12283,2595 12311,2595 12311,2503 12363,2503 C 12403,2503 12436,2474 12436,2439 Z M 12411,2439 C 12411,2464 12391,2484 12354,2484 L 12310,2484 12310,2394 12354,2394 C 12389,2394 12411,2413 12411,2439 Z"/>
   </g>
  </g>
  <g class="com.sun.star.drawing.ClosedBezierShape">
   <g id="id28">
    <rect class="BoundingBox" stroke="none" fill="none" x="12482" y="2451" width="80" height="145"/>
    <path fill="rgb(0,0,0)" stroke="none" d="M 12561,2472 L 12561,2451 C 12533,2452 12516,2467 12506,2482 L 12506,2453 12483,2453 12483,2595 12508,2595 12508,2528 C 12508,2497 12530,2473 12561,2472 Z"/>
   </g>
  </g>
  <g class="com.sun.star.drawing.ClosedBezierShape">
   <g id="id29">
    <rect class="BoundingBox" stroke="none" fill="none" x="12576" y="2449" width="140" height="150"/>
    <path fill="rgb(0,0,0)" stroke="none" d="M 12715,2524 C 12715,2482 12684,2449 12645,2449 12607,2449 12576,2483 12576,2524 12576,2566 12608,2598 12645,2598 12684,2598 12715,2565 12715,2524 Z M 12691,2521 C 12691,2558 12668,2577 12645,2577 12623,2577 12601,2559 12601,2521 12601,2483 12625,2468 12645,2468 12667,2468 12691,2484 12691,2521 Z"/>
   </g>
  </g>
  <g class="com.sun.star.drawing.ClosedBezierShape">
   <g id="id30">
    <rect class="BoundingBox" stroke="none" fill="none" x="12748" y="2449" width="121" height="150"/>
    <path fill="rgb(0,0,0)" stroke="none" d="M 12868,2581 L 12866,2560 C 12850,2572 12833,2577 12817,2577 12790,2577 12772,2554 12772,2523 12772,2499 12784,2469 12818,2469 12835,2469 12845,2471 12863,2483 L 12866,2462 C 12848,2452 12837,2449 12818,2449 12773,2449 12748,2487 12748,2524 12748,2563 12777,2598 12817,2598 12834,2598 12851,2593 12868,2581 Z"/>
   </g>
  </g>
  <g class="com.sun.star.drawing.ClosedBezierShape">
   <g id="id31">
    <rect class="BoundingBox" stroke="none" fill="none" x="12890" y="2449" width="121" height="150"/>
    <path fill="rgb(0,0,0)" stroke="none" d="M 13010,2524 C 13010,2514 13009,2490 12997,2472 12984,2452 12965,2449 12954,2449 12918,2449 12890,2482 12890,2522 12890,2564 12920,2598 12959,2598 12978,2598 12996,2589 13009,2581 L 13007,2560 C 12987,2576 12966,2578 12959,2578 12934,2578 12913,2555 12912,2524 L 13010,2524 Z M 12992,2507 L 12913,2507 C 12918,2483 12936,2468 12954,2468 12970,2468 12988,2478 12992,2507 Z"/>
   </g>
  </g>
  <g class="com.sun.star.drawing.ClosedBezierShape">
   <g id="id32">
    <rect class="BoundingBox" stroke="none" fill="none" x="13030" y="2449" width="106" height="150"/>
    <path fill="rgb(0,0,0)" stroke="none" d="M 13135,2553 C 13135,2536 13123,2525 13123,2524 13111,2513 13102,2512 13086,2509 13069,2505 13055,2502 13055,2487 13055,2467 13077,2467 13081,2467 13091,2467 13108,2469 13126,2479 L 13130,2459 C 13113,2451 13101,2449 13085,2449 13077,2449 13031,2449 13031,2490 13031,2505 13041,2515 13048,2521 13059,2528 13066,2529 13083,2533 13095,2535 13113,2539 13113,2555 13113,2577 13088,2577 13083,2577 13058,2577 13039,2566 13034,2562 L 13030,2583 C 13040,2588 13058,2598 13084,2598 13089,2598 13106,2598 13120,2587 13130,2579 13135,2567 13135,2553 Z"/>
   </g>
  </g>
  <g class="com.sun.star.drawing.ClosedBezierShape">
   <g id="id33">
    <rect class="BoundingBox" stroke="none" fill="none" x="13153" y="2449" width="107" height="150"/>
    <path fill="rgb(0,0,0)" stroke="none" d="M 13258,2553 C 13258,2536 13246,2525 13245,2524 13233,2513 13225,2512 13209,2509 13192,2505 13177,2502 13177,2487 13177,2467 13200,2467 13204,2467 13214,2467 13231,2469 13249,2479 L 13252,2459 C 13236,2451 13223,2449 13207,2449 13199,2449 13154,2449 13154,2490 13154,2505 13164,2515 13172,2521 13182,2528 13189,2529 13206,2533 13217,2535 13235,2539 13235,2555 13235,2577 13211,2577 13206,2577 13181,2577 13163,2566 13157,2562 L 13153,2583 C 13164,2588 13181,2598 13206,2598 13212,2598 13229,2598 13243,2587 13252,2579 13258,2567 13258,2553 Z"/>
   </g>
  </g>
  <g class="com.sun.star.drawing.ClosedBezierShape">
   <g id="id34">
    <rect class="BoundingBox" stroke="none" fill="none" x="13403" y="2375" width="164" height="221"/>
    <path fill="rgb(0,0,0)" stroke="none" d="M 13566,2536 C 13566,2509 13539,2485 13506,2480 13534,2473 13558,2455 13558,2431 13558,2402 13524,2376 13479,2376 L 13404,2376 13404,2595 13488,2595 C 13533,2594 13566,2566 13566,2535 L 13566,2536 Z M 13533,2431 C 13533,2449 13511,2470 13468,2470 L 13430,2470 13430,2394 13471,2394 C 13506,2393 13533,2409 13533,2430 L 13533,2431 Z M 13541,2535 C 13541,2559 13513,2578 13479,2578 L 13430,2578 13430,2489 13477,2489 C 13510,2491 13541,2511 13541,2536 L 13541,2535 Z"/>
   </g>
  </g>
  <g class="com.sun.star.drawing.ClosedBezierShape">
   <g id="id35">
    <rect class="BoundingBox" stroke="none" fill="none" x="12277" y="2761" width="82" height="315"/>
    <path fill="rgb(0,0,0)" stroke="none" d="M 12358,3075 C 12343,3060 12303,3020 12303,2918 12303,2900 12304,2864 12317,2827 12329,2791 12347,2772 12358,2762 L 12339,2762 C 12328,2771 12307,2790 12293,2828 12279,2862 12277,2895 12277,2918 12277,3020 12323,3061 12339,3075 L 12358,3075 Z"/>
   </g>
  </g>
  <g class="com.sun.star.drawing.ClosedBezierShape">
   <g id="id36">
    <rect class="BoundingBox" stroke="none" fill="none" x="12389" y="2778" width="127" height="223"/>
    <path fill="rgb(0,0,0)" stroke="none" d="M 12515,2996 L 12515,2778 12491,2778 12491,2869 C 12475,2857 12456,2853 12444,2853 12413,2853 12389,2886 12389,2926 12389,2968 12413,3000 12443,3000 12453,3000 12473,2997 12490,2980 L 12490,2996 12515,2996 Z M 12490,2952 C 12490,2957 12490,2962 12480,2973 12473,2978 12465,2980 12456,2980 12436,2980 12413,2966 12413,2927 12413,2885 12440,2872 12459,2872 12474,2871 12483,2878 12490,2888 L 12490,2952 Z"/>
   </g>
  </g>
  <g class="com.sun.star.drawing.ClosedBezierShape">
   <g id="id37">
    <rect class="BoundingBox" stroke="none" fill="none" x="12554" y="2850" width="121" height="151"/>
    <path fill="rgb(0,0,0)" stroke="none" d="M 12674,2927 C 12674,2916 12674,2893 12662,2873 12649,2854 12630,2850 12618,2850 12584,2850 12554,2883 12554,2925 12554,2966 12585,3000 12623,3000 12643,3000 12661,2992 12673,2983 L 12671,2963 C 12651,2979 12631,2980 12623,2980 12598,2980 12578,2958 12577,2927 L 12674,2927 Z M 12656,2910 L 12579,2910 C 12584,2885 12601,2870 12618,2870 12635,2870 12652,2880 12656,2910 Z"/>
   </g>
  </g>
  <g class="com.sun.star.drawing.ClosedBezierShape">
   <g id="id38">
    <rect class="BoundingBox" stroke="none" fill="none" x="12711" y="2778" width="127" height="223"/>
    <path fill="rgb(0,0,0)" stroke="none" d="M 12837,2926 C 12837,2887 12815,2853 12785,2853 12773,2853 12754,2856 12735,2872 L 12735,2778 12711,2778 12711,2997 12736,2996 12736,2982 C 12743,2989 12757,3000 12778,3000 12809,3000 12837,2967 12837,2926 Z M 12812,2926 C 12812,2966 12785,2980 12766,2980 12754,2980 12744,2975 12736,2960 L 12736,2891 C 12741,2883 12752,2872 12769,2872 12788,2872 12812,2886 12812,2926 Z"/>
   </g>
  </g>
  <g class="com.sun.star.drawing.ClosedBezierShape">
   <g id="id39">
    <rect class="BoundingBox" stroke="none" fill="none" x="12876" y="2856" width="114" height="145"/>
    <path fill="rgb(0,0,0)" stroke="none" d="M 12989,2996 L 12989,2856 12964,2856 12964,2948 C 12964,2971 12947,2982 12926,2982 12903,2982 12901,2974 12901,2961 L 12901,2856 12877,2856 12877,2962 C 12877,2984 12884,3000 12910,3000 12927,3000 12950,2994 12965,2981 L 12965,2996 12989,2996 Z"/>
   </g>
  </g>
  <g class="com.sun.star.drawing.ClosedBezierShape">
   <g id="id40">
    <rect class="BoundingBox" stroke="none" fill="none" x="13026" y="2853" width="145" height="210"/>
    <path fill="rgb(0,0,0)" stroke="none" d="M 13170,2873 L 13167,2853 C 13145,2853 13127,2859 13117,2863 13111,2858 13100,2853 13087,2853 13059,2853 13036,2876 13036,2904 13036,2916 13041,2927 13047,2935 13038,2948 13038,2960 13038,2962 13038,2970 13041,2979 13046,2986 13030,2996 13026,3010 13026,3018 13026,3042 13057,3061 13096,3061 13135,3061 13166,3042 13166,3018 13166,2973 13113,2973 13101,2973 L 13073,2973 C 13068,2973 13054,2973 13054,2957 13054,2953 13056,2948 13058,2945 13064,2950 13075,2955 13087,2955 13116,2955 13138,2931 13138,2903 13138,2888 13131,2877 13127,2872 L 13128,2872 C 13135,2872 13144,2871 13152,2871 13157,2871 13170,2872 13170,2872 L 13170,2873 Z M 13116,2903 C 13116,2928 13101,2937 13087,2937 13075,2937 13058,2930 13058,2904 13058,2878 13075,2871 13087,2871 13101,2871 13116,2880 13116,2904 L 13116,2903 Z M 13144,3019 C 13144,3032 13122,3043 13096,3043 13070,3043 13048,3033 13048,3018 13048,3017 13048,2997 13072,2997 L 13101,2997 C 13108,2997 13144,2997 13144,3018 L 13144,3019 Z"/>
   </g>
  </g>
  <g class="com.sun.star.drawing.ClosedBezierShape">
   <g id="id41">
    <rect class="BoundingBox" stroke="none" fill="none" x="13187" y="2853" width="145" height="210"/>
    <path fill="rgb(0,0,0)" stroke="none" d="M 13331,2873 L 13328,2853 C 13306,2853 13287,2859 13278,2863 13271,2858 13261,2853 13248,2853 13220,2853 13197,2876 13197,2904 13197,2916 13201,2927 13208,2935 13199,2948 13199,2960 13199,2962 13199,2970 13201,2979 13207,2986 13190,2996 13187,3010 13187,3018 13187,3042 13218,3061 13257,3061 13296,3061 13327,3042 13327,3018 13327,2973 13274,2973 13262,2973 L 13234,2973 C 13230,2973 13215,2973 13215,2957 13215,2953 13216,2948 13219,2945 13225,2950 13237,2955 13248,2955 13276,2955 13298,2931 13298,2903 13298,2888 13292,2877 13288,2872 L 13289,2872 C 13296,2872 13305,2871 13313,2871 13318,2871 13331,2872 13331,2872 L 13331,2873 Z M 13276,2903 C 13276,2928 13262,2937 13248,2937 13237,2937 13219,2930 13219,2904 13219,2878 13237,2871 13248,2871 13262,2871 13276,2880 13276,2904 L 13276,2903 Z M 13305,3019 C 13305,3032 13283,3043 13257,3043 13232,3043 13209,3033 13209,3018 13209,3017 13209,2997 13234,2997 L 13262,2997 C 13269,2997 13305,2997 13305,3018 L 13305,3019 Z"/>
   </g>
  </g>
  <g class="com.sun.star.drawing.ClosedBezierShape">
   <g id="id42">
    <rect class="BoundingBox" stroke="none" fill="none" x="13350" y="2850" width="121" height="151"/>
    <path fill="rgb(0,0,0)" stroke="none" d="M 13470,2927 C 13470,2916 13469,2893 13457,2873 13444,2854 13425,2850 13414,2850 13378,2850 13350,2883 13350,2925 13350,2966 13380,3000 13419,3000 13438,3000 13456,2992 13468,2983 L 13467,2963 C 13447,2979 13426,2980 13419,2980 13394,2980 13373,2958 13372,2927 L 13470,2927 Z M 13452,2910 L 13373,2910 C 13378,2885 13396,2870 13414,2870 13430,2870 13448,2880 13452,2910 Z"/>
   </g>
  </g>
  <g class="com.sun.star.drawing.ClosedBezierShape">
   <g id="id43">
    <rect class="BoundingBox" stroke="none" fill="none" x="13492" y="2850" width="121" height="151"/>
    <path fill="rgb(0,0,0)" stroke="none" d="M 13612,2927 C 13612,2916 13612,2893 13599,2873 13586,2854 13567,2850 13556,2850 13521,2850 13492,2883 13492,2925 13492,2966 13523,3000 13561,3000 13580,3000 13598,2992 13611,2983 L 13609,2963 C 13589,2979 13568,2980 13561,2980 13536,2980 13516,2958 13515,2927 L 13612,2927 Z M 13594,2910 L 13516,2910 C 13521,2885 13538,2870 13556,2870 13572,2870 13590,2880 13594,2910 Z"/>
   </g>
  </g>
  <g class="com.sun.star.drawing.ClosedBezierShape">
   <g id="id44">
    <rect class="BoundingBox" stroke="none" fill="none" x="13641" y="2761" width="82" height="315"/>
    <path fill="rgb(0,0,0)" stroke="none" d="M 13721,2918 C 13721,2817 13675,2775 13660,2762 L 13641,2762 C 13656,2777 13696,2817 13696,2918 13696,2935 13695,2973 13682,3010 13669,3046 13651,3065 13641,3075 L 13660,3075 C 13670,3066 13691,3047 13705,3008 13719,2975 13721,2941 13721,2918 Z"/>
   </g>
  </g>
  <g class="com.sun.star.drawing.PolyLineShape">
   <g id="id45">
    <rect class="BoundingBox" stroke="none" fill="none" x="10114" y="2651" width="2979" height="3547"/>
    <path fill="none" stroke="rgb(204,31,26)" stroke-width="48" stroke-linejoin="round" d="M 10138,2675 L 10952,2675 10952,6173 13067,6173 13067,3421"/>
   </g>
  </g>
  <g class="com.sun.star.drawing.PolyPolygonShape">
   <g id="id46">
    <rect class="BoundingBox" stroke="none" fill="none" x="12984" y="3299" width="165" height="165"/>
    <path fill="rgb(204,31,26)" stroke="none" d="M 13067,3299 L 13148,3463 13067,3422 12984,3463 13067,3299 Z"/>
   </g>
  </g>
  <g class="com.sun.star.drawing.PolyPolygonShape">
   <g id="id47">
    <rect class="BoundingBox" stroke="none" fill="none" x="12930" y="3245" width="273" height="273"/>
    <path fill="none" stroke="rgb(204,31,26)" stroke-width="48" stroke-linejoin="miter" d="M 13067,3299 L 13148,3463 13067,3422 12984,3463 13067,3299 Z"/>
   </g>
  </g>
  <g class="com.sun.star.drawing.PolyPolygonShape">
   <g id="id48">
    <rect class="BoundingBox" stroke="none" fill="none" x="8984" y="2090" width="2311" height="1173"/>
    <path fill="rgb(173,216,230)" stroke="none" d="M 9000,3246 L 11278,3246 11278,2106 9000,2106 9000,3246 Z"/>
    <path fill="none" stroke="rgb(92,172,255)" stroke-width="32" stroke-linejoin="miter" d="M 9000,3246 L 11278,3246 11278,2106 9000,2106 9000,3246 Z"/>
   </g>
  </g>
  <g class="com.sun.star.drawing.ClosedBezierShape">
   <g id="id49">
    <rect class="BoundingBox" stroke="none" fill="none" x="9355" y="2375" width="156" height="221"/>
    <path fill="rgb(0,0,0)" stroke="none" d="M 9509,2439 C 9509,2406 9477,2376 9433,2376 L 9355,2376 9355,2595 9383,2595 9383,2503 9435,2503 C 9474,2503 9509,2474 9509,2439 Z M 9482,2439 C 9482,2464 9462,2484 9426,2484 L 9382,2484 9382,2394 9426,2394 C 9461,2394 9482,2413 9482,2439 Z"/>
   </g>
  </g>
  <g class="com.sun.star.drawing.ClosedBezierShape">
   <g id="id50">
    <rect class="BoundingBox" stroke="none" fill="none" x="9555" y="2451" width="79" height="145"/>
    <path fill="rgb(0,0,0)" stroke="none" d="M 9633,2472 L 9633,2451 C 9604,2452 9587,2467 9577,2482 L 9577,2453 9555,2453 9555,2595 9579,2595 9579,2528 C 9579,2497 9602,2473 9633,2472 Z"/>
   </g>
  </g>
  <g class="com.sun.star.drawing.ClosedBezierShape">
   <g id="id51">
    <rect class="BoundingBox" stroke="none" fill="none" x="9649" y="2449" width="140" height="150"/>
    <path fill="rgb(0,0,0)" stroke="none" d="M 9788,2524 C 9788,2482 9756,2449 9719,2449 9680,2449 9649,2483 9649,2524 9649,2566 9682,2598 9718,2598 9756,2598 9788,2565 9788,2524 Z M 9763,2521 C 9763,2558 9742,2577 9718,2577 9697,2577 9674,2559 9674,2521 9674,2483 9698,2468 9718,2468 9740,2468 9763,2484 9763,2521 Z"/>
   </g>
  </g>
  <g class="com.sun.star.drawing.ClosedBezierShape">
   <g id="id52">
    <rect class="BoundingBox" stroke="none" fill="none" x="9820" y="2449" width="121" height="150"/>
    <path fill="rgb(0,0,0)" stroke="none" d="M 9940,2581 L 9939,2560 C 9923,2572 9906,2577 9890,2577 9864,2577 9845,2554 9845,2523 9845,2499 9858,2469 9891,2469 9907,2469 9918,2471 9935,2483 L 9939,2462 C 9920,2452 9910,2449 9890,2449 9846,2449 9820,2487 9820,2524 9820,2563 9849,2598 9889,2598 9906,2598 9923,2593 9940,2581 Z"/>
   </g>
  </g>
  <g class="com.sun.star.drawing.ClosedBezierShape">
   <g id="id53">
    <rect class="BoundingBox" stroke="none" fill="none" x="9962" y="2449" width="121" height="150"/>
    <path fill="rgb(0,0,0)" stroke="none" d="M 10082,2524 C 10082,2514 10082,2490 10070,2472 10057,2452 10038,2449 10026,2449 9992,2449 9962,2482 9962,2522 9962,2564 9993,2598 10031,2598 10051,2598 10069,2589 10081,2581 L 10079,2560 C 10059,2576 10039,2578 10031,2578 10006,2578 9986,2555 9985,2524 L 10082,2524 Z M 10064,2507 L 9987,2507 C 9992,2483 10009,2468 10026,2468 10043,2468 10060,2478 10064,2507 Z"/>
   </g>
  </g>
  <g class="com.sun.star.drawing.ClosedBezierShape">
   <g id="id54">
    <rect class="BoundingBox" stroke="none" fill="none" x="10102" y="2449" width="106" height="150"/>
    <path fill="rgb(0,0,0)" stroke="none" d="M 10207,2553 C 10207,2536 10196,2525 10195,2524 10183,2513 10175,2512 10159,2509 10142,2505 10126,2502 10126,2487 10126,2467 10150,2467 10154,2467 10164,2467 10181,2469 10198,2479 L 10202,2459 C 10186,2451 10173,2449 10157,2449 10149,2449 10104,2449 10104,2490 10104,2505 10113,2515 10121,2521 10131,2528 10137,2529 10156,2533 10167,2535 10185,2539 10185,2555 10185,2577 10160,2577 10156,2577 10129,2577 10112,2566 10106,2562 L 10102,2583 C 10112,2588 10130,2598 10156,2598 10162,2598 10179,2598 10192,2587 10202,2579 10207,2567 10207,2553 Z"/>
   </g>
  </g>
  <g class="com.sun.star.drawing.ClosedBezierShape">
   <g id="id55">
    <rect class="BoundingBox" stroke="none" fill="none" x="10225" y="2449" width="107" height="150"/>
    <path fill="rgb(0,0,0)" stroke="none" d="M 10330,2553 C 10330,2536 10319,2525 10318,2524 10306,2513 10297,2512 10282,2509 10264,2505 10250,2502 10250,2487 10250,2467 10272,2467 10276,2467 10287,2467 10303,2469 10321,2479 L 10325,2459 C 10309,2451 10296,2449 10280,2449 10272,2449 10227,2449 10227,2490 10227,2505 10236,2515 10245,2521 10254,2528 10261,2529 10278,2533 10290,2535 10308,2539 10308,2555 10308,2577 10283,2577 10278,2577 10253,2577 10234,2566 10229,2562 L 10225,2583 C 10235,2588 10253,2598 10279,2598 10284,2598 10302,2598 10315,2587 10325,2579 10330,2567 10330,2553 Z"/>
   </g>
  </g>
  <g class="com.sun.star.drawing.ClosedBezierShape">
   <g id="id56">
    <rect class="BoundingBox" stroke="none" fill="none" x="10455" y="2375" width="193" height="221"/>
    <path fill="rgb(0,0,0)" stroke="none" d="M 10647,2595 L 10564,2376 10537,2376 10455,2595 10478,2595 10502,2531 10594,2531 10618,2595 10647,2595 Z M 10587,2513 L 10509,2513 C 10525,2467 10513,2500 10529,2455 10536,2437 10546,2410 10548,2399 10549,2403 10551,2411 10558,2432 L 10587,2513 Z"/>
   </g>
  </g>
  <g class="com.sun.star.drawing.ClosedBezierShape">
   <g id="id57">
    <rect class="BoundingBox" stroke="none" fill="none" x="9350" y="2761" width="81" height="315"/>
    <path fill="rgb(0,0,0)" stroke="none" d="M 9430,3075 C 9415,3060 9375,3020 9375,2918 9375,2900 9376,2864 9389,2827 9402,2791 9420,2772 9430,2762 L 9411,2762 C 9401,2771 9380,2790 9365,2828 9352,2862 9350,2895 9350,2918 9350,3020 9396,3061 9411,3075 L 9430,3075 Z"/>
   </g>
  </g>
  <g class="com.sun.star.drawing.ClosedBezierShape">
   <g id="id58">
    <rect class="BoundingBox" stroke="none" fill="none" x="9461" y="2778" width="127" height="223"/>
    <path fill="rgb(0,0,0)" stroke="none" d="M 9587,2996 L 9587,2778 9564,2778 9564,2869 C 9547,2857 9529,2853 9518,2853 9487,2853 9461,2886 9461,2926 9461,2968 9485,3000 9516,3000 9527,3000 9545,2997 9563,2980 L 9563,2996 9587,2996 Z M 9563,2952 C 9563,2957 9562,2962 9552,2973 9545,2978 9537,2980 9529,2980 9510,2980 9487,2966 9487,2927 9487,2885 9514,2872 9532,2872 9546,2871 9556,2878 9563,2888 L 9563,2952 Z"/>
   </g>
  </g>
  <g class="com.sun.star.drawing.ClosedBezierShape">
   <g id="id59">
    <rect class="BoundingBox" stroke="none" fill="none" x="9627" y="2850" width="121" height="151"/>
    <path fill="rgb(0,0,0)" stroke="none" d="M 9747,2927 C 9747,2916 9746,2893 9733,2873 9720,2854 9701,2850 9690,2850 9655,2850 9627,2883 9627,2925 9627,2966 9657,3000 9695,3000 9714,3000 9732,2992 9745,2983 L 9744,2963 C 9723,2979 9702,2980 9695,2980 9670,2980 9650,2958 9649,2927 L 9747,2927 Z M 9728,2910 L 9650,2910 C 9655,2885 9672,2870 9690,2870 9706,2870 9724,2880 9728,2910 Z"/>
   </g>
  </g>
  <g class="com.sun.star.drawing.ClosedBezierShape">
   <g id="id60">
    <rect class="BoundingBox" stroke="none" fill="none" x="9784" y="2778" width="127" height="223"/>
    <path fill="rgb(0,0,0)" stroke="none" d="M 9910,2926 C 9910,2887 9888,2853 9859,2853 9846,2853 9826,2856 9807,2872 L 9807,2778 9784,2778 9784,2997 9808,2996 9808,2982 C 9816,2989 9829,3000 9850,3000 9883,3000 9910,2967 9910,2926 Z M 9885,2926 C 9885,2966 9859,2980 9839,2980 9826,2980 9816,2975 9808,2960 L 9808,2891 C 9813,2883 9824,2872 9842,2872 9861,2872 9885,2886 9885,2926 Z"/>
   </g>
  </g>
  <g class="com.sun.star.drawing.ClosedBezierShape">
   <g id="id61">
    <rect class="BoundingBox" stroke="none" fill="none" x="9949" y="2856" width="113" height="145"/>
    <path fill="rgb(0,0,0)" stroke="none" d="M 10061,2996 L 10061,2856 10036,2856 10036,2948 C 10036,2971 10018,2982 9998,2982 9976,2982 9974,2974 9974,2961 L 9974,2856 9949,2856 9949,2962 C 9949,2984 9956,3000 9982,3000 9999,3000 10021,2994 10037,2981 L 10037,2996 10061,2996 Z"/>
   </g>
  </g>
  <g class="com.sun.star.drawing.ClosedBezierShape">
   <g id="id62">
    <rect class="BoundingBox" stroke="none" fill="none" x="10098" y="2853" width="146" height="210"/>
    <path fill="rgb(0,0,0)" stroke="none" d="M 10243,2873 L 10239,2853 C 10216,2853 10198,2859 10189,2863 10182,2858 10171,2853 10159,2853 10132,2853 10109,2876 10109,2904 10109,2916 10113,2927 10119,2935 10110,2948 10110,2960 10110,2962 10110,2970 10113,2979 10118,2986 10102,2996 10098,3010 10098,3018 10098,3042 10129,3061 10168,3061 10206,3061 10238,3042 10238,3018 10238,2973 10185,2973 10173,2973 L 10145,2973 C 10141,2973 10127,2973 10127,2957 10127,2953 10128,2948 10130,2945 10137,2950 10147,2955 10159,2955 10187,2955 10209,2931 10209,2903 10209,2888 10202,2877 10199,2872 L 10200,2872 C 10207,2872 10216,2871 10223,2871 10230,2871 10243,2872 10243,2872 L 10243,2873 Z M 10187,2903 C 10187,2928 10172,2937 10159,2937 10147,2937 10131,2930 10131,2904 10131,2878 10147,2871 10159,2871 10172,2871 10187,2880 10187,2904 L 10187,2903 Z M 10215,3019 C 10215,3032 10194,3043 10168,3043 10142,3043 10120,3033 10120,3018 10120,3017 10120,2997 10145,2997 L 10173,2997 C 10180,2997 10215,2997 10215,3018 L 10215,3019 Z"/>
   </g>
  </g>
  <g class="com.sun.star.drawing.ClosedBezierShape">
   <g id="id63">
    <rect class="BoundingBox" stroke="none" fill="none" x="10259" y="2853" width="146" height="210"/>
    <path fill="rgb(0,0,0)" stroke="none" d="M 10404,2873 L 10400,2853 C 10378,2853 10359,2859 10349,2863 10343,2858 10332,2853 10320,2853 10293,2853 10270,2876 10270,2904 10270,2916 10274,2927 10280,2935 10271,2948 10271,2960 10271,2962 10271,2970 10274,2979 10279,2986 10263,2996 10259,3010 10259,3018 10259,3042 10290,3061 10328,3061 10367,3061 10399,3042 10399,3018 10399,2973 10346,2973 10333,2973 L 10306,2973 C 10302,2973 10288,2973 10288,2957 10288,2953 10289,2948 10291,2945 10298,2950 10308,2955 10320,2955 10348,2955 10371,2931 10371,2903 10371,2888 10363,2877 10360,2872 L 10361,2872 C 10369,2872 10377,2871 10385,2871 10391,2871 10404,2872 10404,2872 L 10404,2873 Z M 10348,2903 C 10348,2928 10333,2937 10320,2937 10308,2937 10292,2930 10292,2904 10292,2878 10308,2871 10320,2871 10333,2871 10348,2880 10348,2904 L 10348,2903 Z M 10377,3019 C 10377,3032 10354,3043 10329,3043 10303,3043 10281,3033 10281,3018 10281,3017 10281,2997 10306,2997 L 10334,2997 C 10341,2997 10377,2997 10377,3018 L 10377,3019 Z"/>
   </g>
  </g>
  <g class="com.sun.star.drawing.ClosedBezierShape">
   <g id="id64">
    <rect class="BoundingBox" stroke="none" fill="none" x="10422" y="2850" width="121" height="151"/>
    <path fill="rgb(0,0,0)" stroke="none" d="M 10542,2927 C 10542,2916 10542,2893 10530,2873 10517,2854 10498,2850 10486,2850 10451,2850 10422,2883 10422,2925 10422,2966 10453,3000 10491,3000 10511,3000 10529,2992 10541,2983 L 10539,2963 C 10519,2979 10498,2980 10491,2980 10466,2980 10446,2958 10445,2927 L 10542,2927 Z M 10524,2910 L 10447,2910 C 10452,2885 10468,2870 10486,2870 10503,2870 10520,2880 10524,2910 Z"/>
   </g>
  </g>
  <g class="com.sun.star.drawing.ClosedBezierShape">
   <g id="id65">
    <rect class="BoundingBox" stroke="none" fill="none" x="10578" y="2853" width="80" height="145"/>
    <path fill="rgb(0,0,0)" stroke="none" d="M 10657,2874 L 10657,2853 C 10629,2853 10612,2869 10601,2883 L 10601,2855 10579,2855 10579,2997 10604,2997 10604,2930 C 10604,2897 10626,2875 10657,2874 Z"/>
   </g>
  </g>
  <g class="com.sun.star.drawing.ClosedBezierShape">
   <g id="id66">
    <rect class="BoundingBox" stroke="none" fill="none" x="10681" y="2761" width="82" height="315"/>
    <path fill="rgb(0,0,0)" stroke="none" d="M 10761,2918 C 10761,2817 10716,2775 10700,2762 L 10681,2762 C 10696,2777 10737,2817 10737,2918 10737,2935 10736,2973 10723,3010 10710,3046 10691,3065 10681,3075 L 10700,3075 C 10711,3066 10732,3047 10746,3008 10759,2975 10761,2941 10761,2918 Z"/>
   </g>
  </g>
 </g>
</svg>